<svg width="479" height="285" viewBox="0 0 479 285" fill="none" xmlns="http://www.w3.org/2000/svg">
<path fill-rule="evenodd" clip-rule="evenodd" d="M174.785 144.25C190.939 159.319 191.819 184.63 176.75 200.785C148.731 230.821 135.647 244.459 122.614 258.044L122.576 258.083C109.726 271.477 96.9119 284.833 69.2498 314.488C54.1809 330.642 28.8696 331.522 12.7154 316.453C-3.43882 301.384 -4.31867 276.073 10.7502 259.918C38.7688 229.882 51.8526 216.244 64.8862 202.659L64.9235 202.62C77.7735 189.227 90.5879 175.87 118.25 146.215C133.319 130.061 158.63 129.181 174.785 144.25Z" fill="#434343"/>
<path fill-rule="evenodd" clip-rule="evenodd" d="M466.112 152.974C482.355 167.948 483.383 193.254 468.409 209.496L354.909 332.612C339.936 348.855 314.63 349.883 298.388 334.91C282.145 319.936 281.117 294.63 296.091 278.388L409.591 155.271C424.564 139.029 449.87 138.001 466.112 152.974Z" fill="#434343"/>
<path fill-rule="evenodd" clip-rule="evenodd" d="M296.907 10.5047C313.197 25.4269 314.306 50.7292 299.384 67.019L259.3 110.776C244.378 127.066 219.076 128.174 202.786 113.252C186.496 98.3298 185.388 73.0275 200.31 56.7377L240.393 12.981C255.315 -3.30882 280.617 -4.4175 296.907 10.5047Z" fill="#434343"/>
<path fill-rule="evenodd" clip-rule="evenodd" d="M425.61 33.1714C441.814 48.1869 442.777 73.4952 427.761 89.699L90.0026 454.188C74.9871 470.392 49.6788 471.355 33.475 456.34C17.2711 441.324 16.3078 416.016 31.3233 399.812L369.082 35.3231C384.098 19.1192 409.406 18.1559 425.61 33.1714Z" fill="#434343"/>
</svg>
