<svg width="272" height="297" viewBox="0 0 272 297" fill="none" xmlns="http://www.w3.org/2000/svg">
<rect x="21.2407" y="85.8448" width="8.82576" height="8.82576" rx="4.41288" transform="rotate(45 21.2407 85.8448)" fill="#EC5238" fill-opacity="0.3"/>
<rect x="265.076" y="115.525" width="8.82576" height="8.82576" rx="4.41288" transform="rotate(45 265.076 115.525)" fill="#EC5238" fill-opacity="0.3"/>
<rect x="247.725" width="8.82576" height="8.82576" rx="4.41288" transform="rotate(45 247.725 0)" fill="#C59368" fill-opacity="0.3"/>
<circle cx="236.69" cy="195.205" r="4.79452" fill="#C59368" fill-opacity="0.3"/>
<circle cx="109.749" cy="4.79452" r="4.79452" fill="#FACCC4"/>
<circle cx="244.68" cy="72.6028" r="3.19635" fill="#C59368" fill-opacity="0.3"/>
<path fill-rule="evenodd" clip-rule="evenodd" d="M112.204 104.723C120.838 112.745 121.308 126.22 113.254 134.82L37.0123 216.231C28.9584 224.831 15.4301 225.299 6.79613 217.277C-1.83788 209.255 -2.30813 195.78 5.74578 187.18L81.9877 105.769C90.0416 97.1694 103.57 96.701 112.204 104.723Z" fill="#F9F9F9"/>
<path fill-rule="evenodd" clip-rule="evenodd" d="M248.14 129.631C256.786 137.593 257.333 151.048 249.363 159.685L188.947 225.147C180.976 233.784 167.506 234.331 158.86 226.369C150.214 218.407 149.667 204.952 157.637 196.315L218.053 130.853C226.024 122.216 239.494 121.669 248.14 129.631Z" fill="#F9F9F9"/>
<path fill-rule="evenodd" clip-rule="evenodd" d="M158.081 53.6023C166.763 61.5603 167.354 75.0541 159.401 83.7415L138.039 107.077C130.086 115.764 116.6 116.356 107.919 108.398C99.2367 100.44 98.6458 86.9459 106.599 78.2585L127.961 54.9229C135.914 46.2355 149.4 45.6443 158.081 53.6023Z" fill="#F9F9F9"/>
<path fill-rule="evenodd" clip-rule="evenodd" d="M149.19 235.602C157.736 243.56 158.317 257.054 150.489 265.742L129.46 289.077C121.631 297.764 108.357 298.356 99.8104 290.398C91.2642 282.44 90.6826 268.946 98.5112 260.258L119.54 236.923C127.369 228.236 140.643 227.644 149.19 235.602Z" fill="#F9F9F9"/>
<path fill-rule="evenodd" clip-rule="evenodd" d="M226.191 65.6842C234.802 73.6904 235.314 87.1846 227.335 95.8245L47.8476 290.169C39.8683 298.808 26.4193 299.322 17.8085 291.316C9.19767 283.31 8.68575 269.815 16.6651 261.176L196.152 66.8314C204.132 58.1916 217.581 57.678 226.191 65.6842Z" fill="#F9F9F9"/>
</svg>
