<svg width="124" height="27" viewBox="0 0 124 27" fill="none" xmlns="http://www.w3.org/2000/svg">
<path fill-rule="evenodd" clip-rule="evenodd" d="M12.0375 8.15341H7.64385L6.78696 16.4515H11.1438L12.0375 8.15341ZM13.4895 8.15341L12.5958 16.4515H17.8576L17.7465 17.6941H12.4832L11.5895 25.8115H10.1371L11.0308 17.6941H6.63944L5.78332 25.8115H4.33091L5.2242 17.6941H0L0.110741 16.4515H5.33494L6.22861 8.15341H0.967243L1.07798 6.90963H6.34168L7.04833 0.182373H8.50035L7.79177 6.90963H12.1482L12.8549 0.182373H14.3069L13.6006 6.90963H18.8643L18.7509 8.15341H13.4895Z" fill="#EC5238"/>
<path fill-rule="evenodd" clip-rule="evenodd" d="M26.0702 3.87416V22.1532H28.3791C29.6832 22.1532 30.4635 21.4961 30.4635 19.6679V6.36019C30.4635 4.53236 29.6832 3.87416 28.3791 3.87416H26.0702ZM21.9771 0.218506H28.4519C32.5478 0.218506 34.559 2.44825 34.559 6.54347V19.4847C34.559 23.5787 32.5478 25.8104 28.4519 25.8104H21.9771V0.218506Z" fill="#EC5238"/>
<path fill-rule="evenodd" clip-rule="evenodd" d="M37.1619 0.218506H41.2574V25.8104H37.1619V0.218506Z" fill="#EC5238"/>
<path fill-rule="evenodd" clip-rule="evenodd" d="M48.3287 11.0026H53.9505V14.6582H48.3287V22.1532H55.4022V25.8104H44.2324V0.218506H55.4022V3.87416H48.3287V11.0026Z" fill="#EC5238"/>
<path fill-rule="evenodd" clip-rule="evenodd" d="M69.2851 0.218506V3.80116L61.5042 22.1532H69.2851V25.8104H57.2976V22.2273L65.0785 3.87416H57.6693V0.218506H69.2851Z" fill="#EC5238"/>
<path fill-rule="evenodd" clip-rule="evenodd" d="M76.2068 25.8104V1.75431H70.8823V0.218506H83.2048V1.75431H77.9194V25.8104H76.2068Z" fill="#EC5238"/>
<path fill-rule="evenodd" clip-rule="evenodd" d="M94.2583 12.0631V13.5989H87.148V24.2742H95.7114V25.8104H85.4365V0.218506H95.7114V1.75431H87.148V12.0631H94.2583Z" fill="#EC5238"/>
<path fill-rule="evenodd" clip-rule="evenodd" d="M109.632 6.46984V8.59121H107.994V6.36109C107.994 3.61877 106.913 1.53466 104.048 1.53466C101.18 1.53466 100.102 3.61915 100.102 6.36109V19.6688C100.102 22.41 101.18 24.4569 104.048 24.4569C106.913 24.4569 107.994 22.41 107.994 19.6688V16.6345H109.632V19.5586C109.632 23.2519 107.994 26.0299 104.01 26.0299C100.025 26.0299 98.3894 23.2519 98.3894 19.5586L98.3898 6.46984C98.3898 2.77844 100.025 0 104.01 0C107.994 0 109.632 2.77844 109.632 6.46984Z" fill="#EC5238"/>
<path fill-rule="evenodd" clip-rule="evenodd" d="M114.132 13.781V25.8104H112.421V0.218506H114.132V12.2464H122.249V0.218506H124V25.8104H122.249V13.781H114.132Z" fill="#EC5238"/>
</svg>
