<svg width="39" height="39" viewBox="0 0 39 39" fill="none" xmlns="http://www.w3.org/2000/svg">
<circle cx="19.5" cy="19.5" r="19.5" fill="white"/>
<path d="M25.1303 22.5864C26.142 23.1504 26.9851 23.8848 27.5472 24.8685C27.7158 25.1701 27.8563 25.4849 27.9547 25.8259C28.053 26.1538 28.0109 26.2849 27.6315 26.2194C27.5191 26.1931 27.4067 26.1931 27.2802 26.18C25.7205 26.1013 25.7907 26.1144 25.9172 27.5047C26.0858 29.4195 25.5659 31.1638 24.0343 32.5541C23.6971 32.8557 23.5565 32.9738 23.416 32.3967C23.0366 30.9015 21.5331 29.6818 20.0436 29.5507C18.3013 29.3933 16.7134 30.2064 15.9687 31.636C15.7579 32.0426 15.6174 32.4623 15.5612 33C13.7064 31.518 12.9476 29.7343 13.1443 27.5834C13.1584 27.4129 13.2005 27.2424 13.2286 27.0719C13.3411 26.2194 13.327 26.2062 12.4137 26.18C12.245 26.18 12.0905 26.18 11.9218 26.18C10.8399 26.2194 10.8258 26.2062 11.2895 25.2488C11.7532 24.2521 12.4699 23.4258 13.4675 22.8487C13.861 22.6126 13.8891 22.4553 13.5659 22.1274C12.3012 20.8552 11.4722 19.3863 11.2614 17.6419C10.8961 14.6516 11.964 12.2253 14.4933 10.3629C15.238 9.81205 15.1678 8.78905 14.3528 8.29066C14.0015 8.08082 13.7064 7.79228 14.0015 7.3857C14.1982 7.1234 14.4511 6.86109 14.8727 7.08405C15.3223 7.32013 15.4488 7.67424 15.1678 8.0677C14.7462 8.68412 15.4207 8.94643 15.6174 9.35301C15.8282 9.79893 16.1373 9.41858 16.3762 9.33989C18.4699 8.69724 20.5636 8.68412 22.6713 9.32678C22.9102 9.39235 23.2193 9.73335 23.402 9.4317C23.6549 9.03824 24.1748 8.71036 23.9359 8.12016C23.7673 7.71359 23.683 7.2939 24.231 7.07094C24.6104 6.91355 24.9617 7.05782 25.1022 7.39882C25.2849 7.83163 25.0601 8.12016 24.6104 8.33001C23.9359 8.65789 23.8516 9.81205 24.4699 10.2449C26.0296 11.3597 27.1818 12.7761 27.6455 14.5598C28.3762 17.4058 27.6736 19.9371 25.5659 22.1143C25.3832 22.2585 25.1865 22.3634 25.1303 22.5864ZM19.4254 10.8482C17.4722 10.9137 15.5893 11.4252 14.1139 12.8679C13.5378 13.4319 13.1724 14.1139 13.2567 14.927C13.327 15.5041 13.6502 15.7795 14.2966 15.714C14.9289 15.6484 15.519 15.4385 16.1092 15.2418C18.3434 14.4811 20.5636 14.4811 22.8118 15.2287C23.3739 15.4123 23.964 15.5959 24.5542 15.6877C25.3551 15.8189 25.6924 15.5435 25.7205 14.7828C25.7486 13.8122 25.2006 13.0909 24.4558 12.4876C23.0507 11.3859 21.3785 10.9269 19.4254 10.8482Z" fill="#333333"/>
<path d="M20.8165 13.445C20.4933 13.4057 20.2544 13.2483 20.1701 12.9466C20.0858 12.6318 20.1982 12.3695 20.4933 12.2384C20.6619 12.1597 21.0554 11.9236 20.9289 12.4482C20.9008 12.5794 20.9851 12.6318 21.0835 12.6974C21.2099 12.7892 21.5893 12.5532 21.4769 12.9466C21.4067 13.2745 21.1537 13.4057 20.8165 13.445Z" fill="#333333"/>
<path d="M18.1748 13.4581C17.7251 13.4057 17.4582 13.1827 17.4582 12.7368C17.4582 12.6318 17.5144 12.5269 17.5706 12.4351C17.6689 12.2646 17.9781 12.2646 17.9781 12.3171C18.0202 12.8023 18.8071 12.54 18.7931 12.9991C18.765 13.2745 18.498 13.4188 18.1748 13.4581Z" fill="#333333"/>
</svg>
