<svg width="198" height="108" viewBox="0 0 198 108" fill="none" xmlns="http://www.w3.org/2000/svg">
<path d="M39.119 98.8531C38.8071 97.8024 38.109 96.9085 37.1649 96.3505C36.8442 96.1765 36.5035 96.042 36.1503 95.9501C35.4057 95.7666 34.6276 95.7666 33.8831 95.9501C33.5299 96.042 33.1892 96.1765 32.8684 96.3505C32.5561 96.5275 32.2695 96.7464 32.0167 97.0012C31.7573 97.2469 31.53 97.5244 31.3403 97.827C31.1526 98.1305 31.0092 98.4591 30.9144 98.803C30.8136 99.1614 30.763 99.532 30.7641 99.9042C30.764 100.276 30.8145 100.647 30.9144 101.005C31.0092 101.349 31.1526 101.678 31.3403 101.981C31.5268 102.286 31.7544 102.564 32.0167 102.807C32.2729 103.058 32.5589 103.277 32.8684 103.458C33.1892 103.632 33.5299 103.766 33.8831 103.858C34.6255 104.059 35.4078 104.059 36.1503 103.858C36.5035 103.766 36.8442 103.632 37.1649 103.458C37.4723 103.273 37.758 103.055 38.0167 102.807C38.2789 102.564 38.5065 102.286 38.6931 101.981C38.8753 101.675 39.0183 101.347 39.119 101.005C39.2229 100.647 39.2777 100.277 39.2818 99.9042C39.2741 99.5482 39.2193 99.1948 39.119 98.8531ZM37.5782 101.105C37.309 101.776 36.7874 102.315 36.1252 102.607C35.7772 102.757 35.402 102.834 35.0229 102.832C34.6436 102.836 34.2679 102.759 33.9206 102.607C33.5851 102.465 33.2792 102.261 33.0188 102.006C32.766 101.742 32.5662 101.432 32.43 101.093C32.2685 100.74 32.1913 100.355 32.2046 99.9667C32.1957 99.5793 32.2727 99.1948 32.43 98.8406C32.5693 98.503 32.7688 98.1935 33.0188 97.9271C33.2825 97.6765 33.5876 97.4733 33.9206 97.3265C34.2679 97.174 34.6436 97.0972 35.0229 97.1013C35.402 97.0998 35.7772 97.1765 36.1252 97.3265C36.4562 97.4703 36.7577 97.6739 37.0146 97.9271C37.2605 98.1966 37.4519 98.511 37.5782 98.8531C37.7238 99.2109 37.8002 99.593 37.8037 99.9793C37.8027 100.366 37.7261 100.748 37.5782 101.105Z" fill="#597954"/>
<path d="M47.1107 100.993C47.3421 100.899 47.5609 100.777 47.762 100.63C47.9565 100.482 48.1221 100.3 48.2505 100.092C48.4009 99.8938 48.5115 99.6686 48.5762 99.4286C48.647 99.1674 48.6848 98.8984 48.6889 98.6278C48.6887 98.2748 48.6162 97.9257 48.476 97.6017C48.3473 97.2941 48.1552 97.017 47.9123 96.7884C47.6592 96.5644 47.3659 96.3904 47.048 96.2753C46.6976 96.1533 46.3294 96.0898 45.9582 96.0876H42.3257V103.946H43.7662V101.18H45.6701L47.1983 103.921H48.8518L47.1107 100.993ZM46.4342 99.8541C46.2658 99.9155 46.0874 99.9451 45.9081 99.9417H43.7662V97.3139H45.8956C46.075 97.3092 46.2536 97.339 46.4217 97.4015C46.5845 97.4595 46.7327 97.5522 46.856 97.6732C46.9793 97.7943 47.0748 97.9407 47.1357 98.1022C47.2069 98.2685 47.2452 98.447 47.2484 98.6278C47.2436 98.8165 47.2055 99.0029 47.1357 99.1784C47.0738 99.3301 46.9798 99.4667 46.8601 99.5788C46.7363 99.6959 46.5919 99.7892 46.4342 99.8541Z" fill="#597954"/>
<path d="M55.6785 99.7915V100.83H57.8205C57.7855 101.118 57.7007 101.397 57.5699 101.656C57.449 101.897 57.2782 102.111 57.0689 102.282C56.8475 102.469 56.5925 102.614 56.3173 102.707C55.9919 102.802 55.6542 102.848 55.3152 102.845C54.9429 102.846 54.5749 102.765 54.238 102.607C53.8985 102.468 53.5904 102.263 53.3322 102.003C53.0739 101.743 52.8708 101.433 52.7349 101.093C52.5852 100.737 52.5127 100.353 52.5219 99.9666C52.5149 99.5806 52.5873 99.1973 52.7349 98.8405C52.8786 98.5023 53.0823 98.1929 53.3361 97.927C53.5998 97.6764 53.905 97.4732 54.238 97.3264C54.5759 97.1725 54.9439 97.0955 55.3152 97.1012C55.5388 97.0992 55.7617 97.1244 55.9791 97.1762C56.1758 97.234 56.3683 97.3051 56.5553 97.389C56.7335 97.4618 56.8985 97.5633 57.0438 97.6893C57.1313 97.7598 57.215 97.835 57.2944 97.9145L58.3967 97.1262C58.001 96.7174 57.5228 96.3975 56.9937 96.1877C56.4605 95.9736 55.8899 95.8673 55.3152 95.8749C54.5707 95.8663 53.8367 96.0518 53.1858 96.413C52.8717 96.593 52.5813 96.8116 52.3215 97.0636C52.0657 97.3127 51.8388 97.5897 51.6451 97.8895C51.468 98.1984 51.3252 98.5257 51.2192 98.8655C51.1288 99.2256 51.0825 99.5954 51.0814 99.9666C51.0832 100.338 51.1295 100.708 51.2192 101.068C51.3252 101.408 51.468 101.735 51.6451 102.044C51.8356 102.346 52.0628 102.623 52.3215 102.87C52.5846 103.118 52.8745 103.336 53.1858 103.52C53.8389 103.878 54.5707 104.067 55.3152 104.071C55.8748 104.077 56.4294 103.966 56.9436 103.746C57.4192 103.547 57.8464 103.248 58.1962 102.87C58.5619 102.478 58.8395 102.013 59.0104 101.506C59.2013 100.951 59.2821 100.365 59.2484 99.779L55.6785 99.7915Z" fill="#597954"/>
<path d="M65.9999 96.05H64.6346L61.3778 103.921H62.8809L63.4947 102.419H67.1273L67.7411 103.921H69.2693L65.9999 96.05ZM63.9958 101.18L65.2484 98.1522H65.3486L66.6012 101.18H63.9958Z" fill="#597954"/>
<path d="M77.7244 96.0627V101.431L73.1398 96.0627H71.8872V103.921H73.3277V98.5528L77.8872 103.921H79.1398V96.0627H77.7244Z" fill="#597954"/>
<path d="M81.8455 96.0627V103.921H83.286V96.0627H81.8455Z" fill="#597954"/>
<path d="M92.5804 101.906C92.4043 102.104 92.202 102.277 91.9791 102.419C91.7546 102.555 91.515 102.664 91.2651 102.745C91.007 102.81 90.7421 102.843 90.476 102.845C89.7301 102.838 89.0161 102.541 88.4843 102.019C88.2278 101.755 88.0238 101.445 87.8831 101.106C87.7291 100.75 87.6523 100.366 87.6576 99.9794C87.6549 99.5925 87.7316 99.2092 87.8831 98.8532C88.0268 98.5151 88.2305 98.2056 88.4843 97.9397C88.7436 97.6836 89.0498 97.4797 89.3862 97.3391C89.7295 97.188 90.1009 97.1112 90.476 97.1139C90.7441 97.1116 91.0108 97.1539 91.2651 97.239C91.5205 97.3096 91.7649 97.4148 91.9916 97.5518C92.2135 97.691 92.4122 97.8642 92.5804 98.0649C92.7079 98.2161 92.8134 98.3846 92.8935 98.5654H94.4217C94.2973 98.1807 94.1066 97.8208 93.858 97.5018C93.5905 97.1485 93.2643 96.8438 92.8935 96.6008C92.5331 96.3665 92.1408 96.1853 91.7286 96.0628C91.3217 95.9442 90.8998 95.8852 90.476 95.8876C90.0957 95.8824 89.7165 95.9287 89.3486 96.0252C88.9954 96.1172 88.6547 96.2517 88.334 96.4257C88.016 96.5998 87.7249 96.8189 87.4697 97.0763C86.9746 97.5684 86.6162 98.1808 86.43 98.8532C86.3192 99.2097 86.2643 99.5811 86.2672 99.9543C86.2651 100.328 86.32 100.699 86.43 101.055C86.5249 101.399 86.6683 101.728 86.8559 102.032C87.034 102.339 87.2579 102.617 87.5198 102.857C87.778 103.111 88.0686 103.33 88.3841 103.508C88.7048 103.682 89.0455 103.817 89.3987 103.908C89.766 104.009 90.1452 104.06 90.5261 104.059C90.9505 104.057 91.3724 103.993 91.7787 103.871C92.1914 103.744 92.5837 103.559 92.9436 103.32C93.3144 103.077 93.6407 102.773 93.9081 102.419C94.1419 102.116 94.3278 101.778 94.4593 101.418H92.881C92.7998 101.592 92.6989 101.756 92.5804 101.906Z" fill="#597954"/>
<path d="M107.724 97.314V96.0627H102.338V103.921H103.779V100.893H106.885V99.6415H103.766V97.314H107.724Z" fill="#597954"/>
<path d="M118.033 98.8531C117.939 98.5092 117.795 98.1805 117.607 97.8771C117.422 97.5716 117.194 97.2936 116.931 97.0512C116.678 96.7965 116.392 96.5776 116.079 96.4005C115.759 96.2265 115.418 96.0921 115.065 96.0001C114.32 95.8167 113.542 95.8167 112.797 96.0001C112.444 96.0921 112.104 96.2265 111.783 96.4005C111.473 96.5808 111.187 96.7994 110.931 97.0512C110.675 97.3003 110.448 97.5773 110.255 97.8771C110.071 98.1812 109.932 98.5099 109.841 98.8531C109.736 99.2109 109.682 99.5814 109.678 99.9542C109.683 100.327 109.737 100.697 109.841 101.055C109.932 101.399 110.071 101.727 110.255 102.031C110.445 102.333 110.672 102.611 110.931 102.857C111.19 103.105 111.475 103.324 111.783 103.508C112.104 103.682 112.444 103.816 112.797 103.908C113.54 104.109 114.322 104.109 115.065 103.908C115.418 103.816 115.759 103.682 116.079 103.508C116.389 103.327 116.675 103.108 116.931 102.857C117.197 102.618 117.425 102.339 117.607 102.031C117.795 101.728 117.939 101.399 118.033 101.055C118.143 100.699 118.198 100.327 118.196 99.9542C118.199 99.581 118.144 99.2095 118.033 98.8531ZM116.493 101.105C116.357 101.445 116.157 101.755 115.904 102.019C115.643 102.274 115.338 102.477 115.002 102.62C114.654 102.77 114.279 102.846 113.9 102.845C113.343 102.847 112.798 102.683 112.336 102.373C111.873 102.063 111.515 101.621 111.307 101.105C111.153 100.75 111.076 100.366 111.081 99.9793C111.082 99.2181 111.379 98.487 111.908 97.9396C112.165 97.6864 112.467 97.4828 112.797 97.339C113.145 97.1876 113.521 97.1109 113.9 97.1138C114.279 97.1123 114.654 97.189 115.002 97.339C115.335 97.4858 115.64 97.689 115.904 97.9396C116.154 98.206 116.353 98.5155 116.493 98.8531C116.644 99.2091 116.721 99.5924 116.718 99.9793C116.723 100.366 116.647 100.75 116.493 101.105Z" fill="#597954"/>
<path d="M128.931 98.853C128.836 98.5091 128.693 98.1805 128.505 97.877C128.311 97.5773 128.085 97.3002 127.829 97.0512C127.573 96.7994 127.287 96.5808 126.977 96.4005C126.653 96.2244 126.308 96.0898 125.95 96.0001C125.21 95.8167 124.436 95.8167 123.695 96.0001C123.342 96.092 123.001 96.2265 122.681 96.4005C122.368 96.5775 122.082 96.7964 121.829 97.0512C121.569 97.2969 121.342 97.5744 121.152 97.877C120.965 98.1805 120.821 98.5091 120.726 98.853C120.626 99.2114 120.575 99.582 120.576 99.9542C120.576 100.326 120.627 100.697 120.726 101.055C120.821 101.399 120.965 101.728 121.152 102.031C121.339 102.336 121.567 102.614 121.829 102.857C122.085 103.108 122.371 103.327 122.681 103.508C123.001 103.682 123.342 103.816 123.695 103.908C124.433 104.109 125.212 104.109 125.95 103.908C126.308 103.819 126.653 103.684 126.977 103.508C127.284 103.323 127.57 103.105 127.829 102.857C128.087 102.611 128.315 102.333 128.505 102.031C128.693 101.728 128.836 101.399 128.931 101.055C129.035 100.697 129.09 100.327 129.094 99.9542C129.091 99.5814 129.036 99.2108 128.931 98.853ZM127.428 101.08C127.292 101.423 127.087 101.733 126.827 101.994C126.431 102.392 125.924 102.662 125.372 102.769C124.82 102.876 124.249 102.815 123.733 102.594C123.397 102.453 123.092 102.246 122.836 101.986C122.58 101.726 122.378 101.418 122.242 101.08C122.081 100.728 122.003 100.342 122.017 99.9542C122.008 99.5668 122.085 99.1822 122.242 98.828C122.381 98.4874 122.585 98.1771 122.843 97.9146C123.1 97.6614 123.402 97.4577 123.733 97.3139C124.079 97.1656 124.452 97.0891 124.829 97.0891C125.206 97.0891 125.579 97.1656 125.925 97.3139C126.264 97.4525 126.572 97.658 126.831 97.9182C127.089 98.1783 127.292 98.4877 127.428 98.828C127.573 99.1859 127.65 99.568 127.653 99.9542C127.656 100.349 127.579 100.74 127.428 101.105V101.08Z" fill="#597954"/>
<path d="M138.852 98.3025C138.66 97.8264 138.365 97.399 137.987 97.0512C137.601 96.7128 137.149 96.4573 136.66 96.3004C136.127 96.1208 135.568 96.0319 135.006 96.0376H131.524V103.896H135.056C135.657 103.903 136.255 103.806 136.822 103.608C137.291 103.43 137.717 103.158 138.075 102.807C138.436 102.458 138.711 102.03 138.877 101.556C139.07 101.044 139.163 100.501 139.152 99.9542C139.164 99.389 139.062 98.8273 138.852 98.3025ZM137.599 101.13C137.484 101.447 137.3 101.733 137.06 101.969C136.821 102.208 136.53 102.388 136.209 102.494C135.832 102.614 135.439 102.673 135.044 102.67H133.002V97.3139H135.044C135.469 97.3014 135.893 97.365 136.296 97.5016C136.617 97.6219 136.907 97.8097 137.148 98.0522C137.381 98.2941 137.556 98.5848 137.662 98.9031C137.769 99.2603 137.824 99.6312 137.825 100.004C137.795 100.392 137.702 100.773 137.549 101.13H137.599Z" fill="#597954"/>
<path d="M150.451 107.95C152.204 108.088 153.967 107.945 155.674 107.525C162.225 105.873 168.777 99.8793 167.712 93.9105C167.359 92.2249 166.539 90.6725 165.344 89.4309C165.038 90.8378 164.554 92.2001 163.904 93.4851C161.987 97.3016 156.388 99.8918 156.388 99.8918C158.447 98.2624 160.151 96.2316 161.399 93.923C162.324 92.3362 162.916 90.5779 163.14 88.7552C163.14 88.5925 163.14 88.4298 163.14 88.2546C158.106 90.5015 154.107 94.5637 151.942 99.629C150.892 102.275 150.386 105.105 150.451 107.95Z" fill="#597954"/>
<path d="M198 85.9146C196.715 87.7274 195.141 89.3168 193.34 90.6195C186.426 95.6247 175.303 97.0512 170.405 91.1826C169.061 89.4657 168.228 87.4062 168 85.2389C169.613 86.0831 171.326 86.722 173.098 87.1409C178.359 88.3922 185.361 85.1388 185.361 85.1388C182.109 85.8085 178.755 85.8085 175.503 85.1388C173.219 84.7274 171.042 83.8592 169.102 82.5862L168.589 82.2233C174.835 79.2062 181.988 78.6435 188.63 80.6466C192.074 81.761 195.26 83.5521 198 85.9146Z" fill="#597954"/>
<path d="M47.1483 0.000121407C45.3943 -0.106705 43.6346 0.0707722 41.9374 0.525669C35.4113 2.29001 28.9729 8.40888 30.1504 14.3526C30.5312 16.0202 31.3681 17.5494 32.5679 18.7697C32.8465 17.3572 33.3053 15.9862 33.9332 14.6904C35.8372 10.8865 41.3362 8.18365 41.3362 8.18365C39.3062 9.85486 37.6359 11.9193 36.4259 14.2525C35.5339 15.8561 34.9717 17.6216 34.7725 19.4454C34.7725 19.608 34.7725 19.7707 34.7725 19.9459C39.7487 17.5999 43.6576 13.4673 45.7203 8.37134C46.7504 5.70399 47.2359 2.85774 47.1483 0.000121407Z" fill="#597954"/>
<path d="M0 22.9115C1.2517 21.0752 2.79617 19.4563 4.57203 18.119C11.3987 13.0137 22.547 11.362 27.5574 17.1555C28.9272 18.8477 29.795 20.8894 30.0626 23.0491C28.4161 22.2509 26.6791 21.6543 24.8894 21.2723C19.6033 20.1336 12.6514 23.4871 12.6514 23.4871C15.9018 22.7475 19.2692 22.6794 22.547 23.2869C24.8429 23.6392 27.0424 24.4567 29.0104 25.6894L29.524 26.0398C23.3231 29.1747 16.1679 29.8627 9.48225 27.9668C6.01566 26.9302 2.79166 25.2114 0 22.9115H0Z" fill="#597954"/>
<path d="M45.2318 37.5393H57.1691C57.2305 39.524 56.916 41.5023 56.2422 43.3704C55.6378 45.078 54.6917 46.6448 53.4614 47.9752C52.2464 49.2783 50.7695 50.3103 49.1274 51.0033C47.3677 51.7428 45.4747 52.1133 43.5658 52.092C42.2507 52.0991 40.9406 51.9308 39.6702 51.5915C37.2375 50.9387 35.0098 49.6818 33.1942 47.9376C32.3038 47.0812 31.5327 46.109 30.9019 45.0471C30.2666 43.977 29.7739 42.8286 29.4363 41.6311C28.7346 39.135 28.7346 36.4942 29.4363 33.9981C30.1016 31.5943 31.3992 29.4124 33.1942 27.679C34.0869 26.8194 35.0843 26.0753 36.1629 25.4642C37.2641 24.8368 38.4434 24.3571 39.6702 24.0378C40.94 23.6942 42.2502 23.5216 43.5658 23.5247C45.5621 23.504 47.5417 23.8906 49.3833 24.6609C51.2248 25.4312 52.8896 26.5689 54.2756 28.0044L51.833 29.7687C51.833 29.7687 51.0063 28.9679 50.5804 28.605C49.284 27.6552 47.8104 26.9745 46.2464 26.6029C43.8733 26.0703 41.3937 26.28 39.1441 27.2035C36.3859 28.3542 34.1876 30.5368 33.0188 33.2849C32.2673 35.0345 31.9628 36.9432 32.1328 38.8395C32.3029 40.7358 32.9421 42.5601 33.9929 44.1484C35.0438 45.7367 36.4734 47.0392 38.1531 47.9387C39.8328 48.8382 41.71 49.3065 43.6159 49.3016C45.0249 49.3202 46.4255 49.0828 47.7495 48.6008C50.0658 47.7549 51.9528 46.0274 52.9979 43.7958C53.5351 42.6077 53.8737 41.3395 54 40.0419H45.2318V37.5393Z" fill="#597954"/>
<path d="M74.8309 41.2181H66.3883V51.5789H63.2443V24.1628H75.1566C76.3863 24.1482 77.6084 24.3559 78.7641 24.776C79.8195 25.1604 80.7896 25.747 81.6201 26.5028C82.4284 27.2601 83.0648 28.1818 83.4864 29.2056C83.9459 30.3156 84.1719 31.5082 84.1503 32.7092C84.1623 33.681 84.0185 34.6484 83.7244 35.5747C83.4398 36.4226 83.0165 37.2175 82.4718 37.9272C81.9482 38.6315 81.3036 39.2374 80.5679 39.7165C79.7948 40.2137 78.9498 40.5893 78.0626 40.8302L84.6764 51.5789H81.0689L74.8309 41.2181ZM75.1566 38.4402C75.9602 38.4469 76.7582 38.307 77.5115 38.0273C78.196 37.7648 78.8188 37.3636 79.3405 36.8489C79.8622 36.3342 80.2716 35.7172 80.5428 35.0367C81.1356 33.5286 81.1356 31.8524 80.5428 30.3443C80.2606 29.653 79.8335 29.0301 79.2902 28.5174C78.7467 28.0005 78.103 27.6002 77.3988 27.3411C76.6485 27.0494 75.8489 26.905 75.0438 26.9157H66.3883V38.4152L75.1566 38.4402Z" fill="#597954"/>
<path d="M91.0647 24.1628H109.152V26.9783H94.2338V36.6258H104.818V39.4037H94.2338V48.801H109.265V51.6039H91.0647V24.1628Z" fill="#597954"/>
<path d="M115.816 24.1628H133.904V26.9783H118.998V36.6258H129.595V39.4037H118.998V48.801H134.104V51.6039H115.816V24.1628Z" fill="#597954"/>
<path d="M165.006 51.5789H162.313L143.749 29.7687V51.5789H140.58V24.1628H143.198L161.837 46.0356V24.1628H165.006V51.5789Z" fill="#597954"/>
<path d="M135.946 85.6018H133.365L115.516 64.6175V85.6018H112.459V59.2244H114.964L132.877 80.2588V59.2244H135.921L135.946 85.6018Z" fill="#597954"/>
<path d="M31.3152 59.2244H34.359V85.6018H31.3152V59.2244Z" fill="#597954"/>
<path d="M42.5887 78.0188C42.5726 78.7389 42.7453 79.4507 43.0897 80.0835C43.4634 80.7508 43.9608 81.3411 44.5553 81.8228C45.215 82.36 45.9602 82.783 46.7599 83.0741C47.6378 83.3783 48.5613 83.5307 49.4905 83.5245C51.4834 83.6654 53.4748 83.231 55.2275 82.2732C55.8595 81.864 56.3727 81.296 56.7157 80.6262C57.0586 79.9563 57.2193 79.2082 57.1816 78.4568C57.2113 77.6667 57.0018 76.8861 56.5803 76.2169C56.174 75.5896 55.6133 75.0769 54.9519 74.7279C54.1896 74.3129 53.3771 73.9975 52.5344 73.7894C51.6075 73.5517 50.6054 73.3389 49.5532 73.1512L47.5991 72.7258C46.898 72.6044 46.2039 72.4457 45.5198 72.2503C44.8465 72.0664 44.1923 71.8192 43.5657 71.512C42.9585 71.2209 42.4007 70.8367 41.9123 70.3734C41.4285 69.9068 41.0413 69.3498 40.7724 68.7341C40.4813 68.0109 40.3407 67.2361 40.359 66.4568C40.3543 65.4447 40.5325 64.44 40.8851 63.4912C41.2407 62.5341 41.8206 61.676 42.5761 60.9886C43.4602 60.2117 44.4969 59.6278 45.62 59.2743C47.1161 58.8136 48.677 58.5981 50.2421 58.6361C51.5163 58.6146 52.7856 58.8006 53.9999 59.1867C55.0283 59.5113 55.9849 60.0295 56.8183 60.7133C57.5862 61.3516 58.1987 62.1561 58.6096 63.0657C59.0274 64.0068 59.2368 65.027 59.2233 66.0564H56.1043C56.1165 65.3895 55.9705 64.7291 55.6784 64.1293C55.3768 63.5462 54.9489 63.0375 54.4258 62.6403C53.8448 62.2032 53.186 61.8805 52.4843 61.6893C51.6702 61.454 50.8266 61.3361 49.9791 61.3389C48.9018 61.3118 47.8272 61.4597 46.7974 61.7769C46.0533 61.9999 45.3656 62.3796 44.7807 62.8906C44.2998 63.3091 43.9333 63.8431 43.716 64.4422C43.5077 65.0027 43.4017 65.5961 43.4029 66.194C43.3808 66.8741 43.5736 67.544 43.954 68.1085C44.3641 68.6388 44.8914 69.067 45.4947 69.3598C46.2468 69.7257 47.0423 69.9948 47.8622 70.1606C48.7891 70.3483 49.7912 70.511 50.8935 70.6361C51.62 70.7738 52.359 70.9114 53.0981 71.0741C53.8328 71.237 54.5566 71.446 55.2651 71.6997C55.9458 71.9423 56.6005 72.2525 57.2192 72.6257C57.8173 72.9897 58.3542 73.4458 58.81 73.9771C59.2774 74.5295 59.6422 75.1609 59.8872 75.8415C60.1762 76.6434 60.3121 77.4923 60.288 78.3442C60.3062 79.4841 60.0529 80.6121 59.549 81.6351C59.0574 82.6324 58.3257 83.4923 57.4196 84.1377C56.3854 84.8478 55.2311 85.365 54.0125 85.6643C52.523 86.0435 50.9899 86.2244 49.453 86.2023C48.0139 86.226 46.5829 85.9842 45.2317 85.4891C44.0884 85.0597 43.0318 84.4282 42.1127 83.6247C41.2924 82.9033 40.6349 82.0162 40.1837 81.0219C39.748 80.1027 39.5212 79.0985 39.5198 78.0814L42.5887 78.0188Z" fill="#597954"/>
<path d="M65.5991 59.2244H68.6555V82.899H80.4175V85.6018H65.5991V59.2244Z" fill="#597954"/>
<path d="M97.7035 59.2244H94.6597L83.4739 85.6018H86.7181L89.3361 79.4329H102.977L105.595 85.6018H108.839L97.7035 59.2244ZM96.2004 76.7426H90.4509L96.0376 63.5789H96.2756L101.862 76.7426H96.2004Z" fill="#597954"/>
<path d="M141.808 59.2243H152.292C154.172 59.1909 156.044 59.4743 157.829 60.0627C159.44 60.5862 160.924 61.4384 162.188 62.5653C163.428 63.7233 164.403 65.1364 165.044 66.7071C165.756 68.4844 166.106 70.3862 166.071 72.3004C166.094 74.1334 165.789 75.9556 165.169 77.681C164.605 79.2505 163.702 80.6772 162.526 81.8604C161.3 83.0496 159.836 83.9664 158.23 84.5507C156.349 85.2209 154.363 85.5473 152.367 85.5142H141.808V59.2243ZM152.217 82.899C153.784 82.9274 155.344 82.6818 156.827 82.1732C158.093 81.7304 159.247 81.0173 160.209 80.0835C161.145 79.1575 161.86 78.0326 162.301 76.7926C162.794 75.4032 163.036 73.9372 163.015 72.4631C163.03 71.017 162.802 69.5787 162.338 68.2087C161.924 66.9385 161.224 65.7797 160.293 64.8211C159.362 63.8625 158.223 63.1294 156.964 62.6779C155.445 62.1232 153.835 61.8559 152.217 61.8896H144.864V82.899H152.217Z" fill="#597954"/>
</svg>
