<svg width="40" height="40" viewBox="0 0 40 40" fill="none" xmlns="http://www.w3.org/2000/svg">
<circle cx="20" cy="20" r="20" fill="white"/>
<path d="M16.2901 11.333C17.014 11.333 17.705 11.333 18.429 11.333C18.5935 11.333 18.6922 11.3964 18.758 11.555C20.8311 17.2326 22.9042 22.8784 25.0102 28.5559C25.0102 28.5877 25.0431 28.6194 25.0431 28.6828C25.1089 28.9048 25.076 28.9683 24.8127 28.9683C23.6281 28.9683 22.4435 28.9683 21.2589 28.9683C21.0614 28.9683 20.9956 28.8414 20.9298 28.7145C20.6666 27.9533 20.3704 27.1603 20.1072 26.3991C19.9426 25.9233 19.7452 25.4158 19.5807 24.9401C19.5478 24.8449 19.4819 24.8132 19.3832 24.8132C17.3431 24.8132 15.3029 24.8132 13.2627 24.8132C13.0653 24.8132 13.0653 24.9084 13.0324 25.0352C12.6375 26.2405 12.2426 27.4141 11.8477 28.6194C11.7161 28.9683 11.7161 29 11.3213 29C10.3341 29 9.31399 29 8.32681 29C7.99775 29 7.93193 28.9366 8.06356 28.6194C9.74176 23.9568 11.42 19.2942 13.0982 14.6317C13.2956 14.0607 13.4931 13.4581 13.7234 12.8555C13.855 12.4431 13.8879 12.0308 13.8879 11.6184C13.8879 11.4281 13.9537 11.3647 14.1512 11.3647C14.8422 11.333 15.5661 11.333 16.2901 11.333ZM16.2901 14.4414C15.6648 16.8202 14.8422 19.1039 14.1512 21.3876C15.599 21.3876 17.0469 21.3876 18.4948 21.3876C17.7379 19.0722 16.9482 16.8202 16.2901 14.4414Z" fill="#333333"/>
<path d="M26.8858 22.2758C26.8858 20.1506 26.8858 18.0572 26.8858 15.9321C26.8858 15.6149 26.8858 15.6149 27.2149 15.6149C28.3008 15.6149 29.3867 15.6149 30.4396 15.6149C30.7358 15.6149 30.7687 15.6467 30.7687 15.9004C30.7687 20.1506 30.7687 24.4009 30.7687 28.6511C30.7687 28.9366 30.7358 28.9683 30.4396 28.9683C29.3867 28.9683 28.3337 28.9683 27.2807 28.9683C26.9516 28.9683 26.8858 28.9366 26.8858 28.6194C26.8858 26.526 26.8858 24.4009 26.8858 22.2758Z" fill="#333333"/>
<path d="M28.7943 14.2193C27.511 14.2193 26.6555 13.3312 26.6884 11.9991C26.7213 10.8572 27.6755 9.96911 28.8931 10.0008C30.2093 10.0008 31.032 10.8572 30.999 12.2211C30.999 13.2678 30.1764 14.2828 28.7943 14.2193Z" fill="#333333"/>
</svg>
