<svg width="40" height="40" viewBox="0 0 40 40" fill="none" xmlns="http://www.w3.org/2000/svg">
<circle cx="20" cy="20" r="20" fill="white"/>
<path d="M10.0896 7.90046C13.6301 11.4156 17.1705 14.945 20.7399 18.4459C21.1301 18.8174 21.1879 19.0174 20.7399 19.4175C19.237 20.7607 17.8931 22.2468 16.6792 23.8472C16.3757 24.2473 16.0867 24.2616 15.6965 24.133C15.0751 23.9329 14.6272 23.5042 14.2659 22.9898C12.0549 19.7605 9.28035 16.9741 6.66474 14.0734C6.46243 13.8448 6.23121 13.6447 6 13.4161C6.8526 11.2156 8.28324 9.41511 10.0896 7.90046Z" fill="#333333"/>
<path d="M12.8353 6C16.1734 8.97215 19.396 12.0872 23.0954 14.645C23.3555 14.8164 23.5867 15.0308 23.7457 15.3023C24.2948 16.1453 24.2514 16.4311 23.4711 17.0455C23.0087 17.4171 22.5173 18.0744 22.0694 18.0458C21.6069 18.0172 21.2023 17.3027 20.7688 16.8884C17.4884 13.659 14.2081 10.4154 10.9133 7.17171C11.4624 6.62872 12.1127 6.24292 12.8353 6Z" fill="#333333"/>
<path d="M25.3353 17.6028C25.9711 19.3604 26.5925 21.0751 27.2139 22.7755C27.7196 24.1758 28.211 25.5762 28.7457 26.9765C28.9046 27.3766 28.7746 27.5909 28.5578 27.9482C27.9075 29.0199 27.185 28.9055 26.159 28.4912C23.4566 27.3909 20.711 26.4335 17.9798 25.4333C17.5896 25.2904 17.4306 25.1904 17.763 24.776C19.9162 22.0325 22.4595 19.7176 25.3353 17.6028Z" fill="#333333"/>
<path d="M31 29.7915C30.8988 30.3916 30.5231 30.6774 30.1185 30.9203C29.7861 31.1204 29.526 30.906 29.2948 30.6917C29.1792 30.5774 29.0636 30.4631 28.9335 30.3488C28.2688 29.6915 28.2543 29.6772 28.948 29.0199C29.1936 28.7912 29.4393 28.2911 29.7717 28.5197C30.2775 28.8484 30.7543 29.2628 31 29.7915Z" fill="#333333"/>
</svg>
