<svg width="190" height="55" viewBox="0 0 190 55" fill="none" xmlns="http://www.w3.org/2000/svg">
<g clip-path="url(#clip0_55_489)">
<path d="M85.0297 22.8736C86.0963 22.8736 86.9298 22.5738 87.5296 21.9737C88.1296 21.3735 88.4296 20.6181 88.4296 19.7069C88.4296 18.7292 88.1352 18.018 87.5464 17.5734C86.9574 17.129 86.1408 16.9068 85.0961 16.9068H79.1628V22.8736H85.0297ZM79.1628 8.33995V13.1399H84.9963C86.863 13.1399 87.7964 12.3399 87.7964 10.7398C87.7964 9.89542 87.5576 9.28439 87.0798 8.90658C86.602 8.52877 85.8185 8.33995 84.7295 8.33995H79.1628ZM74.6958 26.6405V4.50628H85.5963C87.7742 4.50628 89.4297 5.04511 90.5631 6.12293C91.6965 7.20076 92.2631 8.67301 92.2631 10.5397C92.2631 11.4953 92.0075 12.3455 91.4965 13.0897C90.9853 13.8343 90.3409 14.3622 89.5631 14.673C90.0298 14.8508 90.4685 15.0786 90.8797 15.3566C91.2907 15.6342 91.6465 15.99 91.9463 16.4232C92.2465 16.8566 92.4852 17.3675 92.663 17.9567C92.8409 18.5455 92.9298 19.2399 92.9298 20.0398C92.9298 22.0622 92.2519 23.6677 90.8965 24.8569C89.5408 26.0457 87.4628 26.6401 84.6627 26.6401H74.6957L74.6958 26.6405ZM106.931 4.50628H111.664V19.2735C111.664 21.9625 110.875 23.9904 109.297 25.3569C107.72 26.7237 105.475 27.4069 102.564 27.4069C99.8749 27.4069 97.747 26.7625 96.1802 25.4735C94.6134 24.1846 93.83 22.2066 93.83 19.5401V4.5061H98.5303V19.1067C98.5303 20.4844 98.8747 21.5734 99.5635 22.3736C100.253 23.1736 101.23 23.5734 102.497 23.5734C105.453 23.5734 106.93 22.1402 106.93 19.2733V4.5061L106.931 4.50628ZM117.864 8.33995V14.2399H123.665C124.909 14.2399 125.787 13.9623 126.298 13.4067C126.809 12.8513 127.065 12.1511 127.065 11.3066C127.065 10.44 126.815 9.72881 126.315 9.17319C125.815 8.61741 124.987 8.33995 123.831 8.33995H117.864ZM126.265 26.6405V20.9401C126.265 19.8735 126.02 19.1123 125.531 18.6567C125.043 18.2011 124.131 17.9734 122.798 17.9734H117.865V26.6405H113.364V4.50628H124.598C125.62 4.50628 126.548 4.66747 127.381 4.98986C128.215 5.3119 128.932 5.75649 129.532 6.32311C130.132 6.88991 130.593 7.56773 130.915 8.35656C131.237 9.1454 131.398 9.9956 131.398 10.9066C131.398 12.1065 131.115 13.1679 130.548 14.0899C129.982 15.0123 129.165 15.6624 128.098 16.0402C129.076 16.3514 129.77 16.829 130.182 17.4734C130.593 18.1179 130.798 19.0847 130.798 20.3737V26.6405H126.265H126.265ZM132.631 26.6405V4.50628H137.265V22.607H148.232V26.6403H132.631V26.6405ZM159.199 9.4732H159.166L156.332 18.2736H161.966L159.199 9.4732ZM164.699 26.6405L163.299 22.0736H155.132L153.566 26.6405H148.665L156.565 4.50628H161.932L169.732 26.6405H164.699H164.699ZM184.367 26.6405L177.8 16.6734L175.333 19.1069V26.6405H170.766V4.50628H175.333V13.5067L183.8 4.50628H189.8L181.067 13.2399L190 26.6403H184.367V26.6405ZM74.696 53.5671V31.4329H79.3295V53.5671H74.696ZM94.6968 53.5671L85.2299 38.7001V53.5671H80.9296V31.4329H85.8299L94.6302 45.6667V31.4329H98.9637V53.5671H94.6969H94.6968ZM120.131 45.9669C119.886 47.2335 119.497 48.3782 118.964 49.4004C118.431 50.4228 117.759 51.3004 116.948 52.0339C116.136 52.7673 115.198 53.3339 114.131 53.7339C113.064 54.1339 111.886 54.3339 110.597 54.3339C109.153 54.3339 107.803 54.0897 106.547 53.6007C105.292 53.1117 104.208 52.3783 103.297 51.4006C102.386 50.423 101.669 49.2173 101.147 47.7837C100.625 46.3505 100.364 44.6781 100.364 42.767C100.364 40.9003 100.603 39.2169 101.081 37.7168C101.558 36.2168 102.242 34.9502 103.131 33.9166C104.02 32.8833 105.103 32.0887 106.38 31.5333C107.658 30.9775 109.086 30.7 110.664 30.7C112.042 30.7 113.292 30.9055 114.414 31.3165C115.536 31.7275 116.503 32.2945 117.314 33.0165C118.125 33.7389 118.77 34.589 119.248 35.5666C119.726 36.5446 120.02 37.589 120.131 38.7001H115.498C115.187 37.4334 114.586 36.45 113.698 35.75C112.809 35.05 111.809 34.6998 110.698 34.6998C108.764 34.6998 107.342 35.3942 106.431 36.7832C105.52 38.1723 105.064 40.0777 105.064 42.5C105.064 44.9669 105.514 46.8834 106.414 48.2502C107.314 49.617 108.664 50.3002 110.464 50.3002C111.842 50.3002 112.948 49.928 113.781 49.1836C114.614 48.439 115.187 47.3669 115.498 45.9667H120.131L120.131 45.9669ZM120.331 53.5671V49.067H124.964V53.5671H120.331Z" fill="black"/>
<path fill-rule="evenodd" clip-rule="evenodd" d="M18.8431 4.01725C18.8431 1.80774 17.0353 0 14.8258 0H4.15854C1.94887 0 0.141296 1.80774 0.141296 4.01725C0.141296 6.22675 1.94887 8.03449 4.15854 8.03449H14.8258C17.0353 8.03449 18.8431 6.22675 18.8431 4.01725Z" fill="url(#paint0_linear_55_489)"/>
<path fill-rule="evenodd" clip-rule="evenodd" d="M65.5963 27.0515C65.5963 12.1731 53.4232 0 38.545 0H33.3594H28.7223H27.7417C25.4946 0 23.6561 1.83851 23.6561 4.08561C23.6561 6.3327 25.4946 8.17121 27.7417 8.17121H32.1778C34.019 8.31265 35.4814 9.86339 35.4814 11.7391C35.4814 13.7072 33.8711 15.3174 31.9032 15.3174H11.9059V15.3424C9.93403 15.6289 8.40654 17.3374 8.40654 19.3853C8.40654 21.4335 9.93403 23.1419 11.9059 23.4283V23.4778H18.0762C20.0443 23.4778 21.6545 25.0878 21.6545 27.056C21.6545 29.0243 20.0441 30.6346 18.0762 30.6346H3.97197C1.77698 30.6951 0.000183105 32.5095 0.000183105 34.7185C0.000183105 36.8409 1.64044 38.5983 3.71585 38.7869H18.0762C20.0443 38.7869 21.6545 40.397 21.6545 42.3652C21.6545 44.3334 20.0441 45.9438 18.0762 45.9438H11.0262C8.92159 46.1025 7.24864 47.8743 7.24864 50.0175V50.0177C7.24864 52.2646 9.08716 54.1029 11.3342 54.1029H11.9059H31.367H38.545C53.4232 54.1029 65.5963 41.9299 65.5963 27.0516V27.0515Z" fill="url(#paint1_linear_55_489)"/>
</g>
<defs>
<linearGradient id="paint0_linear_55_489" x1="1.43189" y1="0.126752" x2="1.43189" y2="9.40936" gradientUnits="userSpaceOnUse">
<stop stop-color="#6409ED"/>
<stop offset="1" stop-color="#DB0FC7"/>
</linearGradient>
<linearGradient id="paint1_linear_55_489" x1="4.52784" y1="-9.25601" x2="4.52784" y2="53.2486" gradientUnits="userSpaceOnUse">
<stop stop-color="#6409ED"/>
<stop offset="1" stop-color="#DB0FC7"/>
</linearGradient>
<clipPath id="clip0_55_489">
<rect width="190" height="54.3336" fill="white"/>
</clipPath>
</defs>
</svg>
