<svg width="190" height="57" viewBox="0 0 190 57" fill="none" xmlns="http://www.w3.org/2000/svg">
<g clip-path="url(#clip0_55_140)">
<path fill-rule="evenodd" clip-rule="evenodd" d="M0.0117188 51.4204H48.5516V56.9999H0.0117188V51.4204Z" fill="#82DE00"/>
<path fill-rule="evenodd" clip-rule="evenodd" d="M190 51.4204H48.5518V56.9999H190V51.4204Z" fill="#FE0090"/>
<path d="M82.3919 15.2981V15.1331H76.0276V15.2981C76.8686 15.2981 77.3688 16.2108 77.6152 16.9582C77.782 17.533 77.869 18.2804 77.869 18.9416V33.4423C74.8608 33.4423 73.0195 32.4433 71.0116 31.5309C68.9241 30.4459 66.7496 29.3895 62.908 29.3895C61.5668 29.3895 60.5667 29.6338 59.9795 29.792V18.2012C59.9795 16.8719 60.8129 15.2981 61.8205 15.2981V15.133H55.4563V15.2981C56.2899 15.2981 56.7972 16.2108 57.0436 16.9581C57.2974 17.533 57.2974 18.2804 57.2974 18.9415V40.6352C57.2974 41.8784 57.0436 42.7909 56.7104 43.4518C56.377 43.9478 55.9565 44.2782 55.4563 44.2782V44.4437H61.8205V44.2782C60.8128 44.2782 59.9795 42.7046 59.9795 41.3824V30.5319C60.3129 30.3668 61.3204 30.0363 62.908 30.0363C66.5031 30.0363 68.5906 31.035 70.5987 32.0267C72.5992 33.0254 74.607 34.0026 77.869 34.0026V40.6351C77.869 41.8784 77.6152 42.7909 77.2817 43.4517C76.9483 43.9478 76.4481 44.2781 76.0276 44.2781V44.4436H82.3919V44.2781C81.3844 44.2781 80.5508 42.7046 80.5508 41.3823V18.2011C80.5508 16.8719 81.3844 15.298 82.3919 15.298V15.2981ZM99.6797 44.4365C107.892 44.4365 114.489 37.9047 114.489 29.7775C114.489 21.6506 107.892 15.1186 99.6797 15.1186C91.467 15.1186 84.871 21.6506 84.871 29.7775C84.871 37.9047 91.467 44.4365 99.6797 44.4365ZM99.6797 43.876C93.0546 43.876 87.6108 37.5741 87.6108 29.7775C87.6108 21.9811 93.0546 15.6791 99.6797 15.6791C106.305 15.6791 111.749 21.9811 111.749 29.7775C111.749 37.5741 106.305 43.876 99.6797 43.876ZM130.385 44.4365C134.487 44.4365 140.417 42.0581 140.417 35.9213V18.1726C140.417 16.599 140.75 15.2768 141.75 15.2768V15.1115H138.344V15.2768H138.423C139.264 15.2768 139.598 16.103 139.764 17.0947V36.2519C139.764 40.7286 135.241 43.876 130.384 43.876C123.013 43.876 120.664 39.8161 120.664 36.2519V18.1726C120.664 16.8506 121.418 15.2768 122.505 15.2768V15.1115H116.141V15.2768C116.975 15.2768 117.482 16.1895 117.728 16.9294C117.895 17.5115 117.982 18.2589 117.982 18.9198V35.6698C117.982 42.8845 125.274 44.4365 130.384 44.4365H130.385ZM154.37 44.4365C157.045 44.4365 159.719 44.034 161.981 42.7119C163.742 41.7203 165.243 40.312 165.917 38.4006C166.163 37.7394 166.33 36.5752 166.33 35.828C166.33 25.5452 146.585 26.4578 146.585 20.5726C146.585 16.8361 151.609 15.6791 154.783 15.6791C157.799 15.6791 161.314 16.8361 162.989 18.9128C163.489 19.5739 164.322 20.8169 164.743 21.7296H165.076L164.409 18.3306L164.322 17.835C164.322 17.7487 163.822 17.4972 163.742 17.4182C163.235 17.0874 162.648 16.7568 162.068 16.5055C158.052 14.7882 153.109 14.5437 149.093 16.2539C146.839 17.1666 145.164 18.7475 145.164 21.3127C145.164 29.7775 164.997 28.6995 164.997 36.5752C164.997 38.7311 163.742 40.556 161.981 41.8855C160.394 43.1285 158.052 43.6244 155.957 43.7896C154.537 43.9549 152.942 43.7896 151.441 43.6243C150.434 43.459 149.68 43.215 148.76 42.7979C146.919 41.8855 145.585 40.3119 144.831 38.4866L144.577 37.9047H144.244L144.744 41.3034L144.831 41.7993C144.831 41.8856 145.331 42.1368 145.418 42.1368C145.918 42.5466 146.505 42.798 147.085 43.0422C149.347 44.0339 151.942 44.4364 154.37 44.4364L154.37 44.4365ZM168.034 44.4365H188.699L189.286 41.476H188.953C187.279 44.1992 182.263 43.8759 176.152 43.8759H172.557V30.2086H180.639C182.814 30.2086 184.234 31.2003 184.234 32.0267V32.113H184.568V27.9022H184.234C184.263 28.6494 182.843 29.6481 180.668 29.6481H172.557V15.6791H175.739C181.509 15.6791 186.778 15.3558 188.112 18.1726H188.533L187.866 15.1186H168.034V15.2768C169.041 15.2768 169.875 16.6708 169.875 18.9198V40.6496C169.875 42.9705 169.041 44.2783 168.034 44.2783V44.4365L168.034 44.4365Z" fill="black"/>
<path d="M0.11326 44.4437H6.47751V44.2782C5.4698 44.2782 4.63643 42.6183 4.63643 41.3753V9.54252C4.63643 8.29949 5.46985 6.63942 6.47751 6.63942V6.47437H0.11326V6.63942C0.946878 6.63942 1.45416 7.63111 1.70085 8.29949C1.86734 8.96063 1.95439 9.62172 1.95439 10.3689V40.6352C1.95439 41.2963 1.86734 42.0434 1.70085 42.6183C1.45421 43.3657 0.946928 44.2782 0.11326 44.2782V44.4437ZM18.5826 44.2568C34.8992 44.2568 42.0027 30.1657 42.0027 22.1175C42.0027 9.02511 32.2172 0 18.4088 0C15.6542 0 12.9723 0.330546 11.1239 0.998726C7.05029 2.48626 3.70842 5.46107 1.70795 9.43466C-0.212827 13.2504 -0.546314 17.8924 0.87433 22.1175C2.28783 26.4289 5.12931 29.8351 8.97091 31.653L9.05816 31.4877C5.21636 29.6626 2.37487 26.2639 1.04107 22.0385C-0.299824 17.8924 0.0336132 13.3295 1.87469 9.5212C3.79547 5.54742 7.13714 2.65136 11.2254 1.24308C13.1461 0.582185 15.7412 0.330645 18.4159 0.330645C29.4628 0.330645 38.8278 8.60857 38.8278 21.9523C38.8278 34.3909 31.0503 44.0916 18.7494 43.8471L14.8134 43.7611V13.2505C14.8134 12.0073 15.6542 10.4337 16.6545 10.4337V10.2684H10.2903V10.4337C10.7107 10.4337 11.1239 10.7641 11.4645 11.2601C11.8778 11.921 12.1314 12.8337 12.1314 14.0769V40.4484C12.1314 41.6054 11.8778 42.5178 11.5444 43.1C11.211 43.7611 10.7905 44.0916 10.2903 44.0916V44.2569H18.5827L18.5826 44.2568Z" fill="black"/>
</g>
<defs>
<clipPath id="clip0_55_140">
<rect width="190" height="57" fill="white"/>
</clipPath>
</defs>
</svg>
