<svg width="221" height="114" viewBox="0 0 221 114" fill="none" xmlns="http://www.w3.org/2000/svg">
<path d="M46.0202 43.4827L40.5071 43.6335L40.2884 61.1574L34.0822 61.3336L34.3027 43.8097L28.443 43.9703L28.2319 37.6714L45.8167 37.1824L46.0202 43.4827Z" fill="#264730"/>
<path d="M64.4918 31.7754L65.5223 61.268L59.7883 61.4362L59.3585 48.9879L54.2769 49.1409L54.5036 62.0591L48.7717 62.1539L48.1482 30.3517L53.9206 30.2588L54.1491 41.7609L59.0967 41.618L58.7679 31.9436L64.4918 31.7754Z" fill="#264730"/>
<path d="M74.9001 39.5768L74.9758 43.7339L79.6446 43.6663L79.73 48.2297L75.0612 48.2973L75.1967 55.8455L82.7527 55.7276L82.8534 61.107L75.2897 61.2253L69.6915 61.3103L69.5984 55.9287L69.455 48.3805L69.3797 43.8269L69.304 39.6622L69.2186 35.0988L74.8168 35.0138L82.3809 34.8955L82.4642 39.4589L74.9001 39.5768Z" fill="#264730"/>
<path d="M54.2016 74.778L54.2519 81.8289L66.0101 81.7515L64.7029 89.5435L54.3023 89.6111L53.8124 111.546L47.0677 111.588L44.0197 65.5854L68.3416 66.901L67.3444 74.6926L54.2016 74.778Z" fill="#264730"/>
<path d="M82.3382 91.5941L80.0414 75.1398L77.2972 92.0408L82.3378 91.5941H82.3382ZM91.6909 110.559L84.6345 111.008L83.2325 100.937L76.4028 101.156L74.327 111.234L66.0952 111.008L75.0008 66.4717L85.5293 66.9184L91.6909 110.559Z" fill="#264730"/>
<path d="M104.76 111.016L96.4201 111.327L95.264 67.7521L103.662 67.4309L104.76 111.016Z" fill="#264730"/>
<path d="M125.579 75.6621C123.906 72.8881 120.478 72.8552 118.681 72.5669L118.302 84.7714C124.836 84.129 126.238 81.4903 126.321 78.5308C126.338 77.7126 125.974 76.3121 125.579 75.6621ZM108.771 109.768L110.095 67.1719C111.117 67.1293 124.135 64.1021 128.828 71.7838C135.827 83.2276 124.539 88.4486 123.78 88.6345L134.543 108.925L127.047 108.731L117.98 92.4376L117.551 110.054L108.771 109.768Z" fill="#264730"/>
<path d="M151.447 88.3811L151.276 111.159L143.375 111.091L143.604 88.2534L131.472 69.6748L138.495 66.1832L147.755 79.003L154.435 61.3608L161.247 65.2492L151.447 88.3811Z" fill="#264730"/>
<path d="M163.146 100.364C162.664 96.1726 161.566 82.6373 162.614 70.8296L169.562 71.5646C168.574 82.705 169.597 92.8839 170.069 96.8555C170.127 97.5211 171.444 101.655 173.233 101.647C174.635 101.638 175.522 100.794 176.831 95.2463L177.05 94.4606C178.417 88.7423 178.274 84.5428 178.123 77.9987C178.105 76.1515 178.038 74.3642 178.03 72.6269L186.21 72.5767C186.219 74.3064 186.285 76.0433 186.295 77.7803C186.455 84.8818 186.616 92.209 184.978 98.939L184.817 99.7225C183.837 103.814 181.761 112.331 174.256 112.381H174.206C168.381 112.424 164.033 107.692 163.147 100.364H163.146Z" fill="#264730"/>
<path d="M192.828 113.2L190.516 68.4947L196.788 68.3016L204.674 88.82L211.014 67.9048L217.268 67.4309L221 111.176L214.575 111.706L212.355 85.3689L207.061 100.136L203.086 100.272L198.029 89.4776L199.261 112.888L192.828 113.2Z" fill="#264730"/>
<path d="M95.6511 61.2348L97.2139 56.4432C97.543 55.4239 97.2642 54.3095 96.4875 53.5589L92.8645 50.0594C92.51 49.7208 92.8645 49.1309 93.329 49.2839L98.1238 50.8428C99.1464 51.1716 100.27 50.8949 101.011 50.127L104.514 46.4998C104.861 46.1456 105.444 46.4998 105.293 46.9638L103.73 51.7612C103.401 52.7827 103.68 53.8968 104.456 54.6455L108.078 58.1465C108.432 58.4833 108.078 59.0732 107.613 58.9224L102.818 57.3613C101.798 57.0245 100.675 57.311 99.931 58.0789L96.4278 61.704C96.0813 62.0581 95.4983 61.704 95.6511 61.2341V61.2348Z" fill="#F0B32D"/>
<path d="M153.319 46.5428L156.545 44.2156C157.229 43.7168 157.573 42.8653 157.423 42.0395L156.739 38.1182C156.671 37.7373 157.161 37.5264 157.397 37.8397L159.727 41.0603C160.225 41.7451 161.069 42.0894 161.906 41.9386L165.831 41.2539C166.212 41.188 166.421 41.685 166.109 41.9133L162.885 44.2405C162.2 44.7375 161.855 45.5886 162.006 46.4166L162.692 50.3379C162.758 50.717 162.26 50.9279 162.032 50.6146L159.702 47.3939C159.204 46.711 158.352 46.3667 157.525 46.5175L153.598 47.2004C153.219 47.2684 153.008 46.7711 153.319 46.5428H153.319Z" fill="#F0B32D"/>
<path d="M139.146 54.9847C137.827 54.9847 121.408 53.9129 121.408 52.6053C121.408 51.2898 137.827 50.2202 139.146 50.2202C140.453 50.2202 141.526 51.2902 141.526 52.6053C141.526 53.9129 140.453 54.9847 139.146 54.9847Z" fill="#F0B32D"/>
<path d="M166.066 20.1379C164.345 21.0393 142.126 30.8992 141.222 29.1775C140.317 27.4579 161.068 14.8084 162.799 13.9052C164.523 13.0039 166.649 13.669 167.552 15.3908C168.456 17.1104 167.79 19.2365 166.066 20.1379Z" fill="#F0B32D"/>
<path d="M97.9652 37.2656C98.3527 38.809 97.9558 40.2424 97.0687 40.4631C96.1913 40.6816 95.171 39.6022 94.7817 38.0588C94.3925 36.5074 94.7991 35.0739 95.6764 34.8533C96.5534 34.6348 97.576 35.7142 97.9652 37.2656Z" fill="#F0B32D"/>
<path d="M128.532 33.4466C130.306 32.6939 132.095 32.8972 132.518 33.9013C132.95 34.9054 131.852 36.3288 130.08 37.0815C128.306 37.8302 126.524 37.6288 126.094 36.625C125.672 35.6213 126.761 34.1976 128.532 33.4466Z" fill="#F0B32D"/>
<path d="M132.264 6.24079C135.008 2.1339 138.106 -0.608963 139.196 0.116271C140.284 0.841504 138.942 4.75487 136.199 8.86175C133.455 12.9704 130.349 15.7093 129.258 14.9939C128.18 14.2686 129.522 10.3473 132.264 6.24079Z" fill="#F0B32D"/>
<path d="M115.212 23.0572C114.638 25.2163 108.761 40.2776 106.592 39.7032C104.431 39.1306 106.796 23.1404 107.377 20.9741C107.944 18.815 110.163 17.5252 112.332 18.0974C114.493 18.67 115.787 20.8887 115.212 23.0572Z" fill="#F0B32D"/>
<path d="M93.5911 11.5107C94.1314 13.6792 96.2594 29.7096 94.081 30.2496C91.9121 30.7893 86.2635 15.635 85.7233 13.4683C85.1831 11.2999 86.5094 9.09848 88.6783 8.55844C90.857 8.02094 93.0509 9.34408 93.5911 11.5104V11.5107Z" fill="#F0B32D"/>
<path d="M37.1143 97.1092C35.8886 95.7687 29.0509 95.8616 27.3795 97.6163C25.7008 99.3612 29.3297 107.785 29.3627 109.321C29.3974 110.855 22.6604 111.151 21.6654 109.743C19.0978 106.134 17.9243 93.525 16.0765 86.4585C14.6321 80.9511 12.7246 75.8325 11.6612 73.2097C11.3049 72.3159 11.8803 71.3198 12.8329 71.1686C24.771 69.3466 27.3969 65.1815 39.436 63.3943C40.8536 63.1834 46.8722 62.6687 45.5477 62.1272C28.9253 55.314 23.6815 43.2549 19.0145 37.1828C18.2882 36.2387 17.8584 39.475 17.4593 40.5988C15.2748 46.6944 9.6592 59.1171 0.348797 70.4936C-0.520579 71.5556 0.348797 73.1247 1.70627 72.9312C3.53808 72.6625 5.49807 72.3662 7.1014 72.0957C7.74411 71.9872 8.36002 72.291 8.66418 72.8636C10.1495 75.6473 14.1172 83.0675 13.2652 89.1573C12.3028 95.9376 4.85717 100.946 4.85717 101.503C4.84776 102.346 8.14132 103.132 9.81273 103.478C10.3859 103.596 10.8331 104.033 10.9591 104.607C11.4161 106.631 12.8586 111.041 13.7881 112.475C14.979 114.322 41.9344 112.55 43.226 111.303C44.6436 109.937 37.4941 110.248 37.1899 109.126C36.8861 107.997 38.3541 98.4678 37.1146 97.1095L37.1143 97.1092Z" fill="#264730"/>
<path d="M36.3028 90.5726L34.0314 90.4546C33.3326 90.412 32.792 89.8141 32.8249 89.1065L32.9509 86.6943C32.9937 85.9861 33.594 85.4467 34.3026 85.4872L36.5646 85.607C37.2754 85.6399 37.8134 86.2476 37.7808 86.9475L37.6451 89.3673C37.6121 90.0676 37.0042 90.6073 36.3031 90.5726H36.3028Z" fill="#264730"/>
<path d="M25.2786 90.9788L23.9349 91.1372C22.9819 91.2649 22.1125 90.59 21.9945 89.6361L21.8087 88.1448C21.6907 87.1913 22.3645 86.3225 23.3114 86.2045L24.6609 86.0364C25.6078 85.9184 26.4753 86.5916 26.5955 87.5454L26.7795 89.0389C26.9073 89.9924 26.2316 90.8515 25.2786 90.9792V90.9788Z" fill="#264730"/>
<path d="M23.6815 80.0319L21.5473 80.386C20.8213 80.5039 20.1377 80.0145 20.0197 79.2893L19.4443 75.8226C19.3263 75.097 19.8162 74.4145 20.5422 74.2962L22.6781 73.9421C23.4041 73.8242 24.0877 74.3136 24.2137 75.0392L24.7793 78.5058C24.8974 79.231 24.4075 79.914 23.6815 80.0319Z" fill="#264730"/>
<path d="M37.0875 79.6778L34.9359 79.4919C34.2002 79.4242 33.6617 78.7743 33.7276 78.049L34.0412 74.5419C34.0995 73.8163 34.7502 73.2769 35.4838 73.3348L37.6371 73.5301C38.3711 73.5978 38.9113 74.2384 38.8436 74.9712L38.5318 78.4708C38.4735 79.2058 37.8232 79.7458 37.0875 79.6778Z" fill="#264730"/>
</svg>
