<svg width="191" height="196" viewBox="0 0 191 196" fill="none" xmlns="http://www.w3.org/2000/svg">
<path d="M23.9375 194.796V188.51H24.9329V193.919H27.0922V188.51H28.0964V193.919H30.2557V188.51H31.2601V194.796H23.9377H23.9375ZM38.732 193.175C38.732 193.512 38.6446 193.801 38.4699 194.043C38.2949 194.285 38.0595 194.471 37.7631 194.601C37.4669 194.731 37.1412 194.796 36.7857 194.796H33.7733V188.51H37.0256C37.3218 188.51 37.5781 188.588 37.7945 188.744C38.0106 188.901 38.1766 189.101 38.292 189.346C38.4076 189.591 38.4653 189.847 38.4653 190.112C38.4653 190.419 38.3869 190.707 38.2299 190.975C38.0729 191.244 37.849 191.443 37.5589 191.573C37.9205 191.679 38.2061 191.873 38.4165 192.153C38.6268 192.433 38.732 192.774 38.732 193.175ZM37.7102 192.989C37.7102 192.812 37.673 192.652 37.599 192.507C37.5252 192.363 37.4245 192.245 37.297 192.153C37.1695 192.061 37.02 192.016 36.8482 192.016H34.7689V193.937H36.7859C36.9638 193.937 37.1222 193.894 37.2612 193.809C37.4004 193.723 37.5102 193.608 37.5902 193.463C37.6703 193.319 37.7102 193.161 37.7102 192.99V192.989ZM34.7689 189.368V191.219H36.5994C36.7654 191.219 36.9134 191.179 37.0436 191.099C37.1741 191.02 37.2777 190.91 37.3547 190.772C37.4318 190.633 37.4703 190.475 37.4703 190.298C37.4703 190.115 37.4347 189.954 37.3637 189.816C37.2926 189.677 37.1962 189.568 37.075 189.488C36.9535 189.408 36.8126 189.368 36.6529 189.368H34.7691H34.7689ZM45.1996 193.919V194.796H40.8721V188.51H45.1196V189.386H41.8675V191.175H44.6842V191.998H41.8675V193.919H45.1996V193.919ZM47.3755 194.796V188.51H48.3707V193.397L51.7384 188.51H52.6715V194.796H51.6763V189.988L48.3439 194.796H47.3755ZM50.0235 188.085C49.7035 188.085 49.4282 188.033 49.197 187.93C48.966 187.826 48.791 187.685 48.6725 187.505C48.554 187.325 48.4948 187.125 48.4948 186.907H49.2145C49.2145 187.066 49.2754 187.211 49.3968 187.341C49.5181 187.471 49.7271 187.536 50.0233 187.536C50.3136 187.536 50.521 187.477 50.6454 187.359C50.7697 187.241 50.8318 187.09 50.8318 186.907H51.5517C51.5517 187.125 51.4924 187.325 51.3738 187.505C51.2553 187.685 51.0822 187.826 50.854 187.93C50.6259 188.033 50.3492 188.085 50.0231 188.085H50.0235ZM60.4189 188.51V194.796H59.4147V192.025H56.2336V194.796H55.2382V188.51H56.2336V191.139H59.4147V188.51H60.4189ZM65.5627 194.84C65.1066 194.84 64.6948 194.751 64.3276 194.574C63.9601 194.397 63.6432 194.157 63.3765 193.853C63.11 193.549 62.9041 193.207 62.759 192.826C62.6139 192.445 62.5414 192.054 62.5414 191.653C62.5414 191.234 62.6183 190.834 62.7724 190.453C62.9264 190.072 63.1396 189.733 63.4122 189.435C63.6848 189.137 64.0061 188.901 64.3763 188.727C64.7465 188.553 65.1478 188.466 65.5803 188.466C66.0306 188.466 66.4409 188.557 66.8111 188.74C67.1813 188.923 67.4984 189.168 67.762 189.475C68.0256 189.782 68.23 190.124 68.3751 190.502C68.5201 190.88 68.5927 191.266 68.5927 191.662C68.5927 192.081 68.517 192.481 68.3661 192.861C68.215 193.242 68.0032 193.581 67.7306 193.879C67.4583 194.177 67.1368 194.412 66.7666 194.583C66.3964 194.755 65.995 194.84 65.5627 194.84V194.84ZM63.5546 191.653C63.5546 191.948 63.6018 192.234 63.6967 192.512C63.7916 192.789 63.9262 193.035 64.101 193.251C64.2755 193.466 64.4875 193.636 64.7364 193.76C64.9852 193.884 65.2636 193.946 65.5715 193.946C65.8916 193.946 66.1758 193.881 66.4246 193.751C66.6735 193.621 66.8824 193.446 67.0511 193.224C67.22 193.003 67.3487 192.755 67.4378 192.481C67.5266 192.206 67.5711 191.93 67.5711 191.653C67.5711 191.358 67.5251 191.073 67.4334 190.798C67.3414 190.524 67.2068 190.279 67.0291 190.064C66.8514 189.848 66.6397 189.678 66.3937 189.554C66.1478 189.43 65.8738 189.368 65.5715 189.368C65.2517 189.368 64.9674 189.434 64.7185 189.563C64.4697 189.693 64.2594 189.867 64.0876 190.086C63.9158 190.304 63.7841 190.549 63.6921 190.821C63.6004 191.092 63.5544 191.37 63.5544 191.653H63.5546ZM75.0518 193.919V194.796H70.7242V188.51H74.9717V189.386H71.7196V191.175H74.5363V191.998H71.7196V193.919H75.0518V193.919ZM81.582 194.796V188.51H86.5672V194.796H85.5628V189.386H82.5769V194.796H81.5817H81.582ZM89.0983 194.796V188.51H91.7466C92.0309 188.51 92.2915 188.569 92.5284 188.687C92.7652 188.805 92.9727 188.961 93.1504 189.156C93.3281 189.351 93.4646 189.569 93.5591 189.811C93.654 190.053 93.7014 190.301 93.7014 190.555C93.7014 190.903 93.6231 191.235 93.4659 191.551C93.3089 191.867 93.0869 192.122 92.7995 192.317C92.5123 192.512 92.1788 192.609 91.7999 192.609H90.0938V194.796H89.0983V194.796ZM90.0938 191.732H91.7376C91.9272 191.732 92.0929 191.681 92.2353 191.578C92.3774 191.474 92.4884 191.334 92.5685 191.157C92.6485 190.98 92.6885 190.779 92.6885 190.555C92.6885 190.325 92.641 190.121 92.5463 189.944C92.4514 189.767 92.3283 189.63 92.1774 189.533C92.0263 189.435 91.862 189.386 91.6843 189.386H90.0938V191.733V191.732ZM98.3566 194.84C97.9005 194.84 97.4887 194.751 97.1214 194.574C96.7539 194.397 96.437 194.157 96.1703 193.853C95.9038 193.549 95.6979 193.207 95.5528 192.826C95.4078 192.445 95.3352 192.054 95.3352 191.653C95.3352 191.234 95.4122 190.834 95.5662 190.453C95.7203 190.072 95.9335 189.733 96.2061 189.435C96.4786 189.137 96.7999 188.901 97.1701 188.727C97.5403 188.553 97.9417 188.466 98.3742 188.466C98.8244 188.466 99.2347 188.557 99.6049 188.74C99.9751 188.923 100.292 189.168 100.556 189.475C100.819 189.782 101.024 190.124 101.169 190.502C101.314 190.88 101.387 191.266 101.387 191.662C101.387 192.081 101.311 192.481 101.16 192.861C101.009 193.242 100.797 193.581 100.524 193.879C100.252 194.177 99.9306 194.412 99.5604 194.583C99.1902 194.755 98.7889 194.84 98.3566 194.84V194.84ZM96.3484 191.653C96.3484 191.948 96.3957 192.234 96.4906 192.512C96.5855 192.789 96.7201 193.035 96.8948 193.251C97.0694 193.466 97.2813 193.636 97.5303 193.76C97.779 193.884 98.0575 193.946 98.3654 193.946C98.6854 193.946 98.9697 193.881 99.2184 193.751C99.4674 193.621 99.6762 193.446 99.8449 193.224C100.014 193.003 100.143 192.755 100.232 192.481C100.32 192.206 100.365 191.93 100.365 191.653C100.365 191.358 100.319 191.073 100.227 190.798C100.135 190.524 100.001 190.279 99.823 190.064C99.6453 189.848 99.4335 189.678 99.1875 189.554C98.9417 189.43 98.6676 189.368 98.3654 189.368C98.0456 189.368 97.7613 189.434 97.5123 189.563C97.2636 189.693 97.0533 189.867 96.8815 190.086C96.7096 190.304 96.5779 190.549 96.486 190.821C96.3942 191.092 96.3482 191.37 96.3482 191.653H96.3484ZM103.563 194.796V188.51H104.558V193.397L107.926 188.51H108.859V194.796H107.864V189.988L104.531 194.796H103.563ZM113.301 194.84C112.821 194.84 112.387 194.74 111.999 194.539C111.611 194.338 111.307 194.061 111.088 193.707L111.853 193.238C111.995 193.48 112.189 193.667 112.435 193.8C112.681 193.933 112.963 193.999 113.283 193.999C113.686 193.999 113.996 193.906 114.212 193.719C114.428 193.533 114.536 193.285 114.536 192.976C114.536 192.779 114.492 192.602 114.403 192.448C114.314 192.293 114.181 192.173 114.003 192.09C113.825 192.005 113.609 191.963 113.354 191.963H112.652V191.192H113.354C113.562 191.192 113.738 191.153 113.883 191.074C114.028 190.994 114.139 190.887 114.216 190.75C114.293 190.613 114.332 190.456 114.332 190.281C114.332 190.099 114.289 189.94 114.203 189.803C114.117 189.665 113.994 189.558 113.834 189.478C113.674 189.4 113.479 189.36 113.248 189.36C112.928 189.36 112.654 189.425 112.426 189.555C112.198 189.684 112.019 189.861 111.888 190.086L111.16 189.581C111.379 189.239 111.662 188.967 112.008 188.766C112.355 188.566 112.783 188.465 113.292 188.465C113.701 188.465 114.055 188.532 114.354 188.663C114.653 188.796 114.886 188.986 115.052 189.236C115.218 189.485 115.301 189.786 115.301 190.137C115.301 190.431 115.228 190.705 115.083 190.961C114.938 191.216 114.714 191.408 114.412 191.538C114.774 191.637 115.053 191.824 115.252 192.1C115.45 192.374 115.549 192.698 115.549 193.067C115.549 193.441 115.452 193.762 115.256 194.027C115.061 194.294 114.796 194.496 114.461 194.634C114.126 194.771 113.739 194.84 113.301 194.84H113.301ZM122.675 193.175C122.675 193.512 122.587 193.801 122.412 194.043C122.238 194.285 122.002 194.471 121.706 194.601C121.41 194.731 121.084 194.796 120.728 194.796H117.716V188.51H120.968C121.264 188.51 121.521 188.588 121.737 188.744C121.953 188.901 122.119 189.101 122.235 189.346C122.35 189.591 122.408 189.847 122.408 190.112C122.408 190.419 122.329 190.707 122.172 190.975C122.016 191.244 121.792 191.443 121.501 191.573C121.863 191.679 122.149 191.873 122.359 192.153C122.569 192.433 122.675 192.774 122.675 193.175ZM121.653 192.989C121.653 192.812 121.616 192.652 121.542 192.507C121.468 192.363 121.367 192.245 121.24 192.153C121.112 192.061 120.963 192.016 120.791 192.016H118.712V193.937H120.729C120.906 193.937 121.065 193.894 121.204 193.809C121.343 193.723 121.453 193.608 121.533 193.463C121.613 193.319 121.653 193.161 121.653 192.99V192.989ZM118.712 189.368V191.219H120.542C120.708 191.219 120.856 191.179 120.986 191.099C121.117 191.02 121.22 190.91 121.297 190.772C121.374 190.633 121.413 190.475 121.413 190.298C121.413 190.115 121.377 189.954 121.306 189.816C121.235 189.677 121.139 189.568 121.018 189.488C120.896 189.408 120.755 189.368 120.596 189.368H118.712H118.712ZM127.436 194.84C126.98 194.84 126.568 194.751 126.201 194.574C125.834 194.397 125.517 194.157 125.25 193.853C124.984 193.549 124.778 193.207 124.633 192.826C124.488 192.445 124.415 192.054 124.415 191.653C124.415 191.234 124.492 190.834 124.646 190.453C124.8 190.072 125.013 189.733 125.286 189.435C125.558 189.137 125.88 188.901 126.25 188.727C126.62 188.553 127.021 188.466 127.454 188.466C127.904 188.466 128.314 188.557 128.685 188.74C129.055 188.923 129.372 189.168 129.636 189.475C129.899 189.782 130.104 190.124 130.249 190.502C130.394 190.88 130.466 191.266 130.466 191.662C130.466 192.081 130.391 192.481 130.24 192.861C130.089 193.242 129.877 193.581 129.604 193.879C129.332 194.177 129.01 194.412 128.64 194.583C128.27 194.755 127.869 194.84 127.436 194.84V194.84ZM125.428 191.653C125.428 191.948 125.475 192.234 125.57 192.512C125.665 192.789 125.8 193.035 125.975 193.251C126.149 193.466 126.361 193.636 126.61 193.76C126.859 193.884 127.137 193.946 127.445 193.946C127.765 193.946 128.049 193.881 128.298 193.751C128.547 193.621 128.756 193.446 128.925 193.224C129.094 193.003 129.222 192.755 129.311 192.481C129.4 192.206 129.445 191.93 129.445 191.653C129.445 191.358 129.399 191.073 129.307 190.798C129.215 190.524 129.08 190.279 128.903 190.064C128.725 189.848 128.513 189.678 128.267 189.554C128.021 189.43 127.747 189.368 127.445 189.368C127.125 189.368 126.841 189.434 126.592 189.563C126.343 189.693 126.133 189.867 125.961 190.086C125.789 190.304 125.658 190.549 125.566 190.821C125.474 191.092 125.428 191.37 125.428 191.653H125.428ZM132.18 196V193.919H132.482C132.648 193.919 132.792 193.854 132.913 193.724C133.035 193.595 133.139 193.388 133.224 193.105C133.31 192.821 133.378 192.448 133.429 191.985C133.479 191.521 133.516 190.953 133.54 190.28L133.584 188.51H137.645V193.919H138.445V196H137.565V194.796H133.06V196H132.18H132.18ZM133.744 193.919H136.641V189.386H134.509L134.482 190.413C134.464 191.092 134.428 191.666 134.375 192.135C134.322 192.604 134.245 192.984 134.144 193.273C134.044 193.562 133.91 193.778 133.745 193.919L133.744 193.919ZM140.159 191.6C140.159 191.216 140.227 190.84 140.363 190.471C140.499 190.102 140.699 189.765 140.963 189.461C141.227 189.157 141.548 188.915 141.927 188.735C142.306 188.555 142.736 188.465 143.216 188.465C143.784 188.465 144.276 188.594 144.691 188.85C145.105 189.107 145.414 189.436 145.615 189.838L144.833 190.36C144.714 190.106 144.565 189.906 144.384 189.758C144.203 189.611 144.008 189.507 143.798 189.448C143.587 189.389 143.382 189.36 143.18 189.36C142.849 189.36 142.558 189.426 142.309 189.559C142.06 189.692 141.852 189.867 141.683 190.086C141.514 190.304 141.387 190.549 141.301 190.82C141.215 191.092 141.172 191.363 141.172 191.635C141.172 191.936 141.222 192.227 141.323 192.507C141.424 192.787 141.564 193.035 141.745 193.251C141.926 193.466 142.141 193.636 142.389 193.76C142.638 193.884 142.911 193.946 143.207 193.946C143.408 193.946 143.619 193.91 143.838 193.84C144.057 193.769 144.26 193.658 144.447 193.508C144.633 193.357 144.78 193.158 144.886 192.91L145.713 193.379C145.583 193.692 145.38 193.958 145.104 194.176C144.829 194.395 144.521 194.56 144.18 194.672C143.84 194.784 143.503 194.84 143.171 194.84C142.727 194.84 142.321 194.747 141.954 194.561C141.587 194.375 141.27 194.128 141.003 193.818C140.737 193.508 140.529 193.159 140.381 192.773C140.233 192.386 140.159 191.995 140.159 191.6H140.159ZM152.367 189.386H150.27V194.796H149.266V189.386H147.16V188.51H152.367V189.386ZM159.27 193.175C159.27 193.512 159.183 193.801 159.008 194.043C158.833 194.285 158.598 194.471 158.301 194.601C158.005 194.731 157.68 194.796 157.324 194.796H154.312V188.51H157.564C157.86 188.51 158.116 188.588 158.333 188.744C158.549 188.901 158.715 189.101 158.83 189.346C158.946 189.591 159.004 189.847 159.004 190.112C159.004 190.419 158.925 190.707 158.768 190.975C158.611 191.244 158.387 191.443 158.097 191.573C158.459 191.679 158.744 191.873 158.955 192.153C159.165 192.433 159.27 192.774 159.27 193.175ZM158.249 192.989C158.249 192.812 158.211 192.652 158.137 192.507C158.064 192.363 157.963 192.245 157.835 192.153C157.708 192.061 157.558 192.016 157.387 192.016H155.307V193.937H157.324C157.502 193.937 157.661 193.894 157.8 193.809C157.939 193.723 158.049 193.608 158.129 193.463C158.209 193.319 158.249 193.161 158.249 192.99V192.989ZM155.307 189.368V191.219H157.138C157.304 191.219 157.452 191.179 157.582 191.099C157.712 191.02 157.816 190.91 157.893 190.772C157.97 190.633 158.009 190.475 158.009 190.298C158.009 190.115 157.973 189.954 157.902 189.816C157.831 189.677 157.735 189.568 157.613 189.488C157.492 189.408 157.351 189.368 157.191 189.368H155.307H155.307ZM164.032 194.84C163.576 194.84 163.164 194.751 162.797 194.574C162.429 194.397 162.113 194.157 161.846 193.853C161.579 193.549 161.373 193.207 161.228 192.826C161.083 192.445 161.011 192.054 161.011 191.653C161.011 191.234 161.088 190.834 161.242 190.453C161.396 190.072 161.609 189.733 161.882 189.435C162.154 189.137 162.475 188.901 162.846 188.727C163.216 188.553 163.617 188.466 164.05 188.466C164.5 188.466 164.91 188.557 165.28 188.74C165.651 188.923 165.968 189.168 166.231 189.475C166.495 189.782 166.699 190.124 166.844 190.502C166.989 190.88 167.062 191.266 167.062 191.662C167.062 192.081 166.986 192.481 166.835 192.861C166.684 193.242 166.473 193.581 166.2 193.879C165.928 194.177 165.606 194.412 165.236 194.583C164.866 194.755 164.464 194.84 164.032 194.84V194.84ZM162.024 191.653C162.024 191.948 162.071 192.234 162.166 192.512C162.261 192.789 162.396 193.035 162.57 193.251C162.745 193.466 162.957 193.636 163.206 193.76C163.455 193.884 163.733 193.946 164.041 193.946C164.361 193.946 164.645 193.881 164.894 193.751C165.143 193.621 165.352 193.446 165.52 193.224C165.689 193.003 165.818 192.755 165.907 192.481C165.996 192.206 166.04 191.93 166.04 191.653C166.04 191.358 165.994 191.073 165.903 190.798C165.811 190.524 165.676 190.279 165.498 190.064C165.321 189.848 165.109 189.678 164.863 189.554C164.617 189.43 164.343 189.368 164.041 189.368C163.721 189.368 163.437 189.434 163.188 189.563C162.939 189.693 162.729 189.867 162.557 190.086C162.385 190.304 162.253 190.549 162.161 190.821C162.07 191.092 162.024 191.37 162.024 191.653H162.024Z" fill="#A269C8"/>
<path d="M95.2494 66.269V91.6405H93.98V66.269H95.2494Z" fill="#7B5560"/>
<path fill-rule="evenodd" clip-rule="evenodd" d="M96.707 92.0772L98.933 100.099C99.1483 100.876 99.7344 101.431 100.524 101.607L108.593 103.401C109.446 103.591 110.068 104.233 110.227 105.09C110.385 105.946 110.034 106.768 109.305 107.248L102.335 111.836C101.66 112.281 101.311 113.008 101.388 113.81L102.168 122.011C102.251 122.878 101.829 123.666 101.061 124.08C100.292 124.495 99.3997 124.417 98.7158 123.874L92.1823 118.688C91.5495 118.186 90.7475 118.079 90.0052 118.4L82.4179 121.674C81.6155 122.02 80.7342 121.864 80.1004 121.263C79.467 120.663 79.2664 119.794 79.5732 118.978L82.5049 111.184C82.7885 110.429 82.6424 109.637 82.1073 109.032L76.6378 102.855C76.0594 102.202 75.936 101.318 76.3131 100.532C76.6907 99.7462 77.4584 99.2878 78.3322 99.3263L86.6776 99.6956C87.4855 99.7312 88.1964 99.3471 88.6082 98.6536L92.8142 91.5618C93.2592 90.8118 94.0644 90.4219 94.9312 90.5363C95.7981 90.651 96.4733 91.2371 96.7063 92.077L96.707 92.0772Z" fill="#A269C8"/>
<path d="M38.9279 79.3362V110.204H37.6584V79.3362H38.9279Z" fill="#7B5560"/>
<path fill-rule="evenodd" clip-rule="evenodd" d="M36.6359 109.757C45.3112 109.757 52.3443 116.764 52.3443 125.408C52.3443 132.389 47.7573 138.302 41.4232 140.319C40.6909 140.552 39.9186 140.266 39.5168 139.613C39.1152 138.96 39.2104 138.143 39.752 137.6C41.9081 135.434 43.2399 132.453 43.2399 129.162C43.2399 122.544 37.855 117.179 31.2132 117.179C29.4502 117.179 27.7761 117.557 26.2677 118.236C25.5668 118.551 24.7654 118.355 24.2915 117.751C23.8178 117.147 23.8197 116.325 24.2959 115.724C26.7445 112.63 30.3401 110.479 34.4434 109.908C35.1597 109.809 35.8915 109.757 36.6357 109.757H36.6359Z" fill="#F7AE2E"/>
<path d="M151.205 76.1782V111.994H149.936V76.1782H151.205Z" fill="#7B5560"/>
<path fill-rule="evenodd" clip-rule="evenodd" d="M140.053 107.765C139.951 107.856 139.043 108.23 138.985 108.242C138.871 108.378 138.615 108.457 138.446 108.563C138.312 108.648 138.028 108.861 137.895 108.884L136.984 109.631C136.91 109.686 136.868 109.714 136.804 109.781C136.456 110.149 136.158 110.417 135.856 110.811C135.023 111.895 134.452 113.011 134.183 114.408C134.142 114.621 134.05 115.481 134.019 115.561V116.524C134.214 117.032 133.913 118.193 135.301 120.689C135.431 120.923 135.579 121.146 135.723 121.367C135.864 121.585 136.579 122.548 136.602 122.641C136.698 122.693 136.995 123.09 137.077 123.201L138.436 124.853C138.477 124.882 138.73 125.18 138.793 125.259C138.862 125.344 138.919 125.383 138.99 125.464L140.614 127.248C140.753 127.426 140.824 127.476 140.996 127.636C141.129 127.76 141.213 127.891 141.338 128.028C141.584 128.297 141.855 128.524 142.101 128.802C142.757 129.546 143.697 130.354 144.352 131.059C145.003 131.76 145.589 132.253 146.273 132.95C146.925 133.616 147.887 134.443 148.604 135.163C148.881 135.441 150.457 136.819 150.504 136.96L150.915 136.607C151.344 136.244 151.848 135.687 152.243 135.37L152.801 134.827C153.189 134.523 153.336 134.297 153.533 134.132C153.672 134.017 153.795 133.916 153.925 133.788C154.072 133.643 154.148 133.529 154.285 133.417L155.771 132.006C156.406 131.372 157.41 130.334 157.959 129.833L161.502 126.121C161.686 125.962 162.038 125.457 162.206 125.385L164.553 122.503C164.602 122.439 164.654 122.369 164.708 122.291C164.795 122.168 164.787 122.142 164.862 122.113C165.115 121.582 165.704 121.044 166.304 119.64C166.499 119.183 166.664 118.718 166.792 118.186C166.859 117.908 166.909 117.649 166.956 117.364C166.991 117.15 167.002 116.675 167.062 116.521V115.521C166.961 115.279 167.026 113.507 165.764 111.554C165.296 110.829 164.554 109.975 163.904 109.457C163.82 109.39 163.216 108.932 163.197 108.9C163.041 108.862 162.8 108.663 162.632 108.567C162.469 108.475 162.191 108.363 162.085 108.229C161.977 108.216 161.674 108.066 161.543 108.004C161.358 107.917 161.208 107.86 161.008 107.785C160.777 107.712 160.577 107.656 160.477 107.581C160.405 107.588 159.439 107.372 159.278 107.333C158.495 107.272 157.512 107.153 156.745 107.338C156.459 107.366 155.583 107.592 155.473 107.581C155.44 107.605 155.466 107.592 155.393 107.628L154.946 107.785C154.785 107.884 154.542 107.95 154.371 108.044C154.242 108.115 153.966 108.297 153.849 108.309L153.634 108.479C152.852 108.972 152.249 109.492 151.661 110.171C151.605 110.236 151.54 110.277 151.474 110.349L150.83 111.135C150.774 111.259 150.621 111.465 150.54 111.548C150.294 111.253 150.076 110.887 149.827 110.605C149.562 110.304 149.32 110.026 149.057 109.764C148.913 109.62 148.746 109.499 148.616 109.362C148.351 109.085 147.518 108.502 147.236 108.334L146.131 107.761C146.041 107.763 145.246 107.507 145.021 107.456C144.655 107.373 144.158 107.278 143.785 107.272C143.403 107.221 142.814 107.235 142.426 107.267C142.003 107.299 141.572 107.364 141.159 107.462C140.92 107.518 140.159 107.768 140.053 107.765L140.053 107.765Z" fill="#E63271"/>
<path d="M9.80984 184.11V176.677H9.43254C8.43482 176.677 7.50986 176.57 6.6593 176.356C5.80708 176.142 5.02864 175.819 4.32525 175.389C3.62332 174.962 3.00374 174.465 2.46779 173.899C1.9312 173.333 1.4776 172.697 1.10803 171.993C0.739087 171.29 0.46191 170.56 0.277543 169.804C0.0929676 169.047 0.000366211 168.264 0.000366211 167.455C0.000366211 166.636 0.0929676 165.843 0.277543 165.081C0.461701 164.319 0.739087 163.586 1.10803 162.883C1.4776 162.179 1.9312 161.543 2.46779 160.976C3.00374 160.411 3.62332 159.914 4.32525 159.487C5.02885 159.056 5.80687 158.734 6.6593 158.519C7.51007 158.305 8.43482 158.199 9.43254 158.199H9.80984V152.053L15.6427 150.733V158.199H16.0549C17.0528 158.199 17.9792 158.305 18.8329 158.519C19.6873 158.734 20.4703 159.056 21.1797 159.487C21.8879 159.913 22.5107 160.411 23.0468 160.976C23.5836 161.543 24.0345 162.179 24.398 162.883C24.7613 163.587 25.0341 164.32 25.2153 165.081C25.3968 165.843 25.4877 166.634 25.4877 167.455C25.4877 168.264 25.3966 169.047 25.2149 169.803C25.0335 170.56 24.7607 171.29 24.398 171.992C24.0345 172.696 23.5834 173.332 23.0466 173.899C22.5104 174.465 21.8877 174.962 21.1797 175.389C20.4703 175.82 19.6875 176.142 18.8329 176.356C17.9792 176.571 17.0528 176.677 16.0549 176.677H15.6427V184.193H9.80984V184.11ZM171.816 171.143C171.816 170.532 171.903 169.956 172.078 169.42C172.252 168.884 172.513 168.386 172.86 167.929C173.207 167.47 173.62 167.06 174.098 166.699C174.575 166.339 175.118 166.027 175.727 165.762C176.335 165.498 176.987 165.3 177.684 165.17C178.379 165.039 179.12 164.973 179.903 164.973C180.663 164.973 181.412 165.039 182.149 165.168C182.517 165.234 182.863 165.312 183.184 165.404C183.461 165.483 183.721 165.573 183.964 165.672V164.985C183.964 164.508 183.889 164.086 183.739 163.72C183.591 163.358 183.368 163.049 183.072 162.796C182.775 162.542 182.398 162.352 181.944 162.225C181.486 162.098 180.947 162.034 180.328 162.034C179.299 162.034 178.335 162.209 177.437 162.557C176.986 162.733 176.521 162.946 176.042 163.197C175.563 163.449 175.071 163.739 174.566 164.067L174.486 164.118L172.715 160.369L172.775 160.329C173.392 159.927 174.023 159.575 174.667 159.274C175.312 158.972 175.97 158.72 176.639 158.52C177.31 158.319 178.001 158.167 178.71 158.067C179.419 157.967 180.148 157.916 180.895 157.916C182.295 157.916 183.541 158.08 184.631 158.408C185.725 158.736 186.665 159.231 187.447 159.888C188.23 160.549 188.818 161.357 189.21 162.312C189.601 163.265 189.796 164.364 189.796 165.609V170.343C189.796 170.613 189.817 170.843 189.86 171.03C189.902 171.21 189.963 171.351 190.043 171.449C190.123 171.55 190.235 171.63 190.378 171.691C190.527 171.754 190.71 171.796 190.925 171.819L191 171.827V176.662L190.933 176.676C190.701 176.722 190.471 176.763 190.244 176.8C190.019 176.835 189.804 176.865 189.598 176.888C189.389 176.912 189.195 176.93 189.014 176.942C188.832 176.954 188.663 176.96 188.509 176.96C187.971 176.96 187.495 176.906 187.084 176.798C186.669 176.689 186.318 176.525 186.032 176.307C185.747 176.089 185.514 175.831 185.334 175.534C185.155 175.238 185.029 174.902 184.956 174.528L184.875 173.906C184.492 174.376 184.075 174.795 183.625 175.163C183.127 175.57 182.589 175.914 182.011 176.193C181.432 176.472 180.84 176.681 180.235 176.821C179.631 176.961 179.012 177.03 178.38 177.03C177.761 177.03 177.171 176.966 176.613 176.838C176.055 176.709 175.527 176.515 175.03 176.256C174.534 175.997 174.09 175.691 173.699 175.34C173.307 174.987 172.967 174.587 172.679 174.14C172.392 173.692 172.176 173.218 172.032 172.719C171.888 172.22 171.816 171.695 171.816 171.144L171.816 171.143ZM183.11 171.736C183.237 171.636 183.352 171.531 183.455 171.421C183.558 171.311 183.65 171.196 183.729 171.074C183.808 170.955 183.868 170.84 183.906 170.729C183.944 170.621 183.963 170.513 183.963 170.408V168.865C183.747 168.784 183.518 168.71 183.276 168.646C183.016 168.576 182.742 168.516 182.457 168.466C182.168 168.417 181.891 168.379 181.626 168.353C181.362 168.328 181.106 168.315 180.86 168.315C180.347 168.315 179.88 168.369 179.457 168.478C179.034 168.587 178.655 168.75 178.32 168.965C177.988 169.179 177.74 169.426 177.576 169.705C177.412 169.983 177.331 170.296 177.331 170.643C177.331 170.84 177.359 171.028 177.415 171.206C177.472 171.384 177.557 171.555 177.67 171.719C177.784 171.883 177.919 172.031 178.076 172.162C178.232 172.294 178.412 172.409 178.613 172.51C178.813 172.609 179.033 172.683 179.27 172.732C179.508 172.782 179.767 172.806 180.045 172.806C180.324 172.806 180.603 172.782 180.88 172.732C181.159 172.682 181.438 172.607 181.717 172.506C181.995 172.404 182.251 172.29 182.484 172.162C182.715 172.035 182.923 171.893 183.108 171.738L183.11 171.736ZM9.43254 172.03H10.1284V162.881H9.43254C9.07488 162.881 8.73562 162.928 8.41622 163.024C8.09682 163.119 7.7956 163.263 7.51404 163.454C7.23142 163.645 6.97891 163.873 6.75755 164.138C6.53451 164.405 6.34157 164.712 6.17895 165.056C6.01653 165.403 5.89445 165.776 5.81335 166.175C5.73204 166.574 5.69148 167.001 5.69148 167.455C5.69148 168.361 5.85411 169.16 6.17916 169.855C6.34178 170.199 6.53493 170.505 6.75776 170.773C6.97912 171.038 7.23163 171.266 7.51404 171.456C7.79602 171.648 8.09724 171.791 8.41643 171.887C8.73604 171.982 9.0753 172.03 9.43274 172.03L9.43254 172.03ZM15.3592 172.03H16.0549C16.4132 172.03 16.7537 171.983 17.0762 171.887C17.3988 171.792 17.7044 171.648 17.992 171.456C18.2798 171.267 18.5351 171.038 18.7566 170.773C18.979 170.506 19.1693 170.2 19.3258 169.856C19.4824 169.51 19.6001 169.136 19.6785 168.736C19.7571 168.336 19.7966 167.908 19.7966 167.456C19.7966 167.001 19.756 166.574 19.6747 166.175C19.5936 165.776 19.4715 165.403 19.3089 165.056C19.1467 164.713 18.9538 164.406 18.7307 164.139C18.5094 163.873 18.2566 163.645 17.9742 163.455C17.6922 163.263 17.391 163.119 17.072 163.024C16.7524 162.929 16.413 162.881 16.0553 162.881H15.3597V172.031L15.3592 172.03ZM26.7454 176.594V171.501H26.8286C27.1058 171.501 27.3654 171.473 27.6071 171.418C27.8475 171.363 28.0711 171.281 28.2768 171.17C28.4817 171.062 28.674 170.918 28.8531 170.737C29.0352 170.554 29.2047 170.333 29.3606 170.077C29.5166 169.823 29.6568 169.512 29.7814 169.145C29.9071 168.774 30.0172 168.344 30.1113 167.858C30.2053 167.375 30.2848 166.822 30.3494 166.203C30.4137 165.581 30.4643 164.888 30.4995 164.129L30.7507 158.199H45.6102V176.395H39.7774L39.7776 163.304H35.9387L35.8712 164.889C35.8124 166.026 35.7188 167.069 35.5919 168.015C35.4646 168.963 35.303 169.816 35.1074 170.575C34.9113 171.333 34.6713 172.014 34.3889 172.615C34.1059 173.217 33.7788 173.74 33.4086 174.183C33.0384 174.624 32.6253 175.004 32.1711 175.323C31.7166 175.642 31.2198 175.899 30.6821 176.096C30.1424 176.29 29.5513 176.435 28.9083 176.533C28.2687 176.629 27.5751 176.677 26.8288 176.677H26.7456V176.595L26.7454 176.594ZM48.0369 171.143C48.0369 170.532 48.124 169.956 48.2984 169.42C48.4721 168.884 48.7333 168.386 49.0814 167.93C49.428 167.47 49.8414 167.06 50.3193 166.699C50.7959 166.339 51.3391 166.027 51.9474 165.763C52.5555 165.498 53.2081 165.301 53.9044 165.17C54.6003 165.039 55.3407 164.973 56.1243 164.973C56.8842 164.973 57.6329 165.039 58.3695 165.169C58.7383 165.234 59.0838 165.313 59.4051 165.404C59.6816 165.484 59.9417 165.573 60.1844 165.672V164.986C60.1844 164.035 59.8871 163.303 59.293 162.796C58.9958 162.543 58.6191 162.353 58.1647 162.226C57.7067 162.098 57.1678 162.034 56.5495 162.034C55.5204 162.034 54.5564 162.209 53.6577 162.558C53.2069 162.733 52.7415 162.946 52.2631 163.198C51.7842 163.449 51.2915 163.74 50.7867 164.067L50.7066 164.119C50.1186 162.868 49.5285 161.617 48.9357 160.369L48.9963 160.33C49.613 159.928 50.2438 159.576 50.8876 159.274C51.5325 158.972 52.1905 158.72 52.8603 158.52C53.5311 158.319 54.2213 158.168 54.9305 158.067C55.6398 157.967 56.3685 157.916 57.116 157.916C58.5159 157.916 59.7617 158.081 60.8516 158.408C61.9463 158.737 62.8857 159.231 63.6681 159.888C64.4513 160.549 65.0389 161.357 65.4306 162.312C65.8215 163.265 66.017 164.364 66.017 165.609V170.343C66.017 170.876 66.0993 171.247 66.2639 171.449C66.3439 171.55 66.456 171.631 66.5993 171.691C66.7482 171.754 66.9309 171.796 67.1464 171.819L67.221 171.827V176.663L67.1539 176.676C66.9225 176.722 66.6924 176.763 66.4645 176.8C66.2404 176.835 66.0249 176.865 65.8192 176.888C65.6106 176.912 65.4158 176.93 65.2354 176.942C65.0534 176.954 64.8847 176.96 64.7298 176.96C64.1919 176.96 63.7166 176.906 63.3054 176.798C62.8905 176.69 62.5395 176.526 62.2534 176.307C61.9676 176.089 61.7347 175.831 61.5552 175.534C61.3763 175.238 61.2498 174.903 61.1773 174.528L61.0957 173.906C60.713 174.376 60.2962 174.795 59.8464 175.163C59.3486 175.57 58.8102 175.914 58.2318 176.193C57.6534 176.472 57.0616 176.682 56.4569 176.821C55.8517 176.961 55.2328 177.031 54.6011 177.031C53.9815 177.031 53.3918 176.967 52.8339 176.838C52.2758 176.71 51.748 176.515 51.2514 176.256C50.7551 175.997 50.3109 175.692 49.9196 175.34C49.5275 174.987 49.1876 174.587 48.9002 174.14C48.6125 173.692 48.3964 173.218 48.2528 172.719C48.109 172.22 48.0369 171.695 48.0369 171.144V171.143ZM59.3302 171.736C59.4576 171.636 59.5729 171.531 59.6754 171.421C59.7786 171.311 59.8704 171.196 59.9498 171.074C60.029 170.955 60.0882 170.84 60.1269 170.729C60.1647 170.621 60.1839 170.513 60.1839 170.408V168.865C59.968 168.784 59.7387 168.71 59.4973 168.646C59.2366 168.576 58.9628 168.516 58.6774 168.466C58.389 168.417 58.1118 168.379 57.8472 168.353C57.5832 168.328 57.3273 168.315 57.0802 168.315C56.5681 168.315 56.1005 168.369 55.6778 168.478C55.255 168.587 54.8751 168.75 54.5403 168.965C54.209 169.179 53.9604 169.426 53.7963 169.705C53.6333 169.983 53.5513 170.296 53.5513 170.643C53.5513 171.037 53.6646 171.392 53.8906 171.719C54.0043 171.883 54.1398 172.031 54.2963 172.162C54.4533 172.294 54.6327 172.41 54.8331 172.51C55.034 172.609 55.2535 172.683 55.4903 172.732C55.7286 172.782 55.9874 172.806 56.2658 172.806C56.5449 172.806 56.8235 172.782 57.1009 172.732C57.3793 172.682 57.6586 172.607 57.9375 172.506C58.2159 172.404 58.4722 172.29 58.7044 172.162C58.9354 172.035 59.144 171.893 59.3284 171.738L59.3302 171.736ZM69.8243 176.594V158.199H75.6571V164.761H81.8297V158.199H87.6625V176.677H81.8297V169.585H75.6571V176.677H69.8243V176.594ZM100.23 177.03C99.435 177.03 98.6831 176.966 97.9751 176.839C97.2665 176.712 96.6026 176.523 95.9841 176.271C95.3653 176.019 94.7922 175.722 94.2658 175.38C93.7385 175.037 93.257 174.648 92.8225 174.212C92.3881 173.779 92.0052 173.311 91.6743 172.809C91.3436 172.308 91.0645 171.771 90.8383 171.202C90.6124 170.633 90.4424 170.052 90.3296 169.457C90.2165 168.862 90.1598 168.254 90.1598 167.631C90.1598 166.746 90.2597 165.9 90.4587 165.093C90.6582 164.287 90.9575 163.52 91.3563 162.793C91.7552 162.063 92.2426 161.404 92.8172 160.816C93.3919 160.228 94.0543 159.71 94.8039 159.263C95.5552 158.814 96.3846 158.477 97.2908 158.252C98.194 158.028 99.1737 157.916 100.23 157.916C101.286 157.916 102.265 158.027 103.166 158.249C104.068 158.47 104.892 158.803 105.637 159.245C106.381 159.69 107.038 160.203 107.606 160.784C108.175 161.366 108.656 162.016 109.049 162.734C109.442 163.452 109.737 164.202 109.934 164.981C110.13 165.762 110.229 166.573 110.229 167.414C110.229 167.74 110.21 168.061 110.175 168.376L110.079 169.267H96.3545C96.3923 169.626 96.4638 169.959 96.5681 170.265C96.6804 170.594 96.8319 170.893 97.0217 171.159C97.2122 171.427 97.4302 171.663 97.6758 171.867C97.9212 172.071 98.1944 172.244 98.4946 172.385C98.7958 172.526 99.1064 172.632 99.4243 172.702C99.7429 172.771 100.071 172.806 100.407 172.806C101.243 172.806 102.027 172.609 102.758 172.216C103.122 172.021 103.429 171.791 103.679 171.527C103.929 171.264 104.123 170.966 104.261 170.635L104.288 170.569C105.32 170.806 107.842 172.04 108.976 172.518L108.928 172.599C108.705 172.974 108.449 173.331 108.163 173.669C107.876 174.006 107.558 174.326 107.207 174.627C106.773 175.001 106.299 175.335 105.786 175.629C105.275 175.922 104.724 176.176 104.135 176.389C103.546 176.602 102.926 176.763 102.275 176.869C101.623 176.976 100.941 177.029 100.229 177.029L100.23 177.03ZM96.2168 165.643H104.101C104.054 165.313 103.979 165.002 103.878 164.712C103.768 164.397 103.627 164.104 103.453 163.836C103.28 163.566 103.078 163.327 102.848 163.119C102.618 162.911 102.358 162.733 102.068 162.583C101.779 162.436 101.474 162.325 101.155 162.251C100.838 162.177 100.505 162.14 100.159 162.14C99.8002 162.14 99.4603 162.177 99.1399 162.251C98.8188 162.325 98.5157 162.436 98.2316 162.583C97.9492 162.732 97.6938 162.911 97.4659 163.119C97.2379 163.327 97.0372 163.566 96.8643 163.836C96.6913 164.104 96.5489 164.397 96.4391 164.712C96.3384 165.002 96.2638 165.313 96.2163 165.643H96.2168ZM111.274 176.594V171.5H111.357C111.635 171.5 111.894 171.473 112.136 171.418C112.376 171.363 112.6 171.28 112.806 171.169C113.011 171.062 113.203 170.917 113.382 170.736C113.564 170.553 113.733 170.332 113.889 170.076C114.045 169.823 114.186 169.512 114.31 169.144C114.436 168.773 114.546 168.343 114.64 167.857C114.734 167.375 114.813 166.822 114.878 166.204C114.943 165.581 114.993 164.888 115.028 164.129L115.279 158.198H130.139V176.394H124.306V163.304H120.467L120.4 164.889C120.341 166.026 120.248 167.068 120.121 168.015C119.993 168.962 119.832 169.816 119.636 170.575C119.44 171.333 119.2 172.013 118.918 172.614C118.635 173.216 118.307 173.74 117.937 174.183C117.567 174.623 117.154 175.004 116.7 175.322C116.245 175.641 115.749 175.899 115.211 176.095C114.671 176.289 114.08 176.435 113.437 176.532C112.797 176.628 112.104 176.677 111.358 176.677H111.274V176.594L111.274 176.594ZM133.77 176.594V158.198H139.602V163.667H143.521C144.651 163.667 145.653 163.813 146.527 164.104C147.403 164.396 148.15 164.835 148.766 165.419C149.383 166.004 149.846 166.678 150.154 167.442C150.462 168.205 150.616 169.056 150.616 169.996C150.616 170.654 150.552 171.275 150.424 171.857C150.296 172.44 150.103 172.984 149.846 173.491C149.588 173.998 149.27 174.449 148.892 174.843C148.514 175.236 148.077 175.572 147.581 175.849C147.085 176.126 146.526 176.333 145.907 176.471C145.29 176.608 144.613 176.677 143.875 176.677H133.77V176.594ZM139.602 172.242H142.954C143.209 172.242 143.441 172.219 143.649 172.173C143.856 172.127 144.042 172.057 144.206 171.965C144.369 171.872 144.511 171.76 144.632 171.629C144.753 171.498 144.854 171.347 144.933 171.178C145.013 171.008 145.073 170.827 145.113 170.636C145.152 170.445 145.173 170.243 145.173 170.031C145.173 169.819 145.154 169.62 145.117 169.434C145.08 169.249 145.024 169.077 144.951 168.919C144.878 168.762 144.781 168.618 144.663 168.49C144.545 168.362 144.404 168.248 144.24 168.149C144.076 168.051 143.885 167.978 143.667 167.929C143.447 167.88 143.197 167.856 142.919 167.856H139.602V172.242ZM153.042 176.594V158.198H158.84V164.69H160.059L164.663 158.198H170.961L164.526 167.031L171.635 176.677H164.947L159.954 169.761H158.84V176.677H153.042V176.594V176.594Z" fill="#7B5560"/>
<path fill-rule="evenodd" clip-rule="evenodd" d="M94.8742 27.5959C112.129 25.0165 103.864 1.47694 84.3568 14.1225C71.8859 22.2061 70.5429 4.89986 90.7005 0.653859C110.858 -3.59193 115.609 14.1225 115.759 17.1166C115.909 20.1107 115.724 33.2275 97.7286 36.2784C97.1934 36.3678 97.7547 44.9716 98.2016 50.9952C104.418 51.1866 110.62 51.584 116.716 52.1453C151.465 55.3437 197.45 75.8225 190.143 83.9356C182.836 92.0486 161.739 85.1353 161.739 85.1353C161.739 85.1353 121.597 68.1992 91.9846 67.5996C62.3718 66.9995 52.6553 74.139 25.7629 84.3353C-4.30978 95.737 -9.42166 84.8474 18.1836 67.0562C36.1756 55.4605 61.4798 51.1383 87.4431 50.8796C86.8282 41.2778 85.691 28.9686 94.8742 27.5959Z" fill="#DBA082"/>
</svg>
