<svg width="236" height="170" viewBox="0 0 236 170" fill="none" xmlns="http://www.w3.org/2000/svg">
<path d="M79.3015 136.256H82.3113V145.952H83.4923V146.2H79.3015V145.952H80.4826V136.485H79.3015V136.256ZM83.7781 139.418H86.7307V145.952H87.9308V146.2H83.7781V145.952H84.9591V139.704H83.7781V139.418ZM84.8067 137.037C84.8067 136.732 84.8829 136.485 85.1115 136.256C85.3211 136.046 85.5496 135.97 85.8735 135.97C86.1402 135.97 86.3878 136.046 86.6164 136.294C86.8259 136.485 86.9021 136.732 86.9021 137.037C86.9021 137.323 86.8259 137.551 86.6164 137.799C86.3878 137.989 86.1402 138.066 85.8735 138.066C85.5496 138.066 85.3211 137.989 85.1115 137.799C84.8829 137.551 84.8067 137.323 84.8067 137.037ZM92.0073 145.952V146.2H88.1975V145.952H89.4357V139.704H88.1975V139.418H91.2072V140.294C91.3406 139.932 91.5692 139.666 91.8549 139.456C92.1597 139.266 92.5216 139.151 92.9217 139.151C93.1503 139.151 93.4741 139.228 93.7789 139.304C94.0646 139.418 94.3504 139.704 94.6171 140.085C94.8647 140.485 94.979 141.075 94.979 141.875V145.952H96.16V146.2H92.4073V145.952H93.1884V140.371C93.1884 139.78 92.9979 139.456 92.5597 139.456C92.1597 139.456 91.8168 139.666 91.5692 140.123C91.3406 140.561 91.2072 141.075 91.2072 141.723V145.952H92.0073ZM102.694 144.219H102.98C102.903 144.847 102.58 145.4 102.103 145.838C101.589 146.276 100.999 146.466 100.198 146.466C99.7222 146.466 99.246 146.39 98.8269 146.2C98.3888 145.99 98.0268 145.723 97.703 145.361C97.3982 145 97.1506 144.599 96.9982 144.18C96.8458 143.742 96.7506 143.266 96.7506 142.828C96.7506 142.237 96.8839 141.628 97.1506 141.075C97.4744 140.523 97.8745 140.047 98.3888 139.704C98.9412 139.342 99.5317 139.151 100.198 139.151C100.846 139.151 101.399 139.304 101.837 139.609C102.256 139.971 102.58 140.409 102.808 140.961C103.018 141.475 103.132 142.104 103.132 142.752H98.7317C98.7317 143.857 98.865 144.733 99.1317 145.323C99.3793 145.914 99.8556 146.2 100.56 146.2C100.884 146.2 101.189 146.104 101.513 145.914C101.837 145.761 102.103 145.514 102.294 145.209C102.542 144.923 102.656 144.561 102.694 144.219ZM98.7317 142.504H101.189C101.189 141.59 101.113 140.847 100.96 140.256C100.789 139.704 100.484 139.38 99.9699 139.38C99.6841 139.38 99.4174 139.571 99.1317 139.971C98.865 140.371 98.7317 141.075 98.7317 142.161V142.504ZM107.494 145.952V146.2H103.684V145.952H104.923V139.704H103.684V139.418H106.694V140.294C106.809 139.932 107.056 139.666 107.323 139.456C107.647 139.266 108.009 139.151 108.409 139.151C108.637 139.151 108.961 139.228 109.266 139.304C109.552 139.418 109.818 139.704 110.104 140.085C110.333 140.485 110.466 141.075 110.466 141.875V145.952H111.647V146.2H107.894V145.952H108.675V140.371C108.675 139.78 108.485 139.456 108.047 139.456C107.647 139.456 107.285 139.666 107.056 140.123C106.809 140.561 106.694 141.075 106.694 141.723V145.952H107.494ZM118.067 139.704H116.79V139.418H118.067V137.799C118.429 137.799 118.733 137.723 119.057 137.551C119.362 137.399 119.571 137.132 119.61 136.694H119.838V139.418H121.153V139.704H119.838V145.285C119.838 145.761 120.01 145.99 120.314 145.99C120.486 145.99 120.638 145.914 120.714 145.8C120.829 145.628 120.867 145.476 120.867 145.285H121.153C121.114 145.59 121 145.876 120.791 146.104C120.562 146.352 120.238 146.466 119.8 146.466C118.657 146.466 118.067 145.761 118.067 144.295V139.704ZM127.534 144.219H127.801C127.686 144.847 127.401 145.4 126.886 145.838C126.41 146.276 125.781 146.466 125.039 146.466C124.524 146.466 124.086 146.39 123.648 146.2C123.21 145.99 122.848 145.723 122.543 145.361C122.219 145 121.991 144.599 121.781 144.18C121.629 143.742 121.553 143.266 121.553 142.828C121.553 142.237 121.705 141.628 121.991 141.075C122.257 140.523 122.696 140.047 123.21 139.704C123.724 139.342 124.353 139.151 125.039 139.151C125.667 139.151 126.22 139.304 126.658 139.609C127.096 139.971 127.401 140.409 127.648 140.961C127.839 141.475 127.972 142.104 127.972 142.752H123.534C123.534 143.857 123.686 144.733 123.915 145.323C124.2 145.914 124.677 146.2 125.381 146.2C125.705 146.2 126.029 146.104 126.334 145.914C126.658 145.761 126.886 145.514 127.134 145.209C127.324 144.923 127.496 144.561 127.534 144.219ZM123.572 142.504H125.991C125.991 141.59 125.896 140.847 125.743 140.256C125.591 139.704 125.267 139.38 124.791 139.38C124.486 139.38 124.2 139.571 123.972 139.971C123.686 140.371 123.572 141.075 123.572 142.161V142.504ZM135.687 139.418V139.704H134.411L132.792 142.066L135.249 145.952H136.049V146.2H131.915V145.952H133.115L131.496 143.304L129.706 145.952H130.887V146.2H128.391V145.952H129.344L131.325 143.057L129.191 139.704H128.391V139.418H132.087V139.704H131.325L132.677 141.837L134.106 139.704H132.944V139.418H135.687ZM137.344 139.704H136.049V139.418H137.344V137.799C137.668 137.799 137.973 137.723 138.297 137.551C138.659 137.399 138.811 137.132 138.849 136.694H139.135V139.418H140.392V139.704H139.135V145.285C139.135 145.761 139.287 145.99 139.573 145.99C139.764 145.99 139.878 145.914 139.992 145.8C140.087 145.628 140.164 145.476 140.164 145.285H140.392C140.392 145.59 140.278 145.876 140.049 146.104C139.84 146.352 139.535 146.466 139.097 146.466C137.897 146.466 137.344 145.761 137.344 144.295V139.704ZM140.564 139.418H143.535V145.952H144.716V146.2H140.564V145.952H141.745V139.704H140.564V139.418ZM141.554 137.037C141.554 136.732 141.669 136.485 141.859 136.256C142.107 136.046 142.335 135.97 142.621 135.97C142.926 135.97 143.173 136.046 143.364 136.294C143.612 136.485 143.688 136.732 143.688 137.037C143.688 137.323 143.612 137.551 143.364 137.799C143.173 137.989 142.926 138.066 142.621 138.066C142.335 138.066 142.107 137.989 141.859 137.799C141.669 137.551 141.554 137.323 141.554 137.037ZM144.983 136.256H147.993V145.952H149.193V146.2H144.983V145.952H146.183V136.485H144.983V136.256ZM155.727 144.219H155.993C155.879 144.847 155.555 145.4 155.098 145.838C154.622 146.276 153.974 146.466 153.231 146.466C152.717 146.466 152.241 146.39 151.803 146.2C151.403 145.99 151.003 145.723 150.698 145.361C150.412 145 150.183 144.599 149.974 144.18C149.822 143.742 149.745 143.266 149.745 142.828C149.745 142.237 149.898 141.628 150.183 141.075C150.45 140.523 150.85 140.047 151.403 139.704C151.917 139.342 152.507 139.151 153.231 139.151C153.86 139.151 154.374 139.304 154.812 139.609C155.289 139.971 155.613 140.409 155.803 140.961C156.032 141.475 156.127 142.104 156.127 142.752H151.726C151.726 143.857 151.841 144.733 152.127 145.323C152.355 145.914 152.869 146.2 153.593 146.2C153.898 146.2 154.222 146.104 154.527 145.914C154.851 145.761 155.098 145.514 155.327 145.209C155.517 144.923 155.651 144.561 155.727 144.219ZM151.765 142.504H154.184C154.184 141.59 154.108 140.847 153.936 140.256C153.784 139.704 153.46 139.38 152.984 139.38C152.679 139.38 152.393 139.571 152.127 139.971C151.879 140.371 151.765 141.075 151.765 142.161V142.504Z" fill="#2B2A29"/>
<path d="M35.8504 167.059H200.188V2.72135H35.8504V167.059ZM201.178 169.04H33.8693V0.740234H202.169V169.04H201.178Z" fill="#2B2A29"/>
<path d="M44.0224 5.36914V6.3597H39.0887V5.86442H38.5934V5.36914H44.0224ZM38.5934 10.8172H39.5839V15.77H38.5934V10.8172ZM38.5934 20.7228H39.5839V25.6756H38.5934V20.7228ZM38.5934 30.6093H39.5839V35.5621H38.5934V30.6093ZM38.5934 40.5149H39.5839V45.4676H38.5934V40.5149ZM38.5934 50.4204H39.5839V55.3732H38.5934V50.4204ZM38.5934 60.326H39.5839V65.2597H38.5934V60.326ZM38.5934 70.2125H39.5839V75.1653H38.5934V70.2125ZM38.5934 80.1181H39.5839V85.0709H38.5934V80.1181ZM38.5934 90.0237H39.5839V94.9764H38.5934V90.0237ZM38.5934 99.9102H39.5839V104.863H38.5934V99.9102ZM38.5934 109.816H39.5839V114.769H38.5934V109.816ZM38.5934 119.721H39.5839V124.674H38.5934V119.721ZM38.5934 129.627H39.5839V134.561H38.5934V129.627ZM38.5934 139.513H39.5839V144.466H38.5934V139.513ZM38.5934 149.419H39.5839V154.372H38.5934V149.419ZM38.5934 159.325H39.5839V164.277H39.0887V164.773H38.5934V159.325ZM44.0224 164.773V163.782H48.9752V164.773H44.0224ZM53.928 164.773V163.782H58.8808V164.773H53.928ZM63.8335 164.773V163.782H68.7863V164.773H63.8335ZM73.7391 164.773V163.782H78.6728V164.773H73.7391ZM83.6256 164.773V163.782H88.5784V164.773H83.6256ZM93.5312 164.773V163.782H98.484V164.773H93.5312ZM103.437 164.773V163.782H108.39V164.773H103.437ZM113.323 164.773V163.782H118.276V164.773H113.323ZM123.229 164.773V163.782H128.182V164.773H123.229ZM133.134 164.773V163.782H138.087V164.773H133.134ZM143.04 164.773V163.782H147.974V164.773H143.04ZM152.927 164.773V163.782H157.879V164.773H152.927ZM162.832 164.773V163.782H167.785V164.773H162.832ZM172.738 164.773V163.782H177.69V164.773H172.738ZM182.624 164.773V163.782H187.577V164.773H182.624ZM192.53 164.773V163.782H197.483V164.277H197.978V164.773H192.53ZM197.978 159.325H196.987V154.372H197.978V159.325ZM197.978 149.419H196.987V144.466H197.978V149.419ZM197.978 139.513H196.987V134.561H197.978V139.513ZM197.978 129.627H196.987V124.674H197.978V129.627ZM197.978 119.721H196.987V114.769H197.978V119.721ZM197.978 109.816H196.987V104.863H197.978V109.816ZM197.978 99.9102H196.987V94.9764H197.978V99.9102ZM197.978 90.0237H196.987V85.0709H197.978V90.0237ZM197.978 80.1181H196.987V75.1653H197.978V80.1181ZM197.978 70.2125H196.987V65.2597H197.978V70.2125ZM197.978 60.326H196.987V55.3732H197.978V60.326ZM197.978 50.4204H196.987V45.4676H197.978V50.4204ZM197.978 40.5149H196.987V35.5621H197.978V40.5149ZM197.978 30.6093H196.987V25.6756H197.978V30.6093ZM197.978 20.7228H196.987V15.77H197.978V20.7228ZM197.978 10.8172H196.987V5.86442H197.483V5.36914H197.978V10.8172ZM192.53 5.36914V6.3597H187.577V5.36914H192.53ZM182.624 5.36914V6.3597H177.69V5.36914H182.624ZM172.738 5.36914V6.3597H167.785V5.36914H172.738ZM162.832 5.36914V6.3597H157.879V5.36914H162.832ZM152.927 5.36914V6.3597H147.974V5.36914H152.927ZM143.04 5.36914V6.3597H138.087V5.36914H143.04ZM133.134 5.36914V6.3597H128.182V5.36914H133.134ZM123.229 5.36914V6.3597H118.276V5.36914H123.229ZM113.323 5.36914V6.3597H108.39V5.36914H113.323ZM103.437 5.36914V6.3597H98.484V5.36914H103.437ZM93.5312 5.36914V6.3597H88.5784V5.36914H93.5312ZM83.6256 5.36914V6.3597H78.6728V5.36914H83.6256ZM73.7391 5.36914V6.3597H68.7863V5.36914H73.7391ZM63.8335 5.36914V6.3597H58.8808V5.36914H63.8335ZM53.928 5.36914V6.3597H48.9752V5.36914H53.928Z" fill="#2B2A29"/>
<path d="M0.456909 45.5247H235.6V120.216H0.456909V45.5247Z" fill="#FEFEFE"/>
<path d="M0.456917 45.1248H236V120.617H0.0568848V45.1248H0.456917ZM235.2 45.9248H0.837901V119.817H235.2V45.9248Z" fill="#2B2A29"/>
<path d="M29.8688 109.644V107.377C31.888 107.377 33.3548 106.787 34.1929 105.606C35.0692 104.406 35.5835 103.187 35.6978 102.005C35.8121 100.729 35.9264 99.4719 36.0026 98.0813C36.0598 96.7288 36.0979 95.1097 36.0979 93.1667V81.1276L36.2502 76.3843V71.1839C36.2502 67.3931 35.8502 64.3834 35.1073 62.2879C34.3072 60.1354 32.7642 59.0686 30.345 59.0686V56.897H32.8785L34.4596 57.0113L36.0979 57.0875H41.984L43.6604 57.0113L45.2034 56.897H47.7369V59.0686H46.1177C44.7271 59.0686 43.7747 59.8687 43.146 61.3736C42.8222 62.1546 42.5936 63.1833 42.3841 64.3834C42.1555 65.6025 42.0221 66.9931 42.0221 68.5742C42.0221 69.7933 42.0221 72.4602 41.9459 76.4986C41.8698 80.5371 41.8317 83.5849 41.8317 85.566V92.538C41.8317 96.1383 41.946 98.7862 42.1555 100.501C42.346 102.158 42.7841 103.587 43.4127 104.653C44.0414 105.758 44.9938 106.52 46.3082 106.939C47.6226 107.415 49.4704 107.663 51.8896 107.663C54.0231 107.663 56.29 106.939 58.5759 105.53C60.9189 104.139 62.6715 101.396 63.8525 97.4527H66.3479C65.8717 99.4148 65.0335 101.967 63.8906 104.92C63.0524 107.187 62.2333 108.654 61.3571 109.32C60.4808 110.044 59.1855 110.387 57.3948 110.387C55.0518 110.387 52.042 110.235 48.4036 109.873C44.7271 109.53 41.6793 109.358 39.2219 109.358L35.4883 109.473L29.8688 109.644ZM71.815 109.644V107.377L72.8437 107.549C74.7867 107.549 76.044 106.234 76.7297 103.701C77.4346 101.167 77.7584 97.6432 77.7584 93.2048V87.509L77.6632 82.2324C77.6632 79.6608 77.6632 77.2415 77.587 75.0699C77.4346 68.4599 77.3584 65.0501 77.3584 64.8215C77.3584 60.8593 75.8916 58.8781 72.8818 58.8781C72.6723 58.8781 72.3294 58.9543 71.815 59.0686V56.897H74.3486L77.5108 57.0875H83.3017L86.6544 56.897H89.1879V59.0686C87.4925 59.0686 86.2162 59.6973 85.3971 60.9355C84.5589 62.1546 83.9684 63.8309 83.7208 65.9263C83.4541 68.0598 83.3017 70.841 83.3017 74.308L83.3398 78.1559L83.3779 82.2324C83.3779 83.5849 83.3779 85.0517 83.3779 86.5947C83.3779 88.1377 83.3779 89.7569 83.3779 91.5094C83.3779 92.6142 83.416 93.7191 83.4541 94.7096C83.4922 95.7383 83.5684 96.5384 83.6065 97.2051L83.7779 101.091C83.7779 102.996 84.1208 104.539 84.8828 105.72C85.6638 106.939 86.7306 107.549 88.1211 107.549L89.1879 107.377V109.644C88.9974 109.644 88.1592 109.606 86.7306 109.53C85.2828 109.397 84.2351 109.358 83.6065 109.358H77.3203C76.4821 109.358 75.4534 109.397 74.2343 109.53C72.9961 109.606 72.1579 109.644 71.815 109.644ZM102.141 56.3446L104.446 55.2207C107.894 59.5449 111.133 63.5071 114.257 67.1074C117.228 70.5553 120.39 74.1175 123.8 77.7559L131.363 85.6803L138.449 92.7666L143.097 97.3956C143.802 98.1956 144.507 99.11 145.154 100.177H145.421L145.231 89.4902C145.231 89.0139 145.269 87.8519 145.345 86.0804C145.383 84.2516 145.421 82.7087 145.421 81.4133C145.421 80.2132 145.421 78.956 145.421 77.6035C145.421 76.251 145.421 74.8414 145.421 73.2793C145.421 68.498 144.907 64.9358 143.878 62.5927C142.849 60.2497 140.754 59.0686 137.592 59.0686V56.897H139.363C140.392 56.897 141.63 56.9732 143.097 57.1637C144.564 57.3352 145.897 57.4114 147.174 57.4114C148.869 57.4114 150.298 57.3352 151.364 57.1637C152.431 56.9732 153.46 56.897 154.45 56.897H155.917V59.0686C155.612 58.9924 155.25 58.9543 154.965 58.8781C154.66 58.84 154.336 58.8019 154.05 58.8019C152.755 58.8019 151.803 59.1448 151.212 59.8687C150.621 60.5354 150.221 61.2974 150.069 62.1165L149.593 65.4882C149.593 66.9931 149.498 68.898 149.345 71.1458C149.155 73.4127 149.078 74.7842 149.078 75.3938V94.9954C149.078 98.1575 149.117 100.729 149.155 102.748C149.193 104.73 149.231 107.034 149.307 109.644L148.05 110.52C145.497 107.93 143.688 106.006 142.487 104.806C141.554 103.853 139.725 102.005 136.944 99.2243C135.363 97.6432 133.515 95.8145 131.401 93.7191L117.99 80.5752C114.504 77.1273 111.971 74.4032 110.39 72.4221C108.751 70.4791 107.532 68.498 106.656 66.5169H106.218C106.218 66.8788 106.218 67.6598 106.294 68.8218C106.389 69.9267 106.427 70.7458 106.427 71.2982L106.904 96.1002C106.904 97.6432 106.942 99.0338 107.056 100.253C107.17 101.491 107.285 102.52 107.418 103.339C107.685 104.806 108.237 105.872 109.19 106.558C110.104 107.149 111.533 107.454 113.438 107.454H114.542V109.644H112.828C112.199 109.644 111.723 109.606 111.418 109.53C111.056 109.435 110.656 109.397 110.218 109.358C109.78 109.282 109.304 109.282 108.751 109.282L104.961 109.092C102.979 109.092 101.151 109.206 99.6078 109.435L98.9411 109.53L98.1791 109.644H97.5505H96.4075V107.454C99.0173 107.454 100.751 106.558 101.665 104.691C102.579 102.825 103.018 100.024 103.018 96.1764L102.808 89.2806C102.808 87.8138 102.808 86.1566 102.732 84.2135C102.656 82.3467 102.618 81.3181 102.618 81.28C102.618 78.6702 102.618 75.9462 102.541 73.0888C102.465 70.2695 102.389 67.1455 102.294 63.8309C102.179 60.4592 102.141 57.9638 102.141 56.3446ZM163.213 109.644V107.377L164.28 107.549C166.185 107.549 167.442 106.234 168.166 103.701C168.832 101.167 169.194 97.6432 169.194 93.2048V87.509L169.099 82.2324C169.099 79.6608 169.061 77.2415 169.023 75.0699C168.871 68.4599 168.794 65.0501 168.794 64.8215C168.794 60.8593 167.29 58.8781 164.28 58.8781C164.07 58.8781 163.727 58.9543 163.213 59.0686V56.897H165.747L168.947 57.0875H174.738L178.052 56.897H180.586V59.0686C178.89 59.0686 177.614 59.6973 176.795 60.9355C175.957 62.1546 175.404 63.8309 175.119 65.9263C174.852 68.0598 174.738 70.841 174.738 74.308L174.776 78.1559L174.814 82.2324C174.814 83.5849 174.814 85.0517 174.814 86.5947C174.814 88.1377 174.814 89.7569 174.814 91.5094C174.814 92.6142 174.814 93.7191 174.89 94.7096C174.928 95.7383 174.966 96.5384 175.043 97.2051L175.176 101.091C175.176 102.996 175.557 104.539 176.319 105.72C177.062 106.939 178.128 107.549 179.519 107.549L180.586 107.377V109.644C180.433 109.644 179.595 109.606 178.128 109.53C176.719 109.397 175.633 109.358 175.004 109.358H168.718C167.918 109.358 166.889 109.397 165.67 109.53C164.394 109.606 163.594 109.644 163.213 109.644ZM188.758 109.644V107.377C190.777 107.377 192.225 106.787 193.101 105.606C193.977 104.406 194.454 103.187 194.606 102.005C194.72 100.729 194.816 99.4719 194.892 98.0813C194.968 96.7288 194.968 95.1097 194.968 93.1667V81.1276L195.12 76.3843V71.1839C195.12 67.3931 194.72 64.3834 193.977 62.2879C193.177 60.1354 191.634 59.0686 189.272 59.0686V56.897H191.806L193.349 57.0113L194.968 57.0875H200.911L202.53 57.0113L204.073 56.897H206.607V59.0686H204.988C203.635 59.0686 202.645 59.8687 202.016 61.3736C201.73 62.1546 201.464 63.1833 201.254 64.3834C201.026 65.6025 200.949 66.9931 200.949 68.5742C200.949 69.7933 200.911 72.4602 200.835 76.4986C200.797 80.5371 200.74 83.5849 200.74 85.566V92.538C200.74 96.1383 200.835 98.7862 201.026 100.501C201.254 102.158 201.654 103.587 202.302 104.653C202.93 105.758 203.921 106.52 205.178 106.939C206.493 107.415 208.36 107.663 210.76 107.663C212.912 107.663 215.16 106.939 217.503 105.53C219.789 104.139 221.542 101.396 222.723 97.4527H225.218C224.742 99.4148 223.961 101.967 222.799 104.92C221.98 107.187 221.103 108.654 220.265 109.32C219.408 110.044 218.056 110.387 216.265 110.387C213.941 110.387 210.969 110.235 207.274 109.873C203.597 109.53 200.549 109.358 198.092 109.358L194.377 109.473L188.758 109.644Z" fill="#2B2A29"/>
</svg>
