<svg width="190" height="47" viewBox="0 0 190 47" fill="none" xmlns="http://www.w3.org/2000/svg">
<path d="M66.6805 6.74485C67.7159 7.32006 68.5294 8.1365 69.1211 9.18488C69.7127 10.2333 70.0086 11.4394 70.0086 12.8124C70.0086 14.1855 69.7127 15.4009 69.1211 16.4493C68.5294 17.507 67.7159 18.3234 66.6805 18.8986C65.6452 19.4738 64.4711 19.7614 63.1584 19.7614C62.2339 19.7614 61.3834 19.6037 60.6161 19.279C59.8488 18.9543 59.2017 18.4718 58.684 17.8317V19.5852H55.6796V0.760742H58.8412V7.69117C59.3774 7.0974 60.0152 6.65207 60.7456 6.3459C61.4759 6.03974 62.2802 5.8913 63.1584 5.8913C64.4711 5.88202 65.6452 6.16963 66.6805 6.74485ZM65.6729 15.8741C66.4217 15.0948 66.8007 14.0742 66.8007 12.8032C66.8007 11.5321 66.4217 10.5116 65.6729 9.73226C64.9241 8.95293 63.9627 8.56327 62.8071 8.56327C62.049 8.56327 61.3649 8.73955 60.7548 9.08282C60.1447 9.4261 59.664 9.92709 59.3127 10.5672C58.9614 11.2074 58.7857 11.9589 58.7857 12.8032C58.7857 13.6474 58.9614 14.3897 59.3127 15.0391C59.664 15.6793 60.1447 16.1802 60.7548 16.5235C61.3649 16.8668 62.0398 17.0431 62.8071 17.0431C63.9627 17.0431 64.9148 16.6534 65.6729 15.8741Z" fill="#0A747F"/>
<path d="M82.5533 7.31084C83.6072 8.26644 84.1341 9.70449 84.1341 11.6342V19.5759H81.1481V17.9245C80.7599 18.5183 80.2052 18.9729 79.4934 19.2791C78.7723 19.5945 77.9126 19.7522 76.9049 19.7522C75.8973 19.7522 75.0098 19.5759 74.2518 19.2327C73.4937 18.8894 72.9113 18.407 72.4953 17.7853C72.0793 17.1637 71.8759 16.4679 71.8759 15.6886C71.8759 14.4732 72.3289 13.4898 73.2256 12.7568C74.1316 12.0239 75.546 11.6528 77.4873 11.6528H80.9725V11.4487C80.9725 10.5024 80.6859 9.77871 80.122 9.26843C79.5581 8.75816 78.7168 8.50767 77.6075 8.50767C76.8495 8.50767 76.1006 8.62828 75.3703 8.86022C74.64 9.10144 74.0206 9.42616 73.5122 9.85293L72.2734 7.54279C72.9853 7.00468 73.8358 6.58718 74.8249 6.29958C75.8233 6.01197 76.8772 5.8728 77.9865 5.8728C79.9833 5.88208 81.4994 6.36452 82.5533 7.31084ZM79.6783 16.904C80.2977 16.5421 80.7229 16.0226 80.9817 15.3453V13.7681H77.7184C75.8973 13.7681 74.9913 14.3712 74.9913 15.568C74.9913 16.1432 75.2224 16.5978 75.6754 16.9411C76.1284 17.2751 76.7663 17.4514 77.5705 17.4514C78.3563 17.4514 79.0589 17.2658 79.6783 16.904Z" fill="#0A747F"/>
<path d="M91.3448 0.760742H88.1832V19.5852H91.3448V0.760742Z" fill="#0A747F"/>
<path d="M104.259 18.8429C103.89 19.149 103.437 19.3717 102.91 19.5294C102.383 19.6778 101.819 19.7613 101.227 19.7613C99.748 19.7613 98.6017 19.3717 97.7882 18.5924C96.9747 17.813 96.5772 16.6812 96.5772 15.1967V8.67452H94.3492V6.14172H96.5772V3.04297H99.7388V6.14172H103.353V8.67452H99.7388V15.1225C99.7388 15.7812 99.8959 16.2822 100.219 16.6348C100.543 16.978 101.005 17.1543 101.606 17.1543C102.318 17.1543 102.9 16.9688 103.372 16.5977L104.259 18.8429Z" fill="#0A747F"/>
<path d="M107.014 3.25647C106.626 2.89464 106.432 2.44003 106.432 1.90192C106.432 1.36382 106.626 0.909212 107.014 0.547382C107.402 0.185553 107.883 0 108.456 0C109.029 0 109.51 0.176276 109.898 0.519551C110.287 0.862825 110.481 1.29888 110.481 1.8277C110.481 2.38436 110.287 2.85752 109.908 3.23791C109.529 3.61829 109.048 3.81313 108.456 3.81313C107.883 3.80385 107.402 3.6183 107.014 3.25647ZM106.866 6.03049H110.028V19.5759H106.866V6.03049Z" fill="#0A747F"/>
<path d="M119.679 13.768L117.331 16.004V19.5852H114.169V0.760742H117.331V12.1259L123.876 6.03046H127.666L122.027 11.7177L128.203 19.5852H124.357L119.679 13.768Z" fill="#0A747F"/>
<path d="M58.0924 41.0537C56.9831 40.4599 56.1141 39.6342 55.4854 38.5765C54.8661 37.5189 54.5518 36.3221 54.5518 34.9861C54.5518 33.6501 54.8661 32.4533 55.4854 31.4049C56.1048 30.3565 56.9738 29.5401 58.0739 28.9463C59.174 28.3525 60.4405 28.0557 61.8549 28.0557C63.1861 28.0557 64.3509 28.3247 65.3585 28.8721C66.3569 29.4102 67.115 30.1895 67.6234 31.2101L65.1921 32.6296C64.8039 32.0079 64.3232 31.5348 63.7408 31.2193C63.1583 30.9039 62.5205 30.7462 61.8364 30.7462C60.6531 30.7462 59.6824 31.1266 58.9059 31.8966C58.1294 32.6667 57.7411 33.6965 57.7411 34.9768C57.7411 36.2664 58.1201 37.2869 58.8874 38.057C59.6547 38.827 60.6346 39.2074 61.8364 39.2074C62.5297 39.2074 63.1676 39.0497 63.7408 38.7343C64.3232 38.4188 64.8039 37.9549 65.1921 37.324L67.6234 38.7435C67.0965 39.7548 66.3384 40.5434 65.34 41.0908C64.3416 41.6382 63.1768 41.9165 61.8641 41.9165C60.4682 41.9443 59.211 41.6474 58.0924 41.0537Z" fill="#0A747F"/>
<path d="M72.5323 41.0537C71.4322 40.4599 70.5817 39.6342 69.9623 38.5766C69.3429 37.5189 69.0378 36.3221 69.0378 34.9861C69.0378 33.6501 69.3429 32.4533 69.9623 31.4049C70.5817 30.3565 71.4322 29.5401 72.5323 28.9463C73.6231 28.3525 74.8619 28.0557 76.2208 28.0557C77.5982 28.0557 78.837 28.3525 79.9371 28.9463C81.028 29.5401 81.8877 30.3565 82.5071 31.4049C83.1265 32.4533 83.4315 33.6501 83.4315 34.9861C83.4315 36.3221 83.1265 37.5189 82.5071 38.5766C81.8877 39.6342 81.0372 40.4599 79.9371 41.0537C78.837 41.6475 77.5982 41.9444 76.2208 41.9444C74.8619 41.9444 73.6231 41.6475 72.5323 41.0537ZM79.1051 38.057C79.8631 37.2777 80.2422 36.2571 80.2422 34.9861C80.2422 33.715 79.8631 32.6945 79.1051 31.9152C78.3471 31.1359 77.3856 30.7462 76.2208 30.7462C75.056 30.7462 74.1038 31.1359 73.355 31.9152C72.6062 32.6945 72.2272 33.715 72.2272 34.9861C72.2272 36.2571 72.6062 37.2777 73.355 38.057C74.1038 38.8363 75.0653 39.226 76.2208 39.226C77.3856 39.226 78.3471 38.8363 79.1051 38.057Z" fill="#0A747F"/>
<path d="M107.541 29.5496C108.539 30.5423 109.029 32.0268 109.029 34.0029V41.7683H105.868V34.4111C105.868 33.2236 105.609 32.3329 105.082 31.7391C104.555 31.1361 103.806 30.8392 102.836 30.8392C101.772 30.8392 100.922 31.1918 100.284 31.8876C99.6463 32.5927 99.3227 33.5947 99.3227 34.8936V41.7683H96.1611V34.4111C96.1611 33.2236 95.9023 32.3329 95.3753 31.7391C94.8484 31.1361 94.0996 30.8392 93.1289 30.8392C92.0473 30.8392 91.1968 31.1825 90.559 31.8783C89.9304 32.5741 89.6068 33.5761 89.6068 34.8936V41.7683H86.4452V28.2229H89.4496V29.9486C89.9581 29.3362 90.5867 28.8723 91.3448 28.5569C92.1028 28.2322 92.944 28.0745 93.8685 28.0745C94.8761 28.0745 95.7729 28.2693 96.5586 28.6497C97.3444 29.0301 97.9638 29.596 98.4168 30.3382C98.9714 29.6238 99.6925 29.0765 100.561 28.6775C101.44 28.2786 102.41 28.0837 103.464 28.0837C105.202 28.0652 106.552 28.5569 107.541 29.5496Z" fill="#0A747F"/>
<path d="M124.089 28.9278C125.124 29.503 125.938 30.3194 126.529 31.3678C127.121 32.4162 127.417 33.6223 127.417 34.9954C127.417 36.3685 127.121 37.5838 126.529 38.6322C125.938 39.6899 125.124 40.5063 124.089 41.0815C123.053 41.6567 121.879 41.9443 120.567 41.9443C118.745 41.9443 117.303 41.332 116.24 40.1166V46.6852H113.079V28.2134H116.083V29.9854C116.601 29.3453 117.248 28.8628 118.015 28.5381C118.782 28.2134 119.633 28.0557 120.557 28.0557C121.879 28.0649 123.053 28.3525 124.089 28.9278ZM123.081 38.057C123.83 37.2777 124.209 36.2571 124.209 34.9861C124.209 33.715 123.83 32.6945 123.081 31.9152C122.332 31.1359 121.371 30.7462 120.215 30.7462C119.457 30.7462 118.773 30.9225 118.163 31.2657C117.553 31.609 117.072 32.11 116.721 32.7502C116.37 33.3903 116.194 34.1418 116.194 34.9861C116.194 35.8304 116.37 36.5726 116.721 37.222C117.072 37.8622 117.553 38.3632 118.163 38.7064C118.773 39.0497 119.448 39.226 120.215 39.226C121.371 39.226 122.332 38.8363 123.081 38.057Z" fill="#0A747F"/>
<path d="M132.797 41.0537C131.697 40.4599 130.847 39.6342 130.227 38.5766C129.608 37.5189 129.303 36.3221 129.303 34.9861C129.303 33.6501 129.608 32.4533 130.227 31.4049C130.847 30.3565 131.697 29.5401 132.797 28.9463C133.888 28.3525 135.127 28.0557 136.486 28.0557C137.863 28.0557 139.102 28.3525 140.202 28.9463C141.293 29.5401 142.153 30.3565 142.772 31.4049C143.391 32.4533 143.696 33.6501 143.696 34.9861C143.696 36.3221 143.391 37.5189 142.772 38.5766C142.153 39.6342 141.302 40.4599 140.202 41.0537C139.102 41.6475 137.863 41.9444 136.486 41.9444C135.127 41.9444 133.897 41.6475 132.797 41.0537ZM139.37 38.057C140.128 37.2777 140.507 36.2571 140.507 34.9861C140.507 33.715 140.128 32.6945 139.37 31.9152C138.612 31.1359 137.65 30.7462 136.486 30.7462C135.321 30.7462 134.369 31.1359 133.62 31.9152C132.871 32.6945 132.492 33.715 132.492 34.9861C132.492 36.2571 132.871 37.2777 133.62 38.057C134.369 38.8363 135.33 39.226 136.486 39.226C137.65 39.226 138.612 38.8363 139.37 38.057Z" fill="#0A747F"/>
<path d="M147.69 41.5086C146.645 41.2209 145.813 40.8591 145.185 40.4138L146.396 38.0016C147.006 38.4098 147.727 38.7345 148.587 38.9757C149.437 39.217 150.278 39.3468 151.101 39.3468C152.987 39.3468 153.93 38.8459 153.93 37.8531C153.93 37.38 153.69 37.046 153.209 36.8604C152.728 36.6749 151.961 36.4986 150.898 36.3316C149.788 36.1646 148.882 35.9698 148.18 35.7471C147.477 35.5244 146.876 35.1441 146.359 34.5967C145.841 34.0493 145.591 33.2792 145.591 32.3051C145.591 31.0155 146.128 29.9949 147.2 29.2249C148.272 28.4549 149.714 28.0745 151.536 28.0745C152.46 28.0745 153.394 28.1765 154.318 28.3899C155.243 28.6033 156.001 28.8816 156.592 29.2435L155.381 31.6557C154.235 30.9784 152.95 30.6444 151.517 30.6444C150.593 30.6444 149.89 30.7835 149.409 31.0619C148.929 31.3402 148.688 31.7113 148.688 32.1659C148.688 32.6762 148.947 33.0287 149.456 33.2421C149.973 33.4555 150.768 33.6504 151.841 33.8359C152.922 34.0029 153.801 34.1977 154.494 34.4204C155.187 34.6431 155.779 35.0142 156.278 35.5337C156.777 36.0626 157.027 36.8048 157.027 37.7696C157.027 39.0407 156.481 40.052 155.381 40.8127C154.281 41.5735 152.793 41.9539 150.907 41.9539C149.807 41.9446 148.735 41.7962 147.69 41.5086Z" fill="#0A747F"/>
<path d="M159.902 25.4393C159.514 25.0775 159.32 24.6229 159.32 24.0848C159.32 23.5467 159.514 23.0921 159.902 22.7302C160.29 22.3684 160.771 22.1829 161.344 22.1829C161.917 22.1829 162.398 22.3591 162.786 22.7024C163.175 23.0457 163.369 23.4817 163.369 24.0106C163.369 24.5672 163.175 25.0404 162.796 25.4208C162.417 25.8012 161.936 25.996 161.344 25.996C160.771 25.9867 160.29 25.8012 159.902 25.4393ZM159.754 28.2134H162.916V41.7588H159.754V28.2134Z" fill="#0A747F"/>
<path d="M175.174 41.0257C174.804 41.3319 174.351 41.5545 173.824 41.7123C173.297 41.8607 172.733 41.9442 172.142 41.9442C170.663 41.9442 169.516 41.5545 168.703 40.7752C167.889 39.9959 167.492 38.864 167.492 37.3796V30.8574H165.264V28.3246H167.492V25.2258H170.653V28.3246H174.268V30.8574H170.653V37.2961C170.653 37.9548 170.81 38.4558 171.134 38.8084C171.458 39.1516 171.92 39.3279 172.521 39.3279C173.232 39.3279 173.815 39.1424 174.286 38.7712L175.174 41.0257Z" fill="#0A747F"/>
<path d="M189.956 36.0066H179.362C179.546 37.0086 180.027 37.7972 180.813 38.3817C181.599 38.9662 182.569 39.2538 183.734 39.2538C185.213 39.2538 186.443 38.7621 187.404 37.7787L189.096 39.7363C188.486 40.4599 187.719 41.0166 186.794 41.3877C185.87 41.7588 184.825 41.9444 183.66 41.9444C182.181 41.9444 180.868 41.6475 179.741 41.0537C178.613 40.4599 177.744 39.6342 177.124 38.5766C176.505 37.5189 176.2 36.3221 176.2 34.9861C176.2 33.6687 176.496 32.4811 177.097 31.4235C177.698 30.3658 178.53 29.5401 179.583 28.9463C180.647 28.3525 181.839 28.0557 183.17 28.0557C184.483 28.0557 185.657 28.3433 186.693 28.9278C187.728 29.5123 188.541 30.3287 189.124 31.3863C189.706 32.444 189.993 33.6687 189.993 35.051C190.011 35.283 189.993 35.5984 189.956 36.0066ZM180.619 31.4977C179.916 32.1007 179.491 32.8986 179.343 33.8913H187.007C186.868 32.9079 186.461 32.1193 185.768 31.507C185.075 30.8946 184.215 30.5977 183.189 30.5977C182.172 30.5977 181.321 30.9039 180.619 31.4977Z" fill="#0A747F"/>
<path d="M20.2639 16.3009C29.4252 10.994 35.2123 -0.0649727 45.8249 13.165V0.779297H0V1.0298C0 7.03245 3.05068 12.664 8.17213 15.7628C11.8792 18.008 16.2426 18.7223 20.2639 16.3009Z" fill="#D7D8D8"/>
<path d="M14.0239 22.6932C1.46987 21.7655 0.0832004 7.13456 0 6.09546V46.7595H45.8249V14.0464C29.9614 6.03051 28.6857 23.7694 14.0239 22.6932Z" fill="#0A747F"/>
<path d="M20.0328 11.1517C29.1941 5.84491 36.8116 -0.816464 45.8249 13.165V0.779297H0C0 9.37971 8.394 15.5308 16.5199 12.7939C17.7032 12.395 18.8772 11.8476 20.0328 11.1517Z" fill="#5EB7C4"/>
</svg>
