<svg width="256" height="36" viewBox="0 0 256 36" fill="none" xmlns="http://www.w3.org/2000/svg">
<path d="M31.5023 0.000244141H142.313L106.378 35.4056H26.2397L31.5023 0.000244141Z" fill="#9CD8F7"/>
<path d="M9.17114 35.4055H10.5485V14.9417H9.17114V35.4055Z" fill="#444342"/>
<path d="M13.7531 12.6487C13.5894 12.5907 8.31119 12.1252 7.57951 12.0508C6.64509 12.1264 5.79476 14.4635 7.18544 15.7563L13.3026 16.3597C13.4041 15.1191 13.6514 13.889 13.7531 12.6487Z" fill="#444342"/>
<path d="M12.1297 19.1126C12.4924 16.0767 12.855 13.0418 13.2178 10.0064C13.2686 9.63308 13.3212 9.05213 13.6777 8.46807C16.2446 4.26217 23.9316 0.807187 28.3555 0C26.6019 11.8019 24.8474 23.6032 23.0929 35.4054C19.4339 33.5958 14.6028 27.5798 13.5149 25.1761C12.9948 24.027 12.2667 22.3311 12.1085 19.855C12.0969 19.6705 12.1014 19.5057 12.1297 19.1126Z" fill="#444342"/>
<path d="M3.91853 32.6973C2.02823 32.6973 0.804327 33.2727 0.447185 33.8482C0.32782 34.0392 0.313763 34.218 0.403585 34.3798C0.638979 34.8037 1.50884 35.0569 2.73132 35.0569C4.81913 35.0569 6.2303 34.5419 6.92695 33.525C6.9858 33.4391 7.03965 33.35 7.08873 33.2556C6.3156 32.9707 5.41572 32.7593 4.39599 32.7092C4.23231 32.7009 4.07268 32.697 3.91829 32.697L3.91853 32.6973ZM10.4152 35.4268C10.4002 35.4092 9.35404 34.1853 7.41251 33.3826C7.35343 33.5002 7.28624 33.6129 7.21262 33.7209C6.44687 34.8375 4.93921 35.4037 2.73156 35.4037C1.34159 35.4037 0.407159 35.0998 0.101242 34.5477C-0.0495725 34.2757 -0.0314652 33.9622 0.152704 33.6649C0.606577 32.9347 2.10281 32.2513 4.41386 32.364C5.48624 32.416 6.42734 32.636 7.23168 32.9321C7.61169 31.8972 7.45874 30.4829 6.77543 28.7124C3.98405 21.4846 7.1988 15.0712 7.63623 14.6138L7.88664 14.8524C7.46422 15.2956 4.36764 21.5175 7.09802 28.5877C7.81326 30.4419 7.96598 31.9404 7.55308 33.0577C9.55012 33.8783 10.618 35.1288 10.6811 35.2044L10.4152 35.4271V35.4268Z" fill="#444342"/>
<path d="M49.8503 15.2091L45.0474 9.46198L49.6183 4.39478H47.4106L43.3963 8.90129V4.39478H41.5265V15.2091H43.3963V10.1566L47.595 15.2091H49.8503Z" fill="#3C3B3B"/>
<path d="M78.706 15.2091H76.8538V6.07971H72.5471V11.1457C72.5471 11.9486 72.4278 12.6574 72.1914 13.27C71.9541 13.8827 71.592 14.3587 71.1026 14.6994C70.6139 15.0393 69.994 15.2088 69.2428 15.2088V13.6491C69.4887 13.6491 69.7055 13.5856 69.8897 13.4552C70.076 13.3256 70.2332 13.1432 70.3616 12.9067C70.4901 12.669 70.5877 12.3918 70.6537 12.0733C70.7219 11.7529 70.7562 11.4027 70.7562 11.0218V4.39478H78.7057V15.2088L78.706 15.2091Z" fill="#3C3B3B"/>
<path d="M109.049 4.39478V8.56611H103.615V4.39478H101.791V15.2091H103.615V10.2499H109.049V15.2091H110.873V4.39478H109.049Z" fill="#3C3B3B"/>
<path d="M141.18 4.39478V8.56611H135.746V4.39478H133.923V15.2091H135.746V10.2499H141.18V15.2091H143.003V4.39478H141.18Z" fill="#3C3B3B"/>
<path d="M155.492 4.39478V6.07971H151.555V15.2091H149.717V4.39478H155.492Z" fill="#3C3B3B"/>
<path d="M165.9 9.06054C165.52 9.35972 165.014 9.50776 164.387 9.50776H162.952V6.00153H164.387C165.014 6.00153 165.52 6.14861 165.9 6.44302C166.282 6.73457 166.471 7.17035 166.471 7.74678C166.471 8.32296 166.282 8.76065 165.9 9.06054ZM167.792 5.96219C167.469 5.46229 167.018 5.07753 166.44 4.80386C165.864 4.53019 165.18 4.39502 164.387 4.39502H161.128V15.2091H162.952V11.1152H164.387C165.18 11.1152 165.864 10.9781 166.44 10.7064C167.018 10.4327 167.469 10.0444 167.792 9.53851C168.116 9.03456 168.277 8.43691 168.277 7.74678C168.277 7.05759 168.117 6.46257 167.792 5.96219Z" fill="#3C3B3B"/>
<path d="M207.148 11.8032C207.493 12.3739 207.944 12.819 208.499 13.1384C209.056 13.4572 209.663 13.6181 210.321 13.6181C210.837 13.6181 211.302 13.5501 211.72 13.4169C212.136 13.2819 212.51 13.0993 212.839 12.8683C213.168 12.6366 213.456 12.372 213.704 12.0733V14.2508C213.26 14.6215 212.773 14.9063 212.246 15.1018C211.714 15.2963 211.052 15.395 210.261 15.395C209.467 15.395 208.729 15.2601 208.043 14.9919C207.36 14.7256 206.765 14.339 206.26 13.8333C205.757 13.3296 205.363 12.7344 205.079 12.049C204.797 11.3646 204.655 10.6148 204.655 9.80098C204.655 8.97878 204.797 8.22332 205.079 7.53891C205.363 6.85258 205.757 6.26114 206.26 5.76195C206.765 5.26181 207.36 4.87514 208.043 4.60338C208.729 4.32971 209.467 4.19287 210.261 4.19287C211.052 4.19287 211.714 4.29156 212.246 4.48609C212.773 4.68348 213.26 4.97217 213.704 5.35311V7.51578C213.456 7.22709 213.168 6.96606 212.839 6.73434C212.51 6.50239 212.136 6.31978 211.72 6.18676C211.302 6.05159 210.837 5.98651 210.321 5.98651C209.663 5.98651 209.056 6.14314 208.499 6.45686C207.944 6.77058 207.493 7.21398 207.148 7.78564C206.804 8.35825 206.632 9.02884 206.632 9.80098C206.632 10.5636 206.804 11.2316 207.148 11.8032Z" fill="#3C3B3B"/>
<path d="M228.543 15.2091L223.739 9.46198L228.311 4.39478H226.102L222.088 8.90129V4.39478H220.219V15.2091H222.088V10.1566L226.288 15.2091H228.543Z" fill="#3C3B3B"/>
<path d="M252.505 9.60073C252.093 9.60073 251.731 9.53112 251.417 9.39214C251.103 9.25435 250.859 9.04767 250.684 8.774C250.509 8.50295 250.42 8.17421 250.42 7.79231C250.42 7.40206 250.509 7.07166 250.684 6.80347C250.859 6.53719 251.104 6.33122 251.417 6.18699C251.731 6.04253 252.093 5.97006 252.505 5.97006H253.942V9.60097H252.505V9.60073ZM254.682 4.39502H252.429C251.654 4.39502 250.977 4.53376 250.39 4.81125C249.802 5.09064 249.351 5.47898 249.031 5.97721C248.712 6.47711 248.551 7.06665 248.551 7.74678C248.551 8.42738 248.712 9.01882 249.031 9.52373C249.351 10.0274 249.802 10.4194 250.39 10.6971C250.568 10.7827 250.773 10.8294 250.968 10.8887L247.905 15.2091H250.096L252.829 11.1152H253.942V15.2091H255.778V4.39502H254.682Z" fill="#3C3B3B"/>
<path d="M236.709 10.883L238.176 7.45307L239.653 10.883H236.709ZM238.456 4.39478H237.897L232.895 15.2088H234.95L236.181 12.428H240.165L241.404 15.2088H243.473L238.456 4.39478H238.456Z" fill="#3C3B3B"/>
<path d="M191.553 13.5706L193.815 7.5296L196.078 13.5706H191.553ZM194.052 4.39478H193.579L189.573 13.5706H188.057V16.9074H189.802V15.2088H197.83V16.9074H199.56V13.5706H198.045L194.052 4.39478H194.052Z" fill="#3C3B3B"/>
<path d="M175.905 10.883L177.372 7.45307L178.849 10.883H175.905ZM177.092 4.39478L172.091 15.2088H174.146L175.376 12.428H179.361L180.599 15.2088H182.668L177.652 4.39478H177.092H177.092Z" fill="#3C3B3B"/>
<path d="M126.683 4.39478L119.348 11.5572V4.39478H117.554V15.749L125.447 8.03141V15.2091H127.238V4.39478H126.683Z" fill="#3C3B3B"/>
<path d="M94.5521 4.39478L87.2168 11.5572V4.39478H85.4242V15.749L93.3161 8.03141V15.2091H95.1068V4.39478H94.5521Z" fill="#3C3B3B"/>
<path d="M58.0174 10.883L59.4844 7.45307L60.9613 10.883H58.0174ZM59.2042 4.39478L54.2032 15.2088H56.2582L57.4888 12.428H61.4723L62.7122 15.2088H64.7812L59.7643 4.39478H59.2042Z" fill="#3C3B3B"/>
<path d="M52.5364 21.1348H54.2321V31.1161H41.9172V21.1348H43.6141V29.5609H47.2479V21.1348H48.9026V29.5609H52.5364V21.1348Z" fill="#3C3B3B"/>
<path d="M68.115 31.1161L63.6819 25.8105L67.902 21.1348H65.8626L62.1566 25.2937V21.1348H60.4307V31.1161H62.1566V26.4523L66.033 31.1161H68.115Z" fill="#3C3B3B"/>
<path d="M74.1427 27.9495C74.4367 28.4813 74.8379 28.9021 75.3461 29.2125C75.8543 29.5207 76.4371 29.6752 77.0932 29.6752C77.7575 29.6752 78.3431 29.5207 78.8513 29.2125C79.3595 28.9023 79.7586 28.4816 80.049 27.9495C80.3392 27.4179 80.4836 26.8095 80.4836 26.1232C80.4836 25.4404 80.3413 24.829 80.0564 24.2914C79.7724 23.7543 79.3752 23.3331 78.867 23.0303C78.3579 22.7259 77.7658 22.5731 77.093 22.5731C76.4368 22.5731 75.8541 22.7259 75.3459 23.0303C74.8377 23.3331 74.4364 23.7541 74.1424 24.2914C73.8472 24.829 73.6993 25.4404 73.6993 26.1232C73.6993 26.8095 73.8472 27.4179 74.1424 27.9495H74.1427ZM72.3024 24.0559C72.5602 23.4289 72.9233 22.8851 73.3934 22.4241C73.8644 21.9621 74.4152 21.6019 75.0452 21.3392C75.6782 21.0784 76.3603 20.9473 77.093 20.9473C77.8411 20.9473 78.532 21.0784 79.1572 21.3392C79.7855 21.6019 80.3337 21.9621 80.8038 22.4241C81.2748 22.8849 81.6377 23.4289 81.8945 24.0559C82.1516 24.6845 82.28 25.3727 82.28 26.1232C82.28 26.8662 82.1516 27.5557 81.8945 28.1914C81.6379 28.8284 81.2767 29.3808 80.8123 29.8456C80.3458 30.3122 79.7986 30.6764 79.1732 30.937C78.5449 31.1978 77.8516 31.3289 77.0932 31.3289C76.3503 31.3289 75.6644 31.1978 75.0323 30.937C74.4012 30.6764 73.8503 30.3122 73.3857 29.8456C72.9195 29.3808 72.5602 28.8284 72.3024 28.1914C72.0465 27.5554 71.9191 26.8662 71.9191 26.1232C71.9191 25.3727 72.0465 24.6845 72.3024 24.0559Z" fill="#3C3B3B"/>
<path d="M95.6484 31.1161H93.9387V22.6879H89.9634V27.3648C89.9634 28.106 89.8546 28.7596 89.6346 29.3251C89.4159 29.8913 89.0819 30.3309 88.6304 30.6455C88.1789 30.9583 87.6076 31.1159 86.9131 31.1159V29.6751C87.1411 29.6751 87.3403 29.6164 87.5106 29.4972C87.6829 29.3783 87.827 29.2088 87.9473 28.9906C88.0646 28.7711 88.1546 28.5151 88.2161 28.2207C88.2783 27.9262 88.31 27.602 88.31 27.2502V21.1345H95.6479V31.1161H95.6484Z" fill="#3C3B3B"/>
<path d="M107.018 27.1226H104.3L105.653 23.9561L107.018 27.1226ZM108.632 31.1159H110.542L105.653 20.5764L100.778 31.1159H102.675L103.812 28.5484H107.489L108.632 31.1159H108.632Z" fill="#3C3B3B"/>
<path d="M132.092 27.4161C131.834 27.7522 131.476 28.0018 131.016 28.163C130.608 28.3062 130.134 28.3751 129.61 28.3921V23.8557C130.134 23.8727 130.608 23.9416 131.016 24.0848C131.476 24.2457 131.834 24.4937 132.092 24.8272C132.348 25.1585 132.477 25.5917 132.477 26.1233C132.477 26.6475 132.348 27.0771 132.092 27.4161ZM126.483 28.163C126.023 28.0021 125.663 27.7522 125.406 27.4161C125.15 27.0771 125.023 26.6475 125.023 26.1233C125.023 25.5917 125.15 25.1585 125.406 24.8272C125.663 24.4937 126.023 24.246 126.483 24.0848C126.895 23.9404 127.373 23.8708 127.901 23.8548V28.3928C127.373 28.377 126.895 28.3072 126.483 28.1627V28.163ZM133.588 24.0562C133.189 23.4872 132.642 23.0476 131.948 22.7375C131.259 22.4311 130.479 22.2774 129.61 22.2755V21.1348H127.901V22.2755C127.032 22.2774 126.25 22.4311 125.556 22.7375C124.858 23.0476 124.309 23.4872 123.91 24.0562C123.511 24.6269 123.313 25.318 123.313 26.1235C123.313 26.9226 123.511 27.6101 123.91 28.1856C124.309 28.7601 124.858 29.2026 125.556 29.5108C126.251 29.8188 127.032 29.9728 127.901 29.9747V31.1164H129.61V29.9747C130.479 29.9728 131.259 29.8191 131.948 29.5108C132.642 29.2026 133.189 28.7601 133.588 28.1856C133.987 27.6101 134.187 26.9226 134.187 26.1235C134.187 25.318 133.987 24.6269 133.588 24.0562Z" fill="#3C3B3B"/>
<path d="M141.47 27.9495C141.764 28.4813 142.165 28.9021 142.674 29.2125C143.182 29.5207 143.764 29.6752 144.42 29.6752C145.085 29.6752 145.67 29.5207 146.178 29.2125C146.688 28.9023 147.087 28.4816 147.377 27.9495C147.667 27.4179 147.812 26.8095 147.812 26.1232C147.812 25.4404 147.669 24.829 147.384 24.2914C147.1 23.7543 146.703 23.3331 146.194 23.0303C145.686 22.7259 145.093 22.5731 144.42 22.5731C143.764 22.5731 143.182 22.7259 142.674 23.0303C142.165 23.3331 141.764 23.7541 141.47 24.2914C141.175 24.829 141.027 25.4404 141.027 26.1232C141.027 26.8095 141.175 27.4179 141.47 27.9495ZM139.63 24.0559C139.888 23.4289 140.252 22.8851 140.721 22.4241C141.193 21.9621 141.743 21.6019 142.374 21.3392C143.007 21.0784 143.688 20.9473 144.42 20.9473C145.169 20.9473 145.859 21.0784 146.485 21.3392C147.113 21.6019 147.662 21.9621 148.131 22.4241C148.603 22.8849 148.966 23.4289 149.222 24.0559C149.48 24.6845 149.608 25.3727 149.608 26.1232C149.608 26.8662 149.48 27.5557 149.222 28.1914C148.966 28.8284 148.605 29.3808 148.141 29.8456C147.674 30.3122 147.127 30.6764 146.501 30.937C145.873 31.1978 145.179 31.3289 144.42 31.3289C143.679 31.3289 142.991 31.1978 142.361 30.937C141.729 30.6764 141.179 30.3122 140.714 29.8456C140.248 29.3808 139.888 28.8284 139.63 28.1914C139.375 27.5554 139.247 26.8662 139.247 26.1232C139.247 25.3727 139.375 24.6845 139.63 24.0559H139.63Z" fill="#3C3B3B"/>
<path d="M153.898 21.1348H160.853V22.6879H158.215V31.1161H156.533V22.6879H153.898V21.1348Z" fill="#3C3B3B"/>
<path d="M167.152 27.9495C167.447 28.4813 167.848 28.9021 168.356 29.2125C168.864 29.5207 169.446 29.6752 170.102 29.6752C170.768 29.6752 171.353 29.5207 171.862 29.2125C172.37 28.9023 172.769 28.4816 173.061 27.9495C173.35 27.4179 173.494 26.8095 173.494 26.1232C173.494 25.4404 173.352 24.829 173.067 24.2914C172.782 23.7543 172.386 23.3331 171.878 23.0303C171.369 22.7259 170.777 22.5731 170.103 22.5731C169.446 22.5731 168.864 22.7259 168.356 23.0303C167.849 23.3331 167.447 23.7541 167.152 24.2914C166.858 24.829 166.71 25.4404 166.71 26.1232C166.71 26.8095 166.858 27.4179 167.152 27.9495H167.152ZM165.313 24.0559C165.57 23.4289 165.934 22.8851 166.404 22.4241C166.875 21.9621 167.425 21.6019 168.056 21.3392C168.69 21.0784 169.371 20.9473 170.102 20.9473C170.852 20.9473 171.541 21.0784 172.168 21.3392C172.796 21.6019 173.345 21.9621 173.814 22.4241C174.285 22.8849 174.649 23.4289 174.905 24.0559C175.162 24.6845 175.291 25.3727 175.291 26.1232C175.291 26.8662 175.162 27.5557 174.905 28.1914C174.649 28.8284 174.287 29.3808 173.822 29.8456C173.357 30.3122 172.81 30.6764 172.184 30.937C171.555 31.1978 170.862 31.3289 170.102 31.3289C169.361 31.3289 168.674 31.1978 168.043 30.937C167.412 30.6764 166.862 30.3122 166.397 29.8456C165.931 29.3808 165.57 28.8284 165.313 28.1914C165.057 27.5554 164.929 26.8662 164.929 26.1232C164.929 25.3727 165.057 24.6845 165.313 24.0559Z" fill="#3C3B3B"/>
<path d="M186.249 21.1348V22.6879H182.616V31.1161H180.918V21.1348H186.249Z" fill="#3C3B3B"/>
<path d="M195.856 25.4408C195.504 25.7166 195.038 25.8525 194.459 25.8525H193.134V22.6164H194.459C195.038 22.6164 195.504 22.7522 195.856 23.023C196.208 23.2931 196.383 23.6953 196.383 24.2274C196.383 24.7602 196.208 25.1643 195.856 25.4406V25.4408ZM197.601 22.5811C197.304 22.1198 196.888 21.7644 196.354 21.5119C195.823 21.2585 195.191 21.1348 194.459 21.1348H191.452V31.1164H193.133V27.3372H194.459C195.19 27.3372 195.822 27.2104 196.354 26.9591C196.888 26.7066 197.303 26.3479 197.601 25.8816C197.902 25.417 198.051 24.8646 198.051 24.2276C198.051 23.5914 197.902 23.0421 197.601 22.5811H197.601Z" fill="#3C3B3B"/>
<path d="M224.232 27.4161C223.974 27.7522 223.616 28.0018 223.156 28.163C222.748 28.3062 222.273 28.3751 221.751 28.3921V23.8557C222.272 23.8727 222.748 23.9416 223.156 24.0848C223.616 24.2457 223.974 24.4937 224.232 24.8272C224.488 25.1585 224.617 25.5917 224.617 26.1233C224.617 26.6475 224.488 27.0771 224.232 27.4161ZM218.623 28.163C218.163 28.0021 217.803 27.7522 217.546 27.4161C217.291 27.0771 217.163 26.6475 217.163 26.1233C217.163 25.5917 217.291 25.1585 217.546 24.8272C217.803 24.4937 218.163 24.246 218.623 24.0848C219.036 23.9404 219.513 23.8708 220.041 23.8548V28.3928C219.513 28.377 219.036 28.3072 218.623 28.1627V28.163ZM225.728 24.0562C225.329 23.4872 224.782 23.0476 224.088 22.7375C223.399 22.4311 222.619 22.2774 221.751 22.2755V21.1348H220.041V22.2755C219.172 22.2774 218.39 22.4311 217.696 22.7375C216.997 23.0476 216.449 23.4872 216.051 24.0562C215.651 24.6269 215.453 25.318 215.453 26.1235C215.453 26.9226 215.651 27.6101 216.051 28.1856C216.449 28.7601 216.997 29.2026 217.696 29.5108C218.391 29.8188 219.172 29.9728 220.041 29.9747V31.1164H221.751V29.9747C222.619 29.9728 223.399 29.8191 224.088 29.5108C224.782 29.2026 225.329 28.7601 225.728 28.1856C226.127 27.6101 226.328 26.9226 226.328 26.1235C226.328 25.318 226.127 24.6269 225.728 24.0562Z" fill="#3C3B3B"/>
<path d="M205.09 27.1229L206.444 23.9563L207.808 27.1229H205.09ZM206.186 21.1345L201.57 31.1161H203.467L204.603 28.5487H208.28L209.423 31.1161H211.333L206.703 21.1345H206.186H206.186Z" fill="#3C3B3B"/>
<path d="M247.573 31.1161L254.347 24.4899V31.1161H256V21.1348H255.488L248.717 27.746V21.1348H247.063V31.1161H247.573Z" fill="#3C3B3B"/>
<path d="M232.465 31.1161L239.24 24.4899V31.1161H240.893V21.1348H240.38L233.61 27.7448V21.1348H231.955V31.1161H232.465Z" fill="#3C3B3B"/>
</svg>
