<svg width="170" height="192" viewBox="0 0 170 192" fill="none" xmlns="http://www.w3.org/2000/svg">
<path d="M24.1906 43.2133C24.2707 42.973 25.3921 42.973 25.5523 43.0531C25.7125 43.1332 25.2319 44.0143 25.1518 44.2546C23.4696 50.8229 18.183 45.6965 15.7799 43.5337C15.3794 43.2133 15.1391 42.973 14.8187 42.8929C14.5784 42.8128 14.3381 42.7327 14.1779 42.7327C14.4983 43.2934 15.5396 44.9756 17.3019 47.8592C18.1029 49.1408 18.6636 50.5025 18.9039 51.8643C19.2243 53.226 19.2243 54.3474 19.0641 55.3887C18.8238 56.3499 18.5034 57.3111 18.1029 58.2724C17.7024 59.1535 17.1417 59.8744 16.5008 60.2749C16.2605 60.5152 15.86 60.7555 15.3794 60.9958C14.8988 61.2361 14.3381 61.3963 13.6973 61.5565C13.0565 61.7167 12.3356 61.7167 11.6147 61.4764C10.8137 61.3162 10.1729 60.9157 9.45194 60.2749C8.73103 59.6341 8.25042 58.9933 7.93002 58.2724C7.60961 57.5514 7.44941 56.8305 7.44941 56.2698C7.44941 55.629 7.52951 55.0683 7.68971 54.5076C7.84992 53.9469 8.09022 53.4663 8.33052 53.1459C8.57083 52.7454 8.81113 52.5852 8.97133 52.5051C9.13154 52.425 9.29174 52.425 9.37184 52.5852C9.45194 52.7454 9.37184 52.9056 9.13153 53.0658C8.57083 53.3862 8.49073 54.1872 8.73103 55.3086C8.97133 56.43 9.53204 57.5514 10.4132 58.5127C11.054 59.2336 11.9351 59.7943 12.9764 60.1147C14.0177 60.4351 14.8988 60.2749 15.6197 59.7142C17.1417 58.5127 17.9427 56.9106 18.1029 54.828C18.2631 52.7454 17.7024 50.6627 16.4207 48.5C15.2993 46.6577 14.3381 45.1358 13.5371 43.8541C13.5371 43.9342 13.457 44.1745 13.3769 44.6552C13.2968 45.0557 13.2167 45.4562 13.1366 45.6965C13.0565 45.9368 12.8963 46.2572 12.7361 46.6577C12.5759 47.0582 12.3356 47.3786 12.0152 47.699C11.6948 48.0194 11.3744 48.3398 10.9739 48.5801C10.253 49.0607 9.53204 49.301 8.73103 49.4612C7.93002 49.5413 7.20911 49.5413 6.4882 49.301C5.76729 49.0607 5.04637 48.7403 4.32546 48.2597C3.60455 47.7791 2.96374 47.2184 2.48314 46.5776C1.92243 45.9368 1.44182 45.2159 1.04132 44.4148C0.640809 43.6138 0.320405 42.8128 0.160202 42.0118C0 40.8103 0 40.0093 0 39.2083C0.0801012 38.4073 0.320405 37.6062 0.801012 36.8052C1.28162 36.0042 1.84233 35.2833 2.56324 34.6425C3.20405 34.0818 3.92496 33.7614 4.64587 33.6813C5.36678 33.6012 6.08769 33.7614 6.8086 34.1619C7.52951 34.4823 8.25042 35.1231 8.97133 35.844C10.8938 37.7664 11.7749 39.1282 13.2968 41.371C13.2968 40.9705 13.7774 40.4899 11.7749 37.6062C11.2142 36.8853 12.1754 36.5649 12.4958 36.8052C15.86 40.4098 17.6223 42.0118 18.5034 42.6526C19.3044 43.2934 23.2293 47.6189 24.1906 43.2133ZM10.5734 47.3786C11.1341 46.9781 11.5346 46.5776 11.855 46.097C12.4157 45.1358 12.4958 44.575 12.656 43.5337C12.7361 43.0531 12.8162 42.6526 12.8162 42.4924C8.33052 35.9241 5.04637 33.5211 3.04384 35.3634C2.32293 36.0042 1.92243 36.9654 1.92243 38.2471C1.92243 39.4486 2.24283 40.7302 2.88364 41.9317C3.52445 43.1332 4.24536 44.3347 5.12648 45.3761C6.00759 46.4174 6.8887 47.1383 7.93002 47.5388C8.97133 47.9393 9.85245 47.9393 10.5734 47.3786ZM32.3609 29.516C32.2808 29.2757 32.2808 29.1155 32.441 29.0354C32.6012 28.9553 32.7614 29.0354 32.8415 29.2757C32.9216 29.3558 32.9216 29.516 33.0017 29.7563C33.0818 29.9966 33.1619 30.0767 33.1619 30.2369C34.6037 33.6813 33.4022 36.4848 32.441 37.9267C31.8002 38.8078 31.0793 39.2083 30.2782 39.1282C29.4772 39.0481 28.7563 38.4073 28.0354 37.3659C27.6349 36.7251 27.1543 36.0843 26.6737 35.3634C26.1931 36.1644 25.1518 37.5261 23.71 39.2884C24.5911 40.6501 25.2319 41.4511 25.3921 41.6914C26.3533 43.1332 26.5936 44.0944 26.113 44.6552C25.7926 44.9756 25.3921 45.0557 24.9115 44.8154C24.6712 44.7353 24.511 44.575 24.3508 44.3347C23.5497 43.2133 22.8288 42.172 22.188 41.1307L22.0278 41.2909C21.7074 41.6914 21.4671 41.7715 21.3069 41.6113C21.0666 41.4511 21.1467 41.0506 21.4671 40.57C21.5472 40.4899 21.6273 40.3297 21.7074 40.2496L21.6273 39.8491C21.2268 39.2083 20.7462 38.3272 20.0253 37.2057C19.3044 36.0843 18.9039 35.4435 18.8238 35.2833C18.6636 34.9629 18.6636 34.7226 18.6636 34.5624C18.8238 34.1619 19.0641 34.0017 19.3845 33.8415C19.7049 33.7614 20.0253 33.8415 20.2656 34.1619C20.7462 34.7226 21.7074 35.9241 22.989 37.9267L23.3094 38.4874C24.1906 37.2858 25.1518 35.844 26.113 34.242C24.8314 32.2395 24.0304 31.0379 23.71 30.4772C23.5497 30.1568 23.5497 29.9165 23.5497 29.7563C23.71 29.3558 23.9503 29.1956 24.2707 29.0354C24.5911 28.9553 24.9115 29.0354 25.1518 29.3558C25.6324 29.9165 26.5936 31.118 27.8752 33.1206C29.2369 35.2032 30.118 36.4047 30.3584 36.7251C30.5987 37.0455 30.9191 37.2057 31.1594 37.1256C32.2007 37.1256 32.8415 34.8027 33.0017 33.2808C33.3221 32.0793 32.8415 30.7175 32.3609 29.516ZM35.9654 34.6425C35.8052 34.8027 35.5649 34.8828 35.2445 34.8828C35.0042 34.8828 34.7639 34.8027 34.6037 34.5624C34.2833 34.242 33.9629 33.8415 33.6425 33.2808C33.3221 32.7201 33.0818 32.3997 33.0017 32.1594C32.9216 31.9191 32.6813 31.5186 32.441 31.0379C32.2007 30.5573 32.0405 30.0767 31.8803 29.8364C30.7589 27.5135 30.0379 26.0717 29.8777 25.3508C29.7175 24.8702 29.7976 24.3094 30.118 23.8288C30.1981 23.6686 30.4384 23.5885 30.6788 23.5885C30.7589 23.5885 30.9191 23.6686 31.0793 23.8288C31.2395 23.989 31.3997 24.1492 31.5599 24.3896C31.7201 24.6299 31.8803 24.7901 31.9604 25.0304C32.1206 25.1906 32.2007 25.4309 32.3609 25.6712C32.5211 25.9115 32.6012 26.0717 32.6012 26.0717C32.6813 26.1518 32.7614 26.2319 32.8415 26.3921C32.9216 26.4722 33.0017 26.6324 33.0818 26.7125C33.1619 26.8727 33.242 26.9528 33.3221 27.0329C33.4022 27.113 33.4823 27.1931 33.5624 27.1931C33.6425 27.1931 33.6425 27.1931 33.7226 27.113C33.8027 27.0329 33.8027 26.9528 33.8828 26.8727C33.8828 26.7125 33.9629 26.5523 33.9629 26.312C33.9629 24.7901 34.1231 23.5885 34.4435 22.7074C34.6037 22.2268 34.7639 21.9064 35.0042 21.586C35.2445 21.2656 35.4848 21.1054 35.7251 21.1054C36.6863 20.8651 37.4874 21.4258 37.968 22.6273C38.2884 23.3482 38.4486 23.7487 38.6088 23.8288C38.769 23.9089 38.9292 23.6686 39.0894 23.1079C39.0894 22.9477 39.1695 22.7074 39.1695 22.3069C39.1695 21.9064 39.1695 21.7462 39.1695 21.6661C39.2496 20.4646 39.4899 19.5034 39.8904 18.7024C40.1307 18.3019 40.5312 18.0616 41.0118 17.9815C41.4924 17.9014 41.973 18.0616 42.4536 18.4621C42.6939 18.7024 43.1745 19.5034 43.8955 20.785C44.6164 22.0666 44.9368 22.7875 45.0169 22.8676C45.1771 23.1079 45.2572 23.3482 45.4174 23.5885C45.5776 23.8288 45.7378 24.1492 45.898 24.3896C46.0582 24.71 46.2184 24.9503 46.3786 25.1105C46.699 25.6712 47.0194 25.9115 47.3398 25.8314C47.9806 25.7513 49.102 21.6661 49.0219 20.8651C49.0219 20.7049 49.3423 21.0253 49.1821 20.1442C49.0219 19.3432 49.3423 18.7825 49.2622 18.5422C49.2622 18.3019 49.3423 18.2218 49.5826 18.3019C49.6627 18.3019 49.6627 18.3019 49.7428 18.382L49.903 18.6223C50.1433 19.9039 49.5826 20.5447 49.7428 21.586C49.8229 21.9064 48.5413 26.0717 47.9806 26.4722C47.7403 26.6324 47.5801 26.7926 47.4199 26.9528C47.0194 27.1931 46.5388 27.3533 45.9781 27.2732C45.4174 27.2732 45.0169 27.113 44.6965 26.8727C44.2159 26.3921 43.575 25.3508 42.8541 23.6686C42.1332 21.9865 41.7327 21.0253 41.6526 20.7049C41.3322 19.5835 41.0919 19.1029 40.7715 19.1029C40.6113 19.1029 40.4511 19.2631 40.371 19.5034C40.2909 19.7437 40.1307 20.0641 40.1307 20.4646C40.0506 20.8651 40.0506 21.2656 39.9705 21.586C39.9705 21.9064 39.8904 22.3069 39.8904 22.8676C39.8904 23.3482 39.8103 23.6686 39.8103 23.7487C39.8103 23.9089 39.8103 24.3895 39.9705 25.0304C40.0506 25.4309 40.1307 25.8314 40.2909 26.2319C40.4511 26.6324 40.6914 27.1931 41.0118 27.914C41.3322 28.6349 41.5725 29.0354 41.5725 29.1155C41.7327 29.3558 41.7327 29.6762 41.7327 30.1568C41.7327 30.317 41.6526 30.5573 41.3322 30.7976C41.0919 31.038 40.8516 31.1982 40.6914 31.1982C40.2909 31.3584 39.9705 31.1982 39.7302 30.7976C39.4098 30.3971 39.0894 29.8364 38.769 29.1956C38.4486 28.5548 38.1282 27.9941 37.8879 27.4334C37.6476 26.8727 37.3272 26.2319 37.0067 25.4309C36.6863 24.6299 36.3659 23.989 36.2057 23.6686C36.1256 23.5084 36.0455 23.3482 35.9654 23.1079C35.8853 22.8676 35.8052 22.7074 35.8052 22.5472C35.8052 22.3069 35.645 22.3069 35.4848 22.387L35.1644 22.7074C34.7639 23.4283 34.6037 25.0304 34.6037 27.6737C34.6037 28.3946 34.6838 28.8752 34.844 29.1956L36.3659 33.1206C36.446 33.3609 36.446 33.6012 36.3659 34.0818C36.2057 34.3221 36.0455 34.4823 35.9654 34.6425ZM53.1071 24.4697C52.7066 24.71 52.226 24.7901 51.7454 24.7901C51.1847 24.71 50.7842 24.5498 50.3836 24.2293C49.5826 23.4283 48.9418 22.1467 48.6214 20.4646C48.301 18.7825 48.301 17.0202 48.7816 15.3381C49.0219 14.457 49.4224 13.5759 50.0632 12.855C50.7041 12.054 51.3449 11.5734 52.1459 11.4132C52.4663 11.3331 52.7066 11.3331 52.9469 11.4933C53.1872 11.6535 53.3474 11.8938 53.5076 12.2142C53.7479 12.6948 53.7479 13.1754 53.6678 13.656C53.5877 13.8162 53.5076 13.8963 53.3474 13.9764C53.1071 14.0565 52.9469 13.8162 52.7867 13.1754C52.7066 12.5346 52.5464 12.2142 52.3061 12.2142C51.2648 12.2943 50.5438 13.0953 50.2234 14.6973C49.903 15.9789 49.9831 17.4207 50.3836 19.1029C50.7842 20.7049 51.2648 21.9865 51.9056 22.7875C52.0658 23.0278 52.3061 23.188 52.6265 23.1079C52.9469 23.0278 53.1071 22.9477 53.2673 22.7074C53.4275 22.387 53.5877 21.9865 53.7479 21.586C53.828 21.1855 53.9081 20.785 53.9882 20.4646C54.0683 20.1442 54.0683 19.6636 54.1484 18.9427C54.2285 18.2218 54.2285 17.7412 54.3086 17.4207C54.3887 16.7799 54.4688 16.059 54.5489 15.0978C54.5489 15.0177 54.5489 14.8575 54.5489 14.6973C54.5489 14.5371 54.5489 14.3769 54.5489 14.2968C54.5489 14.1366 54.4688 13.9764 54.3887 13.8162C54.3086 13.656 54.3086 13.4958 54.3086 13.4157C54.3086 13.3356 54.3086 13.2555 54.2285 13.0953C54.2285 12.9351 54.2285 12.855 54.2285 12.7749C54.2285 12.6948 54.3086 12.5346 54.3086 12.4545C54.4688 12.054 54.7091 11.9739 55.0295 12.1341C55.2698 12.3744 55.43 12.5346 55.5101 12.6948C55.8305 13.4157 56.3912 14.5371 56.9519 16.059C57.2723 16.86 57.753 18.1417 58.4739 19.8238C58.6341 20.2243 58.8744 20.3845 59.2749 20.3845C59.9958 20.3044 61.9182 17.9815 62.2386 16.2192C62.559 14.457 62.6391 12.9351 62.4789 11.4933C62.4789 11.253 62.4789 11.0127 62.559 10.7723C62.559 10.7723 62.6391 10.6922 62.7192 10.6922C62.8794 10.6121 62.9595 10.6922 63.0396 10.8525C63.0396 10.9326 63.1197 11.253 63.1197 11.8137C63.1998 14.457 63.0396 15.9789 62.8794 17.0202C62.6391 18.1417 60.957 20.785 60.3162 21.3457C59.6754 21.9064 59.0346 22.2268 58.3137 22.1467C57.9132 22.1467 57.5127 21.9865 57.1922 21.6661C56.8718 21.3457 56.5514 20.9452 56.3912 20.5447C56.1509 20.0641 55.9907 19.7437 55.9106 19.5034L55.2698 17.9014C55.1897 17.7412 55.1096 17.6611 55.0295 17.7412C54.8693 17.8213 54.7892 17.9815 54.7892 18.2218C54.7892 18.382 54.7892 18.7024 54.7892 19.183C54.7892 19.6636 54.7892 20.0641 54.7892 20.2243C54.7892 20.4646 54.7892 20.785 54.7091 21.1855C54.7091 21.6661 54.629 21.9865 54.5489 22.2268C54.4688 22.4671 54.3887 22.7875 54.3086 23.1079C54.2285 23.4283 54.0683 23.6686 53.9081 23.9089C53.5076 24.1492 53.3474 24.3094 53.1071 24.4697ZM63.9207 33.1206C63.36 33.2808 62.8794 33.1206 62.4789 32.64C62.0784 32.2395 61.8381 31.6788 61.6779 31.118C61.5978 30.5573 61.4376 30.0767 61.3575 29.7563C61.1172 27.9941 61.1973 25.7513 61.5177 22.8676C61.5177 22.4671 61.6779 21.9064 61.758 21.1054C61.9182 20.3044 61.9983 19.5034 62.0784 18.8626C62.1585 18.1417 62.2386 17.5809 62.2386 17.0202C62.2386 16.3794 62.2386 15.4182 62.2386 14.1366C62.2386 12.9351 62.1585 11.8137 62.1585 10.9326C62.1585 10.0514 62.0784 9.65093 62.0784 9.65093C62.0784 9.17033 62.1585 8.76982 62.3988 8.44942C62.559 8.28921 62.7993 8.20911 62.9595 8.28921C63.1998 8.28921 63.36 8.44942 63.5202 8.60962L63.9207 9.25043L64.0809 8.84992C64.4014 7.88871 64.9621 7.2479 65.683 7.00759C66.484 6.68719 67.285 6.84739 68.0059 7.4081C68.6467 7.88871 69.1273 8.60962 69.4477 9.65093C69.7681 10.6121 70.0084 11.5734 70.0885 12.3744L70.2487 13.0152C71.2901 12.855 73.7732 9.41063 74.0936 8.84992C74.1737 8.68972 74.3339 8.68972 74.414 8.76982C74.5742 8.84992 74.5742 8.93002 74.5742 9.09023C74.5742 9.25043 74.4941 9.41063 74.4941 9.49073C74.1737 10.6121 71.9309 13.0953 70.5691 14.1366C70.4089 14.2968 70.3288 14.5371 70.3288 14.8575C70.3288 15.0177 70.2487 15.258 70.2487 15.5784C70.1686 15.8988 70.1686 16.1391 70.1686 16.3794C70.1686 16.5396 70.0885 16.7799 70.0084 17.1003C69.9283 17.3406 69.8482 17.5809 69.7681 17.8213C69.2074 18.7825 68.5666 19.3432 67.6855 19.5034C66.8044 19.6636 66.2437 19.4233 65.9233 18.6223C65.7631 18.3019 65.7631 17.9014 65.8432 17.5008C65.9233 17.1003 66.0835 16.6998 66.4039 16.2993C66.7243 15.8988 66.9646 15.5784 67.1248 15.3381C67.3651 15.0978 67.6054 14.7774 67.9258 14.457C68.0059 14.2968 68.086 14.1366 68.086 14.0565C68.086 12.6147 67.9258 11.4933 67.7656 10.6922C67.5253 9.65093 67.3651 9.01012 67.1248 8.60962C66.8845 8.20911 66.5641 8.12901 66.0835 8.20911C65.7631 8.20911 65.4427 8.52952 65.2024 9.01012C64.882 9.49073 64.7218 9.97134 64.5616 10.532C64.4014 11.1729 64.4014 12.855 64.7218 15.5784C65.0422 18.3019 65.2825 20.0641 65.4427 20.9452C65.4427 21.0253 65.5228 21.3457 65.6029 21.9064C65.683 22.4671 65.7631 22.8676 65.8432 23.1079C65.9233 23.3482 65.9233 23.7487 66.0034 24.3094C66.0835 24.8702 66.1636 25.3508 66.1636 25.6712C66.1636 25.9916 66.2437 26.3921 66.2437 26.9528C66.2437 27.5135 66.3238 27.914 66.2437 28.3145C66.2437 28.715 66.1636 29.1155 66.1636 29.516C66.0835 29.9165 66.0835 30.317 66.0034 30.7175C65.683 31.9992 64.9621 32.8803 63.9207 33.1206ZM66.8845 18.3019C67.3651 18.4621 67.7656 18.3019 68.0059 17.9014C68.2462 17.5008 68.4865 17.0202 68.4865 16.3794C68.4865 16.1391 68.4865 15.8187 68.4865 15.4983C68.4064 15.1779 68.4064 15.0177 68.3263 15.0177C68.1661 14.9376 67.7656 15.3381 67.1248 16.1391C66.8044 16.6197 66.5641 17.0202 66.484 17.4207C66.484 17.8213 66.5641 18.1417 66.8845 18.3019ZM63.6804 32.0793C64.3213 31.9191 64.4815 30.4772 64.161 27.8339C63.8406 24.7901 63.5202 22.6273 63.1197 21.2656C63.1197 21.1855 63.0396 21.0253 62.9595 20.9452L62.8794 21.0253C62.2386 23.1079 61.9182 25.0304 61.9182 26.7926C61.9182 27.5135 61.9182 28.3145 62.0784 29.1155C62.1585 29.9165 62.3988 30.6374 62.6391 31.2783C62.8794 31.9191 63.2799 32.2395 63.6804 32.0793ZM88.0312 10.7723C88.1113 10.532 88.2715 10.4519 88.4317 10.4519C88.5919 10.532 88.672 10.6121 88.5919 10.9326C88.5919 11.0928 88.5118 11.253 88.4317 11.4132C88.3516 11.5734 88.3516 11.8137 88.2715 11.8938C87.1501 15.6585 84.5869 16.86 82.9047 17.3406C81.8634 17.6611 81.0624 17.5008 80.5017 16.9401C79.941 16.3794 79.7808 15.4182 79.8609 14.1366C79.941 13.4157 80.0211 12.5346 80.1012 11.7336C79.14 12.054 77.618 12.4545 75.3752 12.9351C75.215 14.6172 75.1349 15.5784 75.215 15.8988C75.0548 17.5809 74.6543 18.5422 73.9334 18.6223C73.5329 18.7024 73.1324 18.4621 72.8921 17.9815C72.7319 17.7412 72.7319 17.5008 72.7319 17.2605C72.812 15.4182 72.9722 13.8963 73.2926 12.1341C73.3727 11.4132 73.5329 10.3718 73.6931 9.09023C73.8533 7.80861 73.9334 7.00759 73.9334 6.84739C74.0135 6.44689 74.1737 6.28668 74.2538 6.20658C74.5742 5.80608 74.8946 5.80608 75.215 5.96628C75.5354 6.12648 75.6956 6.36678 75.7757 6.76729C75.8558 7.4882 75.7757 9.01012 75.5354 11.4132L75.4553 12.054C76.8971 11.6535 78.4992 11.1729 80.3415 10.532C80.5818 8.20911 80.742 6.76729 80.9022 6.12648C80.9823 5.72598 81.1425 5.56577 81.2226 5.48567C81.543 5.32547 81.8634 5.24537 82.1838 5.40557C82.5042 5.56577 82.6644 5.80608 82.7445 6.20658C82.8246 6.92749 82.7445 8.44942 82.5042 10.8525C82.2639 13.3356 82.1037 14.7774 82.1838 15.258C82.1838 15.6585 82.2639 15.9789 82.5042 16.059C84.4267 17.0202 87.6307 12.7749 88.0312 10.7723ZM104.692 11.7336C104.852 11.4933 104.933 11.4132 105.093 11.4933C105.253 11.5734 105.253 11.7336 105.173 11.9739C105.093 12.054 105.013 12.2142 104.933 12.4545C104.852 12.6147 104.772 12.7749 104.692 12.9351C102.85 16.3794 99.726 18.1417 98.0439 18.2218C96.9224 18.3019 96.2015 17.9815 95.7209 17.3406C95.3204 16.6998 95.3204 15.7386 95.6408 14.457C95.6408 14.2968 95.801 13.9764 95.9612 13.3356C96.1214 12.7749 96.2816 12.2943 96.3617 12.054C95.9612 12.3744 95.5607 12.6147 95.2403 12.7749L94.0388 13.0953C93.5582 14.3769 93.1577 15.0978 92.9975 15.4182C92.597 16.059 92.1965 16.5396 91.9562 16.7799C91.6358 17.0202 91.2352 17.1804 90.6745 17.3406C90.1939 17.4207 89.7133 17.3406 89.2327 17.1003C88.7521 16.86 88.2715 16.4595 87.9511 15.9789C87.7108 15.6585 87.5506 15.0978 87.3904 14.1366C87.2302 13.1754 87.2302 12.2142 87.3904 11.1729C87.871 8.52952 88.5118 6.52699 89.3128 5.24537C89.473 4.92496 89.6332 4.68466 89.7934 4.68466C90.1939 4.60456 90.5143 4.68466 90.7546 5.00506C91.0751 5.32547 91.1551 5.72598 91.075 6.12648C90.9949 6.44689 90.9148 6.84739 90.7546 7.1678C90.6745 7.4882 90.5143 7.88871 90.3541 8.36931C90.1939 8.84992 90.1138 9.17033 90.0337 9.49073C89.7934 10.4519 89.5531 11.0928 89.473 11.4933C89.3929 11.6535 89.3929 11.9739 89.2327 12.4545C89.1526 12.855 89.0725 13.1754 88.9924 13.4157C88.9924 13.656 88.9123 13.8963 88.9924 14.2968C88.9924 14.6172 89.0725 15.0177 89.2327 15.3381C89.3128 15.4182 89.3128 15.5784 89.3929 15.6585C89.473 15.7386 89.5531 15.8187 89.6332 15.8988C89.7133 15.9789 89.7934 15.9789 89.8735 16.059C89.9536 16.059 90.0337 16.1391 90.1939 16.1391L90.4342 16.2192C90.7546 16.2993 91.0751 16.2192 91.3955 16.059C91.7159 15.8187 92.0363 15.5784 92.2766 15.258C92.7572 14.5371 93.0776 13.7361 93.1577 13.0152C93.1577 13.0152 92.9975 12.855 92.6771 12.6948C92.3567 12.5346 92.1164 12.2943 91.7159 12.054C91.2353 11.6535 91.0751 11.1729 91.1552 10.532C91.2353 9.81114 91.4756 9.41063 91.9562 9.09023C92.3567 8.84992 92.8373 8.84992 93.3179 9.17033C93.4781 9.25043 93.5582 9.41063 93.7184 9.49073C93.7985 9.65093 93.8786 9.81114 93.9587 9.97134C94.0388 10.2116 94.0388 10.3718 94.0388 10.4519C94.0388 10.532 94.0388 10.7723 94.1189 11.0127C94.1189 11.3331 94.1189 11.4933 94.1189 11.4933V12.1341C94.3592 12.2943 94.7597 12.2943 95.4005 11.9739C95.6408 11.8938 95.8811 11.7336 96.1214 11.5734C96.2816 11.4132 96.4418 11.3331 96.5219 11.1729C96.602 11.0928 96.7622 10.8525 96.9224 10.6121C97.0826 10.2116 97.2428 9.73103 97.403 9.17033C97.6433 8.52952 97.8035 8.04891 97.8836 7.6484C98.0438 7.2479 98.124 6.84739 98.2041 6.60709C98.3643 6.28668 98.5245 6.04638 98.6847 6.04638C99.0852 5.96628 99.4056 5.96628 99.6459 6.20658C99.9663 6.44689 100.046 6.68719 99.9663 7.0877C99.8862 7.80861 99.4857 9.33053 98.8449 11.5734C98.124 13.9764 97.7234 15.3381 97.6433 15.8187C97.5632 16.2192 97.6433 16.5396 97.8036 16.6998C97.9638 16.86 98.2041 16.9401 98.3643 17.0202C99.3255 17.3406 102.85 14.457 103.09 14.0565C103.811 13.2555 104.292 12.4545 104.692 11.7336ZM93.5582 12.054C93.7184 11.8938 93.6383 11.4132 93.398 10.4519C93.2378 9.97134 93.0776 9.81114 92.7572 9.97134C92.597 10.0514 92.4368 10.2116 92.4368 10.532C92.4368 10.7723 92.4368 11.0127 92.597 11.1729C92.6771 11.3331 92.8373 11.4933 92.9975 11.6535C93.1577 11.8137 93.3179 11.8938 93.398 11.9739C93.398 12.054 93.4781 12.054 93.5582 12.054ZM110.139 5.08517C109.498 4.44436 109.498 3.00254 109.739 2.12142C109.819 1.72092 109.979 1.40051 110.219 1.16021C110.46 0.919905 110.62 0.919905 110.78 1.16021C110.86 1.16021 110.86 1.32041 110.86 1.56071C110.78 3.72345 112.863 6.04638 114.785 5.00506C115.506 4.60456 115.666 3.88365 116.227 3.96375C116.307 3.96375 116.387 3.96375 116.467 4.04385C116.707 4.52446 115.586 5.16527 115.346 5.40557C113.503 6.84739 111.341 6.36679 110.139 5.08517ZM109.739 20.5447C109.258 20.1442 109.098 19.5034 109.178 18.7024C109.178 18.3019 109.498 17.5809 109.979 16.5396C110.46 15.4983 110.78 14.5371 111.02 13.7361C111.02 13.5759 111.02 13.4958 111.02 13.4958C110.94 13.4157 110.86 13.4157 110.7 13.5759C110.46 13.7361 110.299 13.8963 110.059 14.1366C109.819 14.3769 109.578 14.6172 109.258 14.9376C109.018 15.258 108.777 15.4182 108.697 15.5784C108.056 16.2192 107.656 16.6998 107.416 16.9401C106.615 17.8213 105.974 18.382 105.333 18.7024C104.852 18.9427 104.292 19.1029 103.651 19.0228C103.01 18.9427 102.61 18.7825 102.289 18.4621C101.969 18.1417 101.889 17.8213 101.969 17.5008C102.129 17.0202 102.289 16.4595 102.53 15.8187C102.77 15.1779 103.01 14.6973 103.17 14.3769C103.331 14.0565 103.651 13.4958 103.971 12.7749C104.372 12.054 104.532 11.5734 104.612 11.4933C105.333 10.0514 105.974 8.93002 106.454 8.20911C106.615 7.88871 106.855 7.80861 107.255 7.80861C107.736 7.80861 107.976 7.96881 108.056 8.28921C108.137 8.76982 108.056 9.33053 107.896 9.81114C107.496 10.9326 106.695 12.6948 105.573 14.9376C104.852 16.4595 104.532 17.4207 104.612 17.8213C104.692 17.9815 104.852 18.0616 105.013 17.9815C105.333 17.9014 105.573 17.7412 105.814 17.5809C106.054 17.3406 106.454 17.0202 106.935 16.5396C107.976 15.4182 109.018 14.2968 110.059 13.2555C110.139 13.1754 110.299 12.9351 110.62 12.6147C110.94 12.2943 111.18 11.8938 111.501 11.5734C111.821 11.1729 112.142 10.9326 112.462 10.6922C112.863 10.3718 113.103 10.1315 113.263 9.97134C113.343 9.89124 113.583 9.81114 113.824 9.89124C114.064 9.89124 114.224 9.97134 114.304 10.1315C114.465 10.4519 114.545 10.6922 114.465 11.0127C113.664 13.4958 112.943 15.5784 112.142 17.2605C111.741 18.0616 111.501 18.7024 111.421 19.1029C111.341 19.5034 111.421 19.8238 111.661 20.0641C112.062 20.4646 112.622 20.3845 113.503 19.8238C114.304 19.2631 115.105 18.5422 115.906 17.6611C116.627 16.7799 117.268 15.9789 117.669 15.258C117.829 15.0177 117.989 14.8575 118.229 14.6973C118.309 14.6973 118.309 14.6973 118.39 14.7774C118.55 14.7774 118.55 14.9376 118.55 15.0978C118.55 15.1779 118.39 15.4182 118.069 15.8988C116.547 18.0616 115.346 19.5034 114.545 20.1442C113.664 20.8651 112.863 21.3457 111.981 21.4258C111.02 21.2656 110.299 21.0253 109.739 20.5447Z" fill="#252324"/>
<path d="M126.88 28.6348C125.999 28.1542 125.358 27.5134 124.878 26.5522C124.557 25.8313 124.477 25.0303 124.798 23.989C125.358 22.2267 126.32 20.865 127.761 19.9839C128.322 19.5834 128.883 19.3431 129.283 19.1028C129.684 18.8625 130.325 18.7023 131.046 18.462C131.766 18.2217 132.487 18.1416 133.208 18.2217C133.849 18.3018 134.33 18.462 134.65 18.7023C134.971 18.9426 135.211 19.263 135.291 19.7436C135.371 20.1441 135.291 20.5446 135.131 20.865C134.89 21.1854 134.65 21.3456 134.49 21.4257C134.33 21.5058 134.169 21.4257 134.089 21.3456C134.009 21.2655 134.089 21.1053 134.25 20.865C134.65 20.5446 134.81 20.2242 134.73 20.064C134.57 19.7436 134.169 19.5033 133.609 19.4232C132.888 19.3431 132.087 19.7436 131.046 20.4645C130.084 21.1854 129.203 21.9864 128.482 22.9477C127.281 24.4696 126.8 25.591 127.04 26.4721C127.681 28.5547 132.167 28.3945 133.529 27.9139C134.81 27.4333 135.531 26.7925 135.852 26.4721C136.332 26.0716 136.653 26.0716 136.733 26.3119C136.733 26.392 136.653 26.6323 136.252 26.9527C135.772 27.4333 134.81 27.994 133.609 28.7149C132.808 29.1955 128.883 29.2757 127.922 28.9552C127.761 28.8751 127.681 28.8751 127.441 28.795C127.281 28.795 127.121 28.7149 126.88 28.6348ZM134.33 33.2006C133.609 33.0404 133.048 32.6399 132.728 31.919C132.407 31.1981 132.327 30.5573 132.648 29.8364C133.048 28.795 133.849 27.6736 134.971 26.5522C135.852 25.8313 136.653 25.2706 137.374 24.79C138.094 24.3895 139.056 24.0691 140.097 23.9089C140.978 23.7487 141.779 23.9089 142.5 24.3895C142.82 24.6298 143.061 24.79 143.221 24.9502C145.143 27.6736 141.299 30.3971 139.536 31.2782C139.216 31.4384 138.976 31.5986 138.895 31.6787C138.815 31.7588 138.575 31.8389 138.175 32.0792C137.774 32.2394 137.534 32.3996 137.454 32.3996C137.374 32.4797 137.133 32.5598 136.813 32.72C136.492 32.8802 136.252 32.9603 136.092 32.9603C135.932 32.9603 135.772 33.0404 135.531 33.1205C135.291 33.2006 135.131 33.2006 134.89 33.2006C134.73 33.2807 134.57 33.2807 134.33 33.2006ZM134.57 32.3195C135.051 32.5598 135.691 32.5598 136.573 32.1593C139.456 30.7175 143.702 28.0741 142.66 25.6711C142.58 25.5109 142.58 25.4308 142.5 25.3507C141.298 24.7099 139.777 25.1905 137.934 26.7925C136.733 27.8338 135.772 28.9552 134.89 30.2369C134.73 30.5573 134.57 30.8777 134.41 31.3583C134.25 31.8389 134.33 32.1593 134.57 32.3195ZM144.903 42.973C144.022 42.3321 143.621 41.6112 143.702 40.8102C143.782 40.0092 144.422 39.2883 145.464 38.5674C146.585 37.8465 147.386 37.2858 147.707 37.0455C148.908 36.3246 150.03 35.6036 150.911 35.0429C151.551 34.6424 151.792 34.1618 151.792 33.6812C151.792 33.3608 151.551 33.2006 151.151 33.2006C150.19 33.2807 148.828 33.7613 147.146 34.6424C145.063 35.6036 143.461 36.3246 142.26 36.645C141.058 36.9654 140.257 37.1256 139.696 36.9654C139.136 36.8052 138.735 36.4848 138.415 35.924C138.094 35.4434 138.014 34.9628 138.175 34.4822C138.255 34.0016 138.495 33.6011 138.895 33.2807C139.216 32.9603 139.616 32.72 139.937 32.5598C140.257 32.4797 140.497 32.5598 140.658 32.8001C140.818 33.0404 140.818 33.2807 140.417 33.521C139.937 33.7613 139.456 34.1618 139.216 34.4822C138.895 34.8827 138.895 35.2832 139.136 35.6837C139.456 36.2445 140.097 36.4047 141.138 36.2445C141.619 36.1644 142.18 35.924 142.82 35.6837C143.461 35.4434 143.942 35.2031 144.342 35.0429C144.743 34.8827 145.223 34.6424 145.944 34.322C146.585 34.0016 146.986 33.8414 146.986 33.8414C149.229 32.8802 150.67 32.3996 151.311 32.3195C151.952 32.2394 152.513 32.3996 152.993 32.8001C153.474 33.2006 153.634 33.7613 153.554 34.4822C153.474 34.7225 153.474 34.9628 153.314 35.2031C153.234 35.4434 153.153 35.6036 152.993 35.7638C152.913 35.9241 152.753 36.1644 152.513 36.3246C152.272 36.5649 152.112 36.7251 152.032 36.8052C151.952 36.8853 151.712 37.0455 151.471 37.2858C151.231 37.446 150.991 37.6062 150.911 37.6863C150.831 37.7664 150.59 37.9266 150.27 38.0868C149.949 38.247 149.789 38.4072 149.709 38.4072C147.626 39.7689 146.425 40.65 146.105 40.8903C145.784 41.1306 145.624 41.451 145.624 41.6913C145.624 41.9316 145.704 42.1719 145.864 42.3321C146.345 42.8929 148.668 43.0531 151.391 42.7326C152.513 42.6525 153.394 42.0918 154.115 41.7714C154.355 41.6913 154.515 41.6913 154.595 41.8515C154.675 42.0117 154.595 42.1719 154.355 42.252C154.275 42.3321 154.115 42.3321 153.874 42.4122C153.634 42.4923 153.554 42.5724 153.394 42.5724C149.789 44.2546 146.265 43.9342 144.903 42.973ZM149.949 48.58C149.309 48.2596 148.908 47.6989 148.748 46.8979C148.588 46.177 148.748 45.4561 149.229 44.8153C149.949 43.9342 150.991 43.0531 152.352 42.3321C153.394 41.8515 154.275 41.5311 155.156 41.3709C156.037 41.1306 156.998 41.1306 158.04 41.2908C158.921 41.451 159.642 41.7714 160.202 42.4122C160.443 42.7327 160.603 42.973 160.683 43.1332C160.843 43.5337 160.763 43.9342 160.603 44.3347C160.523 44.6551 160.443 44.9755 160.443 45.0556C160.443 45.2158 160.443 45.376 160.282 45.6163C160.122 46.0168 159.802 46.4173 159.321 46.8178C159.161 46.978 158.921 47.0581 158.68 47.2183C158.44 47.3785 158.28 47.4586 158.12 47.5387C157.96 47.6188 157.879 47.6989 157.879 47.6989C158.36 48.2596 159.802 49.4611 160.843 49.7015C161.003 49.7015 161.164 49.7816 161.324 49.7816C161.484 49.7816 161.564 49.7816 161.644 49.8617C161.804 49.8617 161.885 50.0219 161.885 50.1821C161.885 50.1821 161.884 50.2622 161.724 50.3423C161.724 50.3423 161.644 50.4224 161.484 50.4224C159.802 50.2622 157.879 48.9004 156.918 48.0193C156.838 47.9392 156.598 47.9392 156.277 48.0193C155.957 48.0994 155.637 48.1795 155.236 48.2596C154.836 48.3397 154.595 48.4198 154.515 48.4198C154.435 48.4198 154.115 48.4999 153.714 48.58C153.314 48.6601 152.993 48.6601 152.913 48.7402C152.753 48.7402 152.593 48.8203 152.192 48.8203C151.872 48.9004 151.632 48.9004 151.471 48.9004C151.311 48.9004 151.151 48.9004 150.911 48.9004C150.67 48.9004 150.51 48.9004 150.27 48.8203C150.27 48.7402 150.11 48.7402 149.949 48.58ZM150.35 47.779C150.75 48.1795 151.391 48.2596 152.352 48.1795C153.634 48.0193 154.836 47.8591 155.957 47.5387C156.438 47.4586 156.598 47.2984 156.518 47.0581C156.438 46.6576 156.438 46.177 156.598 45.7765C156.758 45.376 156.998 44.9755 157.239 44.7352C158.12 43.9342 158.921 43.774 159.802 44.1745C159.802 44.1745 159.882 44.0944 159.882 44.0143C159.962 43.9342 159.962 43.8541 159.962 43.6939C159.962 43.5337 159.962 43.4536 159.882 43.2934C158.921 42.3321 157.319 42.4122 155.076 43.3735C153.634 44.0143 152.352 44.8153 151.151 45.8566C150.911 46.0969 150.59 46.4173 150.35 46.8178C150.19 47.2984 150.19 47.6188 150.35 47.779ZM157.719 46.978C157.799 47.0581 157.96 46.978 158.28 46.8178C158.6 46.6576 158.841 46.4974 159.001 46.4173C159.241 46.2571 159.481 46.0168 159.642 45.8566C159.802 45.6964 159.882 45.5362 159.882 45.376C159.882 45.2158 159.802 45.0556 159.722 44.9755C159.481 44.7352 159.241 44.7352 158.921 44.8153C158.28 45.1357 157.879 45.5362 157.719 46.0969C157.719 46.2571 157.639 46.4173 157.639 46.5775C157.559 46.7377 157.639 46.8979 157.719 46.978ZM143.301 61.236C143.221 60.435 143.702 59.7141 144.743 59.2335C145.784 58.7529 146.906 58.3524 148.267 58.1121C149.629 57.8718 150.911 57.7917 152.112 57.9519C152.433 57.9519 153.073 58.032 154.115 58.1922C155.156 58.2723 155.797 58.3524 156.197 58.3524C156.678 58.2723 157.239 58.032 157.879 57.6315C158.04 57.5514 158.36 57.3912 158.6 57.3111C158.921 57.1509 159.161 57.0708 159.241 57.0708C159.401 56.9907 159.481 56.9907 159.562 56.8305C159.562 56.7504 159.481 56.6703 159.161 56.6703C158.921 56.6703 158.52 56.6703 158.12 56.6703C157.639 56.6703 157.239 56.6703 156.758 56.6703C156.277 56.6703 155.797 56.5902 155.316 56.3498C154.836 56.1896 154.435 55.8692 154.115 55.5488C153.794 55.2284 153.634 54.7478 153.634 54.1871C153.634 53.6264 153.714 53.1458 153.954 52.7453C154.675 51.7841 155.797 51.0632 157.479 50.4224C159.161 49.7816 160.843 49.6214 162.605 49.7816C163.487 49.8617 164.448 50.1821 165.249 50.6627C166.13 51.1433 166.691 51.7841 166.931 52.505C167.091 52.7453 167.091 53.0657 166.931 53.306C166.771 53.5463 166.61 53.7866 166.29 53.9468C165.809 54.1871 165.329 54.3473 164.848 54.3473C164.688 54.2672 164.528 54.1871 164.528 54.107C164.368 53.8667 164.608 53.6264 165.249 53.4662C165.89 53.2259 166.13 53.0657 166.13 52.8254C165.89 51.7841 165.008 51.2234 163.406 51.1433C162.125 51.0632 160.683 51.3035 159.081 51.9443C157.479 52.5851 156.358 53.2259 155.637 54.0269C155.396 54.2672 155.316 54.5075 155.396 54.7478C155.476 55.0682 155.637 55.2284 155.877 55.3085C156.518 55.5488 157.399 55.7891 158.52 55.8692C159.642 55.9493 160.843 55.8692 162.125 55.5488C162.285 55.4687 162.605 55.3886 162.926 55.2284C163.246 55.0682 163.487 54.9881 163.727 54.908C163.887 54.8279 164.127 54.7478 164.288 54.7478C164.528 54.7478 164.688 54.7478 164.848 54.7478C165.169 54.8279 165.409 54.9881 165.569 55.1483C165.729 55.3085 165.649 55.5488 165.489 55.709C165.008 56.1095 164.207 56.5902 163.166 57.1509C161.564 58.032 160.443 58.5927 159.802 58.9131C159.642 58.9932 159.562 59.0733 159.562 59.0733C159.562 59.1534 159.562 59.1534 159.722 59.3136C160.523 59.8743 162.285 59.9544 164.928 59.634C165.008 59.634 165.089 59.634 165.249 59.634C165.409 59.634 165.489 59.7141 165.489 59.7141C165.569 59.9544 165.409 60.1146 165.008 60.1947C164.768 60.2748 164.207 60.3549 163.406 60.435C162.926 60.5151 162.445 60.5151 161.885 60.5151C161.404 60.5151 160.923 60.435 160.603 60.435C160.282 60.3549 159.882 60.2748 159.401 60.1947C158.921 60.1146 158.6 60.0345 158.44 60.0345C158.28 60.0345 157.799 60.1947 156.998 60.5151C156.117 60.8355 155.156 61.1559 154.035 61.6365C152.913 62.037 152.112 62.3574 151.632 62.5176C150.19 62.9982 148.908 63.3187 147.707 63.3988C146.505 63.4789 145.544 63.3187 144.903 63.0783C143.942 62.6778 143.381 62.037 143.301 61.236ZM144.102 60.9957C144.102 61.7967 144.823 62.1171 146.185 61.8768C148.347 61.4763 150.831 60.8355 153.634 59.8743C154.836 59.4738 155.396 59.1534 155.316 58.9932C155.316 58.9131 154.595 58.833 153.234 58.7529C151.792 58.6728 150.831 58.6728 150.35 58.6728C148.988 58.6728 147.626 58.9131 146.265 59.3937C144.903 59.7942 144.182 60.3549 144.102 60.9957Z" fill="#252324"/>
<path d="M18.2631 128.201C18.5034 128.761 18.7437 129.402 18.8238 130.123C18.984 130.844 19.0641 131.405 18.984 131.805C18.984 131.965 18.984 132.045 18.9039 132.126C18.8238 132.206 18.7437 132.286 18.6636 132.286L16.1804 133.567C16.1804 133.567 16.1003 133.567 16.1003 133.487C16.0202 133.407 16.1003 133.407 16.1003 133.327C16.9814 132.526 17.5422 131.645 17.7825 130.604C18.0228 129.642 17.9427 128.601 17.4621 127.56C16.9013 126.198 15.9401 125.317 14.6585 124.916C13.3769 124.516 11.9351 124.676 10.2529 125.317C9.05143 125.798 8.01011 126.519 7.129 127.32C6.24789 128.201 5.68718 129.082 5.44688 130.123C5.12647 131.164 5.20657 132.126 5.60708 133.007C6.32799 134.769 8.01011 135.73 10.5734 135.73C10.6535 135.73 10.6535 135.73 10.6535 135.81C10.6535 135.89 10.6535 135.97 10.6535 135.97L8.01011 136.691C7.84991 136.691 7.68971 136.771 7.68971 136.691C7.60961 136.691 7.52951 136.611 7.44941 136.531C6.48819 135.57 5.76728 134.449 5.28667 133.167C4.64586 131.565 4.40556 130.043 4.64586 128.761C4.88617 127.4 5.36678 126.278 6.16779 125.397C6.9688 124.516 7.84991 123.795 8.97133 123.395C10.2529 122.914 11.4545 122.754 12.7361 123.074C14.0177 123.395 15.1391 123.955 16.1003 124.836C16.9814 125.878 17.7825 126.919 18.2631 128.201ZM8.33052 139.335C8.17032 139.014 8.09022 138.774 8.09022 138.534C8.17032 138.293 8.25042 138.133 8.49072 137.973C8.73103 137.813 8.97133 137.813 9.21163 137.893C9.45194 137.973 9.61214 138.133 9.69224 138.293C9.77234 138.373 9.77234 138.454 9.85244 138.614C9.93254 138.774 9.93254 138.854 10.0126 138.934C10.2529 139.335 10.6535 139.495 11.2943 139.415C11.9351 139.415 12.656 139.255 13.457 138.934C14.258 138.614 14.9789 138.293 15.6197 137.973C16.1003 137.733 16.3406 137.412 16.3406 137.172C16.3406 136.932 16.2605 136.531 15.9401 136.051C15.9401 136.051 15.9401 135.97 16.0202 135.97C16.1003 135.89 16.1003 135.89 16.1804 135.97L17.9427 138.934L19.8651 142.218C19.8651 142.218 19.8651 142.298 19.785 142.298C19.7049 142.379 19.7049 142.379 19.6248 142.298C19.4646 141.978 19.2243 141.818 19.1442 141.658C18.984 141.578 18.8238 141.497 18.5835 141.578C18.3432 141.658 18.1029 141.738 17.7024 141.978L13.6172 144.381C13.2167 144.621 12.9764 144.782 12.8162 144.942C12.656 145.102 12.656 145.262 12.656 145.422C12.656 145.583 12.8162 145.823 12.9764 146.143C12.9764 146.143 12.9764 146.223 12.8963 146.223C12.8162 146.304 12.8162 146.304 12.7361 146.223C12.4958 145.903 12.4157 145.583 12.2555 145.422L11.6948 144.461L11.054 143.42C10.8938 143.26 10.7336 143.019 10.5734 142.619C10.5734 142.619 10.5734 142.539 10.6535 142.459C10.7336 142.379 10.8137 142.379 10.8137 142.459C11.054 142.779 11.2142 143.019 11.2943 143.099C11.4545 143.18 11.6147 143.26 11.7749 143.18C12.0152 143.099 12.2555 143.019 12.656 142.779L16.8212 140.296C17.2218 140.056 17.5422 139.895 17.6223 139.815C17.7825 139.735 17.7825 139.655 17.7825 139.495C17.7825 139.415 17.7024 139.255 17.5422 138.934L17.4621 138.774C17.3019 138.454 17.1416 138.213 16.9814 138.133C16.8212 138.053 16.7411 137.973 16.5809 138.053C16.4207 138.053 16.1804 138.213 15.7799 138.373L15.2192 138.614C14.1779 139.094 13.2968 139.495 12.4958 139.815C11.6948 140.136 10.8938 140.216 10.0927 140.216C9.29173 140.296 8.73102 139.976 8.33052 139.335ZM19.3845 153.433C19.3845 153.513 19.3845 153.513 19.3845 153.593C19.3044 153.673 19.3044 153.673 19.2243 153.593L17.0615 152.391C16.9814 152.391 16.9814 152.311 16.9013 152.231C16.8212 152.071 16.7411 151.83 16.8212 151.59C16.9013 151.27 17.0615 151.029 17.3019 150.709L16.1804 150.148C15.3794 149.748 14.7386 149.267 14.4182 148.787C14.1779 148.386 14.0177 148.066 14.0978 147.745C14.1779 147.425 14.3381 147.105 14.6585 146.864C14.9789 146.624 15.3794 146.544 15.7799 146.624C16.1804 146.784 16.7411 147.105 17.4621 147.585L19.4646 149.027L20.8263 147.986C21.5472 147.505 22.0278 147.024 22.188 146.624C22.4283 146.223 22.3482 145.823 22.188 145.502C21.7074 144.862 20.9865 144.862 20.0253 145.422C19.3845 145.823 18.9039 145.663 18.5034 145.182C18.1029 144.701 18.183 144.301 18.5835 143.981C18.9039 143.74 19.3044 143.74 19.9452 143.9C20.5059 144.061 21.1467 144.301 21.7074 144.701C22.2681 145.102 22.7487 145.502 23.0691 145.903C23.4696 146.464 23.6298 146.944 23.4696 147.505C23.3895 148.066 22.989 148.546 22.3482 149.027L19.3044 151.27C18.984 151.51 18.7437 151.75 18.5835 152.071C18.5034 152.311 18.5034 152.551 18.6636 152.792C18.9039 153.112 19.1442 153.272 19.3845 153.433ZM17.6223 150.549C17.6223 150.469 17.7825 150.469 17.8626 150.309L19.2243 149.347L17.8626 148.466C17.5422 148.226 17.2218 148.146 16.9814 148.066C16.7411 148.066 16.5809 148.066 16.3406 148.226C16.1003 148.386 15.9401 148.626 15.9401 148.867C15.9401 149.107 15.9401 149.347 16.1003 149.588C16.2605 149.828 16.5809 150.068 16.9013 150.228L17.6223 150.549ZM25.5523 160.802C25.6324 160.882 25.7125 160.962 25.7125 160.962C25.7125 160.962 25.7125 161.042 25.6324 161.122C25.4722 161.282 25.2319 161.443 24.9916 161.603C24.3508 162.083 23.7099 162.564 23.1492 163.125C23.0691 163.205 23.0691 163.205 22.989 163.125C22.9089 163.045 22.9089 163.045 22.989 162.965C24.4309 161.603 24.5911 160.321 23.4696 159.12L20.7462 156.236C20.1855 155.675 19.5447 155.355 18.9039 155.435C18.2631 155.515 17.5422 155.836 16.9013 156.476C16.8212 156.556 16.8212 156.556 16.7411 156.476C16.661 156.396 16.661 156.396 16.7411 156.316C17.382 155.675 17.9427 155.115 18.3432 154.554C18.5034 154.314 18.6636 154.153 18.9039 153.993C18.984 153.913 19.0641 153.913 19.1442 153.913C19.2243 153.913 19.3044 153.993 19.3044 154.073C19.785 154.634 20.586 154.714 21.5472 154.474C22.5084 154.234 23.79 153.513 25.3921 152.551C25.7125 152.311 26.0329 152.151 26.1931 151.911C26.5135 151.59 26.5936 151.35 26.5936 151.029C26.5135 150.789 26.3533 150.469 25.9528 150.068C25.9528 150.068 25.9528 149.988 26.0329 149.988C26.113 149.908 26.113 149.908 26.113 149.908L27.4747 151.35C27.6349 151.59 27.8752 151.83 28.1155 151.991L31.2395 155.275C31.2395 155.275 31.2395 155.355 31.1594 155.355C31.0793 155.435 31.0793 155.435 30.9992 155.435C30.7589 155.195 30.5185 155.035 30.3583 154.954C30.1981 154.874 29.9578 154.874 29.7976 155.035C29.6374 155.115 29.317 155.355 29.0767 155.595L25.6324 158.879C25.312 159.2 25.1518 159.44 25.0717 159.52C24.9916 159.68 24.9916 159.841 25.0717 160.001C25.0717 160.241 25.2319 160.481 25.5523 160.802ZM27.7951 154.394C28.1956 154.073 28.4359 153.753 28.516 153.673C28.5961 153.513 28.5961 153.433 28.5961 153.352C28.516 153.272 28.3558 153.112 28.1155 152.792L27.7951 152.471C27.6349 152.311 27.5548 152.231 27.3946 152.151C27.3145 152.151 27.1543 152.151 26.914 152.231C26.6737 152.311 26.4334 152.471 26.0329 152.712C24.5911 153.673 23.3895 154.314 22.5084 154.714C21.6273 155.115 20.8263 155.275 20.1855 155.195L22.0278 157.117C22.5084 157.678 22.9089 157.998 23.0691 158.158C23.2293 158.319 23.4696 158.319 23.6298 158.319C23.79 158.239 24.0303 158.078 24.3508 157.758L27.7951 154.394ZM29.3971 165.207C28.7563 164.647 28.2757 164.006 28.0354 163.285C27.7951 162.564 27.7951 161.763 27.9553 161.042C28.1155 160.321 28.516 159.6 28.9966 158.959C29.6374 158.239 30.2782 157.838 31.0793 157.598C31.8803 157.438 32.6012 157.438 33.4022 157.678C34.1231 157.918 34.844 158.239 35.4047 158.719C36.0455 159.28 36.5261 159.921 36.7664 160.642C37.0067 161.363 37.0067 162.083 36.8465 162.884C36.6863 163.605 36.2858 164.326 35.8052 164.887C35.2445 165.528 34.6037 166.008 33.8027 166.249C33.0818 166.489 32.2808 166.489 31.4798 166.329C30.7588 166.089 30.0379 165.688 29.3971 165.207ZM30.1981 165.288C30.6787 165.688 31.2395 165.768 31.8803 165.608C32.5211 165.368 33.1619 164.887 33.8828 164.086C34.5236 163.365 34.9241 162.644 35.2445 161.923C35.4848 161.202 35.5649 160.562 35.4848 160.001C35.4047 159.44 35.1644 158.96 34.7639 158.639C34.2833 158.239 33.7226 158.078 33.1619 158.319C32.6012 158.479 31.9604 158.959 31.2395 159.761C30.5986 160.481 30.1981 161.202 29.8777 161.923C29.5573 162.644 29.4772 163.285 29.5573 163.926C29.4772 164.406 29.7175 164.887 30.1981 165.288ZM37.8078 171.375C37.0067 170.895 36.446 170.254 36.1256 169.613C35.8052 168.892 35.645 168.251 35.7251 167.53C35.8052 166.809 36.0455 166.169 36.446 165.528C36.9266 164.727 37.5675 164.246 38.3685 163.926C39.1695 163.605 39.9705 163.525 40.7715 163.605C41.6526 163.685 42.3735 163.926 43.0143 164.406C43.575 164.727 44.0556 165.207 44.3761 165.688C44.6965 166.169 44.6965 166.649 44.4562 167.05C44.2959 167.29 44.1357 167.37 43.8954 167.45C43.6551 167.53 43.4148 167.45 43.0944 167.29C42.6138 166.97 42.4536 166.489 42.6138 165.848C42.6939 165.448 42.6939 165.207 42.6138 164.967C42.5337 164.727 42.3735 164.567 42.1332 164.406C41.5725 164.086 40.9317 164.006 40.2909 164.326C39.6501 164.647 39.0093 165.207 38.5287 166.089C37.8879 167.13 37.6475 168.091 37.7276 168.972C37.8078 169.853 38.3685 170.654 39.3297 171.295C39.6501 171.535 39.9705 171.696 40.2909 171.776C40.6113 171.856 41.0118 171.936 41.4123 171.936L41.4924 172.016C41.4924 172.096 41.4924 172.096 41.4123 172.096C40.6914 172.176 40.0506 172.256 39.4899 172.176C38.9292 171.936 38.3685 171.696 37.8078 171.375ZM43.4148 174.579C43.4148 174.579 43.4148 174.499 43.4148 174.419C43.4148 174.339 43.4949 174.339 43.4949 174.339C43.8153 174.499 44.0556 174.579 44.2959 174.579C44.4562 174.579 44.6164 174.499 44.7766 174.339C44.9368 174.179 45.097 173.938 45.2572 173.538L47.3398 169.293C47.5801 168.812 47.6602 168.492 47.6602 168.251C47.6602 168.011 47.5 167.851 47.2597 167.771C46.7791 167.53 46.2985 167.53 45.8179 167.771C45.3373 168.011 44.8567 168.411 44.3761 168.972C44.3761 168.972 44.2959 168.972 44.2158 168.972C44.1357 168.972 44.1357 168.892 44.1357 168.892L44.6965 167.691C44.7766 167.53 44.8567 167.37 44.9368 167.13C45.0169 166.89 45.097 166.729 45.2572 166.409C45.2572 166.329 45.3373 166.249 45.3373 166.249C45.3373 166.249 45.4174 166.249 45.4975 166.249C45.7378 166.409 45.9781 166.489 46.2184 166.649L48.8617 167.931L51.5852 169.212C51.8255 169.293 52.0658 169.453 52.3061 169.533C52.3862 169.613 52.4663 169.613 52.4663 169.613C52.4663 169.613 52.4663 169.693 52.3862 169.773C51.6653 171.055 51.2648 171.776 51.1045 172.096C51.1045 172.096 51.0244 172.096 50.9443 172.096C50.8642 172.096 50.8642 172.016 50.8642 172.016C51.1045 171.295 51.1045 170.654 51.0244 170.174C50.8642 169.613 50.6239 169.293 50.1433 169.052C49.903 168.892 49.6627 168.892 49.5025 169.052C49.3423 169.212 49.102 169.453 48.8617 169.933L46.7791 174.179C46.6189 174.579 46.4587 174.9 46.4587 175.06C46.4587 175.3 46.4587 175.46 46.6189 175.621C46.699 175.781 46.9393 175.941 47.2597 176.101C47.2597 176.101 47.2597 176.181 47.2597 176.261C47.2597 176.341 47.1796 176.341 47.1796 176.341C46.8592 176.181 46.5388 176.021 46.3786 175.941L45.3373 175.38L44.2158 174.82C44.0556 174.9 43.8153 174.739 43.4148 174.579ZM59.4351 181.228C59.4351 181.228 59.4351 181.308 59.4351 181.388C59.4351 181.468 59.355 181.468 59.355 181.468C58.9545 181.308 58.7142 181.228 58.4739 181.148L57.4325 180.747L56.231 180.347C55.9907 180.266 55.7504 180.186 55.3499 180.026C55.2698 180.026 55.2698 179.946 55.3499 179.866C55.3499 179.786 55.43 179.786 55.43 179.786C55.7504 179.946 55.9907 179.946 56.231 179.946C56.3912 179.946 56.5514 179.866 56.7116 179.706C56.8718 179.546 56.9519 179.225 57.1121 178.825L58.554 174.98L53.3474 177.303V177.383C53.1872 177.783 53.1071 178.104 53.1071 178.344C53.1071 178.584 53.1071 178.744 53.2673 178.825C53.4275 178.985 53.6678 179.065 53.9882 179.225C53.9882 179.225 53.9882 179.305 53.9882 179.385C53.9882 179.465 53.9081 179.465 53.9081 179.465C53.5076 179.305 53.2673 179.225 53.027 179.145L51.9857 178.744L50.8642 178.344C50.6239 178.264 50.3836 178.184 49.9831 178.024C49.903 178.024 49.903 177.943 49.9831 177.863C49.9831 177.783 50.0632 177.783 50.0632 177.783C50.3836 177.943 50.6239 177.943 50.8642 177.943C51.0244 177.943 51.1847 177.863 51.3449 177.703C51.5051 177.543 51.5852 177.223 51.7454 176.822L53.5076 172.336C53.6678 171.936 53.7479 171.615 53.7479 171.375C53.7479 171.135 53.6678 170.975 53.5877 170.895C53.4275 170.734 53.2673 170.654 52.8668 170.494C52.7867 170.494 52.7867 170.414 52.8668 170.334C52.8668 170.254 52.9469 170.254 52.9469 170.254C53.3474 170.414 53.5877 170.494 53.7479 170.574L54.8693 171.055L55.9907 171.455C56.231 171.535 56.4713 171.615 56.8718 171.776C56.8718 171.776 56.8718 171.856 56.8718 171.936C56.8718 172.016 56.7917 172.016 56.7917 172.016C56.4713 171.856 56.231 171.856 55.9907 171.856C55.8305 171.856 55.6703 171.936 55.5101 172.176C55.3499 172.336 55.2698 172.657 55.1096 173.057L53.6678 176.822L58.8744 174.499C59.0346 174.099 59.1147 173.778 59.1147 173.538C59.1147 173.298 59.0346 173.137 58.9545 173.057C58.7943 172.897 58.6341 172.817 58.2335 172.657C58.1534 172.657 58.1534 172.577 58.2335 172.497C58.2335 172.417 58.3137 172.417 58.3137 172.417C58.7142 172.577 58.9545 172.657 59.1147 172.737L60.2361 173.218L61.3575 173.618C61.5978 173.698 61.8381 173.778 62.2386 173.938C62.2386 173.938 62.2386 174.019 62.2386 174.099C62.2386 174.179 62.1585 174.179 62.1585 174.179C61.8381 174.019 61.5978 174.019 61.3575 174.019C61.1973 174.019 61.0371 174.099 60.8769 174.339C60.7167 174.499 60.6366 174.82 60.4764 175.22L58.7943 179.706C58.6341 180.106 58.554 180.427 58.554 180.667C58.554 180.907 58.554 181.067 58.7142 181.148C58.8744 180.987 59.1147 181.148 59.4351 181.228ZM70.1686 184.352C69.7681 184.271 69.4477 184.191 69.1273 184.111C68.8069 184.031 68.5666 183.871 68.2462 183.711L67.5253 187.876C67.4452 188.277 67.4452 188.597 67.5253 188.837C67.6054 189.078 67.7656 189.238 68.0059 189.318C68.2462 189.478 68.6467 189.558 69.2074 189.638C69.2875 189.638 69.2875 189.718 69.2875 189.798C69.2875 189.879 69.2074 189.959 69.2074 189.879C68.7268 189.798 68.3263 189.718 68.0059 189.638L66.3238 189.318L65.0421 189.158C64.8018 189.158 64.5615 189.078 64.161 188.997C64.0809 188.997 64.0809 188.917 64.0809 188.837C64.0809 188.757 64.161 188.677 64.161 188.757C64.5615 188.837 64.8018 188.837 65.0421 188.757C65.2024 188.677 65.3626 188.597 65.5228 188.437C65.6029 188.277 65.683 187.956 65.7631 187.556L67.6054 176.982C67.6855 176.422 67.6855 175.941 67.4452 175.781C67.285 175.54 66.8845 175.38 66.3238 175.3C66.3238 175.3 66.3238 175.22 66.3238 175.14C66.3238 175.06 66.3238 174.98 66.4039 175.06L69.2074 175.54C69.3676 175.54 69.5278 175.621 69.5278 175.701C69.6079 175.781 69.6079 175.941 69.5278 176.101L69.3676 176.822C70.0084 176.422 70.6492 176.101 71.2099 175.941C71.7707 175.781 72.3314 175.781 72.8921 175.861C73.4528 175.941 74.0135 176.181 74.4941 176.582C74.9747 176.982 75.2951 177.463 75.4553 178.184C75.6956 178.825 75.6956 179.546 75.5354 180.347C75.3752 181.468 74.9747 182.349 74.3339 182.99C73.7732 183.631 73.0523 184.031 72.3314 184.271C71.6105 184.432 70.8895 184.432 70.1686 184.352ZM71.5303 176.662C71.1298 176.582 70.8094 176.582 70.4089 176.662C70.0885 176.742 69.688 176.902 69.2875 177.142L68.4064 182.269C68.6467 182.669 68.9671 183.07 69.2875 183.31C69.6079 183.551 70.0885 183.711 70.6492 183.871C71.3701 184.031 71.9309 183.791 72.4916 183.23C72.9722 182.669 73.3727 181.788 73.613 180.587C73.7732 179.465 73.6931 178.584 73.2926 177.863C72.9722 177.223 72.3314 176.822 71.5303 176.662ZM85.4679 177.303C85.4679 177.303 85.4679 177.383 85.4679 177.463C85.4679 177.543 85.4679 177.623 85.3878 177.623C84.9873 177.623 84.5868 177.703 84.2664 178.104C83.946 178.424 83.6256 178.905 83.3052 179.626L80.4216 186.034C79.7808 187.395 79.2201 188.437 78.7395 189.158C78.1787 189.879 77.6981 190.439 77.2175 190.76C76.7369 191.08 76.1762 191.16 75.6155 191.16C75.215 191.16 74.8946 191 74.7344 190.84C74.4941 190.68 74.414 190.439 74.414 190.039C74.414 189.718 74.5742 189.558 74.7344 189.398C74.8946 189.238 75.1349 189.238 75.3752 189.238C75.5354 189.238 75.6956 189.318 75.7757 189.318C75.8558 189.398 76.016 189.478 76.1762 189.558C76.3364 189.638 76.4165 189.718 76.5767 189.798C76.6568 189.879 76.817 189.879 76.9772 189.879C77.2976 189.879 77.618 189.798 77.9384 189.558C78.2589 189.318 78.5793 188.917 78.8997 188.277C79.2201 187.716 79.7007 186.835 80.1813 185.713L77.2175 178.664C76.9772 178.024 76.7369 177.623 76.5767 177.383C76.4165 177.142 76.1762 177.062 75.9359 177.062C75.8558 177.062 75.8558 176.982 75.8558 176.902C75.8558 176.822 75.8558 176.742 75.9359 176.742C76.3364 176.742 76.5767 176.822 76.817 176.822L77.618 176.902L79.0599 176.982C79.3002 176.982 79.5405 176.982 79.941 176.982C80.0211 176.982 80.0211 177.062 80.0211 177.142C80.0211 177.223 80.0211 177.303 79.941 177.303C79.5405 177.303 79.3002 177.303 79.0599 177.383C78.8997 177.463 78.8196 177.543 78.7395 177.703C78.7395 177.863 78.7395 177.943 78.8196 178.104L81.0624 183.711L82.7445 179.626C82.9047 179.225 82.9848 178.985 82.9848 178.664C83.0649 177.943 82.5843 177.463 81.6231 177.463C81.6231 177.463 81.6231 177.383 81.6231 177.303C81.6231 177.223 81.6231 177.142 81.7032 177.142C82.1037 177.142 82.344 177.223 82.5843 177.223L83.8659 177.303H84.6669C84.9072 177.223 85.1475 177.223 85.4679 177.303ZM93.5582 184.992C93.6383 184.992 93.6383 185.072 93.6383 185.153C93.6383 185.233 93.6383 185.313 93.5582 185.313C93.1577 185.313 92.8373 185.313 92.597 185.313H91.4755L90.274 185.393C90.0337 185.393 89.7133 185.473 89.3128 185.473C89.3128 185.473 89.2327 185.393 89.2327 185.313C89.2327 185.233 89.2327 185.153 89.2327 185.153C89.5531 185.153 89.8735 185.072 90.0337 184.992C90.1939 184.912 90.3541 184.752 90.3541 184.592C90.4342 184.352 90.4342 184.031 90.4342 183.631L90.3541 181.388C89.5531 182.189 88.672 182.589 87.7909 182.589C87.07 182.589 86.5093 182.429 86.1088 182.029C85.7083 181.628 85.4679 180.987 85.4679 180.106L85.3878 179.065C85.3878 178.664 85.3077 178.344 85.3077 178.104C85.2276 177.943 85.2276 177.783 85.0674 177.703C84.9873 177.623 84.8271 177.623 84.5868 177.623C84.5067 177.623 84.5067 177.543 84.5067 177.463C84.5067 177.383 84.5067 177.303 84.5868 177.303C84.9072 177.303 85.1475 177.303 85.3077 177.303H86.269L87.2302 177.223C87.3904 177.223 87.7108 177.223 88.0312 177.142C88.0312 177.142 88.1113 177.223 88.1113 177.303C88.1113 177.383 88.1113 177.463 88.1113 177.463C87.7108 177.463 87.4705 177.623 87.3904 177.783C87.3103 178.024 87.2302 178.424 87.2302 178.985V179.626C87.2302 180.347 87.3904 180.827 87.6307 181.148C87.871 181.468 88.2715 181.628 88.7521 181.548C88.9924 181.548 89.2327 181.468 89.5531 181.388C89.8735 181.308 90.1939 181.148 90.4342 180.907L90.3541 178.825C90.3541 178.424 90.274 178.104 90.274 177.863C90.1939 177.623 90.1138 177.543 90.0337 177.463C89.8735 177.383 89.7133 177.383 89.473 177.383C89.3929 177.383 89.3929 177.303 89.3929 177.223C89.3929 177.142 89.3929 177.062 89.473 177.062C89.7934 177.062 90.0337 177.062 90.274 177.062H91.3153L92.4368 176.982C92.6771 176.982 92.9975 176.902 93.3179 176.902C93.398 176.902 93.398 176.982 93.398 177.062C93.398 177.142 93.398 177.223 93.3179 177.223C92.9975 177.223 92.6771 177.303 92.5169 177.383C92.3567 177.463 92.2766 177.623 92.1964 177.863C92.1163 178.104 92.1163 178.424 92.1163 178.825L92.2766 183.551C92.2766 183.951 92.3567 184.271 92.4368 184.512C92.5169 184.752 92.597 184.832 92.8373 184.912C92.9174 184.992 93.2378 184.992 93.5582 184.992ZM104.852 183.551C104.852 183.551 104.933 183.551 104.933 183.711C104.933 183.791 104.933 183.871 104.933 183.871C104.532 183.951 104.212 183.951 104.051 183.951L102.93 184.111L101.728 184.271C101.488 184.352 101.248 184.352 100.847 184.432C100.767 184.432 100.767 184.432 100.767 184.352C100.767 184.271 100.767 184.191 100.847 184.191C101.168 184.111 101.488 184.111 101.648 183.951C101.809 183.871 101.889 183.711 101.969 183.47C101.969 183.23 101.969 182.91 101.969 182.509L101.648 180.347L97.6433 180.907L97.9637 183.07C98.0438 183.47 98.1239 183.791 98.204 184.031C98.2841 184.191 98.4443 184.352 98.6045 184.432C98.7647 184.512 99.0852 184.512 99.4056 184.432C99.4056 184.432 99.4857 184.432 99.4857 184.592C99.4857 184.672 99.4857 184.752 99.4857 184.752C99.0852 184.832 98.7647 184.832 98.6045 184.832L97.4831 184.992L96.2816 185.153C96.0413 185.233 95.801 185.233 95.4005 185.313C95.3204 185.313 95.3204 185.313 95.3204 185.233C95.3204 185.153 95.3204 185.072 95.4005 185.072C95.7209 184.992 96.0413 184.992 96.2015 184.832C96.3617 184.752 96.4418 184.592 96.5219 184.352C96.5219 184.111 96.5219 183.791 96.5219 183.39L95.8811 178.584C95.801 178.184 95.7209 177.863 95.6408 177.623C95.5607 177.463 95.4005 177.303 95.2403 177.223C95.0801 177.142 94.8398 177.142 94.4393 177.223C94.3592 177.223 94.3592 177.223 94.3592 177.142C94.3592 177.062 94.3592 176.982 94.4393 176.982C94.8398 176.902 95.1602 176.902 95.3204 176.902L96.5219 176.742L97.6433 176.582C97.8836 176.502 98.204 176.502 98.5244 176.422C98.5244 176.422 98.6045 176.422 98.6045 176.582C98.6045 176.662 98.6045 176.742 98.6045 176.742C98.2841 176.822 97.9637 176.902 97.8035 176.982C97.6433 177.062 97.5632 177.223 97.4831 177.463C97.4831 177.703 97.4831 178.024 97.4831 178.424L97.7234 180.507L101.728 179.946L101.408 177.783C101.328 177.383 101.248 177.062 101.168 176.822C101.088 176.662 100.927 176.502 100.767 176.422C100.607 176.341 100.367 176.341 99.9663 176.422C99.8862 176.422 99.8862 176.422 99.8862 176.341C99.8862 176.261 99.8862 176.181 99.9663 176.181C100.367 176.101 100.687 176.101 100.847 176.101L102.049 175.941L103.17 175.781C103.411 175.701 103.731 175.701 104.051 175.621C104.051 175.621 104.132 175.621 104.132 175.781C104.132 175.861 104.132 175.941 104.132 175.941C103.811 176.021 103.491 176.101 103.331 176.181C103.17 176.261 103.09 176.422 103.01 176.662C103.01 176.902 103.01 177.223 103.01 177.623L103.651 182.349C103.731 182.75 103.811 183.07 103.891 183.31C103.971 183.47 104.132 183.631 104.292 183.711C104.212 183.551 104.452 183.551 104.852 183.551ZM110.46 182.349C109.659 182.589 108.858 182.589 108.137 182.429C107.416 182.189 106.775 181.868 106.214 181.228C105.653 180.667 105.333 179.946 105.093 179.225C104.852 178.344 104.852 177.543 105.093 176.742C105.333 176.021 105.814 175.38 106.374 174.82C107.015 174.339 107.656 173.938 108.377 173.698C109.178 173.458 109.979 173.458 110.78 173.618C111.501 173.858 112.142 174.259 112.702 174.739C113.183 175.3 113.583 175.941 113.824 176.662C114.064 177.463 114.064 178.264 113.824 179.065C113.583 179.866 113.183 180.507 112.622 181.067C111.901 181.788 111.261 182.109 110.46 182.349ZM110.94 181.788C111.581 181.628 111.901 181.228 112.062 180.587C112.222 179.946 112.142 179.145 111.901 178.104C111.661 177.142 111.261 176.422 110.78 175.781C110.299 175.14 109.819 174.739 109.258 174.499C108.697 174.259 108.217 174.259 107.656 174.339C107.015 174.499 106.615 174.9 106.454 175.54C106.294 176.101 106.374 176.902 106.615 177.943C106.855 178.825 107.255 179.626 107.656 180.266C108.137 180.907 108.617 181.388 109.178 181.628C109.899 181.868 110.379 181.949 110.94 181.788Z" fill="#252324"/>
<path d="M125.278 176.261C125.278 176.261 125.358 176.261 125.358 176.341C125.358 176.422 125.358 176.502 125.358 176.502C125.038 176.662 124.718 176.742 124.477 176.822L123.436 177.223L122.314 177.703C122.154 177.783 121.834 177.943 121.513 178.024C121.513 178.024 121.433 178.024 121.433 177.943C121.433 177.863 121.433 177.783 121.433 177.783C121.754 177.623 121.994 177.543 122.154 177.383C122.314 177.223 122.314 177.062 122.314 176.822C122.314 176.582 122.234 176.261 122.074 175.861L120.552 172.096L118.309 177.383C118.47 177.783 118.63 178.104 118.71 178.264C118.87 178.424 119.03 178.504 119.191 178.504C119.351 178.504 119.671 178.424 119.992 178.344C119.992 178.344 120.072 178.344 120.072 178.424C120.072 178.504 120.072 178.584 120.072 178.584C119.751 178.744 119.431 178.825 119.191 178.905L118.149 179.305L117.028 179.786C116.868 179.866 116.547 180.026 116.147 180.186C116.147 180.186 116.067 180.186 116.067 180.106C116.067 180.026 116.067 179.946 116.067 179.946C116.387 179.786 116.627 179.706 116.788 179.545C116.948 179.385 116.948 179.225 116.948 178.985C116.948 178.744 116.868 178.424 116.707 178.024L114.865 173.538C114.705 173.137 114.545 172.817 114.384 172.657C114.224 172.497 114.064 172.416 113.904 172.416C113.744 172.416 113.503 172.497 113.103 172.577C113.103 172.577 113.023 172.577 113.023 172.497C113.023 172.416 113.023 172.336 113.023 172.336C113.343 172.176 113.664 172.096 113.904 172.016L115.025 171.535L116.067 171.055C116.307 170.975 116.547 170.814 116.868 170.734C116.868 170.734 116.948 170.734 116.948 170.814C116.948 170.895 116.948 170.975 116.948 170.975C116.627 171.135 116.387 171.215 116.227 171.375C116.067 171.535 116.067 171.696 116.067 171.936C116.067 172.176 116.147 172.416 116.387 172.817L117.909 176.502L120.152 171.215C119.992 170.814 119.831 170.574 119.671 170.334C119.511 170.174 119.351 170.094 119.191 170.094C119.03 170.094 118.79 170.174 118.39 170.254C118.39 170.254 118.309 170.254 118.309 170.174C118.309 170.094 118.309 170.013 118.309 170.013C118.63 169.853 118.95 169.773 119.191 169.693L120.312 169.212L121.353 168.732C121.594 168.652 121.834 168.491 122.154 168.411C122.154 168.411 122.234 168.411 122.234 168.491C122.234 168.572 122.234 168.652 122.234 168.652C121.914 168.812 121.674 168.892 121.513 169.052C121.353 169.212 121.353 169.373 121.353 169.613C121.353 169.853 121.433 170.094 121.674 170.494L123.436 174.9C123.596 175.3 123.756 175.62 123.836 175.781C123.997 175.941 124.157 176.021 124.317 176.021C124.718 176.502 124.958 176.422 125.278 176.261ZM116.868 168.812C117.268 168.652 117.508 168.411 117.589 168.171C117.669 167.931 117.669 167.53 117.589 167.13C117.508 166.729 117.508 166.409 117.508 166.169C117.508 165.928 117.669 165.768 117.989 165.688C118.229 165.608 118.47 165.608 118.63 165.688C118.79 165.768 118.95 165.928 119.03 166.088C119.191 166.409 119.191 166.809 119.03 167.21C118.87 167.61 118.63 168.011 118.229 168.331C117.829 168.652 117.428 168.972 116.948 169.132C116.467 169.292 115.987 169.453 115.426 169.453C114.945 169.453 114.465 169.373 114.064 169.212C113.664 169.052 113.423 168.812 113.263 168.491C113.183 168.251 113.183 168.091 113.263 167.851C113.343 167.69 113.503 167.53 113.744 167.45C114.064 167.29 114.304 167.29 114.465 167.45C114.625 167.61 114.865 167.851 115.105 168.251C115.346 168.572 115.506 168.812 115.746 168.972C116.147 168.972 116.467 168.972 116.868 168.812ZM135.131 170.975C134.81 171.215 134.49 171.375 134.25 171.455C134.009 171.615 133.689 171.696 133.368 171.776L135.691 175.3C135.932 175.621 136.172 175.861 136.332 176.021C136.492 176.101 136.733 176.181 137.053 176.101C137.293 176.021 137.694 175.781 138.175 175.54C138.175 175.54 138.255 175.54 138.335 175.62C138.415 175.701 138.415 175.701 138.335 175.781C137.934 176.101 137.534 176.261 137.293 176.422L135.852 177.303L134.81 178.024C134.65 178.184 134.41 178.344 134.089 178.504C134.089 178.504 134.009 178.504 133.929 178.424C133.849 178.344 133.849 178.344 133.929 178.264C134.25 178.024 134.49 177.863 134.57 177.703C134.65 177.543 134.73 177.383 134.65 177.142C134.57 176.902 134.49 176.662 134.25 176.341L128.322 167.37C128.002 166.889 127.681 166.569 127.361 166.569C127.04 166.569 126.64 166.649 126.159 166.97C126.159 166.97 126.079 166.97 126.079 166.889C125.999 166.809 125.999 166.809 126.079 166.729L128.482 165.207C128.642 165.127 128.723 165.047 128.883 165.127C128.963 165.127 129.043 165.287 129.203 165.448L129.604 166.088C129.764 165.368 130.004 164.727 130.325 164.166C130.645 163.685 131.046 163.285 131.526 162.965C132.007 162.644 132.567 162.484 133.208 162.404C133.849 162.404 134.41 162.564 134.97 162.884C135.531 163.205 136.092 163.685 136.492 164.406C137.133 165.368 137.454 166.249 137.454 167.13C137.454 168.011 137.293 168.812 136.813 169.453C136.252 170.013 135.771 170.574 135.131 170.975ZM130.885 164.406C130.565 164.647 130.325 164.887 130.084 165.207C129.924 165.528 129.764 165.848 129.604 166.329L132.487 170.654C132.968 170.814 133.449 170.814 133.849 170.814C134.25 170.814 134.73 170.574 135.211 170.334C135.771 169.933 136.092 169.373 136.092 168.652C136.092 167.931 135.771 167.05 135.051 166.008C134.41 165.047 133.769 164.486 132.968 164.246C132.247 163.846 131.606 164.006 130.885 164.406ZM145.464 160.882C145.544 160.882 145.544 160.882 145.624 160.882C145.704 160.882 145.704 160.962 145.704 161.042L144.743 163.285C144.743 163.365 144.663 163.365 144.663 163.445C144.503 163.605 144.262 163.605 144.022 163.605C143.702 163.525 143.461 163.445 143.141 163.205L142.58 164.406C142.26 165.287 141.859 165.928 141.459 166.329C141.138 166.649 140.738 166.809 140.417 166.809C140.097 166.809 139.777 166.649 139.456 166.329C139.136 166.008 139.056 165.608 139.136 165.287C139.216 164.887 139.536 164.326 139.937 163.525L141.138 161.362L140.017 160.081C139.456 159.44 138.895 159.04 138.495 158.879C138.094 158.719 137.694 158.719 137.454 159.04C136.893 159.52 136.893 160.241 137.614 161.202C138.014 161.763 138.014 162.324 137.534 162.724C137.053 163.125 136.653 163.125 136.332 162.724C136.092 162.484 136.012 162.003 136.092 161.443C136.172 160.882 136.412 160.241 136.733 159.6C137.053 158.959 137.374 158.479 137.774 158.158C138.255 157.758 138.735 157.518 139.296 157.598C139.857 157.598 140.417 157.918 140.898 158.559L143.461 161.362C143.782 161.683 144.022 161.923 144.262 162.003C144.503 162.083 144.743 162.003 144.983 161.843C145.143 161.443 145.304 161.282 145.464 160.882ZM142.82 162.965C142.74 162.965 142.66 162.884 142.58 162.724L141.459 161.523L140.658 162.965C140.497 163.285 140.417 163.605 140.337 163.846C140.337 164.086 140.417 164.246 140.578 164.486C140.818 164.727 140.978 164.807 141.218 164.807C141.459 164.807 141.699 164.727 141.859 164.567C142.099 164.326 142.26 164.086 142.42 163.685L142.82 162.965ZM143.862 152.471C144.583 151.75 145.304 151.27 146.105 151.029C146.825 150.869 147.546 150.869 148.187 151.029C148.828 151.27 149.389 151.59 149.869 152.071C150.51 152.712 150.991 153.352 151.151 154.153C151.311 154.954 151.311 155.675 151.071 156.476C150.831 157.277 150.43 157.918 149.869 158.559C149.389 159.12 148.748 159.52 148.027 159.68C147.306 159.841 146.585 159.841 145.784 159.6C144.983 159.36 144.102 158.799 143.301 157.998C142.019 156.797 141.058 155.675 140.497 154.554C139.937 153.513 139.696 152.471 139.696 151.51C139.696 150.549 139.937 149.588 140.417 148.546C140.658 147.986 140.898 147.505 140.978 147.185C141.058 146.864 141.138 146.464 141.138 146.063C141.138 145.663 141.058 145.262 140.898 144.782C140.898 144.782 140.898 144.701 140.978 144.621C141.058 144.541 141.058 144.541 141.138 144.621C141.699 145.342 142.099 145.983 142.26 146.544C142.42 147.024 142.5 147.585 142.42 147.986C142.34 148.466 142.099 149.027 141.779 149.748C141.379 150.549 141.138 151.35 141.058 152.071C140.978 152.792 141.058 153.593 141.379 154.394C141.699 155.195 142.26 156.156 143.061 157.117C142.58 155.996 142.42 155.034 142.74 154.233C143.061 153.513 143.461 152.952 143.862 152.471ZM150.11 157.758C150.51 157.277 150.67 156.717 150.51 156.076C150.35 155.435 149.869 154.714 148.988 153.993C148.347 153.352 147.626 152.952 146.986 152.631C146.345 152.391 145.784 152.231 145.223 152.311C144.663 152.391 144.262 152.631 143.942 152.952C143.461 153.432 143.381 154.073 143.621 154.714C143.862 155.435 144.342 156.076 144.983 156.717C145.944 157.598 146.825 158.158 147.787 158.319C148.748 158.559 149.549 158.399 150.11 157.758ZM156.678 150.629C156.117 151.27 155.556 151.75 154.836 152.071C154.115 152.311 153.394 152.391 152.593 152.231C151.792 152.071 151.151 151.75 150.51 151.27C149.789 150.709 149.309 150.068 149.068 149.267C148.828 148.466 148.828 147.745 148.988 146.944C149.148 146.143 149.469 145.502 149.949 144.862C150.51 144.141 151.151 143.66 151.872 143.42C152.593 143.18 153.314 143.099 154.115 143.26C154.836 143.42 155.556 143.74 156.117 144.221C156.758 144.782 157.239 145.422 157.559 146.143C157.799 146.864 157.879 147.665 157.719 148.466C157.559 149.187 157.239 149.988 156.678 150.629ZM156.758 149.828C157.159 149.347 157.239 148.787 156.998 148.146C156.758 147.505 156.197 146.944 155.396 146.223C154.675 145.663 153.874 145.262 153.153 145.022C152.433 144.782 151.792 144.782 151.231 144.862C150.67 145.022 150.19 145.262 149.869 145.663C149.469 146.143 149.389 146.704 149.629 147.345C149.869 147.905 150.35 148.546 151.151 149.187C151.872 149.748 152.593 150.148 153.394 150.389C154.115 150.629 154.836 150.709 155.396 150.629C155.957 150.549 156.438 150.309 156.758 149.828ZM161.003 144.061C161.003 144.061 160.923 144.061 160.843 144.061C160.763 143.981 160.763 143.981 160.763 143.981C160.923 143.66 161.083 143.42 161.083 143.18C161.083 143.019 161.003 142.859 160.923 142.699C160.763 142.539 160.523 142.378 160.122 142.138L155.957 139.815C155.476 139.575 155.156 139.415 154.916 139.415C154.675 139.415 154.515 139.495 154.355 139.815C154.115 140.216 154.115 140.696 154.275 141.257C154.435 141.738 154.836 142.298 155.396 142.779C155.396 142.779 155.396 142.859 155.396 142.939C155.396 143.019 155.316 143.019 155.316 143.019L154.195 142.459C154.035 142.379 153.874 142.298 153.714 142.218C153.474 142.138 153.314 141.978 153.073 141.898C152.993 141.818 152.993 141.818 152.913 141.818C152.913 141.818 152.913 141.738 152.993 141.658C153.153 141.417 153.314 141.177 153.394 140.937L154.836 138.373L156.277 135.73C156.358 135.49 156.518 135.249 156.678 135.009C156.758 134.929 156.758 134.849 156.758 134.849C156.758 134.849 156.838 134.849 156.918 134.929C158.12 135.73 158.841 136.131 159.161 136.291C159.161 136.291 159.161 136.371 159.161 136.451C159.161 136.531 159.081 136.531 159.081 136.531C158.36 136.291 157.799 136.211 157.239 136.291C156.678 136.371 156.277 136.691 156.037 137.092C155.877 137.332 155.877 137.572 155.957 137.733C156.037 137.893 156.357 138.133 156.838 138.373L161.003 140.696C161.404 140.937 161.644 141.017 161.884 141.097C162.125 141.177 162.285 141.097 162.445 141.017C162.605 140.937 162.766 140.696 162.926 140.376C162.926 140.376 163.006 140.376 163.086 140.376C163.166 140.456 163.166 140.456 163.166 140.456C163.006 140.776 162.846 141.017 162.685 141.257L162.125 142.218L161.564 143.26C161.324 143.42 161.244 143.66 161.003 144.061ZM162.205 131.244C163.086 129.322 164.127 128.681 165.489 129.242C166.21 129.562 166.691 130.123 166.931 130.844C167.171 131.565 167.091 132.446 166.691 133.247C166.61 133.407 166.45 133.808 166.21 134.288C165.89 134.929 165.729 135.33 165.569 135.57L165.089 136.691C165.008 136.932 164.928 137.172 164.768 137.572C164.768 137.572 164.688 137.653 164.608 137.572C164.528 137.572 164.528 137.492 164.528 137.492C164.688 137.172 164.768 136.932 164.768 136.691C164.768 136.531 164.688 136.371 164.528 136.211C164.368 136.051 164.047 135.89 163.727 135.73L159.321 133.808C158.921 133.647 158.6 133.567 158.44 133.487C158.2 133.487 158.04 133.487 157.879 133.647C157.719 133.808 157.639 133.968 157.479 134.288C157.479 134.288 157.399 134.368 157.319 134.288C157.239 134.288 157.239 134.208 157.239 134.208C157.399 133.888 157.559 133.567 157.639 133.407L158.12 132.286L158.6 131.084C158.68 130.844 158.841 130.524 159.001 130.123C159.001 130.123 159.081 130.123 159.161 130.123C159.241 130.123 159.241 130.203 159.241 130.203C159.081 130.604 159.001 130.924 159.001 131.164C159.001 131.405 159.081 131.565 159.241 131.725C159.401 131.885 159.642 132.045 160.042 132.206L161.724 132.927C161.724 132.446 161.884 131.885 162.205 131.244ZM169.654 125.637C169.654 125.637 169.734 125.557 169.814 125.637C169.895 125.637 169.895 125.717 169.895 125.717C169.734 126.038 169.574 126.358 169.494 126.518L169.013 127.56L168.533 128.681C168.453 128.921 168.373 129.162 168.212 129.562C168.212 129.562 168.132 129.642 168.052 129.562C167.972 129.562 167.972 129.482 167.972 129.482C168.132 129.162 168.212 128.921 168.212 128.681C168.212 128.521 168.132 128.361 167.972 128.201C167.812 128.04 167.492 127.88 167.171 127.72L162.766 125.798C162.365 125.637 162.045 125.557 161.884 125.477C161.644 125.477 161.484 125.477 161.324 125.637C161.164 125.798 161.083 125.958 160.923 126.278C160.923 126.278 160.843 126.358 160.763 126.278C160.683 126.278 160.683 126.198 160.683 126.198C160.843 125.878 161.003 125.557 161.083 125.397L161.564 124.276L162.045 123.234C162.125 122.994 162.205 122.754 162.365 122.433C162.365 122.433 162.445 122.353 162.525 122.433C162.605 122.433 162.605 122.513 162.605 122.513C162.445 122.834 162.365 123.074 162.445 123.314C162.445 123.475 162.525 123.635 162.685 123.795C162.846 123.955 163.166 124.115 163.487 124.276L167.892 126.198C168.293 126.358 168.613 126.438 168.773 126.518C169.013 126.518 169.174 126.518 169.334 126.358C169.414 126.198 169.574 125.958 169.654 125.637ZM166.21 133.567C166.45 133.007 166.53 132.526 166.29 132.126C166.13 131.725 165.729 131.405 165.169 131.164C164.528 130.844 163.967 130.844 163.406 130.924C162.926 131.084 162.525 131.485 162.205 132.126C162.045 132.526 161.965 132.846 161.884 133.247L164.207 134.288C164.688 134.529 165.089 134.529 165.329 134.448C165.729 134.288 165.97 134.048 166.21 133.567Z" fill="#252324"/>
<path fill-rule="evenodd" clip-rule="evenodd" d="M5.92749 91.6746C7.44941 91.6746 8.73103 92.9562 8.73103 94.4781C8.73103 96 7.44941 97.2816 5.92749 97.2816C4.40557 97.2816 3.12395 96 3.12395 94.4781C3.12395 92.9562 4.40557 91.6746 5.92749 91.6746Z" fill="#252324"/>
<path fill-rule="evenodd" clip-rule="evenodd" d="M166.29 91.6746C167.812 91.6746 169.094 92.9562 169.094 94.4781C169.094 96 167.812 97.2816 166.29 97.2816C164.768 97.2816 163.487 96 163.487 94.4781C163.487 92.9562 164.768 91.6746 166.29 91.6746Z" fill="#252324"/>
<path fill-rule="evenodd" clip-rule="evenodd" d="M48.4612 113.142C49.7428 113.702 52.4663 121.232 52.9469 123.395C52.3061 123.074 51.1046 122.754 51.0245 122.033C50.9444 119.87 48.4612 115.865 48.4612 113.142ZM27.8752 100.406C29.5573 100.406 30.9191 100.886 32.2808 101.527C37.3272 104.01 48.1408 108.896 51.7454 114.503C51.3449 111.059 51.7454 109.858 51.2648 105.692L48.4612 104.891C45.6577 103.53 43.4949 100.326 43.4148 96.9613C43.4148 93.9975 43.0143 88.0701 43.9756 85.1063L44.1358 84.6257C44.1358 84.5456 44.2159 84.5456 44.2159 84.4655C44.296 88.2303 43.6551 92.0751 46.2184 93.9174C47.3398 94.7185 48.8617 95.119 49.9831 95.92C51.6653 97.0414 51.5852 97.0414 52.3862 99.124L53.027 96.8812C49.7428 93.9975 47.7403 90.7935 47.5 86.1476C47.3398 83.1038 48.3811 74.533 49.8229 72.6105C49.9831 72.9309 49.0219 75.5743 49.0219 77.5768C49.0219 83.3441 53.5076 83.3441 55.3499 86.3879C55.7504 87.0287 55.8305 87.6696 56.3111 88.3104L58.4739 82.7834C58.0734 82.5431 58.0734 82.5431 57.5928 82.3829C55.6703 81.5819 54.3887 79.7395 53.5877 77.8171C52.3061 74.6932 53.1872 72.6105 54.0683 69.6468C55.1096 65.9621 57.4326 63.479 58.3938 61.6367C59.0346 60.2749 59.6754 57.5515 60.8769 56.8306C60.4764 58.2724 59.355 59.8744 58.7943 61.6367C57.3525 66.4427 56.7917 67.404 59.7555 71.8095C61.1172 73.812 60.8769 74.2927 61.5978 76.6957C61.8381 76.3753 61.9182 76.2151 62.1585 75.8146C62.9595 74.2126 64.9621 71.5692 65.2825 70.2075C64.4815 69.6468 63.7606 68.6055 63.1197 67.7244C60.3963 63.8795 60.2361 64.1198 62.7993 57.6316C64.081 54.2674 65.7631 51.5439 68.086 49.0608C68.4064 48.7404 70.0084 47.1384 70.7294 47.6991C69.7681 48.6603 68.887 48.8205 67.8457 50.3424C65.7631 53.3061 65.683 55.0684 67.5253 58.3525C68.086 59.3938 68.7268 61.4765 69.1273 62.1974C69.8482 60.8357 69.688 58.5127 70.0885 56.9107C71.21 53.6266 79.6206 51.624 82.5843 51.3036C84.5067 51.1434 85.468 50.823 87.3904 50.9031C85.9486 51.5439 85.6282 51.7041 84.2665 52.3449C82.7445 53.0658 80.9022 55.0684 78.5793 61.7168C78.1788 62.9183 74.5742 62.8382 73.613 63.3989L76.016 63.9596C81.7032 64.6805 83.3853 63.8795 86.7496 59.7943C87.3103 59.0734 88.1914 57.5515 88.9924 57.3112C88.9123 57.3913 87.07 60.6755 86.9098 60.9158C86.1088 62.1974 85.2277 63.2387 84.2665 64.4402C82.5042 66.683 81.0624 69.006 78.5793 70.6881C71.6906 75.4141 68.0059 70.6881 66.7243 71.1687C66.2437 71.3289 65.9233 72.1299 65.683 72.6105C64.9621 73.7319 63.9208 75.0937 63.5202 76.4554C64.5616 75.2539 66.1636 74.3728 68.6467 74.533C73.613 74.8534 74.414 77.3365 76.8971 76.135C79.0599 75.0937 79.7808 73.4115 81.2226 71.4891C81.6231 70.9284 81.4629 70.8483 82.1037 70.6881C81.7833 71.8095 79.6206 75.5743 78.8196 76.4554C78.339 76.936 78.1788 77.0962 77.6181 77.4967C74.4941 80.14 72.2513 82.463 67.9258 83.5043C64.7218 84.2252 63.4401 83.1839 60.6366 82.3829C60.156 83.4242 58.7142 85.667 58.6341 87.0287C59.9157 86.3879 60.7968 85.1864 62.7993 85.8272C64.882 86.5481 65.2024 86.8685 67.7656 86.8685C70.0885 86.8685 73.2926 83.8247 75.0548 82.1426C74.9747 83.0237 70.6493 86.8685 69.5278 88.3905C67.7656 90.7935 66.5641 92.9562 63.1998 93.7572C60.3162 94.4782 59.0346 94.6384 55.9106 94.7185C55.5902 95.7598 54.9494 98.5633 55.0295 99.8449C55.2698 99.2041 56.231 98.8036 56.9519 98.5633C59.355 97.522 61.5177 98.2429 65.3626 96.3205C66.6442 95.6797 66.484 95.5195 67.2049 94.4781C67.7656 93.6771 68.1661 93.1965 68.6467 92.3154C69.2875 91.194 70.1686 90.3129 70.9697 89.1915L71.8508 88.3104C71.4503 89.2716 70.6493 90.0726 70.0885 91.194C68.4064 94.5583 67.6855 98.0026 66.2437 100.806C64.7218 103.85 62.0784 106.413 58.4739 106.573C56.3912 106.734 56.231 106.573 54.7892 105.772C54.5489 107.294 55.1096 113.783 55.9106 114.744C56.231 112.261 66.4039 106.013 68.7268 104.811C75.5354 101.207 82.4241 99.6847 92.3567 99.124C94.0388 99.0439 95.4806 99.124 97.0826 98.8837C98.0439 98.8036 100.927 98.8837 101.408 99.5245C100.847 99.925 100.046 99.7648 99.2454 99.7648C86.7496 101.527 75.215 106.493 68.4865 116.666C66.8044 119.229 64.9621 121.472 63.8406 124.356C62.4789 129.723 70.3288 135.81 81.543 137.172C102.77 139.655 132.487 127.56 111.341 78.7783C109.498 74.6932 107.336 71.3289 105.093 67.6443C104.292 66.3626 103.571 65.2412 102.85 64.1198C100.927 61.3964 100.928 60.7556 93.1577 50.6628C103.491 57.8719 115.346 72.9309 121.033 84.3053C122.715 87.1088 122.715 87.5093 123.997 89.9925C136.412 120.912 117.268 147.826 85.7884 145.663C81.3027 145.342 77.4579 144.541 74.0135 143.26C64.7218 139.896 60.4764 133.568 55.3499 126.519C54.0683 124.756 50.7041 123.395 48.9418 121.873L40.9317 112.501C39.4899 110.258 36.5261 107.775 34.4435 105.933C32.2808 104.331 29.0767 101.607 26.5936 100.646C26.6737 100.566 27.8752 100.406 27.8752 100.406ZM27.7951 100.726C31.2395 101.527 34.3634 104.491 36.6863 106.814C37.6476 107.695 38.5287 108.656 39.4098 109.537C40.371 110.498 41.172 111.46 42.0531 112.501L49.7428 120.912C49.2622 118.508 47.9806 114.904 47.2597 112.341C46.5388 111.299 33.9629 103.289 30.5987 101.367C30.0379 101.046 28.7563 100.886 27.7951 100.726ZM79.0599 65.882C82.9047 65.8019 83.145 64.4402 84.3466 63.479C84.1864 63.9596 83.145 65.081 82.8246 65.5616C82.2639 66.3626 81.4629 67.0836 80.8221 67.7244C78.2589 70.2876 75.4553 71.8896 71.8508 71.409C70.489 71.2488 68.6467 70.8483 67.9258 70.0473C69.688 64.1198 73.9334 65.9621 79.0599 65.882ZM80.1813 101.847C82.8246 101.127 91.6358 100.085 94.3592 100.085C88.672 101.287 82.4241 102.969 77.7783 105.692C74.3339 107.695 65.2024 118.188 63.36 122.273C61.8381 125.718 61.4376 124.756 60.156 122.353C58.2336 118.749 62.9595 113.142 66.0835 111.46C62.2386 110.979 58.3137 119.87 58.0734 119.95C57.753 119.229 56.8718 116.987 57.032 116.266C57.2723 114.584 62.8794 110.178 64.081 109.137C67.6855 106.253 75.7757 103.049 80.1813 101.847ZM65.683 97.7623C67.0447 97.1215 66.8845 96.721 67.6054 95.7598C66.8845 98.0827 65.4427 101.287 63.6804 102.969C61.8381 104.811 61.2774 105.452 58.0734 105.532C54.629 105.532 54.7892 104.01 56.1509 101.367C57.6729 98.323 61.8381 99.6847 65.683 97.7623ZM44.1358 92.1552C45.1771 96.721 47.5801 95.8399 49.903 97.7623C50.8643 98.5633 52.226 102.648 51.5051 103.69C50.3036 104.651 46.2985 101.607 45.4174 100.245C44.296 98.5633 43.9756 94.1577 44.1358 92.1552ZM59.0346 88.7109C62.559 85.1864 65.0422 90.0726 69.6079 87.4292C68.7268 88.8711 66.3238 91.4343 65.0422 92.1552C61.1172 94.3981 54.3887 93.4368 59.0346 88.7109ZM48.6214 83.4242C48.7015 82.7834 48.8617 79.8196 48.7816 79.7395C49.4224 84.6257 50.0632 82.5431 53.7479 86.468C55.6703 88.791 54.9494 92.9562 53.5877 95.2792C51.9857 93.7572 49.9831 91.1139 49.102 89.3517C48.7015 88.3104 48.4612 84.866 48.6214 83.4242ZM62.3988 80.6207C63.2799 79.1788 63.8406 78.7783 64.882 77.737C68.8069 74.2927 69.688 77.1763 74.6543 77.8972L76.4165 77.6569C72.812 80.861 66.484 85.5869 62.3988 80.6207ZM57.753 64.1999C57.2724 65.882 56.4713 67.0835 57.1122 69.006C58.4739 73.3314 60.5565 74.0524 59.9157 77.6569C59.5152 78.8584 59.1147 82.2227 57.5127 80.4604C52.3061 74.533 54.7091 70.6881 57.753 64.1999ZM65.683 69.006C63.1197 66.1223 61.9983 63.3188 63.1197 60.1147C64.1611 56.9908 64.5616 55.7092 66.0835 53.0658C63.9207 59.3938 71.0498 61.4765 65.683 69.006ZM72.3314 56.4301C75.3752 53.5464 80.9022 52.8255 83.7057 52.1046C82.5042 52.8255 80.5818 55.0684 79.941 56.4301C79.0599 58.3525 78.6594 60.3551 77.1374 61.4765C75.9359 62.3576 73.7732 62.5178 71.1299 62.1173C70.489 59.3137 70.7294 57.952 72.3314 56.4301Z" fill="#252324"/>
<path fill-rule="evenodd" clip-rule="evenodd" d="M67.7656 121.793C73.2926 112.421 77.2976 113.943 83.145 116.266C75.1349 117.147 74.9747 116.906 67.7656 121.793ZM65.4427 125.077C66.0835 124.436 64.882 124.997 69.4477 121.712C76.3364 116.025 85.5481 117.707 86.4292 116.906C85.3078 115.785 80.1813 113.943 78.0986 113.702C74.3339 113.302 73.0523 113.542 70.3288 116.826C69.2875 118.108 64.9621 124.276 65.4427 125.077Z" fill="#252324"/>
<path fill-rule="evenodd" clip-rule="evenodd" d="M85.3878 67.1636C85.7884 67.1636 86.1088 67.484 86.1088 67.8845C86.1088 68.285 85.7884 68.6054 85.3878 68.6054C84.9873 68.6054 84.6669 68.285 84.6669 67.8845C84.6669 67.484 84.9873 67.1636 85.3878 67.1636Z" fill="#252324"/>
<path fill-rule="evenodd" clip-rule="evenodd" d="M59.5953 65.2412C59.9958 65.2412 60.3162 65.5616 60.3162 65.9621C60.3162 66.3626 59.9958 66.683 59.5953 66.683C59.1948 66.683 58.8744 66.3626 58.8744 65.9621C58.8744 65.5616 59.1948 65.2412 59.5953 65.2412Z" fill="#252324"/>
<path fill-rule="evenodd" clip-rule="evenodd" d="M57.753 108.496C58.1535 108.496 58.4739 108.816 58.4739 109.217C58.4739 109.617 58.1535 109.938 57.753 109.938C57.3524 109.938 57.032 109.617 57.032 109.217C57.032 108.816 57.3524 108.496 57.753 108.496Z" fill="#252324"/>
<path fill-rule="evenodd" clip-rule="evenodd" d="M85.7083 53.0657C86.1088 53.0657 86.4292 53.3861 86.4292 53.7866C86.4292 54.1871 86.1088 54.5075 85.7083 54.5075C85.3077 54.5075 84.9873 54.1871 84.9873 53.7866C84.9873 53.3861 85.3077 53.0657 85.7083 53.0657Z" fill="#252324"/>
<path fill-rule="evenodd" clip-rule="evenodd" d="M56.1509 83.7446C56.5514 83.7446 56.8718 84.065 56.8718 84.4655C56.8718 84.866 56.5514 85.1864 56.1509 85.1864C55.7504 85.1864 55.43 84.866 55.43 84.4655C55.43 84.065 55.7504 83.7446 56.1509 83.7446Z" fill="#252324"/>
</svg>
