<svg width="192" height="102" viewBox="0 0 192 102" fill="none" xmlns="http://www.w3.org/2000/svg">
<g clip-path="url(#clip0_55_340)">
<path d="M18.8576 57.8602C21.9731 57.8602 24.46 56.9299 26.3184 55.0696C28.1768 53.2094 29.1061 50.7199 29.1061 47.601C29.1061 45.4672 28.3818 43.6207 26.9334 42.0613C25.4852 40.502 23.6951 39.0383 21.5631 37.6703C19.4317 36.3027 17.0948 34.9348 14.5532 33.5669C12.0115 32.1991 9.67499 30.6396 7.54349 28.8889C5.41172 27.1379 3.62168 25.0998 2.1731 22.7745C0.724657 20.4489 0.000366211 17.6449 0.000366211 14.3622C0.000366211 12.3923 0.410598 10.5459 1.23035 8.82221C2.0501 7.09892 3.29378 5.5806 4.96067 4.26724C6.62786 2.95417 8.71854 1.91491 11.233 1.14861C13.2118 0.545708 15.4617 0.180339 17.9825 0.0519317C17.9825 0.0519317 19.7447 -0.000488281 20.0875 -0.000488281C24.841 -0.000488281 32.2275 2.26628 36.1474 4.68732V12.5547C33.6381 7.88179 28.0873 2.05146 21.7274 2.05146C20.6887 2.05146 19.7048 2.27014 18.7757 2.70807C17.8464 3.14571 17.0265 3.76118 16.316 4.55448C15.6054 5.34778 15.0317 6.30548 14.5945 7.42701C14.157 8.5484 13.9385 9.7662 13.9385 11.0791C13.9385 13.4319 14.6627 15.4426 16.1111 17.1114C17.5597 18.7802 19.3499 20.3258 21.4814 21.7485C23.6132 23.1709 25.9497 24.5662 28.4913 25.9341C31.0331 27.302 33.3695 28.8202 35.5015 30.4891C37.633 32.1578 39.4231 34.0592 40.8717 36.1929C42.3203 38.3268 43.0443 40.8984 43.0443 43.9076C43.0443 46.0415 42.5797 48.0796 41.6505 50.022C40.7213 51.9643 39.3275 53.6743 37.4691 55.1516C35.6108 56.629 33.2604 57.7913 30.4182 58.6395C21.3082 61.3575 8.24652 59.1237 0.0909739 54.1915V45.4058C2.84844 50.1106 13.4611 57.8599 18.8578 57.8599L18.8576 57.8602ZM97.0025 58.7715L94.4453 58.7729L95.9923 55.0781L112.477 15.1739L110.075 9.56223L109.464 8.09576L106.372 0.644263L113.091 0.665117C119.194 0.787383 122.037 3.33025 124.479 8.95119L127.034 14.9228L127.038 14.9266L127.194 15.2976L127.199 15.31H127.199L144.365 56.3091L145.445 58.771H138.626C135.565 58.771 133.16 58.0734 131.411 56.6782C129.662 55.2832 128.405 53.6554 127.64 51.7952L123.458 41.9468H103.863L98.4518 55.0781L97.0025 58.7715ZM175.545 48.1738V58.5865H168.822C165.059 58.5865 161.99 55.514 161.99 51.7472V45.2277H162.001L161.993 37.4328L144.788 3.09586L143.386 0.633694H150.938C152.468 0.633694 153.807 0.811522 154.955 1.16703C156.103 1.52241 157.114 2.00161 157.989 2.60337C158.863 3.20527 159.628 3.93044 160.284 4.7783C160.94 5.6263 161.514 6.57015 162.006 7.60969L174.537 32.5086L186.999 5.01483L188.961 0.659404H191.865L189.869 5.01483L175.521 36.6122L175.555 48.1739H175.546L175.545 48.1738ZM104.683 39.895H122.638L113.62 18.3102L104.683 39.895ZM63.9009 27.0674H63.9013V3.42024C54.9971 3.42024 49.1433 4.60819 49.1433 16.1412H46.6839V0.656833L77.6155 0.672687L94.6469 0.656833V16.1413H92.1872C92.1872 4.60833 86.3334 3.42038 77.4293 3.42038V16.496V33.8557L77.4297 33.8931V58.5732H70.7196C66.9639 58.5732 63.9009 55.5071 63.9009 51.7477V27.0675V27.0674Z" fill="black"/>
<path d="M135.004 81.4549C135.909 81.0936 136.857 80.6976 137.803 80.3028C138.233 79.7474 138.734 79.2383 139.286 78.7924C139.997 78.218 140.793 77.7467 141.628 77.4139C141.898 77.3063 142.228 77.1824 142.567 77.1289C142.936 77.0705 143.312 77.0951 143.633 77.3038C143.954 77.5116 144.102 77.79 144.138 78.0966C144.151 78.2022 144.15 78.31 144.137 78.419C144.187 78.4033 144.235 78.3907 144.278 78.3829C144.367 78.3664 144.45 78.3654 144.519 78.3852C144.667 78.4271 144.753 78.5238 144.751 78.693C144.75 78.7808 144.712 78.8846 144.625 79.0053C144.427 79.2797 144.154 79.5421 143.873 79.8116C143.382 80.2834 142.863 80.7822 142.812 81.3067C142.76 81.8486 143.017 82.0717 143.369 82.1354C143.802 82.2137 144.373 82.0973 144.793 81.982C145.88 81.6839 146.93 81.2837 147.935 80.79C148.935 80.2988 149.891 79.7145 150.795 79.0452C151.333 78.4593 151.914 77.9132 152.457 77.4085C152.676 77.2036 153.007 77.0758 153.222 77.0679C153.319 77.0647 153.408 77.0831 153.478 77.1244C153.594 77.1912 153.656 77.2969 153.646 77.4415C153.636 77.5703 153.544 77.737 153.331 77.9357C152.897 78.3393 152.471 78.7607 152.069 79.2026C151.667 79.6445 151.29 80.1049 150.953 80.5852C150.791 80.8173 150.61 81.1197 150.557 81.3838C150.519 81.5741 150.563 81.7476 150.783 81.8356C151.201 82.0023 151.96 81.6879 152.434 81.4918L152.501 81.4641C153.277 81.1463 153.973 80.7168 154.62 80.2173C155.271 79.7144 155.875 79.137 156.461 78.5299L156.795 78.1546L157.138 77.7805C157.285 77.6208 157.684 77.404 157.943 77.3405C158.037 77.317 158.127 77.3096 158.201 77.3243C158.367 77.3569 158.464 77.4556 158.464 77.6358C158.464 77.7418 158.404 77.88 158.259 78.0534C158.121 78.2209 157.982 78.3804 157.846 78.5314C157.709 78.6841 157.563 78.8399 157.411 78.9973C157.252 79.1855 157.097 79.3778 156.952 79.5767C156.805 79.7792 156.668 79.9866 156.549 80.2003C156.398 80.4681 156.158 80.92 156.125 81.2341C156.108 81.3872 156.222 81.4766 156.648 81.3484C156.898 81.2723 157.211 81.031 157.485 80.8188C161.801 77.4803 164.292 74.9193 167.938 70.9017C169.758 68.896 171.54 66.8513 173.283 64.7702L173.561 64.33C172.754 64.4214 171.947 64.523 171.142 64.6346C170.171 64.7687 169.202 64.9182 168.233 65.0819C168.096 65.106 167.99 65.0711 167.916 64.9921C167.823 64.8928 167.813 64.7697 167.868 64.6347C167.893 64.5708 167.936 64.5004 167.99 64.429C168.194 64.1595 168.631 63.7928 168.873 63.7523C169.813 63.5933 170.756 63.4473 171.701 63.3153C172.608 63.1885 173.515 63.0741 174.419 62.973L178.332 56.7878C178.449 56.6062 178.892 56.3225 179.187 56.2241C179.275 56.1941 179.361 56.1775 179.434 56.1785C179.595 56.1814 179.709 56.2516 179.753 56.4073C179.781 56.5115 179.757 56.6381 179.661 56.7893L175.84 62.8269C178.378 62.5793 180.927 62.4282 183.48 62.3754C186.201 62.3194 188.922 62.3739 191.636 62.5402C191.812 62.5513 191.92 62.6292 191.973 62.7539C192.015 62.856 192.006 62.9663 191.957 63.078C191.926 63.1489 191.877 63.2245 191.816 63.2991C191.589 63.5784 191.135 63.8922 190.887 63.8782C188.212 63.7143 185.538 63.6586 182.872 63.7107C180.24 63.762 177.61 63.919 174.987 64.1795L174.617 64.7638C174.607 64.7811 174.596 64.7987 174.584 64.8164L157.661 91.5633C157.545 91.745 157.101 92.0286 156.806 92.127C156.718 92.157 156.633 92.1736 156.56 92.1723C156.4 92.1696 156.285 92.0989 156.241 91.9436C156.213 91.8395 156.237 91.7128 156.332 91.5617L169.636 70.534C169.415 70.7798 169.193 71.0255 168.97 71.2702C165.713 74.8542 162.976 77.847 159.128 80.846C158.186 81.5865 157.124 82.4214 156.046 82.8054C155.786 82.8978 155.566 82.9244 155.382 82.8998C155.127 82.8658 154.945 82.7404 154.824 82.557C154.715 82.3931 154.661 82.1848 154.651 81.96C154.641 81.7319 154.677 81.4806 154.744 81.2413C154.258 81.5665 153.753 81.8636 153.232 82.1253C152.485 82.4999 151.708 82.8013 150.912 83.0058C150.537 83.1024 150.202 83.113 149.925 83.0507C149.656 82.9897 149.438 82.8613 149.287 82.6766C149.134 82.4896 149.053 82.2507 149.055 81.9726C149.056 81.7535 149.112 81.5089 149.226 81.2471C148.647 81.5905 148.047 81.911 147.434 82.1985C146.186 82.7839 144.88 83.2329 143.561 83.4635C143.285 83.5119 142.995 83.5293 142.72 83.5046C142.383 83.4743 142.066 83.3805 141.815 83.2039C141.549 83.017 141.358 82.7439 141.291 82.3654C141.266 82.2214 141.26 82.0606 141.276 81.8823L141.277 81.8596C141.008 82.0391 140.733 82.2124 140.452 82.3782C139.991 82.6499 139.518 82.8987 139.034 83.1197C138.752 83.2485 138.389 83.3913 138.038 83.4175C137.634 83.4473 137.253 83.3321 137.012 82.9113C136.801 82.5435 136.831 82.1301 136.962 81.7382C136.989 81.6549 137.022 81.5728 137.057 81.4925L136.025 81.933C134.876 82.4248 133.727 82.9166 132.566 83.3723L132.151 83.5373C130.924 84.0295 129.552 84.5793 128.217 84.4396C128.148 84.4323 128.078 84.4222 128.01 84.4097C127.409 84.2995 126.972 84.0022 126.7 83.5826C126.433 83.1705 126.331 82.646 126.391 82.0714C126.4 81.9909 126.412 81.9066 126.428 81.8206C126.447 81.7086 126.482 81.5925 126.515 81.4832C125.729 81.5838 124.718 81.7687 123.763 81.9641C122.503 82.222 121.367 82.4688 121.025 82.5546C121.607 84.0064 121.596 85.5678 121.205 87.0606C120.728 88.8811 119.682 90.6039 118.458 91.8987C117.244 93.1829 115.88 94.3414 114.429 95.3775C112.839 96.5135 111.141 97.5053 109.419 98.3576C107.694 99.2106 105.894 99.9213 104.049 100.478C102.215 101.032 100.332 101.434 98.4267 101.676L97.8848 101.747C96.3062 101.957 94.4656 102.202 92.9512 101.726C92.8567 101.696 92.7667 101.663 92.6814 101.628C91.9609 101.326 91.5249 100.808 91.3242 100.189C91.1285 99.5852 91.1616 98.8888 91.3738 98.2096C91.4146 98.0782 91.4627 97.9475 91.516 97.8191C92.2158 96.142 93.4332 94.728 94.8431 93.5074C96.2393 92.2986 97.8247 91.2793 99.2806 90.381C101.026 89.3034 102.818 88.3074 104.645 87.3975C106.478 86.485 108.358 85.653 110.274 84.9064C111.7 84.3509 113.161 83.8437 114.637 83.3853C116.066 82.9413 117.512 82.5422 118.954 82.1878C118.175 80.9266 116.766 80.0192 115.11 79.3787C112.688 78.4423 109.749 78.0791 107.448 78.0098L107.279 78.0047C106.341 77.9759 105.686 77.9559 104.435 78.1849C102.259 78.7689 102.164 78.7987 101.417 79.0293L101.148 79.1123C100.194 80.6139 99.2015 82.2065 98.2241 83.7901C97.0274 85.7298 95.8011 87.7438 94.6806 89.5965C94.568 89.7809 94.1285 90.0684 93.832 90.1682C93.7425 90.1985 93.6562 90.2159 93.5826 90.2148C93.4251 90.2122 93.3102 90.1434 93.2632 89.9925C93.2467 89.9391 93.2441 89.8784 93.259 89.8107C93.1591 89.8383 93.0649 89.8474 92.9839 89.8323C92.8188 89.8013 92.713 89.7023 92.6973 89.5209C92.4105 86.0085 92.7403 82.4528 93.6608 79.0615C94.5664 75.7252 96.0457 72.5454 98.074 69.721C99.7964 67.3225 101.897 65.221 104.268 63.4913C106.645 61.7576 109.294 60.3962 112.107 59.4828C113.561 59.01 115.06 58.6601 116.578 58.4454C118.064 58.2353 119.569 58.1548 121.071 58.2146C122.3 58.2632 123.951 58.3462 125.382 58.8028C126.863 59.2753 128.103 60.1421 128.419 61.7637C128.561 62.4906 128.39 63.1394 128.059 63.7177C125.564 68.0808 113.04 74.8629 107.625 76.9944L107.271 77.1339L108.051 77.1215C108.703 77.1165 109.336 77.1257 109.813 77.1578C111.911 77.2983 113.982 77.4866 115.855 78.1276C117.703 78.7601 119.35 79.8288 120.627 81.7129C121.892 81.4057 122.832 81.185 123.751 81.0059C124.698 80.8218 125.627 80.6801 126.868 80.5325C126.893 80.5265 126.919 80.5215 126.946 80.5188C127.14 80.2353 127.387 79.9272 127.65 79.6358C127.95 79.3043 128.271 78.9929 128.557 78.7624C129.016 78.3933 129.531 77.9954 130.089 77.681C130.662 77.3582 131.279 77.1228 131.926 77.0937C132.323 77.0757 132.742 77.1636 133.089 77.3395C133.317 77.4546 133.517 77.61 133.666 77.7998C133.821 77.9986 133.918 78.2346 133.93 78.5007C133.941 78.7275 133.889 78.9732 133.757 79.2329C133.516 79.7095 133.103 80.0626 132.638 80.3367C132.19 80.5999 131.699 80.7885 131.271 80.9446C130.176 81.343 129.056 81.3852 127.923 81.4274C127.894 81.727 127.92 81.9731 127.989 82.173C128.07 82.4032 128.213 82.5755 128.397 82.7004C128.594 82.8334 128.842 82.917 129.116 82.962C130.06 83.1174 131.299 82.8327 132.069 82.5635C133.049 82.221 134.028 81.8456 135.005 81.4551L135.004 81.4549ZM97.8072 72.3189C95.1332 77.0619 93.8598 82.6456 94.1917 88.2115C94.9694 86.935 95.7879 85.6035 96.6095 84.2776C97.6017 82.6763 98.5834 81.1074 99.4909 79.6727C92.8827 82.0678 96.0149 79.6789 100.383 78.2298C102.485 74.9654 104.664 71.7507 106.977 68.635C109.151 65.7074 111.446 62.8661 113.909 60.1534C113.299 60.2931 112.695 60.4554 112.099 60.6396C111.26 60.8987 110.43 61.2045 109.617 61.5545C104.448 63.7751 100.446 67.6388 97.807 72.319L97.8072 72.3189ZM107.946 68.9097C105.772 71.8457 103.71 74.8707 101.756 77.8882C108.297 76.0393 122.402 69.2775 126.364 64.0015C126.732 63.5123 126.87 62.9735 126.811 62.4525C126.752 61.926 126.491 61.4115 126.064 60.9802C125.957 60.8717 125.836 60.7668 125.705 60.6673C125.132 60.2348 124.436 59.9747 123.709 59.8061C121.911 59.3896 116.268 59.1396 115.258 59.9706C112.687 62.7779 110.252 65.7956 107.946 68.9096V68.9097ZM115.538 93.1616C116.924 92.0158 118.157 90.7063 119.007 89.2072C119.463 88.4035 119.791 87.5041 119.935 86.5828C120.066 85.7344 120.042 84.8648 119.817 84.0325C119.765 83.8435 119.697 83.6504 119.619 83.4632C119.559 83.3192 119.493 83.1775 119.423 83.0427C117.813 83.4106 116.22 83.8461 114.643 84.3409C113.01 84.8528 111.391 85.4309 109.787 86.0656C108.1 86.7344 106.443 87.4691 104.823 88.2685C103.215 89.0625 101.64 89.9213 100.106 90.8431C99.3227 91.3139 98.539 91.7977 97.7771 92.3186C97.0228 92.8341 96.2918 93.385 95.6089 93.993C94.916 94.6098 94.2471 95.3671 93.7567 96.2151C93.3476 96.9225 93.0616 97.6934 92.9899 98.4974L92.9856 98.637C92.9986 99.0866 93.2952 99.4251 93.7251 99.6659C94.196 99.9292 94.8221 100.078 95.4343 100.132C95.6683 100.154 95.9014 100.16 96.1225 100.154C96.9882 100.13 97.8344 100.103 98.6904 100.041C99.5314 99.9793 100.368 99.8828 101.215 99.7195C102.972 99.3809 104.672 98.9341 106.319 98.3499C107.964 97.7665 109.558 97.0444 111.108 96.1538C112.59 95.3017 114.145 94.3128 115.538 93.1616H115.538ZM179.44 79.7566C181.628 78.9366 183.86 78.2365 186.123 77.6626C186.293 77.6191 186.419 77.6344 186.507 77.6911C186.647 77.7807 186.678 77.9115 186.628 78.0676C186.606 78.1366 186.562 78.2122 186.505 78.2873C186.318 78.535 185.907 78.8666 185.705 78.9195L185.702 78.9205C183.412 79.4873 181.211 80.1366 179.059 80.915C176.926 81.6872 174.839 82.5879 172.764 83.6629C171.616 85.1132 170.394 86.5962 169.15 88.0457C167.93 89.4675 166.684 90.8624 165.461 92.1696C164.778 92.8991 164.156 93.5965 163.541 94.2865C162.344 95.6295 161.169 96.9475 159.797 98.2332L159.736 98.2913C158.74 99.2226 157.588 100.301 156.499 101.11C156.155 101.364 155.699 101.599 155.223 101.752C154.791 101.89 154.338 101.964 153.93 101.928C153.844 101.921 153.759 101.907 153.678 101.888C153.214 101.78 152.873 101.497 152.658 101.126C152.45 100.768 152.364 100.327 152.402 99.8898C152.411 99.7795 152.429 99.6675 152.455 99.5568C152.694 98.5241 153.422 97.7128 154.085 96.9745L154.117 96.9397C154.962 95.9957 155.853 95.0848 156.768 94.2033C157.682 93.3233 158.627 92.467 159.576 91.6344C161.431 90.007 163.38 88.4896 165.409 87.0896C167.438 85.6891 169.542 84.4073 171.708 83.2519C172.271 82.5319 172.831 81.8037 173.383 81.0677L173.891 80.3868C173.533 80.6714 173.167 80.9562 172.792 81.2408C172.538 81.4338 172.261 81.658 171.98 81.8849C171.064 82.6236 170.094 83.4073 169.028 83.819C168.641 83.9681 168.288 83.992 168 83.9104C167.842 83.8657 167.702 83.7886 167.586 83.6836C167.47 83.5787 167.379 83.4466 167.32 83.2919C167.214 83.0175 167.204 82.6695 167.317 82.2697C167.723 80.833 168.795 79.3706 169.692 78.1471L169.982 77.7504C170.108 77.5784 170.566 77.3189 170.865 77.2352C170.956 77.2096 171.041 77.1971 171.113 77.2015C171.276 77.2124 171.387 77.2908 171.419 77.4534C171.439 77.5553 171.406 77.6777 171.302 77.8205C170.911 78.3623 170.531 78.9151 170.173 79.4808C169.816 80.0436 169.48 80.6209 169.176 81.2138L169.121 81.3168C168.937 81.6658 168.596 82.3112 168.83 82.5528C168.877 82.5998 168.976 82.612 169.089 82.6058C169.304 82.5936 169.538 82.5086 169.659 82.4422C169.822 82.3529 170.003 82.2512 170.172 82.1511C170.338 82.054 170.495 81.956 170.616 81.8702C172.343 80.6396 173.869 79.2647 175.433 77.8554L176.365 77.0187C176.464 76.933 176.826 76.7534 177.07 76.7027C177.159 76.6843 177.244 76.6796 177.317 76.6943C177.472 76.7256 177.57 76.8158 177.583 76.9845C177.59 77.0787 177.553 77.1932 177.459 77.3298C176.796 78.2829 176.116 79.2307 175.424 80.1713C174.946 80.8196 174.465 81.4615 173.981 82.0958C175.762 81.2331 177.584 80.4518 179.44 79.7565V79.7566ZM155.564 100.224C156.095 99.8698 156.613 99.456 156.922 99.1775C159.406 96.9308 161.843 94.5125 164.186 92.0006C166.353 89.6787 168.435 87.2821 170.4 84.8708C168.903 85.7248 167.427 86.6308 165.995 87.5946C164.201 88.8019 162.471 90.1025 160.849 91.5099C159.997 92.2496 159.09 93.0462 158.219 93.8522C157.344 94.6618 156.488 95.4965 155.728 96.3218L155.416 96.6562C154.595 97.527 153.331 98.8692 153.158 99.9025C153.143 99.9912 153.156 100.087 153.19 100.182C153.246 100.34 153.36 100.493 153.509 100.616C153.66 100.74 153.844 100.831 154.035 100.863C154.174 100.885 154.319 100.877 154.457 100.828C154.778 100.712 155.174 100.484 155.564 100.224ZM142.089 80.2253L142.196 80.1342L142.188 80.0546C142.185 79.9575 142.203 79.8503 142.259 79.7592C142.426 79.4835 142.554 79.1565 142.552 78.8926C142.552 78.8155 142.539 78.7448 142.512 78.6875C142.489 78.6391 142.454 78.5973 142.402 78.5661C142.32 78.5156 142.196 78.4867 142.025 78.4876C141.772 78.489 141.505 78.5724 141.247 78.6898C140.973 78.8145 140.71 78.9773 140.476 79.1279C140.044 79.4028 139.561 79.7949 139.165 80.2441C138.848 80.6042 138.587 80.9996 138.459 81.3962C138.296 81.9046 138.392 82.0757 138.576 82.0914C138.883 82.1175 139.347 81.9396 139.668 81.7969C139.922 81.6829 140.172 81.5575 140.41 81.4254C140.66 81.2865 140.9 81.1386 141.121 80.9884C141.468 80.7531 141.773 80.4927 142.088 80.2253H142.089ZM130.194 78.7981C130.032 78.8852 129.89 78.9733 129.778 79.051C129.461 79.2706 129.13 79.5667 128.834 79.8918C128.668 80.0746 128.514 80.266 128.38 80.4581C129.083 80.3944 130.053 80.2226 130.904 79.9602C131.43 79.7976 131.907 79.6015 132.234 79.3773C133.113 78.7754 132.375 78.195 131.551 78.3105C131.089 78.3753 130.586 78.5861 130.194 78.7982V78.7981Z" fill="#74E2DC"/>
<path fill-rule="evenodd" clip-rule="evenodd" d="M89.2437 80.1803H0.000427246V78.9519H89.2437V80.1803Z" fill="#74E2DC"/>
</g>
<defs>
<clipPath id="clip0_55_340">
<rect width="192" height="102" fill="white"/>
</clipPath>
</defs>
</svg>
