<svg width="190" height="180" viewBox="0 0 190 180" fill="none" xmlns="http://www.w3.org/2000/svg">
<path fill-rule="evenodd" clip-rule="evenodd" d="M91.4591 170.462C82.3099 170.462 83.681 158.11 83.7738 150.76C83.8166 147.3 93.3389 130.288 95.6882 126.152L99.0694 120.541L99.2318 150.115C99.2532 158.092 100.796 170.46 91.4591 170.46V170.462ZM112.524 108.484C115.647 106.871 123.136 98.9011 126.46 95.9871C127.229 95.3126 127.532 94.9182 128.302 94.1473C129.003 93.4424 129.619 93.0177 130.335 92.2718L133.932 88.4941C137.048 85.3838 139.932 82.0486 142.764 78.6706C146.286 74.4681 149.808 70.2907 151.993 65.1371C152.672 63.5382 154.455 60.4743 151.331 60.5136C147.525 60.5617 134.188 71.2222 130.933 74.0131C127.873 76.6381 123.673 80.1588 121.247 83.1906C120.654 83.9312 120.063 84.372 119.472 85.0965C118.855 85.8549 118.337 86.2831 117.703 87.0094C113.308 92.0434 108.426 98.3372 104.591 103.835C98.3856 112.734 93.3639 122.925 88.6724 132.815C87.0925 136.145 85.6161 139.716 83.8791 142.935L83.9238 115.126L71.9487 115.218C71.7934 116.453 71.5292 118.964 71.8487 120.042C72.9073 120.611 71.6827 120.265 73.2304 120.29C73.7214 120.299 74.2623 120.276 74.7604 120.274C75.7244 120.272 76.7116 120.218 77.6667 120.326C78.0094 123.37 77.6381 130.977 77.5631 134.507C77.4631 139.141 77.6809 144.1 77.406 148.675C77.2793 150.781 77.3257 153.51 77.3275 155.754C77.3328 159.841 77.4132 159.04 77.6809 162.557L75.7297 174.727C73.6875 171.636 70.442 162.1 68.8924 158.37C67.3357 154.625 63.0656 144.923 61.9927 141.878C62.5193 141.291 63.5833 140.67 64.2848 140.081C66.5592 138.176 68.4283 136.116 69.669 133.104C75.3638 119.298 59.7772 107.067 47.238 119.489L47.1291 115.284C46.0812 114.91 37.3873 115.02 35.9449 115.218C34.9648 120.759 35.2861 120.293 38.321 120.274C39.1547 120.268 39.9901 120.256 40.822 120.297C41.213 123.215 40.8881 128.709 40.8881 131.903C40.8881 136.511 41.1666 157.594 40.5989 160.608C40.2044 162.709 39.8562 163.194 38.3192 163.984L38.4067 166.725C42.5947 167.925 45.8634 164.493 46.74 160.683C47.6558 156.697 47.2148 137.581 47.2148 132.119C47.2148 126.391 46.1366 123.984 49.8337 120.422C54.1699 116.244 61.2839 118.057 63.3083 123.832C65.3292 129.596 62.3086 135.893 58.2866 139.289C51.4011 145.103 48.4073 142.48 48.4555 145.342C48.4769 146.68 48.9107 146.643 49.5623 146.627C49.5784 146.627 50.4264 146.473 50.4871 146.459C52.1884 146.097 54.036 145.378 55.6731 145.16C58.3098 148.222 64.6026 165.722 66.6359 171.026C67.4714 173.207 68.032 174.25 69.2405 175.803C71.3846 178.556 78.9109 181.367 79.8196 179.27L80.0267 178.73C80.7782 175.298 77.9344 177.181 76.4509 175.516C75.6226 174.586 77.9844 166.324 78.4468 165.316C78.4807 165.351 78.5253 165.405 78.5432 165.428C80.3766 167.809 80.3087 169.259 84.2326 171.21C92.582 175.362 104.2 171.699 105.569 160.963C105.842 158.813 105.887 117.354 105.617 115.109L102.852 115.072C104.436 111.28 117.219 96.4439 120.294 93.0659L127.559 85.5908C129.78 83.171 136.466 76.7844 138.808 74.9285C139.311 74.5306 139.543 74.1683 140.404 74.3022C140.477 76.7772 132.676 85.5961 130.807 87.9712C130.191 88.7528 129.635 89.3328 129.046 90.1126L120.84 99.4793C120.502 99.8844 120.254 100.061 119.885 100.461C118.505 101.947 117.68 102.979 116.052 104.44L112.526 108.48L112.524 108.484Z" fill="#CDBDB0"/>
<path fill-rule="evenodd" clip-rule="evenodd" d="M63.9063 54.4963C63.2458 55.9274 58.6096 62.4729 57.2297 64.2966C56.4246 65.3619 54.3377 65.6385 53.7432 64.4465C53.454 63.8665 57.51 53.4755 58.0116 52.9349C58.3472 52.5708 60.2752 50.6436 60.934 50.3438C61.2553 51.2824 61.5731 51.9034 62.1336 52.7992C63.0601 54.2803 63.0744 53.6058 63.9045 54.4963H63.9063ZM73.5999 38.1612C72.4021 37.9364 70.4651 37.5616 69.2226 37.9078C70.0349 38.4128 71.3095 39.2979 72.0414 39.8547C71.2667 39.8761 70.7847 39.8672 70.1188 39.6227C68.6906 39.0963 69.5868 39.148 68.7174 38.627C67.6231 37.9721 65.9736 38.3218 65.3255 39.3175C64.5561 41.1199 66.5448 41.6516 63.9527 45.0029C62.4193 46.9836 62.7245 44.9939 60.9732 46.3573C59.6094 47.419 60.8411 47.3887 59.313 49.4694L58.0527 50.6204C57.1958 48.529 60.4002 44.6156 59.1363 43.2202C58.4508 43.8162 53.7682 52.9188 52.2472 55.1958C50.8423 57.3015 47.9467 62.2212 46.7363 63.7862C45.9776 64.7677 45.3028 65.4583 44.6298 66.4183C45.1546 66.7092 45.8098 66.6414 46.5221 66.8805C47.2951 67.141 47.2844 67.3873 47.7753 67.8941C46.4257 69.6429 47.7057 69.4823 48.5108 71.3916C49.3838 73.4616 48.3948 74.6947 47.204 75.5173C45.3439 74.932 45.4474 73.7793 44.1531 73.0851C44.6084 79.0042 44.4049 76.9735 41.8253 79.643C41.8485 80.3907 41.9127 81.0064 42.1823 81.6345C42.6732 82.7873 42.8714 82.1681 42.6679 83.0942C42.6339 83.2459 42.3858 82.8908 42.5625 83.8276C42.7071 84.5967 42.5911 84.0346 43.0338 84.686C43.5694 85.4765 43.4462 85.4194 43.2302 86.5115C41.4057 86.8791 41.2022 86.5293 39.3956 87.1521C36.5429 84.0614 39.3474 82.7837 39.3474 80.5103C39.3474 78.6384 37.7104 78.6901 36.4964 77.9085C36.4857 77.2715 36.5429 76.8057 36.6178 76.1687C36.6821 75.6191 36.7999 75.1158 36.5679 74.6322C36.0394 75.4388 34.4203 78.7776 34.4167 80.082C34.4024 83.5457 36.6286 82.5714 37.2801 84.8002C38.0763 87.5179 37.5622 88.2121 39.8615 89.802C43.8568 92.5644 42.4733 91.351 45.7063 91.4116C44.6351 91.8453 44.7494 91.6133 44.5887 92.2164C45.3956 93.048 48.0181 92.5715 48.9446 92.2271C51.2386 91.3759 51.0993 92.1272 52.731 90.5801C55.4516 88.0015 54.7518 87.0165 56.0015 83.0032C56.4531 81.556 56.6495 82.6017 59.0952 80.6798C62.0533 78.3564 63.2654 76.4917 65.638 73.7828C66.1503 73.1975 66.261 72.7621 66.7287 72.0983C71.1846 72.8371 71.4363 73.3563 75.8475 71.8431C77.9183 71.1329 81.5405 68.7845 82.3742 67.2713C79.1679 67.762 77.3845 68.3705 74.1034 67.2802C71.6309 66.4594 70.1188 64.9069 68.846 62.7816C67.2071 60.0442 66.934 58.704 68.1569 55.4813C69.0691 53.0794 69.9438 50.7863 70.8614 48.4166C70.8204 48.3827 70.7454 48.2899 70.7258 48.3309L68.5121 46.202C67.9373 45.4561 66.643 44.4122 66.5859 43.5253C68.4639 45.888 70.8436 44.828 72.6627 43.7252C74.8603 42.3922 72.7055 41.88 75.0566 41.1288C75.81 40.8879 76.0831 40.9985 76.4991 40.3989C77.1828 39.4121 76.9686 37.9863 76.4045 37.2261C75.4315 35.9128 73.616 34.2496 71.4666 33.8945C71.8915 34.7921 71.9111 34.2068 72.768 35.8842C73.1536 36.6373 73.6731 37.2386 73.5981 38.1523L73.5999 38.1612Z" fill="#CDBDB0"/>
<path fill-rule="evenodd" clip-rule="evenodd" d="M175.195 149.464C175.095 148.179 173.089 146.336 172.177 145.751C161.28 138.766 145.745 151.454 151.338 165.28C153.734 171.203 159.229 175.144 167.03 176.053C170.674 176.477 175.497 175.776 178.555 174.511C181.826 173.158 183.948 170.912 185.785 168.513C189.664 163.451 191.535 154.387 188.472 147.458C183.179 135.483 172.078 136.131 165.111 131.132C163.397 129.903 159.812 126.507 160.3 122.888C160.764 119.442 163.872 117.356 167.458 116.823C173.432 115.934 176.092 119.285 177.791 119.581C178.486 119.026 178.602 118.705 179.2 118.123C180.408 116.953 180.455 116.574 178.919 116.016L175.554 114.829C173.808 114.278 172.184 114.035 170.197 114.03C157.604 114.005 150.208 124.508 154.621 133.159C160.601 144.883 180.569 140.306 182.866 154.127C183.484 157.84 182.427 161.534 180.974 164.352C177.886 170.341 172.378 174.318 165.279 172.809C151.517 169.886 150.365 154.857 158.125 149.535C160.289 148.051 161.823 147.291 164.645 146.993C167.108 146.732 169.811 147.478 171.439 149.088C171.995 149.635 172.234 150.26 172.841 150.676C173.733 150.562 174.672 150.039 175.195 149.461V149.464Z" fill="#CDBDB0"/>
<path fill-rule="evenodd" clip-rule="evenodd" d="M133.765 149.464C133.532 146.493 125.103 140.149 115.632 146.527C104.148 154.261 106.924 173.777 125.413 176.03C129.137 176.483 133.786 175.826 136.969 174.572C150.008 169.436 156.201 143.29 132.901 135.352C129.551 134.212 126.327 133.015 123.805 131.223C112.683 123.316 122.398 113.88 131.845 117.336C133.227 117.841 135.596 119.449 136.36 119.581C137.076 119.008 137.231 118.63 137.885 118.022C138.545 117.404 139.122 116.828 138.136 116.269C137.485 115.9 134.254 114.84 133.284 114.585C129.655 113.63 125.34 113.891 121.948 115.106C116.359 117.106 110.516 122.722 112.33 130.756C114.595 140.783 128.204 141.596 135.812 145.897C145.168 151.186 142.201 165.326 133.829 170.997C127.445 175.319 118.896 172.22 115.188 168.024C106.837 158.579 115.356 145.431 125.781 147.057C130.382 147.774 130.498 150.756 131.735 150.638C132.369 150.579 133.377 149.894 133.768 149.464H133.765Z" fill="#CDBDB0"/>
<path fill-rule="evenodd" clip-rule="evenodd" d="M14.244 176.784C12.491 175.621 12.0072 175.23 11.7109 171.45C11.4538 168.176 11.6698 152.207 11.6698 148.163C11.6698 144.198 11.4413 127.867 11.668 124.745C11.959 120.754 20.037 114.563 25.7925 120.568C31.3694 126.385 27.4581 137.89 22.9147 143.395C21.7579 144.796 20.5422 146.123 18.9427 147.228C16.8629 148.665 16.106 148.827 13.1247 149.33L13.1444 151.857C18.2322 152.276 25.8335 146.338 27.8383 144.2C28.6577 143.327 29.5753 142.194 30.3947 141.114C31.1659 140.097 31.9068 139.073 32.6512 137.733C33.9812 135.338 35.1005 132.772 35.6557 129.662C38.5155 113.659 21.2831 112.074 14.5636 116.833C13.3747 117.675 12.6213 118.801 11.6787 119.349L11.6234 115.197C10.4469 114.977 1.47455 115.013 0.424858 115.275C0.157079 116.119 -0.510584 119.901 0.705133 120.213C0.753333 120.225 0.81403 120.241 0.867586 120.25L5.42876 120.27C5.42876 131.735 5.42876 143.2 5.42876 154.666C5.42876 161.611 3.93455 173.747 8.04228 177.769C9.29013 178.99 11.9197 180.275 14.2655 179.541L14.2423 176.782L14.244 176.784Z" fill="#CDBDB0"/>
<path fill-rule="evenodd" clip-rule="evenodd" d="M95.947 25.4291C97.2877 27.913 101.688 28.2878 103.832 28.0915C110.811 27.4544 122.777 18.7105 127.461 20.627C126.781 21.4425 122.541 23.4554 121.231 24.1978C114.645 27.9291 113.747 28.12 107.09 29.5726C103.452 30.3667 102.267 30.5505 98.3249 30.5291C98.6498 33.1701 105.066 38.1738 107.86 39.8315C108.849 40.4186 109.922 40.9147 110.586 41.666C111.244 42.4119 112.064 43.4522 112.533 44.4837C114.452 48.6986 112.89 51.1308 113.801 52.7119C114.452 52.6548 114.236 52.8118 114.697 51.9285C116.318 48.8181 118.003 45.5561 117.428 41.9836C116.987 39.2409 114.276 37.369 111.705 36.6445C110.089 36.1876 110.434 36.1983 109.348 35.5185C117.055 34.4496 120.858 31.7889 126.056 28.3663C128.211 26.9494 139.136 20.4432 141.659 20.3326L137.221 24.56C131.924 29.2764 128.368 31.6622 122.759 35.4703L121.988 36.1073C125.924 35.6541 131.34 31.0841 133.836 29.1997C137.374 26.5301 140.986 23.9069 144.729 21.4372C148.464 18.9746 152.209 16.38 157.827 15.9071C161.107 15.6305 166.901 16.0588 169.244 18.5892C169.947 19.3494 170.822 20.5289 171.782 20.8911C170.947 18.6802 167.764 15.6377 165.411 14.608C158.823 11.7315 150.597 11.5958 143.758 13.7479L134.429 17.1277C133.534 17.0777 131.842 15.8072 129.644 15.6751C124.321 15.3557 119.246 17.4453 114.725 19.6402C111.88 21.0214 109.065 22.4151 106.406 23.9016C102.406 26.1375 100.906 26.0037 95.9506 25.4255L95.947 25.4291Z" fill="#CDBDB0"/>
<path fill-rule="evenodd" clip-rule="evenodd" d="M114.506 65.974C116.584 65.3655 117.794 62.7192 119.456 60.3672C123.464 54.698 121.436 56.3308 122.912 53.0134C124.457 54.3411 123.762 56.2879 123.186 58.2348C122.013 62.1892 120.793 64.1628 118.583 67.5158C116.971 69.9606 114.815 74.0845 113.328 76.1384C111.243 79.0168 106.208 85.8138 105.11 88.7743C107.221 87.6393 112.191 82.1842 114.049 80.3283C114.827 79.5485 115.411 78.9133 116.266 78.2066C120.276 74.8875 122.95 71.6522 127.809 68.0601C129.464 66.8377 139.24 59.5375 140.054 58.6202C140.811 57.7673 141.743 57.4568 141.471 55.7972C139.965 53.7611 135.759 55.0245 133.906 56.1612C132.79 56.8447 131.626 57.3301 130.58 58.0438C129.712 58.6345 128.548 59.9586 127.709 60.3654C127.966 58.167 128.889 56.0203 128.059 53.6915C127.059 50.8828 127.033 50.2832 123.819 50.1244C124.078 43.62 124.724 42.1174 119.874 37.1566C118.976 36.2394 117.685 35.3989 116.011 34.9956C117.407 37.1405 119.242 37.6134 120.038 41.1128C121.063 45.6132 119.528 54.7604 117.816 58.9486C116.773 61.495 115.4 63.7024 114.51 65.9794L114.506 65.974Z" fill="#CDBDB0"/>
<path fill-rule="evenodd" clip-rule="evenodd" d="M43.7926 36.2553C46.0509 35.0437 46.7042 29.1513 54.9322 27.606C54.4324 29.005 52.5758 29.3155 49.9265 31.6264C44.4567 36.3981 44.687 35.0687 41.3362 40.8182C40.3061 42.5849 39.6545 46.3037 40.9024 48.1845C41.0577 45.0885 40.6542 43.5378 44.4406 40.4542C51.9688 34.3245 54.3752 35.5754 58.815 31.8334C60.9662 30.0222 62.9334 28.2252 64.2884 25.8108C65.6755 23.3375 67.5446 18.8549 62.4925 20.5448C61.3536 20.9249 59.8147 21.8796 58.6936 22.3971C53.438 24.8258 54.0111 24.6152 49.3517 27.3687C48.2949 27.9932 48.5751 28.045 47.8432 28.8962C46.3793 30.5986 44.2246 34.0372 43.7962 36.2553H43.7926Z" fill="#CDBDB0"/>
<path fill-rule="evenodd" clip-rule="evenodd" d="M75.9386 13.639C74.7247 13.7657 72.2397 12.2311 69.3905 12.7129C68.4765 12.8681 68.289 13.2518 67.1108 13.316L63.2798 9.51512C63.7261 11.0176 64.7062 12.5684 65.0775 13.8782C65.6702 15.9713 63.5154 16.2908 65.8647 18.4642C67.3572 19.2298 74.7604 15.3075 75.9422 15.3646C76.3599 18.0271 76.3028 21.5032 80.5123 20.7734C79.7179 21.7548 78.3825 23.1217 77.8684 24.651C76.7562 27.9541 78.2165 27.9594 80.8443 27.913C80.9014 29.0515 80.7783 30.8788 81.2638 31.7443C81.8619 31.3356 82.5456 27.6721 82.5474 27.16C82.551 25.9233 81.869 26.7977 83.4239 24.7831C85.1002 22.6131 85.0377 19.9757 83.9416 17.3418C83.049 15.1969 81.7155 12.7468 81.3638 10.3984C81.1514 8.98156 80.5623 2.96075 79.9606 2.31299C78.1933 3.56569 76.2992 10.7803 75.9368 13.6408L75.9386 13.639Z" fill="#CDBDB0"/>
<path fill-rule="evenodd" clip-rule="evenodd" d="M86.6051 18.2572L88.4331 19.7954C91.4787 21.6834 92.1053 21.9618 96.2237 22.399C102.01 23.0128 107.592 20.5681 111.807 17.3757C112.583 16.7868 113.133 16.4335 113.835 15.932L119.251 10.9409C119.911 10.3395 121.518 7.64316 121.914 6.56177C120.636 7.12923 116.962 10.2592 115.008 11.4726C112.287 13.1607 110.289 13.9584 106.98 15.1522C98.2499 18.3 96.6968 18.2465 86.6051 18.2572Z" fill="#CDBDB0"/>
<path fill-rule="evenodd" clip-rule="evenodd" d="M55.2178 0.000244141C54.4805 7.13635 57.7492 13.0858 57.4797 14.2939C57.2672 15.2468 56.355 15.129 56.8192 16.9135C57.8564 20.8982 66.8252 18.4053 60.8858 8.29626L56.7959 1.97922C56.205 0.628378 56.6924 0.271484 55.216 0.000244141L55.2178 0.000244141Z" fill="#CDBDB0"/>
<path fill-rule="evenodd" clip-rule="evenodd" d="M42.343 60.4403C43.6711 59.4142 44.7333 57.1497 45.7223 55.3938C47.529 52.1871 50.4906 47.9168 51.21 43.966C51.883 40.2722 52.465 38.8946 50.1657 37.6419C49.2374 37.1368 48.1413 38.1344 47.8164 38.8731C47.3701 39.8849 48.4537 40.8432 48.6911 41.9585C50.1907 49.0357 42.0984 57.6975 42.343 60.4403Z" fill="#CDBDB0"/>
</svg>
