<svg width="190" height="158" viewBox="0 0 190 158" fill="none" xmlns="http://www.w3.org/2000/svg">
<path fill-rule="evenodd" clip-rule="evenodd" d="M123.942 20.3702H118.041C118.041 15.5478 118.041 10.7244 118.041 5.90196H102.909C100.148 5.91333 97.914 8.1511 97.9083 10.913V11.8656V15.7269V17.4519C97.9083 17.4519 96.4894 18.394 95.0431 18.394C93.5399 18.394 92.0063 17.4519 92.0063 17.4519V15.7269V11.8656V10.913C92.0006 8.1511 89.7657 5.91333 87.0057 5.90196H71.874C71.874 10.7253 71.874 15.5478 71.874 20.3702L65.9729 20.3598C65.9729 12.0134 65.9729 16.0245 65.9729 5.90101V-0.000976562H71.874H89.9562C92.7172 0.0103971 94.9511 2.24911 94.9568 5.01102H94.9578C94.9635 2.24911 97.1984 0.0113449 99.9584 -0.000976562H118.041H123.942V5.90101C123.942 11.2542 123.942 15.6227 123.942 20.3693V20.3702ZM132.092 48.9769C131.216 54.3178 126.579 58.3924 120.991 58.3924C115.402 58.3924 110.766 54.3178 109.89 48.9769H115.86C116.613 51.0829 118.626 52.5899 120.991 52.5899C123.356 52.5899 125.369 51.0829 126.123 48.9769H132.093H132.092ZM80.1095 48.9769C79.2327 54.3178 74.597 58.3924 69.0088 58.3924C63.4195 58.3924 58.7838 54.3178 57.9071 48.9769H63.8773C64.6308 51.0829 66.644 52.5899 69.0088 52.5899C71.3735 52.5899 73.3867 51.0829 74.1392 48.9769H80.1095ZM97.9074 66.262C97.913 69.0239 100.148 71.2617 102.908 71.274H118.04V67.0051C118.04 65.3474 118.042 63.6897 118.044 62.031C118.984 62.285 119.973 62.4225 120.994 62.4225C122.015 62.4225 123.003 62.285 123.945 62.031C123.94 65.1123 123.942 68.1917 123.942 71.274V77.175H118.041H99.9584C97.1974 77.1637 94.9635 74.9259 94.9578 72.163H94.9568C94.9511 74.925 92.7172 77.1627 89.9562 77.175H71.874H65.9729V71.274C65.9729 68.1851 65.9739 65.0972 65.9739 62.0092C66.9397 62.2793 67.9889 62.4243 69.0097 62.4243C70.0305 62.4243 70.9593 62.2964 71.874 62.0556C71.874 63.7058 71.8749 65.355 71.8749 67.0051V71.274H87.0066C89.7676 71.2626 92.0016 69.0249 92.0073 66.262C92.0073 55.6873 92.0073 45.1127 92.0073 34.538C92.0016 31.7761 89.7666 29.5383 87.0066 29.527H84.9186V23.625H89.9572C92.7181 23.6363 94.9521 25.8751 94.9578 28.637H94.9587C94.9644 25.8751 97.1993 23.6373 99.9594 23.625H104.998V29.527H102.91C100.149 29.5383 97.9149 31.7761 97.9092 34.538C97.9092 45.1127 97.9092 55.6873 97.9092 66.262H97.9074ZM126.106 45.125H132.008V29.527V23.625H126.106H115.874H110.508H109.973V45.125H115.874V29.527H126.106V45.125ZM69.0088 23.625L74.543 34.4006L80.0772 45.1762H74.1117L69.0088 35.2403L63.9058 45.1762H57.9403L63.4745 34.4006L69.0088 23.625Z" fill="#2B3751"/>
<path d="M70.4428 104.607H59.0995L56.7518 109.943H53.6107L63.2774 88.5979H66.2962L75.9932 109.943H72.7915L70.4438 104.607H70.4428ZM69.3756 102.168L64.7712 91.7086L60.1667 102.168H69.3756ZM78.0727 93.7815H81.0004V100.643H90.2093V93.7815H93.1361V109.943H90.2093V103.174H81.0004V109.943H78.0727V93.7815ZM98.1131 93.7815H101.041V100.643H110.25V93.7815H113.177V109.943H110.25V103.174H101.041V109.943H98.1131V93.7815ZM123.917 93.6288C126.153 93.6288 127.866 94.1776 129.055 95.2752C130.245 96.3727 130.839 98.0096 130.839 100.185V109.943H128.064V107.809C127.576 108.562 126.88 109.136 125.975 109.532C125.07 109.928 123.998 110.126 122.758 110.126C120.949 110.126 119.5 109.689 118.412 108.816C117.324 107.942 116.781 106.793 116.781 105.369C116.781 103.947 117.3 102.803 118.336 101.939C119.373 101.076 121.02 100.644 123.276 100.644H127.911V100.064C127.911 98.8039 127.545 97.8381 126.814 97.168C126.082 96.4969 125.004 96.1614 123.582 96.1614C122.626 96.1614 121.691 96.3187 120.776 96.6343C119.861 96.949 119.089 97.3708 118.459 97.8997L117.239 95.7036C118.072 95.0326 119.068 94.5198 120.227 94.1634C121.386 93.808 122.616 93.6298 123.917 93.6298V93.6288ZM123.246 107.87C124.364 107.87 125.33 107.62 126.143 107.123C126.956 106.625 127.545 105.918 127.911 105.003V102.747H123.398C120.917 102.747 119.678 103.58 119.678 105.247C119.678 106.06 119.992 106.701 120.623 107.168C121.253 107.636 122.127 107.87 123.245 107.87H123.246ZM18.3874 113.738V135.084H15.399V116.391H3.01876V135.084H0V113.738H18.3874ZM23.8212 118.922H26.749V130.693L36.6592 118.922H39.3121V135.084H36.3853V123.313L26.5054 135.084H23.8222V118.922H23.8212ZM55.2666 126.698C57.3603 127.227 58.4076 128.537 58.4076 130.631C58.4076 132.055 57.874 133.152 56.8067 133.925C55.7395 134.697 54.1491 135.084 52.0345 135.084H44.2587V118.922H51.7606C53.6714 118.922 55.1661 119.283 56.2437 120.004C57.3214 120.726 57.8598 121.747 57.8598 123.069C57.8598 123.923 57.6304 124.659 57.1735 125.28C56.7158 125.9 56.0807 126.373 55.2675 126.698H55.2666ZM47.1249 125.874H51.5161C52.6345 125.874 53.4828 125.671 54.0619 125.265C54.641 124.858 54.931 124.269 54.931 123.496C54.931 121.951 53.7927 121.179 51.5161 121.179H47.1249V125.875V125.874ZM51.8213 132.827C53.0411 132.827 53.9557 132.634 54.5661 132.248C55.1756 131.861 55.4808 131.262 55.4808 130.449C55.4808 129.616 55.2012 128.995 54.642 128.589C54.0828 128.182 53.2032 127.979 52.0042 127.979H47.1249V132.828H51.8213V132.827ZM69.1785 135.267C67.5729 135.267 66.1284 134.911 64.8479 134.2C63.5674 133.488 62.5656 132.507 61.8443 131.257C61.1231 130.007 60.7619 128.589 60.7619 127.003C60.7619 125.417 61.1231 123.999 61.8443 122.749C62.5656 121.499 63.5674 120.523 64.8479 119.821C66.1284 119.12 67.5719 118.769 69.1785 118.769C70.784 118.769 72.2228 119.12 73.4929 119.821C74.7629 120.523 75.7591 121.499 76.4813 122.749C77.2026 123.999 77.5637 125.417 77.5637 127.003C77.5637 128.589 77.2026 130.007 76.4813 131.257C75.76 132.507 74.7639 133.488 73.4929 134.2C72.2219 134.911 70.784 135.267 69.1785 135.267ZM69.1785 132.706C70.2154 132.706 71.1451 132.467 71.9688 131.989C72.7924 131.512 73.4379 130.841 73.9052 129.977C74.3724 129.114 74.6065 128.122 74.6065 127.004C74.6065 125.886 74.3724 124.895 73.9052 124.031C73.4379 123.167 72.7924 122.501 71.9688 122.034C71.1451 121.566 70.2154 121.332 69.1785 121.332C68.1416 121.332 67.2118 121.566 66.3881 122.034C65.5645 122.501 64.9143 123.167 64.4366 124.031C63.9589 124.894 63.72 125.886 63.72 127.004C63.72 128.122 63.9589 129.113 64.4366 129.977C64.9143 130.841 65.5645 131.513 66.3881 131.989C67.2118 132.467 68.1416 132.706 69.1785 132.706ZM92.085 126.699C94.1787 127.228 95.2261 128.538 95.2261 130.632C95.2261 132.056 94.6924 133.153 93.6252 133.926C92.558 134.698 90.9676 135.085 88.853 135.085H81.0772V118.923H88.5791C90.4899 118.923 91.9846 119.284 93.0622 120.005C94.1399 120.727 94.6782 121.748 94.6782 123.07C94.6782 123.924 94.4489 124.66 93.992 125.281C93.5342 125.901 92.8992 126.374 92.086 126.699H92.085ZM83.9434 125.875H88.3346C89.453 125.875 90.3013 125.672 90.8804 125.266C91.4595 124.859 91.7495 124.27 91.7495 123.497C91.7495 121.952 90.6112 121.18 88.3346 121.18H83.9434V125.876V125.875ZM88.6398 132.828C89.8596 132.828 90.7742 132.635 91.3846 132.249C91.994 131.862 92.2992 131.263 92.2992 130.45C92.2992 129.617 92.0196 128.996 91.4604 128.59C90.9012 128.183 90.0217 127.98 88.8227 127.98H83.9434V132.829H88.6398V132.828ZM104.838 118.77C107.074 118.77 108.786 119.319 109.976 120.417C111.165 121.514 111.76 123.151 111.76 125.326V135.085H108.984V132.95C108.496 133.703 107.801 134.277 106.895 134.674C105.99 135.07 104.918 135.268 103.679 135.268C101.869 135.268 100.421 134.831 99.3329 133.957C98.2448 133.083 97.7017 131.934 97.7017 130.511C97.7017 129.088 98.2202 127.944 99.2571 127.081C100.294 126.217 101.94 125.785 104.197 125.785H108.832V125.206C108.832 123.945 108.466 122.98 107.734 122.309C107.003 121.638 105.925 121.303 104.502 121.303C103.547 121.303 102.611 121.46 101.697 121.776C100.782 122.091 100.01 122.512 99.3793 123.041L98.1595 120.845C98.9926 120.174 99.9888 119.661 101.148 119.305C102.307 118.949 103.536 118.771 104.838 118.771V118.77ZM104.167 133.011C105.285 133.011 106.251 132.762 107.063 132.264C107.876 131.767 108.466 131.06 108.832 130.145V127.888H104.318C101.838 127.888 100.598 128.721 100.598 130.389C100.598 131.202 100.913 131.842 101.543 132.31C102.173 132.777 103.047 133.011 104.166 133.011H104.167ZM124.878 118.77C126.443 118.77 127.846 119.116 129.086 119.807C130.326 120.498 131.298 121.464 131.999 122.704C132.7 123.943 133.051 125.377 133.051 127.003C133.051 128.629 132.7 130.067 131.999 131.317C131.298 132.568 130.327 133.538 129.086 134.229C127.847 134.92 126.444 135.266 124.878 135.266C123.719 135.266 122.657 135.042 121.692 134.595C120.726 134.148 119.908 133.497 119.237 132.643V140.999H116.309V118.922H119.115V121.484C119.765 120.589 120.588 119.913 121.585 119.456C122.581 118.998 123.678 118.769 124.878 118.769V118.77ZM124.634 132.706C125.671 132.706 126.6 132.467 127.424 131.989C128.248 131.512 128.898 130.841 129.376 129.977C129.853 129.114 130.092 128.122 130.092 127.004C130.092 125.886 129.853 124.895 129.376 124.031C128.898 123.167 128.248 122.501 127.424 122.034C126.6 121.566 125.671 121.332 124.634 121.332C123.618 121.332 122.697 121.571 121.874 122.049C121.05 122.526 120.4 123.193 119.922 124.046C119.444 124.9 119.206 125.886 119.206 127.004C119.206 128.122 119.44 129.113 119.907 129.977C120.374 130.841 121.025 131.513 121.858 131.989C122.692 132.467 123.617 132.706 124.634 132.706ZM149.461 118.923V135.085H146.535V128.559C144.786 129.373 143.048 129.779 141.32 129.779C139.308 129.779 137.752 129.312 136.654 128.376C135.556 127.441 135.007 126.038 135.007 124.168V118.923H137.935V123.985C137.935 125.104 138.286 125.947 138.987 126.517C139.689 127.086 140.67 127.371 141.93 127.371C143.353 127.371 144.888 127.015 146.535 126.304V118.924H149.461V118.923ZM154.407 118.923H157.335V130.694L167.245 118.923H169.898V135.085H166.971V123.314L157.091 135.085H154.408V118.923H154.407ZM181.126 128.254H177.771V135.085H174.844V118.923H177.771V125.754H181.186L186.432 118.923H189.573L183.443 126.699L189.999 135.085H186.554L181.126 128.254Z" fill="#2B3751"/>
<path d="M32.0216 145.776C32.8717 145.776 33.6366 145.972 34.319 146.363C35.0005 146.754 35.537 147.293 35.9284 147.978C36.3199 148.664 36.5151 149.436 36.5151 150.295C36.5151 151.152 36.3199 151.925 35.9284 152.61C35.537 153.296 35.0005 153.835 34.319 154.225C33.6376 154.617 32.8717 154.812 32.0216 154.812C31.2301 154.812 30.5108 154.639 29.8634 154.294C29.2151 153.949 28.69 153.473 28.2853 152.868C27.8815 152.262 27.6418 151.572 27.5659 150.798H25.9509V154.71H24.7017V145.876H25.9509V149.662H27.5792C27.6721 148.914 27.9223 148.244 28.3299 147.656C28.7384 147.066 29.2616 146.607 29.9013 146.274C30.5411 145.941 31.2482 145.775 32.0216 145.775V145.776ZM32.0216 153.677C32.6272 153.677 33.176 153.532 33.6689 153.242C34.1608 152.952 34.5484 152.55 34.8299 152.037C35.1114 151.523 35.2526 150.943 35.2526 150.295C35.2526 149.646 35.1114 149.066 34.8299 148.552C34.5484 148.039 34.1608 147.638 33.6689 147.347C33.1769 147.057 32.6272 146.912 32.0216 146.912C31.4244 146.912 30.8814 147.057 30.3932 147.347C29.9051 147.638 29.5203 148.039 29.2388 148.552C28.9573 149.065 28.8161 149.646 28.8161 150.295C28.8161 150.942 28.9573 151.523 29.2388 152.037C29.5203 152.549 29.9051 152.951 30.3932 153.242C30.8814 153.532 31.4244 153.677 32.0216 153.677ZM41.9167 147.96C42.564 147.96 43.145 148.103 43.6587 148.389C44.1715 148.676 44.5734 149.076 44.8643 149.588C45.1544 150.101 45.2994 150.695 45.2994 151.367C45.2994 152.04 45.1544 152.636 44.8643 153.153C44.5743 153.671 44.1724 154.072 43.6587 154.359C43.145 154.645 42.565 154.788 41.9167 154.788C41.4371 154.788 40.9973 154.695 40.5973 154.51C40.1973 154.326 39.859 154.056 39.5813 153.703V157.16H38.37V148.023H39.531V149.082C39.8002 148.712 40.1414 148.432 40.5537 148.243C40.966 148.053 41.421 147.958 41.9167 147.958V147.96ZM41.8152 153.728C42.2446 153.728 42.6294 153.63 42.9706 153.432C43.3118 153.234 43.581 152.956 43.7781 152.599C43.9762 152.241 44.0748 151.831 44.0748 151.368C44.0748 150.906 43.9762 150.495 43.7781 150.138C43.581 149.781 43.3109 149.505 42.9706 149.312C42.6294 149.118 42.2446 149.021 41.8152 149.021C41.3944 149.021 41.0143 149.119 40.6731 149.317C40.3319 149.514 40.0627 149.79 39.8656 150.144C39.6675 150.497 39.5689 150.905 39.5689 151.368C39.5689 151.831 39.6656 152.241 39.859 152.599C40.0523 152.956 40.3215 153.234 40.6665 153.432C41.0115 153.629 41.3944 153.728 41.8152 153.728ZM47.0528 148.024H48.2641V152.895L52.3662 148.024H53.4647V154.713H52.2525V149.841L48.1636 154.713H47.0528V148.024ZM62.6148 153.653V156.265H61.4794V154.712H55.8883V156.265H54.7395V153.653H55.0931C55.5224 153.627 55.8162 153.325 55.9764 152.744C56.1366 152.163 56.2456 151.343 56.3043 150.282L56.4048 148.024H61.5922V153.653H62.6139H62.6148ZM57.4152 150.371C57.3811 151.213 57.3119 151.909 57.2067 152.46C57.1015 153.011 56.91 153.409 56.6323 153.653H60.3809V149.083H57.4777L57.4142 150.37L57.4152 150.371ZM64.1929 148.024H65.4042V152.895L69.5063 148.024H70.6048V154.713H69.3926V149.841L65.3038 154.713H64.1929V148.024ZM78.2906 148.024V154.713H77.0793V152.012C76.3561 152.348 75.6358 152.517 74.9211 152.517C74.088 152.517 73.4445 152.324 72.9905 151.936C72.5365 151.549 72.309 150.968 72.309 150.194V148.024H73.5203V150.118C73.5203 150.581 73.6653 150.931 73.9553 151.166C74.2454 151.402 74.652 151.519 75.1733 151.519C75.7619 151.519 76.3978 151.372 77.0793 151.077V148.023H78.2906V148.024ZM86.6834 151.406C86.6834 151.499 86.6749 151.621 86.6578 151.772H81.2307C81.3065 152.361 81.5653 152.835 82.0069 153.192C82.4486 153.549 82.9983 153.728 83.6542 153.728C84.4532 153.728 85.0977 153.459 85.5849 152.921L86.2541 153.704C85.9517 154.057 85.5745 154.326 85.1243 154.511C84.6741 154.696 84.1717 154.789 83.6163 154.789C82.9093 154.789 82.2828 154.644 81.7359 154.354C81.189 154.064 80.7663 153.657 80.4677 153.136C80.1692 152.615 80.0194 152.025 80.0194 151.369C80.0194 150.722 80.1644 150.136 80.4544 149.615C80.7445 149.093 81.1444 148.687 81.6534 148.397C82.1624 148.107 82.7368 147.962 83.3765 147.962C84.0163 147.962 84.5859 148.107 85.0864 148.397C85.5868 148.688 85.9783 149.094 86.2598 149.615C86.5422 150.136 86.6825 150.734 86.6825 151.407L86.6834 151.406ZM83.3765 148.983C82.7965 148.983 82.3102 149.159 81.9188 149.513C81.5274 149.866 81.298 150.329 81.2307 150.901H85.5224C85.4551 150.337 85.2257 149.877 84.8343 149.519C84.4428 149.161 83.9566 148.983 83.3765 148.983ZM91.4793 154.788C90.7978 154.788 90.1894 154.641 89.6557 154.346C89.1212 154.052 88.7032 153.646 88.3999 153.128C88.0975 152.611 87.9459 152.024 87.9459 151.367C87.9459 150.712 88.0975 150.124 88.3999 149.606C88.7032 149.089 89.1212 148.685 89.6557 148.394C90.1903 148.104 90.7978 147.959 91.4793 147.959C92.085 147.959 92.6252 148.081 93.101 148.325C93.5768 148.57 93.9446 148.922 94.2052 149.386L93.2839 149.979C93.0735 149.659 92.8129 149.42 92.5011 149.26C92.1902 149.099 91.8452 149.02 91.466 149.02C91.0282 149.02 90.6358 149.116 90.286 149.311C89.9372 149.504 89.6633 149.78 89.4652 150.137C89.2671 150.495 89.1686 150.905 89.1686 151.367C89.1686 151.839 89.2671 152.253 89.4652 152.611C89.6633 152.968 89.9363 153.244 90.286 153.437C90.6348 153.631 91.0282 153.727 91.466 153.727C91.8452 153.727 92.1902 153.648 92.5011 153.488C92.8129 153.328 93.0735 153.089 93.2839 152.768L94.2052 153.348C93.9446 153.811 93.5759 154.166 93.101 154.415C92.6252 154.663 92.085 154.787 91.4793 154.787V154.788ZM98.3699 151.885H96.9813V154.712H95.77V148.023H96.9813V150.85H98.3945L100.566 148.023H101.865L99.329 151.241L102.043 154.712H100.616L98.3699 151.885ZM103.317 148.023H104.529V152.894L108.631 148.023H109.729V154.712H108.517V149.841L104.428 154.712H103.317V148.023ZM118.122 151.405C118.122 151.498 118.114 151.62 118.097 151.771H112.669C112.745 152.36 113.004 152.834 113.446 153.191C113.887 153.548 114.437 153.727 115.093 153.727C115.892 153.727 116.536 153.458 117.024 152.92L117.693 153.703C117.39 154.056 117.013 154.326 116.563 154.51C116.113 154.695 115.61 154.788 115.055 154.788C114.348 154.788 113.721 154.643 113.175 154.353C112.628 154.063 112.205 153.656 111.906 153.135C111.608 152.614 111.458 152.024 111.458 151.368C111.458 150.721 111.603 150.135 111.893 149.614C112.183 149.092 112.583 148.686 113.092 148.396C113.601 148.106 114.175 147.961 114.815 147.961C115.455 147.961 116.025 148.106 116.525 148.396C117.026 148.687 117.417 149.093 117.698 149.614C117.981 150.135 118.121 150.733 118.121 151.406L118.122 151.405ZM114.815 148.982C114.235 148.982 113.749 149.158 113.358 149.512C112.966 149.865 112.737 150.328 112.669 150.9H116.961C116.894 150.336 116.664 149.876 116.273 149.518C115.882 149.16 115.395 148.982 114.815 148.982ZM129.367 148.023L126.124 155.38C125.837 156.062 125.503 156.542 125.12 156.819C124.737 157.097 124.276 157.235 123.738 157.235C123.41 157.235 123.091 157.182 122.785 157.078C122.478 156.973 122.223 156.819 122.021 156.617L122.539 155.708C122.884 156.036 123.283 156.2 123.738 156.2C124.033 156.2 124.278 156.123 124.476 155.967C124.674 155.812 124.853 155.544 125.013 155.166L125.227 154.699L122.274 148.023H123.536L125.87 153.374L128.18 148.023H129.367ZM133.331 154.787C132.649 154.787 132.041 154.64 131.507 154.345C130.972 154.051 130.555 153.645 130.251 153.128C129.949 152.61 129.797 152.023 129.797 151.366C129.797 150.711 129.949 150.123 130.251 149.605C130.555 149.088 130.972 148.684 131.507 148.393C132.042 148.103 132.649 147.958 133.331 147.958C133.936 147.958 134.477 148.08 134.952 148.324C135.428 148.569 135.796 148.921 136.057 149.385L135.135 149.978C134.925 149.659 134.664 149.419 134.352 149.259C134.041 149.098 133.696 149.019 133.317 149.019C132.879 149.019 132.487 149.115 132.137 149.31C131.789 149.503 131.515 149.779 131.317 150.136C131.118 150.495 131.02 150.904 131.02 151.366C131.02 151.838 131.118 152.252 131.317 152.61C131.515 152.967 131.788 153.243 132.137 153.437C132.486 153.63 132.879 153.727 133.317 153.727C133.696 153.727 134.041 153.647 134.352 153.487C134.664 153.327 134.925 153.088 135.135 152.767L136.057 153.347C135.796 153.81 135.427 154.165 134.952 154.414C134.477 154.662 133.936 154.786 133.331 154.786V154.787ZM143.162 148.023V154.712H141.951V149.083H139.073L138.998 150.572C138.956 151.473 138.875 152.223 138.758 152.825C138.64 153.427 138.447 153.909 138.178 154.271C137.909 154.633 137.534 154.813 137.055 154.813C136.836 154.813 136.587 154.775 136.31 154.699L136.385 153.676C136.495 153.702 136.596 153.714 136.688 153.714C137.024 153.714 137.277 153.567 137.445 153.273C137.614 152.978 137.723 152.629 137.773 152.225C137.823 151.821 137.87 151.245 137.911 150.496L138.025 148.023H143.161H143.162ZM151.479 148.023L148.236 155.38C147.95 156.062 147.615 156.542 147.232 156.819C146.849 157.097 146.389 157.235 145.85 157.235C145.522 157.235 145.204 157.182 144.898 157.078C144.591 156.973 144.336 156.819 144.134 156.617L144.651 155.708C144.996 156.036 145.395 156.2 145.85 156.2C146.145 156.2 146.39 156.123 146.589 155.967C146.787 155.812 146.965 155.544 147.125 155.166L147.339 154.699L144.386 148.023H145.648L147.983 153.374L150.293 148.023H151.479ZM157.638 149.082H153.927V154.711H152.716V148.022H157.638V149.081V149.082ZM158.875 148.023H160.086V152.894L164.188 148.023H165.287V154.712H164.075V149.841L159.986 154.712H158.875V148.023Z" fill="#2B3751"/>
</svg>
