<svg width="190" height="190" viewBox="0 0 190 190" fill="none" xmlns="http://www.w3.org/2000/svg">
<path d="M185.309 69.1044C187.723 77.5246 188.948 86.2407 188.948 95.0004C188.948 146.887 146.886 188.949 95.0002 188.949C43.114 188.949 1.0518 146.887 1.0518 95.0004C1.0518 43.1142 43.114 1.05176 95.0002 1.05176C125.652 1.05176 154.377 16.0047 171.958 41.1137" stroke="#C29569" stroke-width="0.786041" stroke-miterlimit="22.9256" stroke-linecap="round" stroke-linejoin="round"/>
<path d="M35.1831 110.148H35.761V111.036C35.8686 110.891 35.9917 110.748 36.1279 110.612C36.82 109.924 37.6524 109.581 38.6256 109.581C39.6033 109.581 40.4382 109.926 41.1257 110.614C41.8157 111.304 42.1584 112.136 42.1584 113.116C42.1584 114.089 41.8157 114.922 41.1257 115.612C40.4382 116.304 39.6036 116.648 38.6256 116.648C37.6524 116.648 36.82 116.304 36.1279 115.612C35.9917 115.475 35.8686 115.333 35.761 115.188V118.883H35.1831V110.148ZM35.761 112.51V113.72C35.8728 114.274 36.1387 114.762 36.5585 115.181C37.1295 115.752 37.8195 116.038 38.6256 116.038C39.4321 116.038 40.1197 115.752 40.6907 115.181C41.2617 114.61 41.5473 113.922 41.5473 113.116C41.5473 112.307 41.2617 111.62 40.6907 111.049C40.1194 110.477 39.4321 110.194 38.6256 110.194C37.8195 110.194 37.1295 110.477 36.5585 111.049C36.139 111.47 35.8731 111.956 35.761 112.509V112.51ZM45.4924 115.284C46.0371 115.781 46.6852 116.031 47.4367 116.031C48.2429 116.031 48.9328 115.746 49.5042 115.174C49.5768 115.102 49.6446 115.027 49.7082 114.95L50.3214 115.168C50.2093 115.321 50.082 115.471 49.9413 115.612C49.249 116.304 48.4144 116.648 47.4367 116.648C46.4635 116.648 45.6308 116.304 44.939 115.612C44.2491 114.922 43.9043 114.087 43.9043 113.109C43.9043 112.134 44.2491 111.301 44.939 110.612C45.6311 109.922 46.4638 109.575 47.4367 109.575C48.2737 109.575 49.0052 109.827 49.6314 110.328C49.7348 110.414 49.8379 110.509 49.9413 110.612C49.9784 110.651 50.016 110.689 50.051 110.728L49.6117 111.165L45.4927 115.284H45.4924ZM49.1874 110.772C48.6842 110.386 48.1025 110.194 47.4367 110.194C46.6348 110.194 45.9475 110.478 45.3783 111.047C44.8073 111.614 44.5216 112.301 44.5216 113.109C44.5216 113.773 44.7149 114.357 45.1016 114.86L49.1874 110.772V110.772ZM52.3879 110.148H52.9658V111.299C53.0865 111.128 53.2248 110.963 53.3853 110.805C53.8948 110.293 54.4177 110.025 54.9537 110.001V110.631C54.5889 110.649 54.2133 110.851 53.8224 111.242C53.2732 111.787 52.9876 112.442 52.9658 113.206V116.469H52.3879V110.148ZM56.9461 110.148H57.524V110.296C57.8841 109.949 58.3146 109.775 58.8178 109.775C59.3363 109.775 59.78 109.957 60.1448 110.322C60.2413 110.421 60.3295 110.528 60.4021 110.645C60.4747 110.533 60.5622 110.425 60.6656 110.322C61.0305 109.957 61.4718 109.775 61.9905 109.775C62.511 109.775 62.9527 109.957 63.3172 110.322C63.6644 110.673 63.8467 111.097 63.8643 111.589V116.469H63.2843V111.589H63.2909C63.2733 111.255 63.1481 110.97 62.9108 110.735C62.6536 110.48 62.3461 110.355 61.9902 110.355C61.6343 110.355 61.3287 110.48 61.0741 110.735C60.8192 110.987 60.6916 111.302 60.6916 111.679V116.469H60.1116V111.589H60.1182C60.1006 111.255 59.9733 110.97 59.7378 110.735C59.4809 110.48 59.1731 110.355 58.8172 110.355C58.4614 110.355 58.156 110.48 57.9035 110.735C57.6794 110.952 57.5542 111.22 57.5234 111.539V116.469H56.9455V110.148H56.9461ZM73.1385 116.469H72.5586V115.181C72.4489 115.331 72.3258 115.476 72.1916 115.612C71.5017 116.304 70.6669 116.649 69.6895 116.649C68.7142 116.649 67.8814 116.304 67.1918 115.612C66.4997 114.922 66.1549 114.09 66.1549 113.117C66.1549 112.137 66.4997 111.302 67.1918 110.612C67.8817 109.922 68.7142 109.575 69.6895 109.575C70.6669 109.575 71.5017 109.92 72.1916 110.612C72.3258 110.748 72.4489 110.893 72.5586 111.043V110.149H73.1385V116.469V116.469ZM72.5586 113.687V112.543C72.451 111.976 72.183 111.477 71.7545 111.049C71.1835 110.478 70.4959 110.194 69.6895 110.194C68.8809 110.194 68.1934 110.478 67.6221 111.049C67.051 111.62 66.7675 112.307 66.7675 113.116C66.7675 113.922 67.051 114.61 67.6221 115.179C68.1934 115.746 68.8806 116.031 69.6895 116.031C70.4956 116.031 71.1835 115.746 71.7545 115.174C72.183 114.746 72.451 114.25 72.5586 113.687ZM76.1702 111.559V116.469H75.5923V110.148H76.1702V110.555C76.6973 110.029 77.3125 109.768 78.0111 109.768C78.7578 109.768 79.3644 110.003 79.8323 110.471C80.3 110.937 80.5396 111.528 80.553 112.239V116.468H79.9752V112.292C79.9752 111.753 79.7797 111.297 79.3907 110.917C79.0043 110.536 78.5427 110.348 78.0114 110.348C77.4799 110.348 77.0206 110.534 76.6339 110.908C76.423 111.116 76.2691 111.334 76.1705 111.558L76.1702 111.559ZM84.2101 115.284C84.7548 115.781 85.4029 116.031 86.1544 116.031C86.9606 116.031 87.6505 115.746 88.2218 115.174C88.2944 115.102 88.3622 115.027 88.4259 114.95L89.039 115.168C88.927 115.321 88.7997 115.471 88.659 115.612C87.9666 116.304 87.1321 116.648 86.1544 116.648C85.1812 116.648 84.3484 116.304 83.6567 115.612C82.9668 114.922 82.622 114.087 82.622 113.109C82.622 112.134 82.9668 111.301 83.6567 110.612C84.3487 109.922 85.1815 109.575 86.1544 109.575C86.9913 109.575 87.7228 109.827 88.3491 110.328C88.4525 110.414 88.5556 110.509 88.659 110.612C88.696 110.651 88.7337 110.689 88.7686 110.728L88.3294 111.165L84.2104 115.284H84.2101ZM87.9051 110.772C87.4019 110.386 86.8201 110.194 86.1544 110.194C85.3524 110.194 84.6652 110.478 84.0959 111.047C83.5249 111.614 83.2393 112.301 83.2393 113.109C83.2393 113.773 83.4326 114.357 83.8192 114.86L87.9051 110.772V110.772ZM91.6834 111.559V116.469H91.1056V110.148H91.6834V110.555C92.2105 110.029 92.8258 109.768 93.5244 109.768C94.2711 109.768 94.8776 110.003 95.3456 110.471C95.8132 110.937 96.0528 111.528 96.0663 112.239V116.468H95.4884V112.292C95.4884 111.753 95.293 111.297 94.9039 110.917C94.5176 110.536 94.0559 110.348 93.5247 110.348C92.9931 110.348 92.5338 110.534 92.1472 110.908C91.9362 111.116 91.7823 111.334 91.6837 111.558L91.6834 111.559ZM99.4224 110.148V107.457H100V110.148H101.288V110.728H100V116.469H99.4224V110.728H98.1352V110.148H99.4224ZM107.913 110.148H108.491V110.296C108.851 109.949 109.281 109.775 109.785 109.775C110.303 109.775 110.747 109.957 111.112 110.322C111.208 110.421 111.296 110.528 111.369 110.645C111.441 110.533 111.529 110.425 111.632 110.322C111.997 109.957 112.439 109.775 112.957 109.775C113.478 109.775 113.919 109.957 114.284 110.322C114.631 110.673 114.813 111.097 114.831 111.589V116.469H114.251V111.589H114.258C114.24 111.255 114.115 110.97 113.878 110.735C113.62 110.48 113.313 110.355 112.957 110.355C112.601 110.355 112.295 110.48 112.041 110.735C111.786 110.987 111.658 111.302 111.658 111.679V116.469H111.078V111.589H111.085C111.067 111.255 110.94 110.97 110.705 110.735C110.448 110.48 110.14 110.355 109.784 110.355C109.428 110.355 109.123 110.48 108.87 110.735C108.646 110.952 108.521 111.22 108.49 111.539V116.469H107.912V110.148H107.913ZM124.105 116.469H123.525V115.181C123.416 115.331 123.293 115.476 123.158 115.612C122.468 116.304 121.634 116.649 120.656 116.649C119.681 116.649 118.848 116.304 118.159 115.612C117.467 114.922 117.122 114.09 117.122 113.117C117.122 112.137 117.467 111.302 118.159 110.612C118.848 109.922 119.681 109.575 120.656 109.575C121.634 109.575 122.468 109.92 123.158 110.612C123.293 110.748 123.416 110.893 123.525 111.043V110.149H124.105V116.469V116.469ZM123.525 113.687V112.543C123.418 111.976 123.15 111.477 122.721 111.049C122.15 110.478 121.463 110.194 120.656 110.194C119.848 110.194 119.16 110.478 118.589 111.049C118.018 111.62 117.734 112.307 117.734 113.116C117.734 113.922 118.018 114.61 118.589 115.179C119.16 115.746 119.847 116.031 120.656 116.031C121.462 116.031 122.15 115.746 122.721 115.174C123.15 114.746 123.418 114.25 123.525 113.687ZM129.641 110.148L128.084 112.079L130.568 116.469H129.848L127.703 112.543L127.137 113.244V116.469H126.559V107.457H127.137V112.316L128.894 110.148H129.641H129.641ZM133.349 115.284C133.894 115.781 134.542 116.031 135.293 116.031C136.1 116.031 136.789 115.746 137.361 115.174C137.433 115.102 137.501 115.027 137.565 114.95L138.178 115.168C138.066 115.321 137.939 115.471 137.798 115.612C137.106 116.304 136.271 116.648 135.293 116.648C134.32 116.648 133.487 116.304 132.796 115.612C132.106 114.922 131.761 114.087 131.761 113.109C131.761 112.134 132.106 111.301 132.796 110.612C133.488 109.922 134.32 109.575 135.293 109.575C136.13 109.575 136.862 109.827 137.488 110.328C137.591 110.414 137.695 110.509 137.798 110.612C137.835 110.651 137.873 110.689 137.908 110.728L137.468 111.165L133.349 115.284H133.349ZM137.044 110.772C136.541 110.386 135.959 110.194 135.293 110.194C134.491 110.194 133.804 110.478 133.235 111.047C132.664 111.614 132.378 112.301 132.378 113.109C132.378 113.773 132.572 114.357 132.958 114.86L137.044 110.772V110.772ZM142.85 116.559C142.062 116.559 141.431 116.325 140.965 115.858C140.498 115.39 140.256 114.799 140.245 114.087V110.148H140.822V114.037C140.822 114.573 141.018 115.029 141.409 115.408C141.796 115.788 142.272 115.979 142.844 115.979C143.375 115.979 143.836 115.79 144.225 115.41C144.612 115.029 144.808 114.573 144.808 114.037V110.148H145.385V114.087C145.372 114.799 145.133 115.39 144.664 115.858C144.197 116.325 143.592 116.559 142.85 116.559H142.85ZM147.841 110.148H148.419V111.036C148.526 110.891 148.65 110.748 148.786 110.612C149.478 109.924 150.31 109.581 151.284 109.581C152.261 109.581 153.096 109.926 153.784 110.614C154.474 111.304 154.816 112.136 154.816 113.116C154.816 114.089 154.474 114.922 153.784 115.612C153.096 116.304 152.262 116.648 151.284 116.648C150.31 116.648 149.478 116.304 148.786 115.612C148.65 115.475 148.526 115.333 148.419 115.188V118.883H147.841V110.148ZM148.419 112.51V113.72C148.531 114.274 148.797 114.762 149.216 115.181C149.787 115.752 150.477 116.038 151.284 116.038C152.09 116.038 152.778 115.752 153.349 115.181C153.92 114.61 154.205 113.922 154.205 113.116C154.205 112.307 153.92 111.62 153.349 111.049C152.777 110.477 152.09 110.194 151.284 110.194C150.477 110.194 149.787 110.477 149.216 111.049C148.797 111.47 148.531 111.956 148.419 112.509V112.51Z" fill="#2A2A29"/>
<path d="M43.3422 132.979C43.9049 132.979 44.4138 133.108 44.8688 133.366C45.3236 133.625 45.6804 133.987 45.9385 134.453C46.1967 134.92 46.3261 135.45 46.3261 136.044C46.3261 136.637 46.1967 137.166 45.9385 137.628C45.6804 138.09 45.3236 138.453 44.8688 138.715C44.4141 138.977 43.9049 139.108 43.3422 139.108C42.8026 139.108 42.3147 138.979 41.879 138.721C41.4434 138.462 41.106 138.102 40.867 137.639V139.062H40.3121V130.48H40.8903V134.401C41.1293 133.954 41.4646 133.605 41.8963 133.354C42.3281 133.103 42.8098 132.978 43.3419 132.978L43.3422 132.979ZM43.3076 138.588C43.7701 138.588 44.1867 138.48 44.5566 138.264C44.9265 138.048 45.2178 137.747 45.4297 137.362C45.6418 136.976 45.7479 136.537 45.7479 136.043C45.7479 135.55 45.6418 135.11 45.4297 134.725C45.2178 134.34 44.9265 134.039 44.5566 133.823C44.1867 133.607 43.7701 133.499 43.3076 133.499C42.845 133.499 42.4306 133.607 42.0646 133.823C41.6982 134.039 41.409 134.339 41.1971 134.725C40.9853 135.111 40.8789 135.55 40.8789 136.043C40.8789 136.537 40.9853 136.977 41.1971 137.362C41.409 137.747 41.6982 138.048 42.0646 138.264C42.4306 138.48 42.845 138.588 43.3076 138.588ZM52.9497 133.025L49.8502 139.884C49.6189 140.415 49.3509 140.793 49.0464 141.017C48.7419 141.24 48.3816 141.352 47.965 141.352C47.6874 141.352 47.4272 141.306 47.1843 141.213C46.9416 141.121 46.7352 140.986 46.5657 140.809L46.855 140.369C47.1633 140.685 47.5374 140.843 47.9767 140.843C48.2698 140.843 48.5205 140.763 48.7285 140.601C48.9367 140.438 49.1292 140.161 49.3066 139.768L49.6305 139.039L46.9126 133.025H47.5255L49.9428 138.427L52.3598 133.025H52.9499L52.9497 133.025ZM62.5334 136.784H57.8381L56.8087 139.062H56.1725L59.8968 130.967H60.4866L64.2106 139.062H63.5745L62.5337 136.784H62.5334ZM62.3138 136.287L60.1858 131.614L58.0693 136.287H62.3135H62.3138ZM65.6529 130.481H66.2311V139.062H65.6529V130.481ZM73.6758 133.025L70.5763 139.883C70.345 140.415 70.077 140.793 69.7725 141.017C69.4681 141.24 69.1077 141.352 68.6912 141.352C68.4136 141.352 68.1533 141.306 67.9104 141.213C67.6678 141.121 67.4613 140.986 67.2919 140.808L67.5811 140.369C67.8895 140.685 68.2636 140.843 68.7028 140.843C68.996 140.843 69.2466 140.762 69.4546 140.6C69.6629 140.438 69.8553 140.161 70.0328 139.768L70.3567 139.039L67.6388 133.025H68.2516L70.6689 138.426L73.086 133.025H73.6761L73.6758 133.025ZM77.2806 139.108C76.7101 139.108 76.1953 138.977 75.7366 138.715C75.2777 138.453 74.9173 138.089 74.655 137.622C74.3929 137.156 74.2621 136.63 74.2621 136.044C74.2621 135.458 74.3932 134.932 74.655 134.465C74.9173 133.999 75.2777 133.634 75.7366 133.372C76.1953 133.11 76.7101 132.979 77.2806 132.979C77.851 132.979 78.3655 133.11 78.8245 133.372C79.2831 133.634 79.6438 133.999 79.9058 134.465C80.1682 134.932 80.2991 135.458 80.2991 136.044C80.2991 136.63 80.1679 137.156 79.9058 137.622C79.6438 138.089 79.2831 138.453 78.8245 138.715C78.3655 138.977 77.851 139.108 77.2806 139.108ZM77.2806 138.588C77.7431 138.588 78.1575 138.48 78.5236 138.264C78.8899 138.048 79.1788 137.747 79.391 137.361C79.6028 136.976 79.7089 136.536 79.7089 136.043C79.7089 135.55 79.6028 135.11 79.391 134.725C79.1788 134.339 78.8899 134.038 78.5236 133.822C78.1572 133.607 77.7431 133.498 77.2806 133.498C76.818 133.498 76.4036 133.607 76.0372 133.822C75.6712 134.038 75.382 134.339 75.1701 134.725C74.958 135.11 74.8519 135.55 74.8519 136.043C74.8519 136.536 74.958 136.976 75.1701 137.361C75.382 137.747 75.6712 138.048 76.0372 138.264C76.4036 138.48 76.818 138.588 77.2806 138.588ZM85.1991 132.979C85.9548 132.979 86.5524 133.198 86.9919 133.638C87.4312 134.077 87.6511 134.71 87.6511 135.535V139.062H87.0729V135.581C87.0729 134.902 86.9014 134.386 86.5584 134.031C86.2151 133.676 85.7352 133.499 85.1184 133.499C84.4091 133.499 83.85 133.711 83.4413 134.135C83.0328 134.559 82.8284 135.13 82.8284 135.847V139.062H82.2502V133.025H82.8051V134.332C83.0134 133.908 83.3235 133.576 83.7362 133.337C84.1485 133.098 84.6362 132.979 85.1991 132.979V132.979ZM92.2273 132.979C92.9752 132.979 93.5495 133.169 93.9505 133.551C94.3512 133.933 94.5517 134.493 94.5517 135.234V139.062H93.9968V137.986C93.8037 138.341 93.5223 138.617 93.1524 138.813C92.7824 139.01 92.339 139.108 91.8224 139.108C91.1516 139.108 90.6215 138.95 90.2322 138.634C89.8428 138.318 89.648 137.901 89.648 137.385C89.648 136.884 89.8273 136.477 90.1858 136.165C90.5444 135.853 91.1166 135.696 91.9031 135.696H93.9732V135.211C93.9732 134.648 93.8208 134.22 93.5163 133.927C93.2118 133.634 92.7666 133.488 92.1806 133.488C91.7797 133.488 91.396 133.557 91.0297 133.696C90.6633 133.835 90.3532 134.02 90.0989 134.251L89.8096 133.835C90.1105 133.565 90.4727 133.355 90.8967 133.204C91.3207 133.054 91.7641 132.979 92.227 132.979L92.2273 132.979ZM91.9034 138.634C92.4045 138.634 92.8305 138.518 93.1813 138.287C93.5321 138.056 93.7963 137.72 93.9738 137.281V136.148H91.9153C91.3216 136.148 90.8916 136.256 90.6257 136.472C90.3597 136.688 90.2268 136.984 90.2268 137.362C90.2268 137.755 90.3735 138.066 90.6663 138.293C90.9594 138.52 91.3718 138.634 91.9037 138.634L91.9034 138.634ZM102.655 135.072L100.84 136.934V139.062H100.25V130.966H100.84V136.171L105.894 130.966H106.611L103.049 134.644L106.854 139.062H106.137L102.655 135.072V135.072ZM108.354 130.48H108.932V139.062H108.354V130.48ZM113.566 132.978C114.314 132.978 114.888 133.169 115.289 133.551C115.69 133.932 115.891 134.493 115.891 135.234V139.062H115.336V137.986C115.143 138.341 114.861 138.616 114.491 138.813C114.121 139.01 113.678 139.108 113.161 139.108C112.491 139.108 111.96 138.95 111.571 138.634C111.182 138.318 110.987 137.901 110.987 137.385C110.987 136.884 111.166 136.477 111.525 136.165C111.883 135.852 112.456 135.696 113.242 135.696H115.312V135.211C115.312 134.648 115.16 134.22 114.855 133.927C114.551 133.634 114.106 133.487 113.52 133.487C113.119 133.487 112.735 133.557 112.369 133.696C112.002 133.835 111.692 134.02 111.438 134.251L111.149 133.835C111.45 133.565 111.812 133.354 112.236 133.204C112.66 133.054 113.103 132.979 113.566 132.979L113.566 132.978ZM113.242 138.634C113.743 138.634 114.17 138.518 114.52 138.287C114.871 138.056 115.135 137.72 115.313 137.281V136.147H113.254C112.661 136.147 112.231 136.255 111.965 136.471C111.699 136.687 111.566 136.984 111.566 137.362C111.566 137.755 111.712 138.065 112.005 138.293C112.298 138.52 112.711 138.634 113.243 138.634L113.242 138.634ZM123.717 133.025V139.062H123.162V137.766C122.961 138.19 122.664 138.52 122.271 138.755C121.878 138.99 121.416 139.108 120.884 139.108C120.097 139.108 119.48 138.888 119.033 138.448C118.586 138.009 118.362 137.377 118.362 136.552V133.025H118.941V136.506C118.941 137.184 119.114 137.701 119.461 138.056C119.808 138.41 120.298 138.587 120.93 138.587C121.608 138.587 122.146 138.375 122.543 137.951C122.94 137.527 123.139 136.957 123.139 136.239V133.024H123.717V133.025ZM130.41 138.564V139.062H125.61V138.669L129.588 133.522H125.668V133.025H130.34V133.418L126.35 138.564H130.409H130.41ZM134.558 139.108C133.988 139.108 133.473 138.977 133.014 138.715C132.555 138.453 132.195 138.089 131.933 137.622C131.671 137.156 131.54 136.63 131.54 136.044C131.54 135.458 131.671 134.932 131.933 134.465C132.195 133.999 132.555 133.634 133.014 133.372C133.473 133.11 133.988 132.979 134.558 132.979C135.129 132.979 135.643 133.11 136.102 133.372C136.561 133.634 136.922 133.999 137.184 134.465C137.446 134.932 137.577 135.458 137.577 136.044C137.577 136.63 137.446 137.156 137.184 137.622C136.922 138.089 136.561 138.453 136.102 138.715C135.643 138.977 135.129 139.108 134.558 139.108ZM134.558 138.588C135.021 138.588 135.435 138.48 135.801 138.264C136.168 138.048 136.457 137.747 136.669 137.361C136.881 136.976 136.987 136.536 136.987 136.043C136.987 135.55 136.881 135.11 136.669 134.725C136.457 134.339 136.168 134.038 135.801 133.822C135.435 133.607 135.021 133.498 134.558 133.498C134.096 133.498 133.681 133.607 133.315 133.822C132.949 134.038 132.66 134.339 132.448 134.725C132.236 135.11 132.13 135.55 132.13 136.043C132.13 136.536 132.236 136.976 132.448 137.361C132.66 137.747 132.949 138.048 133.315 138.264C133.681 138.48 134.096 138.588 134.558 138.588ZM144.2 133.025L141.471 139.062H140.881L138.163 133.025H138.776L141.181 138.426L143.61 133.025H144.2ZM147.47 132.979C148.218 132.979 148.792 133.169 149.193 133.551C149.593 133.933 149.794 134.493 149.794 135.234V139.062H149.239V137.986C149.046 138.341 148.765 138.617 148.395 138.813C148.025 139.01 147.581 139.108 147.065 139.108C146.394 139.108 145.864 138.95 145.474 138.634C145.085 138.318 144.89 137.901 144.89 137.385C144.89 136.884 145.07 136.477 145.428 136.165C145.787 135.853 146.359 135.696 147.145 135.696H149.215V135.211C149.215 134.648 149.063 134.22 148.759 133.927C148.454 133.634 148.009 133.488 147.423 133.488C147.022 133.488 146.638 133.557 146.272 133.696C145.906 133.835 145.596 134.02 145.341 134.251L145.052 133.835C145.353 133.565 145.715 133.355 146.139 133.204C146.563 133.054 147.006 132.979 147.469 132.979L147.47 132.979ZM147.146 138.634C147.647 138.634 148.073 138.518 148.424 138.287C148.774 138.056 149.039 137.72 149.216 137.281V136.148H147.158C146.564 136.148 146.134 136.256 145.868 136.472C145.602 136.688 145.469 136.984 145.469 137.362C145.469 137.755 145.616 138.066 145.909 138.293C146.202 138.52 146.614 138.634 147.146 138.634L147.146 138.634Z" fill="#2A2A29"/>
<path d="M167.849 55.69V58.9535H167.095V49.5442H170.618C171.641 49.6428 172.511 49.9437 173.227 50.4454C174.084 51.0457 174.511 51.7679 174.511 52.6153C174.511 53.4663 174.084 54.1909 173.227 54.7909C172.371 55.3912 171.34 55.69 170.131 55.69H167.848H167.849ZM167.849 50.0802V55.1542H170.131C171.128 55.1542 171.979 54.9071 172.686 54.4114C173.394 53.9157 173.749 53.3157 173.749 52.6153C173.749 51.9125 173.394 51.3146 172.686 50.821C171.979 50.3274 171.128 50.0802 170.131 50.0802H167.849V50.0802ZM177.094 49.5442L182.138 55.6601L187.173 49.5442H188.038L188.004 49.5863V58.9535H187.247V50.5036L182.138 56.7014L177.019 50.5036V58.9535H176.263V49.5863L176.231 49.5442H177.093H177.094Z" fill="#2A2A29"/>
<path fill-rule="evenodd" clip-rule="evenodd" d="M41.6627 93.7099V96.0926C41.6627 96.1487 41.617 96.1945 41.5608 96.1945H23.1336C23.0775 96.1945 23.0317 96.1487 23.0317 96.0926V70.0337C23.0317 69.9775 23.0775 69.9318 23.1336 69.9318H41.0023C41.0585 69.9318 41.1042 69.9775 41.1042 70.0337V72.4163C41.1042 72.4725 41.0585 72.5182 41.0023 72.5182H25.9905V81.5839H39.3646C39.4208 81.5839 39.4665 81.6296 39.4665 81.6858V84.0308C39.4665 84.087 39.4208 84.1327 39.3646 84.1327H25.9905V93.608H41.5608C41.617 93.608 41.6627 93.6537 41.6627 93.7099V93.7099ZM34.6429 62.6389H38.202L32.1327 67.2847H29.5098L34.6426 62.6389H34.6429ZM52.999 72.5182H43.9434C43.8873 72.5182 43.8416 72.4725 43.8416 72.4163V70.0337C43.8416 69.9775 43.8873 69.9318 43.9434 69.9318H65.0135C65.0697 69.9318 65.1154 69.9775 65.1154 70.0337V72.4163C65.1154 72.4725 65.0697 72.5182 65.0135 72.5182H55.958V96.0926C55.958 96.1487 55.9123 96.1945 55.8561 96.1945H53.1012C53.045 96.1945 52.9993 96.1487 52.9993 96.0926V72.5182H52.999ZM84.3801 89.2333H69.9928L66.8933 96.1341C66.8766 96.1718 66.8392 96.1942 66.8004 96.1942L63.9339 96.1945C63.8778 96.1945 63.8321 96.1487 63.8321 96.0926C63.8321 96.0743 63.8368 96.0573 63.8455 96.0424L75.7543 69.9916C75.7713 69.9545 75.8081 69.9324 75.8466 69.9324L78.5642 69.9318C78.6087 69.9318 78.6464 69.9602 78.6601 69.9996L90.5689 96.0501C90.5922 96.1009 90.5698 96.1616 90.519 96.1846C90.5053 96.1909 90.4909 96.1936 90.4769 96.1936L87.5734 96.1942C87.5295 96.1942 87.4922 96.1664 87.4775 96.1272L84.3804 89.233L84.3801 89.2333ZM83.2838 86.7956L77.1864 73.1496L71.0891 86.7956H83.2838ZM94.7949 69.9318H97.5498C97.606 69.9318 97.6517 69.9775 97.6517 70.0337V93.608H112.143C112.199 93.608 112.245 93.6537 112.245 93.7099V96.0926C112.245 96.1487 112.199 96.1945 112.143 96.1945H94.7949C94.7387 96.1945 94.693 96.1487 94.693 96.0926V70.0337C94.693 69.9775 94.7387 69.9318 94.7949 69.9318V69.9318ZM127.592 96.418C126.294 96.418 125.055 96.2725 123.877 95.9817C122.699 95.6913 121.582 95.255 120.525 94.6739C119.469 94.093 118.528 93.4033 117.703 92.6061C116.877 91.8086 116.167 90.9027 115.573 89.8897C114.978 88.8759 114.533 87.7996 114.236 86.6621C113.939 85.5242 113.79 84.3242 113.79 83.063C113.79 81.8017 113.939 80.6014 114.236 79.4639C114.533 78.3261 114.979 77.2498 115.573 76.2362C116.167 75.2233 116.878 74.317 117.703 73.5201C118.528 72.7232 119.469 72.0333 120.525 71.4524C121.582 70.8712 122.699 70.4347 123.877 70.1445C125.056 69.8541 126.294 69.7086 127.592 69.7086C130.19 69.7086 132.533 70.2838 134.621 71.4336C135.664 72.0085 136.598 72.6951 137.421 73.4929C138.242 74.2895 138.954 75.1985 139.555 76.218C140.155 77.2375 140.606 78.3186 140.906 79.4588C141.206 80.5994 141.356 81.8011 141.356 83.063C141.356 85.5876 140.755 87.8695 139.554 89.9086C138.954 90.9278 138.242 91.8364 137.42 92.6333C136.598 93.4308 135.664 94.1175 134.62 94.6927C133.576 95.2676 132.468 95.6993 131.297 95.9868C130.125 96.2742 128.889 96.4183 127.591 96.4183L127.592 96.418ZM127.592 93.7568C129.634 93.7568 131.479 93.2955 133.126 92.374C133.949 91.9129 134.684 91.3631 135.328 90.7249C135.973 90.0863 136.53 89.3579 136.996 88.5409C137.463 87.7246 137.813 86.8593 138.047 85.9461C138.28 85.0333 138.397 84.072 138.397 83.063C138.397 82.0539 138.28 81.0927 138.047 80.1798C137.814 79.267 137.463 78.4017 136.996 77.585C136.53 76.7681 135.973 76.0396 135.328 75.4011C134.684 74.7628 133.949 74.213 133.126 73.752C131.479 72.8305 129.634 72.3691 127.592 72.3691C125.549 72.3691 123.698 72.8302 122.039 73.752C121.209 74.2127 120.468 74.7631 119.817 75.4017C119.166 76.0399 118.604 76.7684 118.131 77.5859C117.658 78.4032 117.303 79.2682 117.067 80.1801C116.83 81.0924 116.712 82.0533 116.712 83.063C116.712 84.0726 116.83 85.0336 117.067 85.9458C117.303 86.8575 117.658 87.7228 118.131 88.54C118.604 89.3576 119.167 90.086 119.817 90.7243C120.468 91.3628 121.209 91.9132 122.039 92.374C122.868 92.8347 123.746 93.1807 124.67 93.4111C125.595 93.6412 126.569 93.7568 127.592 93.7568V93.7568ZM169.313 70.0337V96.0926C169.313 96.1487 169.267 96.1945 169.211 96.1945H166.941C166.905 96.1945 166.874 96.1762 166.856 96.149L150.29 75.24V96.0926C150.29 96.1487 150.245 96.1945 150.188 96.1945H147.433C147.377 96.1945 147.332 96.1487 147.332 96.0926V70.0337C147.332 69.9775 147.377 69.9318 147.433 69.9318H149.704C149.737 69.9318 149.766 69.9473 149.785 69.9715L166.392 90.8865V70.034C166.392 69.9778 166.437 69.9321 166.494 69.9321H169.211C169.267 69.9321 169.313 69.9778 169.313 70.034V70.0337Z" fill="#2A2A29"/>
<path d="M23.7133 124.649C23.583 124.649 23.4772 124.543 23.4772 124.413C23.4772 124.283 23.583 124.177 23.7133 124.177V124.649V124.649ZM166.287 124.649H23.7133V124.177H166.287V124.649ZM166.287 124.177C166.417 124.177 166.523 124.283 166.523 124.413C166.523 124.543 166.417 124.649 166.287 124.649V124.177V124.177Z" fill="#C29569"/>
</svg>
