<svg width="243" height="147" viewBox="0 0 243 147" fill="none" xmlns="http://www.w3.org/2000/svg">
<path d="M102.314 107.614C109.526 107.269 115.174 100.9 116.938 93.8962C118.701 86.895 117.235 79.526 115.644 72.4843C114.578 67.7619 113.431 62.9862 111.096 58.746C108.503 54.0337 103.631 49.8417 98.307 50.6156C96.3911 50.8948 94.6276 51.7905 92.7726 52.3488C87.563 53.9145 81.9652 52.7446 76.5323 53.0289C71.0994 53.3131 64.928 55.98 63.8673 61.314C63.0934 65.204 65.329 68.9926 67.4681 72.332C69.7367 75.8719 72.0078 79.4118 74.2764 82.9517C77.0728 87.3137 79.8945 91.7062 83.2542 95.6369C84.6144 97.228 85.9364 98.8494 87.2585 100.468C89.5778 103.31 94.6022 107.982 102.314 107.614Z" fill="#F4E5D5"/>
<path d="M141.765 17.6176C142.118 23.086 143.021 28.5773 142.296 34.0254C141.177 42.4349 135.645 49.6364 130.856 56.8025C126.068 63.9685 121.711 72.2943 123.348 80.5819C123.929 83.5204 125.444 86.4893 128.205 87.8317C132.036 89.6968 136.667 87.8698 140.585 86.0529C149.117 82.0968 158.023 77.8464 163.548 70.4215C165.788 67.4095 167.367 63.999 168.93 60.619C171.107 55.9042 173.284 51.1894 175.461 46.4772C177.311 42.4704 179.187 38.3824 179.666 34.0406C180.542 26.1285 176.72 18.5895 173.005 11.5554C171.394 8.50777 169.724 5.38405 167.055 3.13831C161.675 -1.38615 152.547 -0.962377 147.485 4.04675C147.487 4.04675 141.306 10.5048 141.765 17.6176Z" fill="#F7DAD0"/>
<path d="M158.374 41.1657C153.968 41.1657 152.07 39.8107 151.436 39.1915C151.246 39.0063 151.142 38.7576 151.149 38.5089C151.248 35.9358 154.207 34.4387 155.96 33.7764C159.165 32.566 163.667 32.1955 165.004 33.5987C166.083 34.733 166.06 36.3748 164.936 38.1004C163.768 39.8944 161.723 41.0287 159.46 41.1353C159.082 41.1581 158.719 41.1657 158.374 41.1657ZM151.647 38.5292C151.641 38.6358 151.692 38.7474 151.781 38.8363C152.421 39.458 154.443 40.879 159.437 40.643C161.54 40.544 163.439 39.4935 164.52 37.8339C164.986 37.1158 165.933 35.3014 164.644 33.9464C163.578 32.8248 159.523 32.9669 156.138 34.2458C153.347 35.2964 151.71 36.8595 151.647 38.5292Z" fill="black"/>
<path d="M129.781 110.771C121.574 110.771 112.513 106.039 104.555 100.966C99.2893 99.7987 94.7547 96.7562 90.7758 91.742C90.7682 91.7319 90.7581 91.7217 90.7504 91.7115C90.5271 91.572 90.3114 91.435 90.0958 91.303C82.6709 86.7329 74.703 75.6793 74.873 70.1804C74.9161 68.7924 75.4541 67.8103 76.4716 67.2698C76.8599 67.0618 77.2583 67.0262 77.6516 67.1658C79.1665 67.7012 80.4937 70.8148 82.3283 75.1286C84.4243 80.0515 87.0482 86.2178 91.022 91.2954C92.6891 92.351 94.5796 93.6502 96.7264 95.1271C99.1954 96.8247 101.898 98.6822 104.74 100.497C105.907 100.75 107.13 100.918 108.419 100.984C122.719 101.72 128.108 100.235 131.674 99.2506C134.046 98.5959 135.614 98.1646 138.408 98.7609C139.644 99.172 140.344 100.552 140.169 102.118C141.217 101.349 142.042 100.453 142.443 99.3876C142.945 98.0529 142.76 96.5836 141.877 94.9013C141.04 94.9495 140.136 94.886 139.192 94.7084C135.609 94.4369 130.826 93.2468 125.954 85.8879C125.865 85.7534 125.855 85.5808 125.926 85.4362C125.931 85.4235 125.939 85.4133 125.946 85.4007C125.804 85.1976 125.662 84.9921 125.525 84.7815C125.429 84.6343 125.398 84.4542 125.444 84.2841C125.49 84.1141 125.606 83.972 125.766 83.8933L125.85 83.8527C126.033 83.7639 126.215 83.6726 126.401 83.5838C126.159 83.4645 125.987 83.3376 125.893 83.2057C125.774 83.0382 125.746 82.8504 125.812 82.6652C126.644 80.3382 141.233 76.7907 144.455 77.6307C144.98 77.7677 145.341 77.7398 145.534 77.5469C146.039 77.0343 145.567 75.3063 145.189 73.9182C144.991 73.195 144.803 72.5099 144.717 71.9339C143.806 72.3602 143.285 72.5733 142.989 72.2942C142.732 72.0506 142.869 71.6014 143.034 71.1929C143.07 71.1041 143.143 70.9264 143.098 70.7006C142.874 70.6905 142.626 70.6854 142.352 70.6828C141.164 70.6702 139.687 70.6524 138.317 69.8784C138.096 69.7541 137.421 69.3709 137.657 68.9142C138.01 68.2265 140.646 68.4904 142.169 69.1882C142.879 69.5156 143.263 69.8784 143.45 70.2286C144.214 70.3022 144.841 70.523 145.087 71.2132C146.45 70.5788 148.345 69.7769 150.084 70.0662C151.695 70.3352 152.966 70.0586 153.76 69.2669C154.509 68.5209 154.796 67.3358 154.567 65.9249C154.522 65.6458 154.446 65.1941 154.347 64.6054C153.339 58.6574 150.279 40.557 151.378 36.8141C151.776 35.4616 153.372 34.2715 155.856 33.4366C155.017 32.8961 154.479 32.4952 154.463 31.9598C154.451 31.5588 154.74 31.1706 155.395 30.6986C157.945 28.8614 168.082 24.6465 171.074 26.06C171.295 20.0181 169.727 12.2303 169.704 12.1212L170.191 12.0222C170.321 12.6541 173.322 27.5647 170.153 32.145C169.684 32.8225 169.237 33.3808 168.823 33.8604C168.938 33.9568 169.042 34.0558 169.138 34.1624L169.179 34.2055L169.194 34.2639C169.219 34.3578 169.204 34.5075 169.08 34.642C168.884 34.8551 168.443 34.982 167.758 35.0226C166.075 36.7964 165.23 37.687 165.474 42.8307C165.786 49.3877 164.487 55.729 161.259 63.395C158.358 70.2794 151.718 84.7308 148.833 89.8211C148.16 91.0087 147.607 92.6961 146.967 94.6475C144.813 101.215 141.864 110.205 130.798 110.753C130.463 110.764 130.123 110.771 129.781 110.771ZM105.887 101.22C113.852 106.198 122.807 110.644 130.775 110.251C141.502 109.721 144.389 100.918 146.498 94.4876C147.148 92.5109 147.706 90.8031 148.404 89.5724C151.281 84.4973 157.909 70.0738 160.805 63.1996C164.002 55.6072 165.291 49.3319 164.982 42.8535C164.743 37.857 165.555 36.6492 167.065 35.0353C165.715 35.015 163.728 34.7638 161.117 34.2867C159.866 34.0583 158.726 33.9924 157.739 34.0786C157.983 34.2487 158.234 34.4339 158.493 34.6344C159.439 35.3703 160.036 36.3041 160.132 37.1948C160.201 37.8342 160.01 38.4483 159.579 38.9685C158.328 40.4783 155.823 40.8564 154.329 39.7628C153.255 38.9787 152.875 37.3901 153.443 36.0706C153.897 35.015 154.745 34.3806 155.727 34.0127C153.588 34.7815 152.19 35.8295 151.857 36.9562C151.149 39.3669 152.152 48.6417 154.839 64.5242C154.938 65.1154 155.017 65.5671 155.06 65.8488C155.313 67.4221 154.978 68.7619 154.113 69.6221C153.2 70.5306 151.781 70.8554 150.005 70.5585C148.366 70.287 146.566 71.0736 145.194 71.7156C145.26 72.284 145.46 73.0174 145.673 73.7913C146.13 75.4611 146.602 77.1866 145.894 77.9022C145.569 78.2295 145.046 78.3031 144.339 78.1179C141.121 77.278 126.951 80.9828 126.289 82.8377C126.281 82.8555 126.276 82.8758 126.309 82.924C126.408 83.0636 126.634 83.1955 126.969 83.3199C133.909 79.9957 142.26 76.8085 145.085 79.0644C145.612 79.3587 146.176 79.0771 146.83 78.7497C147.691 78.3184 148.764 77.7829 149.842 78.8614C151.06 80.0794 151.185 82.6855 150.53 84.2613C150.185 85.0961 149.657 85.558 149.046 85.558C149.018 85.558 148.637 85.5554 147.993 85.5428C148.191 85.8904 148.307 86.4106 148.322 87.0678C148.391 89.6917 146.899 93.7873 143.377 94.683C143.07 94.7617 142.75 94.8201 142.418 94.8607C143.275 96.5837 143.443 98.1646 142.915 99.5678C142.42 100.88 141.357 101.94 140.037 102.824C139.4 105.123 136.845 107.554 131.458 107.348C131.146 107.335 130.9 107.122 130.844 106.815C130.791 106.513 130.945 106.231 131.23 106.115C131.841 105.863 132.562 105.605 133.32 105.328C135.302 104.61 137.716 103.737 139.601 102.519C139.616 102.458 139.629 102.395 139.639 102.334C139.9 100.895 139.329 99.5983 138.281 99.2481C135.632 98.6847 134.112 99.1034 131.811 99.7378C128.212 100.73 122.777 102.227 108.399 101.489C107.544 101.438 106.707 101.349 105.887 101.22ZM139.362 103.242C137.523 104.328 135.328 105.123 133.493 105.787C132.737 106.061 132.024 106.32 131.42 106.566C131.328 106.604 131.328 106.678 131.334 106.721C131.339 106.749 131.364 106.84 131.476 106.846C136.122 107.021 138.53 105.176 139.362 103.242ZM92.0624 92.5616C94.9983 95.9645 98.6245 98.7431 103.217 100.106C100.83 98.5503 98.5534 96.9871 96.4473 95.5382C94.8461 94.4369 93.3895 93.4371 92.0624 92.5616ZM139.175 94.2085C139.786 94.2567 140.362 94.277 140.898 94.2973C141.291 94.31 141.664 94.3252 142.017 94.3455L142.154 94.3531L142.171 94.3836C142.55 94.3455 142.912 94.2846 143.258 94.1958C146.516 93.3686 147.891 89.5343 147.828 87.0754C147.802 86.0883 147.541 85.596 147.295 85.5453C147.267 85.5377 147.239 85.5301 147.208 85.5225C146.577 85.5098 145.805 85.492 144.937 85.4692C144.341 85.5732 143.747 85.7483 143.141 85.9285C141.57 86.3903 139.946 86.8674 138.053 86.2355C135.234 85.2966 128.829 85.5478 126.756 85.6595C130.384 90.5544 135.165 93.4295 139.175 94.2085ZM128.839 88.8391C131.059 91.3208 133.214 92.653 135.191 93.3787C133.039 92.3637 130.846 90.8463 128.839 88.8391ZM77.1821 67.582C77.0248 67.582 76.87 67.6251 76.7076 67.7088C75.8575 68.1631 75.4084 68.9979 75.3729 70.1982C75.2105 75.4458 82.7216 85.9285 89.8953 90.5874C86.264 85.6341 83.8458 79.9551 81.8741 75.324C80.1562 71.2868 78.7986 68.0996 77.4892 67.6353C77.3877 67.5997 77.2836 67.582 77.1821 67.582ZM131.016 85.0429C133.589 85.0429 136.492 85.1926 138.208 85.7661C139.956 86.3472 141.502 85.8929 142.999 85.4514C143.042 85.4387 143.085 85.426 143.128 85.4134C137.672 85.2256 129.986 84.7942 127.035 83.8324C126.718 83.9847 126.398 84.1395 126.073 84.2994L125.989 84.34C125.949 84.3603 125.934 84.3958 125.929 84.4136C125.923 84.4313 125.918 84.4694 125.944 84.5074C126.096 84.7358 126.248 84.9617 126.406 85.1824C127.324 85.1266 129.078 85.0429 131.016 85.0429ZM147.307 85.0352C148.005 85.0479 148.594 85.053 149.043 85.053C149.579 85.053 149.914 84.4339 150.068 84.0634C150.66 82.6373 150.538 80.2545 149.487 79.2065C148.662 78.3818 147.914 78.7548 147.049 79.1862C146.328 79.5465 145.582 79.9195 144.816 79.478L144.783 79.4552C142.75 77.8032 136.7 79.2496 127.669 83.5254C130.986 84.3679 139.367 84.8069 144.869 84.9718C145.655 84.8399 146.465 84.8119 147.307 85.0352ZM143.349 71.9237C143.554 71.9262 144.13 71.6623 144.638 71.4238C144.506 70.995 144.171 70.8173 143.608 70.7412C143.625 70.9874 143.57 71.2107 143.501 71.3781C143.364 71.7156 143.346 71.8679 143.349 71.9237ZM138.134 69.1197C138.172 69.1705 138.281 69.2796 138.571 69.442C139.829 70.155 141.177 70.1703 142.364 70.1829C142.514 70.1855 142.666 70.1855 142.813 70.1906C142.714 70.0891 142.583 69.9825 142.415 69.8759C141.057 69.0182 138.54 68.866 138.134 69.1197ZM157.003 34.1725C155.466 34.4517 154.377 35.1647 153.903 36.2635C153.423 37.3775 153.735 38.7071 154.623 39.3567C155.92 40.3058 158.1 39.9683 159.196 38.6462C159.544 38.225 159.693 37.7556 159.637 37.243C159.554 36.4842 159.026 35.6748 158.186 35.0201C157.777 34.7029 157.374 34.4212 157.003 34.1725ZM158.638 33.5559C159.721 33.5559 160.683 33.698 161.208 33.7944C164.654 34.4263 166.527 34.5608 167.539 34.5329C167.714 34.3476 167.897 34.1522 168.087 33.9441C166.296 32.853 162.477 32.3379 157.859 33.3935C157.577 33.4569 157.303 33.5254 157.036 33.599C157.067 33.6193 157.097 33.6396 157.128 33.6599C157.635 33.5838 158.15 33.5559 158.638 33.5559ZM168.496 34.2309C168.425 34.3121 168.354 34.3882 168.283 34.4643C168.468 34.4314 168.577 34.3908 168.638 34.3578C168.595 34.3146 168.547 34.2715 168.496 34.2309ZM156.405 33.7817C156.245 33.83 156.09 33.8832 155.938 33.934C156.098 33.8807 156.26 33.835 156.425 33.7944C156.417 33.7919 156.41 33.7868 156.405 33.7817ZM162.769 32.343C165.015 32.343 167.113 32.7084 168.428 33.561C168.839 33.0865 169.278 32.5383 169.747 31.8583C170.549 30.6986 170.93 28.7954 171.054 26.6131C168.945 25.1058 158.83 28.8386 155.692 31.0995C155.204 31.4497 154.961 31.7339 154.966 31.9446C154.976 32.282 155.626 32.6957 156.45 33.2209C156.46 33.226 156.471 33.2336 156.478 33.2387C156.882 33.1194 157.305 33.0078 157.749 32.9063C159.325 32.5485 161.089 32.343 162.769 32.343Z" fill="black"/>
<path d="M129.281 40.5217C123.817 40.5217 113.702 39.4229 111.239 34.3351C110.097 34.2844 109.399 34.1068 108.983 33.9367C108.835 33.8758 108.754 33.7185 108.792 33.5662C108.83 33.4115 108.97 33.31 109.135 33.3252C109.571 33.3683 110.145 33.2694 110.812 33.0867C110.787 32.9699 110.767 32.8507 110.749 32.7314L110.741 32.673L110.759 32.6172C110.835 32.3863 110.982 32.3051 111.094 32.2746C111.343 32.2112 111.622 32.3508 112.043 32.6959C112.731 32.4548 113.472 32.1681 114.225 31.8762C118.293 30.3004 123.358 28.3414 125 31.795C125.124 32.0564 125.231 32.3051 125.319 32.5462C130.92 33.5713 134.038 38.1846 134.325 38.6287C134.482 38.7733 134.68 39.0677 134.574 39.4001C134.378 40.004 133.292 40.3466 131.161 40.4709C130.63 40.5039 129.994 40.5217 129.281 40.5217ZM111.807 34.3504C114.781 39.7401 127.53 40.1867 131.125 39.9761C133.772 39.8213 134.064 39.3443 134.094 39.2504C134.135 39.1311 133.972 38.989 133.97 38.9865L133.917 38.9256C133.879 38.8647 130.943 34.226 125.492 33.0943C126.032 34.967 125.517 36.1444 124.916 36.8346C123.67 38.2683 121.074 38.682 118.455 37.8623C116.27 37.1797 114.398 35.5481 113.071 34.3123C112.606 34.3402 112.185 34.3504 111.807 34.3504ZM113.753 34.2641C115.017 35.4161 116.702 36.794 118.608 37.3878C121.041 38.1491 123.429 37.7964 124.545 36.5098C125.289 35.6547 125.421 34.4493 124.944 32.9928C123.508 32.7644 121.906 32.7847 120.148 33.1856C117.453 33.8022 115.367 34.1245 113.753 34.2641ZM111.566 33.8454C111.865 33.8505 112.198 33.8505 112.563 33.8352C112.35 33.6373 112.134 33.4343 111.934 33.2592C111.756 33.3201 111.584 33.3759 111.414 33.4292C111.459 33.5713 111.51 33.7109 111.566 33.8454ZM110.213 33.7413C110.444 33.7769 110.713 33.8048 111.023 33.8251C110.992 33.7413 110.964 33.6576 110.937 33.5713C110.683 33.6398 110.442 33.6982 110.213 33.7413ZM112.472 33.074C112.639 33.2262 112.824 33.4013 113.035 33.5967C113.106 33.6627 113.18 33.7312 113.253 33.8022C114.882 33.6906 117.082 33.3785 120.039 32.7035C121.754 32.3102 123.325 32.2696 124.748 32.4599C124.688 32.3127 124.622 32.163 124.551 32.0133C123.107 28.9758 118.483 30.7648 114.405 32.3432C113.728 32.6045 113.078 32.8557 112.472 33.074ZM111.256 32.7669C111.266 32.8278 111.277 32.8862 111.289 32.9471C111.35 32.9293 111.411 32.909 111.474 32.8887C111.386 32.8253 111.312 32.7847 111.256 32.7669Z" fill="black"/>
<path d="M133.906 38.8974C130.625 31.6426 125.111 30.3078 122.368 30.6605C119.978 30.9701 115.961 29.6328 114.958 28.1966C114.613 27.7018 114.692 27.3034 114.821 27.0572C115.392 25.9635 118.222 25.4103 123.236 25.4103C125.431 25.4103 127.408 25.5245 129.179 25.7199C121.658 21.4492 107.993 25.8493 107.853 25.895L107.699 25.423C107.734 25.4103 111.307 24.2507 115.771 23.6747C119.907 23.1418 125.682 23.0149 129.694 25.4459C129.935 25.593 130.171 25.7351 130.405 25.8747C139.022 27.0775 142.374 30.2672 142.417 31.2213C142.43 31.4852 142.257 31.6781 141.989 31.7009C140.39 31.8456 136.332 29.9982 130.235 26.3518C128.197 26.0726 125.873 25.9077 123.236 25.9077C116.689 25.9077 115.479 26.872 115.263 27.2881C115.227 27.3566 115.121 27.5596 115.367 27.9124C116.199 29.1076 119.93 30.4753 122.305 30.1683C125.185 29.7978 130.958 31.1757 134.361 38.6944L133.906 38.8974ZM131.552 26.5522C138.606 30.691 141.065 31.2695 141.917 31.2061C141.897 31.1249 141.821 30.9524 141.59 30.6884C140.484 29.4247 137.322 27.5343 131.552 26.5522Z" fill="black"/>
<path d="M0.806763 145.909V131.602H1.5122V145.264H10.2769V145.909H0.806763Z" fill="black"/>
<path d="M21.942 145.264V145.909H12.4922V131.602H21.7619V132.246H13.1976V138.271H20.6936V138.915H13.1976V145.261H21.942V145.264Z" fill="black"/>
<path d="M25.5884 132.911V145.909H24.883V131.602H25.4463L35.9239 144.8V131.602H36.6293V145.909H35.9036L25.5884 132.911Z" fill="black"/>
<path d="M40.4992 145.909V131.602H45.1734C46.6781 131.602 47.9266 131.922 48.9213 132.558C49.9161 133.198 50.6646 134.056 51.1671 135.137C51.6721 136.218 51.9233 137.418 51.9233 138.732C51.9233 140.184 51.6467 141.445 51.096 142.521C50.5454 143.597 49.7638 144.429 48.7488 145.02C47.7338 145.612 46.5437 145.906 45.1734 145.906H40.4992V145.909ZM51.2204 138.735C51.2204 137.486 50.9844 136.37 50.5149 135.39C50.0455 134.411 49.3629 133.642 48.4697 133.084C47.5764 132.525 46.4777 132.246 45.1759 132.246H41.2072V145.264H45.1759C46.4929 145.264 47.5993 144.98 48.5001 144.406C49.4009 143.835 50.0785 143.054 50.5352 142.059C50.992 141.064 51.2204 139.958 51.2204 138.735Z" fill="black"/>
<path d="M64.2964 145.264V145.909H54.8466V131.602H64.1162V132.246H55.552V138.271H63.0479V138.915H55.552V145.261H64.2964V145.264Z" fill="black"/>
<path d="M67.2374 145.909V131.602H67.9428V145.264H76.7075V145.909H67.2374Z" fill="black"/>
<path d="M93.0089 138.633C93.0089 137.773 93.1612 136.923 93.4631 136.086C93.7651 135.246 94.2041 134.479 94.7827 133.789C95.3612 133.096 96.0692 132.543 96.9091 132.127C97.7491 131.711 98.7057 131.503 99.7816 131.503C101.058 131.503 102.142 131.794 103.035 132.378C103.928 132.962 104.59 133.71 105.019 134.624L104.415 134.906C104.065 134.233 103.634 133.695 103.116 133.294C102.598 132.891 102.048 132.601 101.464 132.429C100.88 132.254 100.292 132.168 99.7004 132.168C98.7463 132.168 97.8962 132.355 97.1527 132.731C96.4067 133.106 95.7799 133.611 95.2699 134.241C94.7598 134.873 94.3741 135.575 94.1102 136.347C93.8488 137.118 93.7169 137.902 93.7169 138.694C93.7169 139.58 93.8717 140.42 94.1813 141.214C94.4908 142.006 94.9172 142.711 95.4602 143.33C96.0032 143.949 96.6427 144.439 97.3735 144.802C98.1043 145.165 98.9011 145.345 99.7613 145.345C100.365 145.345 100.984 145.244 101.616 145.043C102.248 144.843 102.839 144.525 103.39 144.097C103.941 143.668 104.385 143.117 104.72 142.445L105.344 142.686C105.022 143.399 104.552 144.003 103.933 144.5C103.314 144.997 102.634 145.373 101.888 145.629C101.142 145.886 100.406 146.012 99.6827 146.012C98.7159 146.012 97.8226 145.802 97.003 145.378C96.1834 144.954 95.4754 144.391 94.8765 143.685C94.2777 142.98 93.8184 142.188 93.4961 141.308C93.1738 140.427 93.0089 139.534 93.0089 138.633Z" fill="black"/>
<path d="M113.54 146.007C112.546 146.007 111.64 145.802 110.82 145.393C110 144.985 109.295 144.437 108.704 143.751C108.112 143.066 107.656 142.29 107.333 141.425C107.011 140.559 106.849 139.669 106.849 138.755C106.849 137.801 107.016 136.89 107.354 136.025C107.689 135.159 108.163 134.385 108.775 133.708C109.386 133.03 110.097 132.492 110.911 132.096C111.723 131.701 112.601 131.503 113.54 131.503C114.535 131.503 115.441 131.711 116.26 132.127C117.08 132.543 117.78 133.101 118.367 133.799C118.95 134.497 119.405 135.276 119.727 136.136C120.049 136.996 120.211 137.869 120.211 138.755C120.211 139.722 120.044 140.638 119.709 141.506C119.374 142.371 118.902 143.145 118.298 143.823C117.694 144.5 116.984 145.035 116.172 145.424C115.357 145.814 114.479 146.007 113.54 146.007ZM107.557 138.755C107.557 139.615 107.704 140.437 108.001 141.224C108.295 142.011 108.709 142.711 109.239 143.33C109.769 143.949 110.401 144.439 111.132 144.802C111.863 145.165 112.667 145.345 113.54 145.345C114.426 145.345 115.24 145.157 115.979 144.782C116.717 144.406 117.349 143.901 117.872 143.272C118.395 142.64 118.798 141.935 119.08 141.156C119.361 140.377 119.503 139.577 119.503 138.758C119.503 137.897 119.356 137.075 119.059 136.289C118.763 135.502 118.346 134.802 117.811 134.182C117.273 133.566 116.639 133.073 115.908 132.711C115.174 132.348 114.385 132.168 113.54 132.168C112.639 132.168 111.825 132.355 111.091 132.731C110.358 133.106 109.731 133.611 109.209 134.241C108.686 134.873 108.277 135.578 107.991 136.357C107.701 137.136 107.557 137.935 107.557 138.755Z" fill="black"/>
<path d="M131.371 133.718C131.102 133.436 130.828 133.195 130.544 132.992C130.263 132.792 129.961 132.629 129.638 132.508C129.316 132.386 128.973 132.297 128.611 132.236C128.248 132.175 127.852 132.145 127.423 132.145C125.906 132.145 124.804 132.434 124.119 133.01C123.434 133.589 123.091 134.36 123.091 135.327C123.091 135.984 123.239 136.502 123.535 136.877C123.83 137.253 124.302 137.552 124.946 137.773C125.591 137.994 126.423 138.212 127.446 138.428C128.494 138.643 129.4 138.892 130.166 139.174C130.932 139.455 131.524 139.839 131.94 140.323C132.356 140.808 132.564 141.473 132.564 142.318C132.564 142.922 132.447 143.457 132.211 143.919C131.975 144.383 131.638 144.769 131.194 145.079C130.75 145.388 130.217 145.619 129.593 145.774C128.968 145.929 128.273 146.005 127.507 146.005C126.74 146.005 126.03 145.929 125.37 145.774C124.713 145.619 124.094 145.381 123.515 145.058C122.937 144.736 122.394 144.325 121.884 143.83L122.307 143.307C122.63 143.658 122.982 143.962 123.365 144.224C123.749 144.485 124.157 144.703 124.594 144.878C125.03 145.053 125.494 145.183 125.984 145.272C126.474 145.358 126.989 145.403 127.525 145.403C128.867 145.403 129.925 145.152 130.699 144.647C131.47 144.142 131.859 143.401 131.859 142.422C131.859 141.737 131.691 141.189 131.356 140.78C131.021 140.372 130.509 140.034 129.826 139.773C129.141 139.511 128.268 139.273 127.207 139.057C126.172 138.841 125.297 138.608 124.578 138.352C123.86 138.098 123.315 137.74 122.947 137.283C122.576 136.827 122.394 136.21 122.394 135.431C122.394 134.583 122.602 133.87 123.018 133.284C123.434 132.7 124.018 132.256 124.771 131.954C125.522 131.652 126.403 131.5 127.41 131.5C128.027 131.5 128.593 131.561 129.103 131.68C129.613 131.802 130.087 131.982 130.524 132.223C130.96 132.465 131.374 132.787 131.762 133.19L131.371 133.718Z" fill="black"/>
<path d="M148.419 145.909V133.013L142.415 143.148H141.93L135.926 133.013V145.909H135.221V131.602H135.865L142.171 142.242L148.477 131.602H149.122V145.909H148.419Z" fill="black"/>
<path d="M162.441 145.264V145.909H152.991V131.602H162.261V132.246H153.697V138.271H161.193V138.915H153.697V145.261H162.441V145.264Z" fill="black"/>
<path d="M175.238 132.246H169.879V145.909H169.173V132.246H163.814V131.602H175.238V132.246Z" fill="black"/>
<path d="M182.592 146.007C181.597 146.007 180.691 145.802 179.872 145.393C179.052 144.985 178.347 144.437 177.755 143.751C177.164 143.066 176.707 142.29 176.385 141.425C176.063 140.559 175.901 139.669 175.901 138.755C175.901 137.801 176.068 136.89 176.405 136.025C176.74 135.159 177.215 134.385 177.827 133.708C178.438 133.03 179.149 132.492 179.963 132.096C180.775 131.701 181.653 131.503 182.592 131.503C183.587 131.503 184.493 131.711 185.312 132.127C186.132 132.543 186.832 133.101 187.418 133.799C188.002 134.497 188.456 135.276 188.779 136.136C189.101 136.996 189.263 137.869 189.263 138.755C189.263 139.722 189.096 140.638 188.761 141.506C188.426 142.371 187.954 143.145 187.35 143.823C186.746 144.5 186.035 145.035 185.223 145.424C184.409 145.814 183.531 146.007 182.592 146.007ZM176.608 138.755C176.608 139.615 176.756 140.437 177.053 141.224C177.347 142.011 177.761 142.711 178.291 143.33C178.821 143.949 179.453 144.439 180.184 144.802C180.915 145.165 181.719 145.345 182.592 145.345C183.478 145.345 184.292 145.157 185.031 144.782C185.769 144.406 186.401 143.901 186.924 143.272C187.446 142.64 187.85 141.935 188.132 141.156C188.413 140.377 188.555 139.577 188.555 138.758C188.555 137.897 188.408 137.075 188.111 136.289C187.814 135.502 187.398 134.802 186.863 134.182C186.325 133.566 185.69 133.073 184.96 132.711C184.226 132.348 183.437 132.168 182.592 132.168C181.691 132.168 180.877 132.355 180.143 132.731C179.41 133.106 178.783 133.611 178.26 134.241C177.738 134.873 177.329 135.578 177.042 136.357C176.751 137.136 176.608 137.935 176.608 138.755Z" fill="black"/>
<path d="M192.123 145.909V131.602H192.828V145.264H201.593V145.909H192.123Z" fill="black"/>
<path d="M208.686 146.007C207.691 146.007 206.785 145.802 205.965 145.393C205.146 144.985 204.44 144.437 203.849 143.751C203.258 143.066 202.801 142.29 202.479 141.425C202.157 140.559 201.994 139.669 201.994 138.755C201.994 137.801 202.162 136.89 202.499 136.025C202.834 135.159 203.309 134.385 203.92 133.708C204.532 133.03 205.242 132.492 206.057 132.096C206.869 131.701 207.747 131.503 208.686 131.503C209.68 131.503 210.586 131.711 211.406 132.127C212.226 132.543 212.928 133.101 213.512 133.799C214.096 134.497 214.55 135.276 214.872 136.136C215.194 136.996 215.357 137.869 215.357 138.755C215.357 139.722 215.189 140.638 214.852 141.506C214.517 142.371 214.048 143.145 213.441 143.823C212.837 144.5 212.129 145.035 211.315 145.424C210.503 145.814 209.625 146.007 208.686 146.007ZM202.702 138.755C202.702 139.615 202.849 140.437 203.146 141.224C203.441 142.011 203.854 142.711 204.387 143.33C204.917 143.949 205.549 144.439 206.28 144.802C207.011 145.165 207.815 145.345 208.688 145.345C209.574 145.345 210.388 145.157 211.127 144.782C211.865 144.406 212.497 143.901 213.02 143.272C213.543 142.64 213.946 141.935 214.23 141.156C214.512 140.377 214.654 139.577 214.654 138.758C214.654 137.897 214.507 137.075 214.21 136.289C213.913 135.502 213.497 134.802 212.961 134.182C212.423 133.566 211.789 133.073 211.058 132.711C210.325 132.348 209.536 132.168 208.691 132.168C207.79 132.168 206.975 132.355 206.242 132.731C205.509 133.106 204.882 133.611 204.359 134.241C203.836 134.873 203.428 135.578 203.141 136.357C202.844 137.136 202.702 137.935 202.702 138.755Z" fill="black"/>
<path d="M223.939 146.007C222.959 146.007 222.059 145.799 221.239 145.383C220.419 144.967 219.709 144.409 219.102 143.711C218.498 143.013 218.032 142.234 217.702 141.374C217.372 140.514 217.209 139.641 217.209 138.755C217.209 137.814 217.372 136.91 217.694 136.045C218.016 135.18 218.471 134.403 219.054 133.718C219.638 133.033 220.331 132.492 221.13 132.096C221.929 131.701 222.805 131.503 223.759 131.503C225.21 131.503 226.367 131.794 227.235 132.378C228.101 132.962 228.763 133.71 229.22 134.624L228.616 134.926C228.106 133.946 227.433 133.241 226.601 132.81C225.769 132.381 224.814 132.165 223.738 132.165C222.853 132.165 222.048 132.35 221.33 132.718C220.612 133.089 219.998 133.589 219.488 134.218C218.978 134.85 218.587 135.558 218.318 136.344C218.049 137.131 217.915 137.933 217.915 138.752C217.915 139.625 218.07 140.458 218.379 141.252C218.689 142.044 219.12 142.749 219.678 143.368C220.237 143.985 220.881 144.47 221.612 144.82C222.343 145.17 223.135 145.342 223.98 145.342C224.934 145.342 225.84 145.112 226.7 144.647C227.56 144.183 228.385 143.449 229.179 142.442V143.287C227.7 145.101 225.954 146.007 223.939 146.007ZM228.935 139.641H225.631V139.037H229.58V145.908H228.935V139.641Z" fill="black"/>
<path d="M231.354 131.602L236.614 139.722L241.913 131.602H242.699L236.977 140.427V145.909H236.272V140.387L230.57 131.602H231.354Z" fill="black"/>
<path d="M91.0547 145.254H79.4454V145.916H91.0547V145.254Z" fill="black"/>
</svg>
