<svg width="190" height="168" viewBox="0 0 190 168" fill="none" xmlns="http://www.w3.org/2000/svg">
<path d="M52.4405 161.087H47.1005V157.341H45.9196V166.705H47.1005V162.155H52.4405V166.705H53.6215V157.341H52.4405V161.087Z" fill="#5F805E"/>
<path d="M64.153 162.825H61.1844L62.6664 159.454L64.153 162.825ZM58.1601 166.705H59.4754L60.7073 163.893H64.6208L65.8574 166.705H67.1773L62.6664 156.874L58.1601 166.705Z" fill="#5F805E"/>
<path d="M79.0706 164.309L71.7161 156.874V166.705H72.8924V159.736L80.2469 167.172V157.341H79.0706V164.309Z" fill="#5F805E"/>
<path d="M92.1541 163.496C91.9781 163.93 91.728 164.305 91.4039 164.61C91.0797 164.92 90.6953 165.156 90.2414 165.318C89.7875 165.484 89.2873 165.567 88.7408 165.567H87.0087V158.479H88.7408C89.2873 158.479 89.7875 158.562 90.2414 158.728C90.6953 158.895 91.0797 159.126 91.4039 159.436C91.728 159.746 91.9781 160.116 92.1541 160.55C92.3301 160.989 92.4181 161.48 92.4181 162.021C92.4181 162.566 92.3301 163.056 92.1541 163.496ZM91.2556 157.933C90.5239 157.54 89.6856 157.341 88.7408 157.341H87.0087H86.4808H85.8278V166.705H86.4808H87.0087H88.7408C89.6856 166.705 90.5239 166.506 91.2556 166.118C91.9828 165.725 92.557 165.179 92.9739 164.476C93.3907 163.778 93.5991 162.959 93.5991 162.021C93.5991 161.087 93.3907 160.268 92.9739 159.57C92.557 158.872 91.9828 158.321 91.2556 157.933Z" fill="#5F805E"/>
<path d="M103.13 163.653L99.2447 156.874L98.0637 166.705H99.2447L99.9672 160.379L103.13 165.835L106.294 160.379L107.016 166.705H108.192L107.016 156.874L103.13 163.653Z" fill="#5F805E"/>
<path d="M118.173 162.825H115.204L116.686 159.454L118.173 162.825ZM112.18 166.705H113.495L114.727 163.893H118.641L119.877 166.705H121.197L116.686 156.874L112.18 166.705Z" fill="#5F805E"/>
<path d="M132.062 163.496C131.886 163.93 131.636 164.305 131.312 164.61C130.988 164.92 130.599 165.156 130.145 165.318C129.691 165.484 129.191 165.567 128.649 165.567H126.912V158.479H128.649C129.191 158.479 129.691 158.562 130.145 158.728C130.599 158.895 130.988 159.126 131.312 159.436C131.636 159.746 131.886 160.116 132.062 160.55C132.233 160.989 132.326 161.48 132.326 162.021C132.326 162.566 132.233 163.056 132.062 163.496ZM131.159 157.933C130.427 157.54 129.594 157.341 128.649 157.341H126.912H126.384H125.736V166.705H126.384H126.912H128.649C129.594 166.705 130.427 166.506 131.159 166.118C131.891 165.725 132.465 165.179 132.877 164.476C133.299 163.778 133.507 162.959 133.507 162.021C133.507 161.087 133.299 160.268 132.877 159.57C132.465 158.872 131.891 158.321 131.159 157.933Z" fill="#5F805E"/>
<path d="M144.076 158.414V157.341H139.709H139.181H138.528V166.705H139.181H139.709H144.076V165.632H139.709V162.155H143.803V161.087H139.709V158.414H144.076Z" fill="#5F805E"/>
<path d="M1.94052 118.67H0V137.217H3.07983V128.848H9.98513V126.119H3.07983V121.482H10.2491V118.67H3.07983H1.94052Z" fill="#5F805E"/>
<path d="M27.1581 129.8H22.0915L24.6155 123.919L27.1581 129.8ZM15.5335 137.217H19.0672L21.1837 132.45H28.0334L30.1685 137.217H33.7253L24.6155 117.639L15.5335 137.217Z" fill="#5F805E"/>
<path d="M50.5093 130.327L42.8861 117.745L40.3389 137.217H43.5762L44.8498 125.93L50.5093 135.497L56.1873 125.93L57.4655 137.217H60.7028L58.1556 117.745L50.5093 130.327Z" fill="#5F805E"/>
<path d="M69.3354 137.217H72.5218V118.67H69.3354V137.217Z" fill="#5F805E"/>
<path d="M85.3182 118.67H82.1874V137.217H92.7005V134.41H85.3182V118.67Z" fill="#5F805E"/>
<path d="M104.547 126.591L100.245 118.67H96.6603L102.977 129.43V137.217H106.168V129.403L112.458 118.67H108.873L104.547 126.591Z" fill="#5F805E"/>
<path d="M143.307 129.8H138.24L140.769 123.919L143.307 129.8ZM131.682 137.217H135.216L137.333 132.45H144.187L146.317 137.217H149.874L140.769 117.639L131.682 137.217Z" fill="#5F805E"/>
<path d="M160.684 121.375H163.152C163.879 121.375 164.505 121.5 165.037 121.745C165.57 121.995 165.982 122.346 166.283 122.804C166.584 123.266 166.737 123.831 166.737 124.501C166.737 125.153 166.584 125.717 166.283 126.184C165.982 126.651 165.57 127.003 165.037 127.243C164.505 127.479 163.879 127.599 163.152 127.599H160.684V121.375ZM166.816 129.481C167.807 129.005 168.585 128.334 169.141 127.47C169.696 126.605 169.979 125.588 169.979 124.422C169.979 123.253 169.696 122.245 169.141 121.389C168.585 120.534 167.807 119.863 166.816 119.387C165.825 118.911 164.648 118.67 163.282 118.67H160.684H159.41H157.548V137.217H160.684V130.198H162.615L167.293 137.217H171.09L165.829 129.851C166.172 129.745 166.505 129.629 166.816 129.481Z" fill="#5F805E"/>
<path d="M177.042 118.67V121.56H181.951V137.217H185.086V121.56H190V118.67H177.042Z" fill="#5F805E"/>
<path d="M60.466 70.0203C60.466 70.0203 60.466 70.0203 60.4705 70.0203C60.4616 70.0203 60.4571 70.0159 60.4526 70.0159C60.4571 70.0203 60.4616 70.0203 60.466 70.0203Z" fill="#5F805E"/>
<path d="M60.5962 70.0068C60.7305 69.9975 60.8834 70.0021 60.9945 70.0068C60.6147 69.9836 60.5406 69.9929 60.5962 70.0068Z" fill="#5F805E"/>
<path d="M58.2482 14.671C58.2575 14.6617 58.2668 14.6479 58.276 14.634C58.2945 14.6062 58.3131 14.5739 58.3316 14.5415C58.3038 14.5877 58.276 14.6294 58.2482 14.671Z" fill="#5F805E"/>
<path d="M137.828 35.8629C136.138 37.6201 133.799 38.5634 131.451 39.0535C130.048 39.3495 128.834 39.5113 127.357 39.6731C126.81 39.7333 126.259 39.7841 125.708 39.835C126.245 37.2687 126.857 34.7162 127.885 32.3163C128.227 31.5256 128.598 30.7488 129.061 30.0228C131.803 25.6947 134.943 24.8947 135.198 24.8069C135.262 24.8161 135.92 25.0381 136.082 25.1121C136.897 25.4681 137.712 26.0369 138.384 26.7813C139.111 27.5952 139.662 28.4737 139.912 29.5511C140.44 31.8308 139.398 34.226 137.828 35.8629ZM92.4273 38.3923C92.3347 38.3923 92.2236 38.383 92.0985 38.3784C90.7832 38.3183 89.4633 38.2767 88.1434 38.2536C84.0724 38.1935 79.983 38.3368 75.9306 38.8038C76.4771 36.1496 76.8059 33.4584 76.917 30.7395C76.9217 30.5592 76.9263 30.3835 76.9356 30.2077C77.056 30.2124 77.1764 30.217 77.2922 30.217C83.0767 30.3788 88.889 30.0644 94.6133 29.2321C94.9005 29.1905 95.1876 29.1488 95.4748 29.1026C94.9329 32.2747 94.1224 35.3959 93.0479 38.4247C92.8442 38.4154 92.6358 38.4062 92.4273 38.3923ZM89.1947 46.9606C88.8149 47.645 88.4166 48.3201 88.0091 48.986C84.7579 54.2019 80.6453 58.886 75.7963 62.6824C71.9384 65.7065 67.6451 68.2312 62.9304 69.6508C60.5962 70.3583 58.6233 69.8866 56.5809 68.5919C55.1405 67.6763 53.8808 66.4324 53.0148 64.9574C50.9121 61.0686 51.5559 56.2873 53.765 52.5927C56.5901 48.1028 61.2493 44.9492 66.1168 43.1828C71.063 41.384 71.9847 41.2315 72.5173 41.1112C71.6883 45.0648 70.7805 49.0461 69.2476 52.7915C69.2105 52.8886 70.0256 53.2632 70.2572 52.8609C72.4663 49.0553 74.4115 45.1064 75.4721 40.8153C75.4999 40.7043 75.5276 40.5933 75.5554 40.4777C81.0482 39.5437 91.4964 39.6038 92.6033 39.6408C91.6493 42.1563 90.51 44.607 89.1947 46.9606ZM70.5212 28.0761C70.5027 28.0714 70.4841 28.0668 70.4702 28.0622C67.2051 27.0911 64.1161 25.0242 62.5877 21.9076C62.0875 20.8903 61.7819 19.7805 61.7402 18.6477C61.7356 18.5136 61.7356 18.3841 61.7356 18.25C61.7772 15.9981 62.9258 13.2237 65.1488 12.2804C65.6212 12.0815 65.9825 12.0399 66.4873 12.2017C69.7246 13.2514 71.6929 16.2062 72.6423 19.3274C73.1101 20.8718 73.3648 22.4671 73.5223 24.0717C73.5593 24.4462 73.7677 28.7049 73.777 28.7096C73.6473 28.6078 73.3509 28.6402 73.1888 28.6217C72.8832 28.5893 72.5775 28.5431 72.2718 28.4876C71.679 28.3859 71.0955 28.2472 70.5212 28.0761ZM65.8065 12.0445C65.8111 12.0445 65.8158 12.0445 65.8158 12.0445C65.7972 12.0492 65.788 12.0492 65.7833 12.0492C65.7972 12.0492 65.8111 12.0492 65.825 12.0492C65.4499 12.063 65.6675 12.0399 65.8065 12.0445ZM84.4846 6.90723C84.1975 5.28419 84.7486 3.71202 85.8647 2.54213C86.3927 1.98725 87.0365 1.51097 87.7404 1.20116C88.0415 1.06707 88.3194 0.969962 88.5926 0.90985C89.9079 1.09481 91.5659 2.52826 92.1495 3.15251C93.4045 4.4981 94.0807 6.209 94.6504 7.93376C95.007 9.01579 95.2061 9.79725 95.4053 10.9209C94.2336 11.1151 85.3275 11.7208 84.4846 6.90723ZM143.923 27.5536C140.885 22.4949 132.868 22.6428 128.084 24.9363C122.485 27.8402 120.706 34.3601 119.456 40.0616C112.782 40.0662 106.127 39.4466 99.4762 38.9241C100.759 35.3451 101.653 31.6366 102.111 27.868C109.883 26.1525 117.469 23.5029 124.546 19.8222C127.574 18.25 123.749 17.6766 123.504 17.6859C122.6 17.7275 122.786 17.8061 121.957 18.1251C115.547 20.9874 109.142 23.9422 102.324 25.7317C102.69 20.8857 102.482 15.975 101.296 11.2446C112.546 8.95105 120.766 5.58938 128.672 0.891354C128.816 0.803497 128.274 0.71564 128.251 0.71564C128.024 0.69252 127.134 0.563047 126.926 0.683272C122.8 3.02766 117.96 5.48765 113.417 6.85174C105.238 9.30248 100.954 10.0331 100.954 10.0331C100.954 10.0331 100.704 9.21924 100.495 8.64124C98.6796 3.13401 93.1591 -0.643827 87.3097 0.0913953C82.7988 0.479814 78.5982 5.2102 82.3125 9.36259C85.6795 12.9138 91.1213 12.4792 95.5998 12.0677C96.2852 17.0385 96.4612 22.1989 95.7295 27.1513C94.303 27.868 77.1718 29.5881 76.9587 28.8991C76.9541 22.8 76.3566 14.8374 69.9237 12.0122C66.0658 10.5463 60.6611 10.8192 58.276 14.634C55.7982 18.361 57.2432 23.3457 60.6518 25.9629C64.3059 28.9639 69.1874 29.7268 73.7724 30.0598C73.7214 33.1255 73.4158 36.1912 72.8832 39.2154C66.7744 40.1725 60.7352 42.0129 55.4231 45.2266C48.5131 49.4021 41.7329 58.8583 47.9018 66.6174C50.4675 69.845 54.5385 70.9825 58.4844 71.3802C77.3987 72.8599 92.7052 56.2827 99.1011 39.946C105.807 40.4084 112.504 41.0372 119.233 41.028C116.756 52.343 113.764 63.7459 107.956 73.8679C100.226 71.0611 91.5011 71.0103 83.6556 73.387C77.4682 75.2043 66.2789 81.5438 71.8689 89.0764C77.2134 93.7836 85.9111 91.208 91.0565 87.3655C91.3853 87.1435 90.899 86.8892 90.7601 86.8291C89.3846 86.2048 86.5224 86.0014 85.2025 86.8938C83.7343 87.8787 82.2894 88.9515 80.6267 89.5896C78.8761 90.2555 77.7275 89.3261 76.8383 87.8649C75.7314 85.784 76.1112 83.2454 77.2875 81.2802C84.04 72.6102 97.2671 70.853 106.84 75.7453C97.8321 91.1109 77.0745 104.562 59.9479 93.7929C59.9757 93.7513 60.0081 93.705 60.0359 93.6634C61.152 93.6033 61.3882 93.5293 61.3465 92.3271C61.2632 89.8301 57.9795 90.7734 56.655 91.6057C56.0298 91.9987 54.5061 93.0207 54.7654 93.9316C55.0248 94.8287 59.5357 96.4378 60.499 96.7939C78.9687 103.6 100.518 94.6668 111.022 78.3393C115.834 81.9091 119.632 86.8568 121.72 92.4704C122.295 94.0148 122.716 95.6055 123.096 97.2054C123.434 97.8667 127.037 97.9869 127.088 97.2748C127.181 95.9107 127.227 94.542 127.348 93.1733C128.413 80.6421 129.936 68.148 130.784 55.5983C130.793 55.492 130.099 55.4504 130.071 55.5845C127.959 66.7191 126.398 77.9463 124.555 89.1272C121.952 83.731 117.728 79.0653 112.55 76.0643C119.368 65.4059 122.98 53.0829 125.509 40.7875C129.293 40.4777 133.141 40.1124 136.763 38.9148C141.441 37.6155 146.211 32.5938 143.923 27.5536Z" fill="#5F805E"/>
<path d="M92.7099 38.4062C92.7144 38.4062 92.7233 38.4063 92.7277 38.4107C92.7233 38.4063 92.7144 38.4062 92.7099 38.4062Z" fill="#5F805E"/>
<path d="M92.7839 38.4106C92.798 38.4106 92.8073 38.4153 92.8167 38.4153C92.8073 38.4153 92.798 38.4106 92.7839 38.4106Z" fill="#5F805E"/>
<path d="M92.5154 38.3967C92.5524 38.4014 92.5849 38.4014 92.6173 38.406C92.5849 38.4014 92.5524 38.4014 92.5154 38.3967Z" fill="#5F805E"/>
<path d="M77.6257 97.3994C77.7368 97.3717 77.8202 97.3347 77.4543 97.4272C77.459 97.4272 77.4636 97.4272 77.4636 97.4272C77.5145 97.4133 77.5701 97.4041 77.6257 97.3994Z" fill="#5F805E"/>
<path d="M69.0622 97.3258C68.6964 97.2194 68.7983 97.2611 68.9326 97.2981C68.9742 97.3073 69.0113 97.3166 69.053 97.3258C69.0576 97.3258 69.0576 97.3258 69.0622 97.3258Z" fill="#5F805E"/>
</svg>
