<svg width="120" height="54" viewBox="0 0 120 54" fill="none" xmlns="http://www.w3.org/2000/svg">
<path d="M10.0983 13.9265L11.2309 15.5967C10.8061 16.1849 10.2871 16.5848 9.69722 16.7965C9.03661 17.0082 8.28153 17.1964 7.45576 17.314C6.65356 17.4316 5.87496 17.6669 5.14354 17.9727C3.35038 18.8196 2.33583 20.725 2.12348 23.7362H2.17066C2.57177 22.8893 3.20881 22.2306 4.0818 21.7131C4.95478 21.1955 5.89855 20.9368 6.9131 20.9368C8.61187 20.9368 9.95671 21.4778 10.9477 22.56C11.9622 23.6421 12.4578 25.0771 12.4578 26.8649C12.4578 28.5587 11.8678 30.0172 10.7353 31.2169C9.60283 32.3931 8.11643 32.9813 6.32324 32.9813C4.36493 32.9813 2.8313 32.3226 1.69878 31.0052C0.566261 29.6879 0 27.9 0 25.5711C0 20.4192 1.48643 17.2199 4.4357 15.9731C5.09635 15.6673 5.87496 15.4556 6.77153 15.3145C7.45576 15.1733 7.95126 15.0792 8.25799 15.0086C8.56471 14.9381 8.87144 14.8204 9.22533 14.6557C9.57921 14.4676 9.86239 14.2323 10.0983 13.9265ZM2.26504 25.971C2.26504 27.5001 2.61896 28.6998 3.37397 29.6173C4.10539 30.5347 5.07275 31.0052 6.27605 31.0052C7.40858 31.0052 8.35231 30.6053 9.08377 29.829C9.81516 29.0763 10.1927 28.1353 10.1927 26.9826C10.1927 25.7593 9.86239 24.7948 9.17817 24.042C8.49394 23.3128 7.55014 22.9364 6.37043 22.9364C5.2851 22.9364 4.38852 23.2422 3.6571 23.8303C2.90208 24.4419 2.4302 25.1711 2.26504 25.971ZM24.5379 23.8538L17.6249 32.7225H15.5014V20.8192H17.6249V29.6879L24.5379 20.8192H26.6614V32.7225H24.5379V23.8538ZM34.4711 32.9813C33.5509 32.9813 32.6071 32.8401 31.5926 32.5343C30.6252 32.2285 29.941 31.8286 29.5163 31.3816L30.6017 29.782C31.0971 30.1819 31.6634 30.4877 32.324 30.7229C32.9847 30.9582 33.5981 31.0758 34.1408 31.0758C35.0609 31.0758 35.8159 30.9111 36.4059 30.5347C36.9721 30.1819 37.2788 29.7114 37.2788 29.1233C37.2788 28.6293 37.0665 28.2529 36.6418 27.9941C36.2407 27.7118 35.6744 27.5942 34.943 27.5942H32.9139V25.8769H34.8015C35.4149 25.8769 35.9103 25.7122 36.2878 25.3829C36.689 25.0536 36.8777 24.6537 36.8777 24.1832C36.8777 23.6421 36.6418 23.2186 36.1935 22.9128C35.7216 22.607 35.1082 22.4659 34.3296 22.4659C33.079 22.4659 31.8757 22.8893 30.7432 23.7833L29.9175 22.1365C30.3893 21.6425 31.0736 21.2661 31.9229 20.9839C32.7723 20.7015 33.6925 20.5604 34.6363 20.5604C36.0519 20.5604 37.1609 20.8427 37.963 21.4073C38.7417 21.9718 39.1428 22.7481 39.1428 23.7597C39.1428 25.1241 38.4349 26.0651 37.0429 26.5591V26.6062C37.8215 26.7003 38.4349 27.0061 38.8596 27.5236C39.308 28.0411 39.5203 28.6763 39.5203 29.4056C39.5203 30.5112 39.072 31.3816 38.1282 32.0167C37.208 32.6755 35.9811 32.9813 34.4711 32.9813ZM53.6531 32.7225H51.5297V27.6883H44.8997V32.7225H42.7763V20.8192H44.8997V25.7122H51.5297V20.8192H53.6531V32.7225ZM66.9367 29.7584L67.5974 31.4287C66.4413 32.4637 64.9548 32.9813 63.1144 32.9813C61.1561 32.9813 59.6225 32.4167 58.4664 31.2875C57.2867 30.1584 56.6969 28.6528 56.6969 26.7708C56.6969 24.983 57.2631 23.5009 58.3484 22.3247C59.4338 21.1485 60.9438 20.5604 62.8785 20.5604C64.4593 20.5604 65.7806 21.0544 66.8188 22.0895C67.8805 23.101 68.4232 24.3948 68.4232 25.9945C68.4232 26.5121 68.3759 26.9826 68.2816 27.4295H59.1034C59.1978 28.5352 59.599 29.4056 60.354 30.0407C61.109 30.6759 62.0763 31.0052 63.2561 31.0052C64.8132 31.0052 66.0401 30.5818 66.9367 29.7584ZM62.7605 22.5365C61.7224 22.5365 60.8494 22.8187 60.1652 23.4069C59.4809 23.9949 59.0798 24.7477 58.9619 25.7122H66.2053C66.1581 24.7242 65.8278 23.9479 65.2143 23.3833C64.6009 22.8187 63.7987 22.5365 62.7605 22.5365ZM80.3381 29.4762L81.3531 31.0052C80.3144 32.3226 78.7811 32.9813 76.7518 32.9813C74.8408 32.9813 73.2835 32.4167 72.1039 31.2875C70.9477 30.1584 70.3578 28.6528 70.3578 26.7708C70.3578 25.0301 70.9241 23.548 72.0803 22.3482C73.2364 21.1485 74.6756 20.5604 76.398 20.5604C78.4976 20.5604 80.0553 21.0779 81.1169 22.113L80.1256 23.7833C79.2054 22.9599 78.0734 22.5365 76.7045 22.5365C75.5958 22.5365 74.6284 22.9364 73.8026 23.7597C73.0004 24.536 72.5993 25.5475 72.5993 26.7708C72.5993 28.0647 73.024 29.0763 73.8262 29.829C74.6756 30.6053 75.6902 31.0052 76.9169 31.0052C78.2859 31.0052 79.4415 30.4877 80.3381 29.4762Z" fill="#562212"/>
<path d="M26.9681 43.6377L28.8085 46.5547C27.7704 47.9662 26.1423 48.6719 23.9245 48.6719C21.9426 48.6719 20.3618 48.1074 19.1585 46.9546C17.9787 45.8255 17.3653 44.2964 17.3653 42.3909C17.3653 40.6266 17.9551 39.1446 19.1349 37.9448C20.3382 36.7451 21.8482 36.1334 23.6885 36.1334C25.8828 36.1334 27.5108 36.698 28.5725 37.8272L26.7558 40.9559C26.0008 40.2031 25.1514 39.8267 24.2076 39.8267C23.4998 39.8267 22.8864 40.062 22.3908 40.556C21.8718 41.0265 21.6358 41.6382 21.6358 42.3909C21.6358 43.1672 21.8954 43.7788 22.4145 44.2493C22.9807 44.7198 23.5941 44.9786 24.2548 44.9786C25.2222 44.9786 26.1187 44.5316 26.9681 43.6377ZM33.1262 40.4149H29.6579V36.4392H40.5584V40.4149H37.1136V48.3661H33.1262V40.4149ZM43.8144 40.1796L42.847 37.2861C44.1211 36.5098 45.5839 36.1334 47.2591 36.1334C49.0051 36.1334 50.2556 36.5333 51.0578 37.3802C51.8364 38.2036 52.2375 39.4739 52.2375 41.1912V48.3661H48.7928V47.2605C48.2029 48.1074 47.1647 48.5073 45.6547 48.5073C44.5222 48.5073 43.602 48.1779 42.9178 47.5192C42.2336 46.8371 41.8797 45.9196 41.8797 44.7669C41.8797 43.4966 42.2807 42.532 43.0594 41.8498C43.8616 41.1677 44.8997 40.8148 46.1738 40.8148C47.1884 40.8148 47.967 41.0265 48.5097 41.4735C48.604 40.109 48.0614 39.4268 46.8816 39.4268C46.0558 39.4268 45.0413 39.6856 43.8144 40.1796ZM46.9996 45.2139C47.7074 45.2139 48.2265 45.0021 48.5097 44.6022V43.8494C48.1557 43.5907 47.6366 43.4495 46.9996 43.4495C46.6693 43.4495 46.3862 43.5436 46.1738 43.7083C45.9614 43.8494 45.8671 44.0847 45.8671 44.367C45.8671 44.6257 45.9614 44.8375 46.1738 44.9786C46.3862 45.1433 46.6693 45.2139 46.9996 45.2139ZM58.8675 53.6591H54.88V36.4392H58.8675V37.3567C59.6933 36.5333 60.8022 36.1334 62.1942 36.1334C63.7751 36.1334 65.0492 36.698 66.0401 37.8507C67.0311 39.0034 67.5265 40.4619 67.5265 42.2262C67.5265 44.0612 66.9367 45.6138 65.757 46.8371C64.5536 48.0603 62.9965 48.6719 61.109 48.6719C60.2123 48.6719 59.4809 48.5543 58.8675 48.2955V53.6591ZM60.9438 39.8267C60.1888 39.8267 59.5046 40.1796 58.8675 40.8853V44.5081C59.3865 44.814 60 44.9786 60.7315 44.9786C61.5336 44.9786 62.1707 44.7198 62.619 44.2493C63.0673 43.7553 63.2796 43.0966 63.2796 42.2968C63.2796 41.544 63.0673 40.9559 62.6661 40.5089C62.2415 40.062 61.6752 39.8267 60.9438 39.8267ZM71.8207 40.4149H68.3759V36.4392H79.2527V40.4149H75.8081V48.3661H71.8207V40.4149Z" fill="#EC5238"/>
<path fill-rule="evenodd" clip-rule="evenodd" d="M105.419 15.4084L95.8632 31.8755L86.3312 48.3661H99.1666L111.836 26.4649L105.419 15.4084Z" fill="#C59368"/>
<path fill-rule="evenodd" clip-rule="evenodd" d="M102.729 48.366H105.419H113.771C116.06 48.366 117.994 47.2369 119.151 45.2608C120.283 43.3083 120.283 41.0499 119.151 39.0974L114.951 31.8754L113.629 29.5701L102.729 48.366Z" fill="#EC5238"/>
<path d="M42.1393 17.7139H38.1518V5.81053H41.7381L45.3245 9.85675L48.6277 5.81053H52.1196V17.7139H48.1322V11.8798L45.2301 15.1732H45.1593L42.1393 11.8798V17.7139ZM56.1778 16.2789C54.9745 15.0792 54.361 13.5736 54.361 11.7622C54.361 9.97433 54.9745 8.4688 56.1778 7.26905C57.3811 6.09282 58.9855 5.50471 60.991 5.50471C63.0201 5.50471 64.6245 6.09282 65.8042 7.26905C67.0311 8.4453 67.621 9.95083 67.621 11.7622C67.621 13.5971 67.0311 15.0792 65.8042 16.2789C64.6245 17.4551 63.0201 18.0432 60.991 18.0432C58.9855 18.0432 57.3811 17.4551 56.1778 16.2789ZM58.608 11.7622C58.608 12.515 58.844 13.1266 59.2922 13.6206C59.7405 14.0911 60.3067 14.3264 60.991 14.3264C61.6988 14.3264 62.2886 14.1146 62.7134 13.6441C63.1617 13.1736 63.374 12.5385 63.374 11.7622C63.374 11.033 63.1617 10.4213 62.7134 9.92733C62.2651 9.45685 61.6752 9.19803 60.991 9.19803C60.3067 9.19803 59.7405 9.43327 59.2922 9.90375C58.844 10.3742 58.608 10.9859 58.608 11.7622ZM78.12 11.5034L73.8735 17.7139H69.886V5.81053H73.8735V12.0445L78.12 5.81053H82.0838V17.7139H78.12V11.5034ZM71.5376 0H74.9824C74.9824 1.01155 75.3599 1.52909 76.0913 1.52909C76.7756 1.52909 77.1057 1.01155 77.1057 0H80.5506C80.5506 1.34089 80.1493 2.42302 79.3712 3.24637C78.5924 4.09325 77.4833 4.49317 76.0913 4.49317C74.5812 4.49317 73.4487 4.09325 72.6937 3.29341C71.9151 2.49359 71.5376 1.38794 71.5376 0Z" fill="#562212"/>
</svg>
