<svg width="238" height="49" viewBox="0 0 238 49" fill="none" xmlns="http://www.w3.org/2000/svg">
<g clip-path="url(#clip0_55_322)">
<path d="M11.7413 0.233097C13.3354 0.233097 14.8055 0.665879 16.1589 1.52389C17.5085 2.38189 18.5311 3.54216 19.2305 5.00091C19.8245 6.30286 20.0651 7.65719 19.9448 9.06356C19.8281 10.4701 19.3733 11.772 18.5801 12.9658C17.7868 14.1187 16.7868 15.0064 15.5836 15.6332C14.3806 16.2601 13.0794 16.5809 11.6849 16.5958C9.8427 16.6034 8.00038 16.6034 6.15442 16.5958C5.23715 16.5958 4.31607 16.5958 3.39119 16.5958V28.9145H-0.000106812V0.255595C-0.000106812 0.255595 0.458527 0.255595 1.37597 0.251989C2.29324 0.24821 3.40988 0.244432 4.72573 0.240825C6.03777 0.237047 7.34617 0.233269 8.64696 0.233269C9.94412 0.233269 10.9779 0.233269 11.7411 0.233269L11.7413 0.233097ZM3.39136 16.1595H11.5081C12.9029 15.4656 14.0123 14.462 14.8356 13.1413C15.4143 12.1638 15.7828 11.1043 15.9408 9.96278C16.0986 8.81746 16.08 7.69068 15.8807 6.58279C15.6402 5.27311 15.1063 4.09808 14.2866 3.06095C13.463 2.02021 12.4368 1.22558 11.2112 0.669657C8.60577 0.669657 5.99658 0.669657 3.39136 0.669657V16.1593V16.1595ZM36.5686 16.499L44.6066 28.9147H40.5764L32.591 16.596H26.9742V28.9147H23.5718V0.255767L35.313 0.233269C36.8242 0.233269 38.2041 0.602507 39.4523 1.33772C40.7005 2.07259 41.6967 3.06112 42.4374 4.29987C43.1819 5.53845 43.5504 6.90755 43.5504 8.41095C43.5504 9.77267 43.246 11.0298 42.6293 12.1789C42.0165 13.3316 41.1856 14.2866 40.1368 15.044C39.0878 15.8014 37.8961 16.2864 36.569 16.4992L36.5686 16.499ZM32.3166 16.1595H32.8241C33.0873 16.1744 33.5797 16.0997 34.3052 15.9355C35.0271 15.7715 35.8203 15.3947 36.6775 14.8089C37.5385 14.2233 38.3017 13.2981 38.9672 12.037C39.3732 11.0896 39.5762 10.0823 39.5762 9.01152V7.96323C39.5762 6.87767 39.3696 5.85909 38.9635 4.908C38.5575 3.95656 37.9935 3.11728 37.2792 2.3934C36.5612 1.66969 35.7304 1.09523 34.7829 0.67H34.7602H26.9742V16.1596H32.3166V16.1595ZM75.0767 9.64575C76.3964 13.4249 76.2197 17.1406 74.5466 20.7818C72.7834 24.3818 70.0126 26.8814 66.2305 28.2804C62.4183 29.5899 58.6775 29.4182 55.0081 27.7544C51.3802 26.0047 48.8612 23.2552 47.4514 19.5022C46.1279 15.7231 46.3048 12.0109 47.9777 8.36613C49.7408 4.76614 52.5154 2.26648 56.2939 0.8675C60.1061 -0.442008 63.8466 -0.270269 67.5198 1.39354C71.1477 3.14321 73.6667 5.89275 75.0766 9.64575H75.0767ZM67.475 27.2842C69.0013 26.3738 70.1894 25.0718 71.039 23.3782C71.8848 21.6845 72.3473 19.7632 72.4189 17.6107C72.494 15.4617 72.1256 13.2493 71.3173 10.9774C70.4978 8.74653 69.3812 6.83284 67.9752 5.23602C66.569 3.63541 65.0126 2.44544 63.302 1.66196C61.5913 0.878663 59.8657 0.587566 58.1249 0.792794C57.5573 0.915759 56.9972 1.08011 56.4368 1.28534C55.8955 1.47923 55.3653 1.70318 54.8541 1.94928C53.3766 2.88938 52.2298 4.20644 51.4142 5.89635C50.6021 7.58626 50.1662 9.49273 50.1059 11.6118C50.0459 13.7309 50.4143 15.9094 51.2075 18.148C52.0497 20.4126 53.1925 22.3524 54.6286 23.9677C56.0611 25.5833 57.6512 26.7733 59.3958 27.5418C61.1401 28.3101 62.8958 28.56 64.6668 28.2916C65.1367 28.1722 65.6104 28.0304 66.0877 27.8662C66.5654 27.6984 67.0276 27.5045 67.4752 27.2843L67.475 27.2842ZM101.976 0.233097H102.415V28.892V28.9145H101.092L80.1889 4.37784V28.9145H79.7489V0.233097H81.1137L101.976 24.7397V0.233097ZM133.642 0.221934V1.34854C133.642 1.34854 133.408 1.29633 132.939 1.19191C132.468 1.08372 131.679 0.975695 130.57 0.8675C129.461 0.759133 127.957 0.688377 126.055 0.658494H121.46V28.892H118.058V0.658494H113.453C111.558 0.688205 110.054 0.759133 108.945 0.8675C107.832 0.975695 107.039 1.08372 106.569 1.19191C106.099 1.29633 105.866 1.34854 105.866 1.34854V0.221934H133.641H133.642ZM140.483 0.658494V12.9359H148.908C150.585 12.8612 151.765 12.7755 152.45 12.6711C153.137 12.5703 153.48 12.5181 153.48 12.5181V13.7865C153.48 13.7865 153.137 13.7343 152.45 13.6337C151.765 13.5329 150.585 13.4434 148.908 13.3725H140.483V28.4778H149.01C151.059 28.4628 152.679 28.3994 153.871 28.2913C155.063 28.1831 155.912 28.0711 156.416 27.9555C156.92 27.8437 157.168 27.7875 157.168 27.7875V28.9143H137.092V28.8918V0.221591H157.168V1.3482C157.168 1.3482 156.935 1.29221 156.465 1.18419C155.995 1.07599 155.202 0.967795 154.085 0.855822C152.969 0.747626 151.461 0.680305 149.559 0.65815H140.483V0.658494ZM182.845 0.233097H183.285V28.892V28.9145H181.961L161.058 4.37784V28.9145H160.618V0.233097H161.983L182.845 24.7397V0.233097ZM205.116 28.9145L193.63 12.2235L190.137 15.3274V28.9145H186.735V0.255595H190.137V14.738L206.627 0.0914128L206.924 0.408614L196.206 9.94028L196.183 9.96278L209.236 28.9145H205.116ZM237.127 9.64558C238.447 13.4247 238.27 17.1404 236.597 20.7816C234.834 24.3816 232.063 26.8813 228.281 28.2803C224.469 29.5898 220.728 29.418 217.059 27.7542C213.431 26.0045 210.912 23.255 209.502 19.502C208.179 15.7229 208.355 12.0108 210.028 8.36595C211.791 4.76597 214.566 2.26631 218.345 0.867328C222.157 -0.442179 225.897 -0.270441 229.57 1.39336C233.198 3.14304 235.717 5.89257 237.127 9.64558H237.127ZM229.526 27.284C231.052 26.3736 232.24 25.0717 233.09 23.378C233.935 21.6843 234.398 19.7631 234.47 17.6105C234.545 15.4615 234.176 13.2492 233.368 10.9772C232.548 8.74636 231.432 6.83267 230.026 5.23585C228.62 3.63524 227.063 2.44526 225.353 1.66179C223.642 0.878491 221.916 0.587394 220.176 0.792622C219.608 0.915587 219.048 1.07994 218.487 1.28517C217.946 1.47906 217.416 1.70301 216.905 1.94911C215.427 2.88921 214.281 4.20627 213.465 5.89618C212.653 7.58609 212.217 9.49256 212.157 11.6116C212.097 13.7307 212.465 15.9092 213.258 18.1478C214.1 20.4124 215.243 22.3522 216.679 23.9676C218.112 25.5831 219.702 26.7731 221.446 27.5416C223.191 28.31 224.946 28.5598 226.717 28.2914C227.187 28.1721 227.661 28.0302 228.138 27.866C228.616 27.6982 229.078 27.5043 229.526 27.2842L229.526 27.284Z" fill="black"/>
<path d="M78.9138 48.5162V40.7779H79.6828V44.2219H80.8581L83.5381 40.7779H84.4278L81.4953 44.5271L84.6146 48.5162H83.6701L80.8802 44.9195H79.6829V48.5162H78.914H78.9138ZM88.5905 48.5707C88.0413 48.5707 87.5434 48.4616 87.0967 48.2437C86.65 48.0258 86.2656 47.7297 85.9436 47.3555C85.6213 46.9812 85.3723 46.56 85.1966 46.0913C85.0209 45.6226 84.933 45.1412 84.933 44.6471C84.933 44.1312 85.0246 43.639 85.2075 43.1704C85.3906 42.7017 85.6486 42.284 85.9818 41.917C86.3151 41.55 86.7049 41.2594 87.1516 41.0451C87.5983 40.8308 88.0815 40.7236 88.6016 40.7236C89.1507 40.7236 89.6486 40.8361 90.0953 41.0614C90.542 41.2867 90.9247 41.5883 91.2431 41.9661C91.5616 42.344 91.8089 42.7654 91.9845 43.2303C92.16 43.6955 92.2481 44.1713 92.2481 44.6583C92.2481 45.1742 92.1566 45.6664 91.9735 46.1351C91.7905 46.6038 91.5342 47.0214 91.2045 47.3884C90.8752 47.7553 90.487 48.0441 90.0403 48.255C89.5936 48.4658 89.1104 48.571 88.5903 48.571L88.5905 48.5707ZM85.702 44.647C85.702 45.0684 85.7715 45.4735 85.9105 45.8624C86.0496 46.2512 86.2473 46.5962 86.5036 46.8978C86.7599 47.1992 87.0656 47.4389 87.4209 47.617C87.7758 47.7949 88.1659 47.8839 88.5905 47.8839C89.0372 47.8839 89.4382 47.7913 89.7933 47.606C90.1483 47.4205 90.4524 47.1736 90.7049 46.8648C90.9574 46.556 91.1497 46.2091 91.2815 45.8239C91.4133 45.4389 91.4792 45.0464 91.4792 44.6468C91.4792 44.2255 91.4096 43.8221 91.2706 43.4371C91.1315 43.052 90.9319 42.7067 90.6718 42.4017C90.412 42.0965 90.1062 41.8567 89.7547 41.6824C89.4032 41.5081 89.0152 41.4209 88.5903 41.4209C88.1511 41.4209 87.7539 41.5117 87.3986 41.6932C87.0436 41.8749 86.7395 42.1202 86.487 42.429C86.2345 42.7377 86.0403 43.0847 85.9048 43.4697C85.7693 43.8549 85.7016 44.2472 85.7016 44.6468L85.702 44.647ZM93.6979 48.5162V40.7779H99.5852V48.5162H98.8163V41.4535H94.4667V48.5162H93.6978H93.6979ZM101.584 48.5162V40.7779H102.342V47.4698L107.175 40.7779H107.889V48.5162H107.131V41.944L102.353 48.5162H101.584ZM109.888 48.5162V40.7779H113.117C113.454 40.7779 113.763 40.8467 114.045 40.9848C114.327 41.1229 114.571 41.3099 114.776 41.5462C114.981 41.7824 115.142 42.0438 115.259 42.3309C115.376 42.618 115.435 42.9103 115.435 43.2083C115.435 43.6296 115.341 44.0275 115.154 44.4017C114.968 44.7759 114.706 45.0792 114.369 45.3119C114.032 45.5443 113.637 45.6607 113.183 45.6607H110.657V48.5162H109.888H109.888ZM110.657 44.9849H113.15C113.458 44.9849 113.725 44.9013 113.952 44.7344C114.179 44.5671 114.355 44.3493 114.479 44.0804C114.604 43.8115 114.666 43.5209 114.666 43.2085C114.666 42.8887 114.592 42.5945 114.446 42.3256C114.3 42.0566 114.108 41.8442 113.87 41.6879C113.631 41.5318 113.37 41.4537 113.084 41.4537H110.657V44.9849H110.657ZM118.598 40.7779H119.246L122.486 48.5162H121.673L120.7 46.0966H117.134L116.16 48.5162H115.336L118.598 40.7779ZM120.458 45.4972L118.917 41.6716L117.376 45.4972H120.458H120.458ZM123.651 48.5162V40.7779H124.409V47.4698L129.241 40.7779H129.955V48.5162H129.198V41.944L124.42 48.5162H123.651ZM126.814 40.1239C126.455 40.1239 126.153 40.0712 125.908 39.9657C125.662 39.8604 125.478 39.7151 125.353 39.5297C125.229 39.3444 125.163 39.1429 125.156 38.9248H125.76C125.767 39.1137 125.846 39.2844 125.996 39.4371C126.146 39.5896 126.418 39.666 126.814 39.666C127.194 39.666 127.462 39.5953 127.616 39.4534C127.769 39.3117 127.85 39.1355 127.857 38.9248H128.461C128.454 39.1429 128.388 39.3444 128.264 39.5297C128.139 39.7151 127.958 39.8604 127.72 39.9657C127.482 40.071 127.18 40.1239 126.814 40.1239H126.814ZM137.49 41.4535H134.711V48.5162H133.942V41.4535H131.163V40.7779H137.49V41.4535H137.49ZM138.698 48.5162V40.7779H139.456V47.4698L144.289 40.7779H145.003V48.5162H144.245V41.944L139.467 48.5162H138.698ZM153.153 40.7779V48.5162H152.395V44.8977H147.771V48.5162H147.002V40.7779H147.771V44.2219H152.395V40.7779H153.153ZM155.108 48.5162V40.7779H159.535V41.4535H155.877V48.5162H155.108H155.108Z" fill="black"/>
<path fill-rule="evenodd" clip-rule="evenodd" d="M70.2297 44.9294H42.2915V44.1963H70.2297V44.9294Z" fill="black"/>
<path d="M40.256 41.6855L43.1556 44.563L40.0118 47.6826L36.868 44.563L40.0118 41.4434L40.256 41.6855ZM41.0954 43.4876L40.0118 42.4123L37.8446 44.5628L40.0118 46.7133L42.179 44.5628L41.0954 43.4876Z" fill="#00D89E"/>
<path d="M33.5952 40.3678L37.8226 44.5627L33.351 48.9999L28.8793 44.5627L33.351 40.1255L33.5951 40.3676L33.5952 40.3678ZM35.0987 42.8287L33.3512 41.0948L29.8562 44.5629L33.3512 48.031L36.8462 44.5629L35.0989 42.8288L35.0987 42.8287Z" fill="#00D89E"/>
<path d="M26.8933 41.6855L29.7931 44.563L26.6493 47.6826L23.5054 44.563L26.6493 41.4434L26.8933 41.6855ZM27.7328 43.4876L26.6493 42.4123L24.4821 44.5628L26.6493 46.7133L28.8164 44.5628L27.7328 43.4876Z" fill="#00D89E"/>
<path fill-rule="evenodd" clip-rule="evenodd" d="M168.221 44.9294H196.159V44.1963H168.221V44.9294Z" fill="black"/>
<path d="M198.195 41.6855L195.295 44.563L198.439 47.6826L201.583 44.563L198.439 41.4434L198.195 41.6855ZM197.355 43.4876L198.439 42.4123L200.606 44.5628L198.439 46.7133L196.272 44.5628L197.355 43.4876Z" fill="#00D89E"/>
<path d="M204.855 40.3678L200.628 44.5627L205.1 48.9999L209.571 44.5627L205.1 40.1255L204.855 40.3676L204.855 40.3678ZM203.352 42.8287L205.099 41.0948L208.594 44.5629L205.099 48.031L201.604 44.5629L203.352 42.8288L203.352 42.8287Z" fill="#00D89E"/>
<path d="M211.557 41.6855L208.658 44.563L211.801 47.6826L214.945 44.563L211.801 41.4434L211.557 41.6855ZM210.718 43.4876L211.801 42.4123L213.968 44.5628L211.801 46.7133L209.634 44.5628L210.718 43.4876Z" fill="#00D89E"/>
</g>
<defs>
<clipPath id="clip0_55_322">
<rect width="238" height="49" fill="white"/>
</clipPath>
</defs>
</svg>
