<svg width="190" height="119" viewBox="0 0 190 119" fill="none" xmlns="http://www.w3.org/2000/svg">
<g clip-path="url(#clip0_55_611)">
<path fill-rule="evenodd" clip-rule="evenodd" d="M115.041 37.9328C116.511 36.0947 115.501 27.3987 110.052 21.3576C104.603 15.3165 97.307 13.6749 95.3071 16.0561C95.193 16.1919 95.091 16.3476 94.9999 16.5197C94.9088 16.3476 94.8068 16.1919 94.6928 16.0561C92.6929 13.6749 85.3969 15.3165 79.9477 21.3576C74.4984 27.3986 73.4894 36.0945 74.9592 37.9328C76.4289 39.7709 84.2551 38.6724 89.7043 32.6313C92.4381 29.6007 94.1877 26.0383 94.9999 22.9402C95.8123 26.0383 97.5617 29.6005 100.295 32.6313C105.745 38.6724 113.571 39.771 115.041 37.9328Z" fill="#FC5276"/>
<path fill-rule="evenodd" clip-rule="evenodd" d="M94.9999 53.9559C96.661 50.6859 99.8008 46.912 104.404 44.4062C112.715 39.8818 122.138 40.4795 123.971 43.5665C125.805 46.6533 121.753 54.5868 113.441 59.1112C106.108 63.1032 83.8915 63.1032 76.5582 59.111C68.2468 54.5868 64.1942 46.6533 66.0281 43.5665C67.8621 40.4796 77.2846 39.8819 85.5959 44.4062C90.1987 46.912 93.3385 50.6859 94.9996 53.9559H94.9999Z" fill="#FC5276"/>
<path fill-rule="evenodd" clip-rule="evenodd" d="M94.9999 0.000244141C99.5923 0.000244141 103.315 3.8824 103.315 8.67134C103.315 13.4604 99.5925 17.3424 94.9999 17.3424C90.4075 17.3424 86.6843 13.4603 86.6843 8.67134C86.6843 3.8824 90.4073 0.000244141 94.9999 0.000244141Z" fill="#FC5276"/>
<path fill-rule="evenodd" clip-rule="evenodd" d="M85.2564 40.0031C87.1957 39.5607 89.6007 38.3693 91.5431 36.216C93.3276 34.2377 94.4698 31.9122 95.0001 29.8899C95.5302 31.9122 96.6723 34.2376 98.4569 36.216C100.399 38.3693 102.804 39.5607 104.744 40.0031C102.804 40.4457 100.399 41.6369 98.4569 43.7902C96.6723 45.7685 95.5302 48.094 95.0001 50.1163C94.4698 48.094 93.3276 45.7686 91.5431 43.7902C89.6008 41.6369 87.1959 40.4455 85.2564 40.0031Z" fill="#FC5276"/>
<path fill-rule="evenodd" clip-rule="evenodd" d="M0 73.884V97.4993C0 98.1238 0.510335 98.6331 1.13632 98.6331H12.9707C16.4146 98.6331 19.6639 97.2712 22.0779 94.8282C22.3305 94.5726 22.5937 94.3178 22.8273 94.0447C24.8255 91.7075 25.9012 88.7623 25.9012 85.6916C25.9012 78.5352 20.1014 72.7502 12.9307 72.7502H1.13647C0.510628 72.7502 0.000146396 73.2593 0.000146396 73.8839L0 73.884ZM44.078 90.0818H44.0781L51.6061 73.3679C51.7854 72.9693 52.1802 72.7491 52.6182 72.7489C53.0563 72.7485 53.4495 72.9695 53.6307 73.3672L64.3901 96.9843C64.5583 97.3537 64.5593 97.745 64.3469 98.0913C64.1346 98.4375 63.7847 98.6329 63.378 98.6329H62.5903C62.153 98.6329 61.7782 98.4042 61.5788 98.0158L59.6205 94.1991L58.808 92.3651H46.4276L45.6151 94.1991L43.6563 98.0161C43.4571 98.4043 43.0822 98.6329 42.645 98.6329H41.8637C41.4569 98.6329 41.107 98.4372 40.8946 98.0907C40.6822 97.7441 40.6669 97.3443 40.8526 96.9827L41.8132 95.1105L44.0781 90.0821V90.0818H44.078ZM47.4394 90.0818H57.7961L53.6297 80.6784C53.4527 80.2794 53.0555 80.0594 52.6177 80.0594C52.1796 80.0594 51.7825 80.2788 51.6055 80.6784L47.4392 90.0818H47.4394ZM4.07961 75.7266H12.9305C18.4444 75.7266 22.9179 80.2145 22.9179 85.7115C22.9179 91.2082 18.4447 95.6964 12.9305 95.6964H4.07961C3.45377 95.6964 2.94328 95.1872 2.94328 94.5627V76.8604C2.94328 76.236 3.45377 75.7268 4.07961 75.7268V75.7266ZM34.9246 97.4992V73.8839C34.9246 73.2594 34.4144 72.7502 33.7884 72.7502H33.0777C32.4518 72.7502 31.9413 73.2593 31.9413 73.8839V97.4992C31.9413 98.1236 32.4517 98.6329 33.0777 98.6329H33.7884C34.4142 98.6329 34.9246 98.1238 34.9246 97.4992ZM70.2711 73.8676V97.4992C70.2711 98.1236 70.7814 98.6329 71.4074 98.6329H72.1181C72.744 98.6329 73.2543 98.1238 73.2543 97.4992V79.9212C73.2543 79.4792 73.49 79.1008 73.8869 78.905C74.2842 78.7092 74.7285 78.7524 75.0805 79.0206L79.7812 82.6052L82.5459 84.7417C82.9611 85.0623 83.5221 85.0625 83.9372 84.7417L86.7019 82.6052L91.4027 79.0206C91.7545 78.7521 92.1992 78.7093 92.5963 78.905C92.9933 79.1009 93.2288 79.4797 93.2288 79.9212V97.4992C93.2288 98.1236 93.7393 98.6329 94.365 98.6329H95.0758C95.7016 98.6329 96.2121 98.1238 96.2121 97.4992V73.8698C96.2121 73.4274 95.9758 73.0482 95.5779 72.8528C95.1801 72.6575 94.7348 72.7016 94.3835 72.9711L83.9342 80.9841C83.5203 81.3016 82.963 81.3016 82.5491 80.984L73.6464 74.1541L72.0993 72.9687C71.7475 72.6993 71.3023 72.6554 70.9047 72.851C70.5069 73.0466 70.2709 73.4256 70.2709 73.8678L70.2711 73.8676ZM114.185 72.7502C107.033 72.7502 101.214 78.5557 101.214 85.6916C101.214 92.8275 107.033 98.6329 114.185 98.6329C121.337 98.6329 127.155 92.8272 127.155 85.6916C127.155 78.5559 121.337 72.7502 114.185 72.7502ZM114.185 95.6564C108.68 95.6564 104.197 91.1841 104.197 85.6914C104.197 80.1987 108.68 75.7265 114.185 75.7265C119.69 75.7265 124.172 80.1987 124.172 85.6914C124.172 91.1841 119.69 95.6564 114.185 95.6564ZM155.115 73.9009V91.3175C155.115 91.7601 154.879 92.1395 154.481 92.3347C154.083 92.53 153.793 92.1933 153.48 91.8798L135.722 74.0815C134.893 73.2546 133.627 72.478 132.791 72.8891C132.394 73.085 132.157 73.4638 132.157 73.9058V97.4993C132.157 98.1238 132.668 98.6331 133.294 98.6331H134.004C134.63 98.6331 135.141 98.1239 135.141 97.4993V79.9918C135.141 79.5492 135.377 79.17 135.775 78.9746C136.173 78.7791 136.659 78.7778 136.97 79.0935L154.723 97.1193L156.271 98.3033C156.623 98.572 157.067 98.6159 157.465 98.4204C157.862 98.2247 158.098 97.8459 158.098 97.4038V73.9068C158.098 73.2856 157.594 72.778 156.971 72.7732L156.26 72.7676C155.946 72.7648 155.674 72.8756 155.451 73.0964C155.228 73.3173 155.115 73.5873 155.115 73.9011L155.115 73.9009ZM164.099 73.8839V97.4992C164.099 98.1236 164.609 98.6329 165.235 98.6329H177.069C180.513 98.6329 183.763 97.271 186.177 94.8281C186.429 94.5724 186.692 94.3177 186.926 94.0445C188.924 91.7073 190 88.7622 190 85.6914C190 78.5351 184.2 72.7501 177.029 72.7501H165.235C164.609 72.7501 164.099 73.2591 164.099 73.8837L164.099 73.8839ZM168.178 75.7266H177.029C182.543 75.7266 187.017 80.2145 187.017 85.7115C187.017 91.2082 182.543 95.6964 177.029 95.6964H168.178C167.553 95.6964 167.042 95.1872 167.042 94.5627V76.8604C167.042 76.236 167.553 75.7268 168.178 75.7268V75.7266Z" fill="#434242"/>
<path d="M23.9651 115.911V109.389H24.8685V115.169H28.735V109.389H29.6384V115.169H30.6216V117.873H29.9307V115.911H23.965L23.9651 115.911ZM36.248 113.989H37.2179C37.0319 114.652 36.6998 115.166 36.2215 115.533C35.7431 115.9 35.1675 116.083 34.4942 116.083C32.4215 116.083 31.385 114.899 31.385 112.53C31.385 111.514 31.6509 110.708 32.1823 110.111C32.7137 109.514 33.4533 109.216 34.4012 109.216C35.34 109.216 36.0597 109.537 36.5603 110.177C37.0608 110.818 37.311 111.713 37.311 112.862H32.3152C32.3329 113.666 32.5256 114.28 32.8932 114.705C33.2606 115.129 33.7811 115.341 34.4542 115.341C34.8883 115.341 35.267 115.221 35.5902 114.983C35.9136 114.744 36.1328 114.413 36.248 113.989V113.989ZM32.3416 112.252H36.3543C36.3454 111.545 36.1616 110.988 35.8028 110.582C35.4441 110.175 34.9681 109.972 34.3744 109.972C33.7632 109.972 33.276 110.175 32.913 110.582C32.5498 110.988 32.3593 111.545 32.3416 112.252ZM39.7616 115.911H38.8582V109.389H39.7616V112.226H43.6281V109.389H44.5448V115.911H43.6281V112.968H39.7616V115.911ZM49.5068 115.911H48.6032V110.144H45.9458V109.389H52.1641V110.144H49.5068V115.911ZM56.528 115.288C57.1924 115.288 57.7061 115.065 58.0693 114.619C58.4325 114.172 58.614 113.512 58.614 112.637C58.614 111.806 58.4214 111.156 58.0361 110.688C57.6507 110.219 57.148 109.985 56.528 109.985C55.9168 109.985 55.4141 110.217 55.0199 110.681C54.6258 111.145 54.4287 111.775 54.4287 112.57C54.4287 113.366 54.6059 114.018 54.9601 114.526C55.3144 115.034 55.8369 115.288 56.5279 115.288H56.528ZM54.4552 119H53.5385V109.388H54.4419V110.94C54.619 110.339 54.9158 109.901 55.3321 109.627C55.7485 109.353 56.2134 109.216 56.7273 109.216C57.5777 109.216 58.2619 109.521 58.78 110.131C59.2981 110.741 59.5573 111.598 59.5573 112.703C59.5573 113.763 59.3093 114.592 58.8133 115.188C58.3173 115.785 57.6485 116.083 56.8071 116.083C56.3021 116.083 55.8328 115.942 55.3986 115.659C54.9645 115.376 54.6502 114.939 54.4552 114.347V119V119ZM67.4689 115.911H66.5654V110.144H63.908V109.389H70.1263V110.144H67.4689V115.911ZM75.965 113.538L75.9783 112.371C75.9429 112.424 75.8919 112.466 75.8255 112.497C75.759 112.528 75.6593 112.557 75.5265 112.583C75.3936 112.61 75.2785 112.63 75.181 112.643C75.0837 112.656 74.9219 112.674 74.696 112.696C74.4701 112.718 74.2952 112.738 74.1713 112.756C73.4804 112.844 72.9888 112.983 72.6965 113.173C72.4042 113.363 72.2581 113.697 72.2581 114.174C72.2581 114.987 72.7541 115.394 73.7462 115.394C74.322 115.394 74.8268 115.223 75.261 114.883C75.695 114.543 75.9297 114.094 75.9651 113.538L75.965 113.538ZM76.9084 115.911H76.0314C76.0227 115.884 76.0115 115.686 75.9982 115.314C75.9849 114.943 75.9783 114.744 75.9783 114.718C75.8187 115.115 75.5177 115.442 75.0747 115.699C74.6319 115.955 74.1226 116.083 73.5468 116.083C72.7938 116.083 72.2358 115.922 71.8726 115.599C71.5094 115.277 71.328 114.832 71.328 114.267C71.328 113.86 71.39 113.525 71.514 113.259C71.638 112.994 71.8372 112.787 72.1118 112.636C72.3865 112.486 72.6744 112.376 72.9754 112.305C73.2767 112.234 73.6708 112.172 74.158 112.119C74.7957 112.049 75.2475 111.976 75.5132 111.901C75.7791 111.826 75.925 111.695 75.9517 111.509C75.9517 110.467 75.3715 109.945 74.211 109.945C73.0596 109.945 72.4572 110.467 72.404 111.509H71.5273C71.5538 109.981 72.4617 109.216 74.251 109.216C75.2077 109.216 75.8896 109.43 76.2971 109.859C76.7046 110.288 76.9084 110.931 76.9084 111.788V115.911V115.911ZM79.5186 115.911H78.6152V109.388H79.5186V112.225H83.385V109.388H84.3018V115.911H83.385V112.968H79.5186V115.911ZM85.9953 115.911V109.388H86.8987V115.168H90.7651V109.388H91.6685V115.168H92.6517V117.873H91.9609V115.911H85.9951L85.9953 115.911ZM98.5305 113.538L98.5439 112.371C98.5084 112.424 98.4575 112.466 98.391 112.497C98.3246 112.528 98.2249 112.557 98.0921 112.583C97.9592 112.61 97.8441 112.63 97.7466 112.643C97.6492 112.656 97.4875 112.674 97.2616 112.696C97.0357 112.718 96.8608 112.738 96.7369 112.756C96.0459 112.844 95.5543 112.983 95.2621 113.173C94.9698 113.363 94.8237 113.697 94.8237 114.174C94.8237 114.987 95.3196 115.394 96.3118 115.394C96.8876 115.394 97.3923 115.223 97.8265 114.883C98.2606 114.543 98.4953 114.094 98.5307 113.538L98.5305 113.538ZM99.4739 115.911H98.597C98.5882 115.884 98.5771 115.686 98.5638 115.314C98.5505 114.943 98.5439 114.744 98.5439 114.718C98.3843 115.115 98.0833 115.442 97.6403 115.699C97.1975 115.955 96.6882 116.083 96.1124 116.083C95.3593 116.083 94.8014 115.922 94.4382 115.599C94.075 115.277 93.8936 114.832 93.8936 114.267C93.8936 113.86 93.9555 113.525 94.0795 113.259C94.2035 112.994 94.4028 112.787 94.6774 112.636C94.952 112.486 95.24 112.376 95.541 112.305C95.8423 112.234 96.2364 112.172 96.7236 112.119C97.3613 112.049 97.8131 111.976 98.0788 111.901C98.3446 111.826 98.4906 111.695 98.5172 111.509C98.5172 110.467 97.9371 109.945 96.7766 109.945C95.6252 109.945 95.0228 110.467 94.9696 111.509H94.0928C94.1193 109.981 95.0273 109.216 96.8165 109.216C97.7732 109.216 98.4552 109.43 98.8627 109.859C99.2701 110.288 99.4739 110.931 99.4739 111.788V115.911V115.911ZM105.153 115.911H104.25V109.388H105.167V114.691L108.94 109.388H109.923V115.911H109.02V110.515L105.153 115.911ZM119.071 119H118.18V116.057C117.011 116.004 116.11 115.672 115.477 115.063C114.843 114.453 114.526 113.648 114.526 112.65C114.526 111.651 114.843 110.849 115.477 110.244C116.11 109.638 117.011 109.305 118.18 109.243V107.002H119.071V109.243C120.231 109.305 121.128 109.638 121.761 110.244C122.394 110.849 122.711 111.651 122.711 112.65C122.711 113.648 122.394 114.453 121.761 115.063C121.128 115.672 120.231 116.004 119.071 116.057V119ZM115.443 112.65C115.443 113.436 115.678 114.068 116.147 114.545C116.617 115.023 117.295 115.283 118.18 115.328V109.998C117.303 110.034 116.628 110.286 116.154 110.754C115.68 111.222 115.443 111.854 115.443 112.65V112.65ZM121.808 112.637C121.808 111.841 121.571 111.211 121.097 110.747C120.623 110.284 119.947 110.034 119.071 109.999V115.328C119.939 115.284 120.612 115.025 121.09 114.552C121.568 114.079 121.808 113.441 121.808 112.637V112.637ZM125.148 115.911H124.245V109.388H125.162V114.691L128.935 109.388H129.918V115.911H129.015V110.515L125.148 115.911ZM134.893 115.911H133.99V110.144H131.333V109.389H137.551V110.144H134.893V115.911ZM139.855 115.911H138.952V109.388H139.855V112.225H143.722V109.388H144.638V115.911H143.722V112.968H139.855V115.911ZM151.022 113.989H151.992C151.806 114.652 151.474 115.166 150.996 115.533C150.517 115.9 149.942 116.083 149.268 116.083C147.196 116.083 146.159 114.899 146.159 112.53C146.159 111.514 146.425 110.708 146.956 110.111C147.488 109.514 148.227 109.216 149.175 109.216C150.114 109.216 150.834 109.537 151.334 110.177C151.835 110.818 152.085 111.713 152.085 112.862H147.089C147.107 113.666 147.3 114.28 147.667 114.704C148.035 115.129 148.555 115.341 149.228 115.341C149.662 115.341 150.041 115.221 150.364 114.983C150.688 114.744 150.907 114.413 151.022 113.989V113.989ZM147.116 112.252H151.128C151.12 111.545 150.936 110.988 150.577 110.582C150.218 110.175 149.742 109.972 149.149 109.972C148.537 109.972 148.05 110.175 147.687 110.582C147.324 110.988 147.133 111.545 147.116 112.252ZM158.256 113.551H159.199C159.111 114.302 158.801 114.912 158.269 115.381C157.738 115.849 157.096 116.083 156.343 116.083C155.475 116.083 154.782 115.783 154.263 115.182C153.745 114.581 153.486 113.71 153.486 112.57C153.486 111.439 153.745 110.597 154.263 110.045C154.781 109.492 155.492 109.216 156.396 109.216C157.202 109.216 157.86 109.442 158.369 109.892C158.878 110.343 159.16 110.953 159.213 111.722H158.269C158.216 111.183 158.019 110.761 157.678 110.456C157.337 110.151 156.905 109.998 156.383 109.998C155.78 109.998 155.302 110.206 154.948 110.622C154.593 111.037 154.416 111.682 154.416 112.557C154.416 113.441 154.593 114.119 154.948 114.592C155.302 115.065 155.767 115.301 156.343 115.301C156.848 115.301 157.277 115.144 157.632 114.831C157.986 114.517 158.194 114.09 158.256 113.551H158.256ZM165.091 113.538L165.105 112.371C165.069 112.424 165.018 112.466 164.952 112.497C164.885 112.528 164.786 112.557 164.653 112.583C164.52 112.61 164.405 112.63 164.307 112.643C164.21 112.656 164.048 112.674 163.822 112.696C163.597 112.718 163.422 112.738 163.298 112.756C162.607 112.844 162.115 112.983 161.823 113.173C161.531 113.363 161.384 113.697 161.384 114.174C161.384 114.987 161.88 115.394 162.873 115.394C163.448 115.394 163.953 115.223 164.387 114.883C164.821 114.543 165.056 114.094 165.092 113.538L165.091 113.538ZM166.035 115.911H165.158C165.149 115.884 165.138 115.686 165.125 115.314C165.111 114.943 165.105 114.744 165.105 114.718C164.945 115.115 164.644 115.442 164.201 115.699C163.758 115.955 163.249 116.083 162.673 116.083C161.92 116.083 161.362 115.922 160.999 115.599C160.636 115.277 160.454 114.832 160.454 114.267C160.454 113.86 160.516 113.525 160.64 113.259C160.764 112.994 160.964 112.787 161.238 112.636C161.513 112.486 161.801 112.376 162.102 112.305C162.403 112.234 162.797 112.172 163.284 112.119C163.922 112.049 164.374 111.976 164.64 111.901C164.905 111.826 165.051 111.695 165.078 111.509C165.078 110.467 164.498 109.945 163.337 109.945C162.186 109.945 161.584 110.467 161.53 111.509H160.654C160.68 109.981 161.588 109.216 163.377 109.216C164.334 109.216 165.016 109.43 165.424 109.859C165.831 110.288 166.035 110.931 166.035 111.788V115.911V115.911Z" fill="#FC5276"/>
</g>
<defs>
<clipPath id="clip0_55_611">
<rect width="190" height="119" fill="white"/>
</clipPath>
</defs>
</svg>
