<svg width="192" height="123" viewBox="0 0 192 123" fill="none" xmlns="http://www.w3.org/2000/svg">
<path d="M37.6823 53.2828H52.2276L30.2965 0H21.1023L0 53.2828H13.7912L16.7306 45.5199H34.7429L37.6823 53.2828ZM25.7752 21.2155L29.8447 32.6455L30.1459 33.537H21.4035L21.8553 32.3443L25.7741 21.2155H25.7752ZM68.6581 40.9987V12.737H76.7981C85.691 12.737 90.2133 20.047 90.2133 26.9811C90.2133 33.914 85.691 40.9987 76.7981 40.9987H68.6581ZM55.8463 0.527638V53.2828H76.7981C94.2069 53.2828 102.949 40.1699 102.949 26.9811C102.949 13.7923 94.2069 0.527638 76.7981 0.527638H55.8463ZM122.92 40.9987V12.737H131.06C139.953 12.737 144.476 20.047 144.476 26.9811C144.476 33.914 139.953 40.9987 131.06 40.9987H122.92ZM110.109 0.527638V53.2828H131.06C148.469 53.2828 157.212 40.1699 157.212 26.9811C157.212 13.7923 148.469 0.527638 131.06 0.527638H110.109ZM191.88 0.226445H161.507V11.984H170.25V41.7528H161.507V53.2839H191.88V41.7528H183.137V11.984H191.88V0.226445Z" fill="#1581FF"/>
<path d="M10.6935 81.961L13.7417 89.9734H7.64529L10.6935 81.961ZM16.7614 97.8704H19.8964L11.7389 77.287H9.58987L1.43233 97.8704H4.59597L6.57023 92.7314H14.8146L16.7592 97.8704H16.7614ZM34.0636 84.1969C32.6983 82.3391 30.7252 81.9038 28.7795 81.9038C23.4668 81.9038 20.4483 85.4456 20.4483 89.9459C20.4483 94.6199 23.3217 98.1331 28.8092 98.1331C30.7834 98.1035 32.9314 97.4659 34.0636 95.7522V97.8715H36.9085V77.5497H34.0636V84.198V84.1969ZM34.0636 90.0031C34.0636 93.69 31.5375 95.5477 28.9246 95.606C25.3246 95.6928 23.2635 93.2547 23.292 89.9448C23.3217 87.1868 25.2949 84.4574 28.7212 84.4002C31.3924 84.3706 34.0636 86.2294 34.0636 90.0031ZM53.9205 84.1969C52.5552 82.3391 50.582 81.9038 48.6364 81.9038C43.3237 81.9038 40.3051 85.4456 40.3051 89.9459C40.3051 94.6199 43.1786 98.1331 48.666 98.1331C50.6403 98.1035 52.7882 97.4659 53.9205 95.7522V97.8715H56.7653V77.5497H53.9205V84.198V84.1969ZM53.9205 90.0031C53.9205 93.69 51.3944 95.5477 48.7815 95.606C45.1814 95.6928 43.1203 93.2547 43.1489 89.9448C43.1786 87.1868 45.1517 84.4574 48.5781 84.4002C51.2493 84.3706 53.9205 86.2294 53.9205 90.0031ZM64.1974 97.8704H61.3525V81.9907H64.1974V97.8704ZM61.0041 78.129C61.0041 80.3352 64.5458 80.3352 64.5458 78.129C64.5458 75.9228 61.0041 75.98 61.0041 78.129ZM69.8585 79.2316V82.1644H67.5072V84.4288H69.8585V93.2305C69.8585 97.3769 72.4418 98.1606 76.2452 97.8704V95.4906C74.1555 95.6939 72.7034 95.6071 72.7034 93.2602V84.4299H76.1583V82.1655H72.7034V78.6819L69.8585 79.2327V79.2316ZM81.9942 97.8693H79.1494V81.9896H81.9942V97.8693ZM78.8009 78.1279C78.8009 80.3341 82.3427 80.3341 82.3427 78.1279C82.3427 75.9217 78.8009 75.9789 78.8009 78.1279ZM92.5613 94.0659L90.6454 88.5499L88.0621 82.1633H85.0425L91.4291 97.9847H93.6936L100.052 82.1633H97.032L94.4773 88.6082L92.5613 94.0659ZM118.138 89.3337C117.818 84.398 113.986 81.9313 110.096 81.9313C105.944 81.9313 101.938 84.6311 101.938 90.0306C101.938 95.4301 106.002 98.1595 110.037 98.1595C113.26 98.1595 116.482 96.4469 117.673 93.0205H114.74C113.811 94.7914 112.011 95.6335 110.066 95.6335C107.715 95.6335 104.783 93.7757 104.783 90.6978H118.079C118.166 90.2911 118.196 89.7975 118.138 89.3337ZM104.899 88.3465C105.48 85.5599 107.802 84.4277 110.096 84.4277C112.36 84.4277 114.596 85.5314 115.148 88.3465H104.899ZM6.97805 108.355L12.2907 116.252H13.9451L19.2578 108.355V122.667H22.1609V102.345H19.8382L13.1328 112.217L6.42622 102.345H4.04635V122.667H6.97805V108.355ZM40.2766 106.961L40.3062 109.051C38.9124 107.163 36.5611 106.7 34.6154 106.7C29.3027 106.7 26.2248 110.503 26.2248 114.742C26.2248 119.067 29.1862 122.929 34.6726 122.929C36.6183 122.899 39.1432 122.262 40.2755 120.548V122.667H43.1203V106.961H40.2755H40.2766ZM40.2766 114.8C40.2766 118.487 37.3734 120.345 34.7891 120.403C31.1891 120.49 29.0697 117.76 29.0697 114.742C29.0697 111.665 31.1308 109.254 34.5572 109.197C37.2283 109.167 40.2766 111.026 40.2766 114.8ZM47.4767 106.961V122.667H50.3215V114.133C50.3215 111.375 52.0056 109.197 55.0538 109.255C58.3922 109.314 59.1474 111.316 59.1474 114.248V122.667H61.9637V114.22C61.9637 109.72 59.9312 106.73 55.1417 106.73C53.1675 106.73 51.4834 107.224 50.3226 108.907V106.962H47.4778L47.4767 106.961ZM80.1365 122.667V106.816H77.2916V115.497C77.2916 118.283 75.6362 120.433 72.5594 120.374C69.221 120.316 68.4943 118.313 68.4943 115.41V106.816H65.6495V115.41C65.6495 119.909 67.7106 122.899 72.4714 122.899C74.5039 122.899 76.2748 122.319 77.4357 120.606V122.667H80.1354H80.1365ZM88.5557 109.314H91.749V106.846H88.5557C88.5557 104.495 90.0649 104.263 92.0975 104.465V102.085C87.9456 101.765 85.7108 103.072 85.7108 106.846H83.3013V109.314H85.7108V122.667H88.5557V109.314ZM107.745 106.962L107.775 109.052C106.381 107.165 104.03 106.701 102.084 106.701C96.7715 106.701 93.6936 110.504 93.6936 114.743C93.6936 119.068 96.655 122.93 102.141 122.93C104.087 122.9 106.612 122.263 107.744 120.549V122.668H110.589V106.962H107.744H107.745ZM107.745 114.801C107.745 118.488 104.842 120.346 102.258 120.404C98.6578 120.491 96.5384 117.761 96.5384 114.743C96.5384 111.666 98.5995 109.255 102.026 109.198C104.697 109.169 107.745 111.027 107.745 114.801ZM127.11 116.687C126.413 119.184 124.323 120.404 122.174 120.404C119.474 120.404 116.803 118.575 116.803 114.801C116.803 111.056 119.503 109.227 122.144 109.227C124.293 109.227 126.413 110.446 127.109 112.942H130.04C129.257 108.762 125.686 106.701 122.115 106.701C118.021 106.701 113.957 109.372 113.957 114.801C113.957 120.259 118.079 122.959 122.173 122.9C125.715 122.872 129.257 120.839 130.04 116.687H127.109H127.11ZM134.542 104.03V106.962H132.19V109.227H134.542V118.028C134.542 122.175 137.125 122.959 140.928 122.668V120.289C138.839 120.492 137.387 120.405 137.387 118.058V109.228H140.842V106.963H137.387V103.48L134.542 104.031V104.03ZM158.609 122.667V106.816H155.764V115.497C155.764 118.283 154.108 120.433 151.032 120.374C147.693 120.316 146.967 118.313 146.967 115.41V106.816H144.122V115.41C144.122 119.909 146.183 122.899 150.944 122.899C152.976 122.899 154.747 122.319 155.908 120.606V122.667H158.608H158.609ZM163.021 106.991V122.667H165.837V114.161C165.837 110.765 168.914 108.413 172.137 109.372V106.875C169.641 106.295 167.347 106.789 165.837 108.908V106.992H163.021V106.991ZM190.165 114.133C189.845 109.197 186.013 106.73 182.123 106.73C177.971 106.73 173.965 109.43 173.965 114.83C173.965 120.229 178.029 122.959 182.065 122.959C185.288 122.959 188.509 121.246 189.7 117.82H186.767C185.838 119.591 184.039 120.433 182.093 120.433C179.742 120.433 176.81 118.575 176.81 115.497H190.107C190.194 115.09 190.223 114.597 190.165 114.133ZM176.927 113.146C177.507 110.359 179.83 109.227 182.123 109.227C184.387 109.227 186.623 110.33 187.175 113.146H176.927Z" fill="#1581FF"/>
</svg>
