<svg width="126" height="121" viewBox="0 0 126 121" fill="none" xmlns="http://www.w3.org/2000/svg">
<path d="M102.911 37.8797L89.8112 23.0797C85.6112 18.3797 78.6112 16.0797 69.6112 17.2797C68.8112 17.3797 68.0112 17.4797 67.2112 17.6797C67.0112 17.6797 66.8112 17.7797 66.6112 17.7797C65.9112 17.8797 65.3112 18.0797 64.6112 18.2797C64.5112 18.2797 64.4112 18.2797 64.3112 18.3797H64.2112C63.9112 18.4797 63.5112 18.5797 63.2112 18.6797C62.9112 18.7797 62.6112 18.8797 62.3112 18.9797C62.0112 19.0797 61.6112 19.1797 61.3112 19.2797C61.0112 19.3797 60.8112 19.4797 60.5112 19.5797H60.4112C59.5112 19.8797 58.7112 20.1797 57.8112 20.5797C57.7112 20.5797 57.6112 20.6797 57.5112 20.6797C57.4112 20.6797 57.3112 20.7797 57.1112 20.8797C56.5112 21.1797 55.8112 21.3797 55.2112 21.6797C55.1112 21.7797 55.0112 21.7797 54.9112 21.8797C54.9112 21.8797 54.8112 21.8797 54.8112 21.9797C54.1112 22.2797 53.4112 22.6797 52.7112 23.0797H52.6112C52.5112 23.1797 52.3112 23.2797 52.2112 23.2797C51.7112 23.5797 51.2112 23.7797 50.7112 24.0797C50.6112 24.0797 50.5112 24.1797 50.4112 24.1797C50.2112 24.2797 50.1112 24.3797 49.9112 24.4797C49.5112 24.6797 49.1112 24.9797 48.7112 25.1797C48.6112 25.2797 48.4112 25.3797 48.3112 25.3797C48.2112 25.4797 48.0112 25.5797 47.9112 25.6797C47.5112 25.8797 47.1112 26.1797 46.8112 26.3797C46.6112 26.4797 46.5112 26.5797 46.3112 26.6797C46.2112 26.7797 46.1112 26.7797 46.0112 26.8797C45.6112 27.1797 45.2112 27.3797 44.9112 27.6797C44.7112 27.7797 44.5112 27.8797 44.4112 28.0797C44.3112 28.0797 44.3112 28.1797 44.2112 28.1797C43.8112 28.4797 43.4112 28.7797 43.0112 29.0797C42.8112 29.1797 42.7112 29.3797 42.5112 29.4797L42.4112 29.5797C41.8112 29.9797 41.3112 30.4797 40.7112 30.9797C40.7112 30.9797 40.6112 30.9797 40.6112 31.0797C40.0112 31.5797 39.4112 32.0797 38.8112 32.5797L38.7112 32.6797C38.6112 32.7797 38.4112 32.9797 38.3112 33.0797C37.9112 33.4797 37.5112 33.7797 37.1112 34.1797C37.0112 34.2797 37.0112 34.2797 36.9112 34.3797C36.8112 34.4797 36.6112 34.6797 36.5112 34.7797C36.1112 35.1797 35.7112 35.4797 35.4112 35.8797C35.3112 35.9797 35.2112 36.0797 35.1112 36.1797C35.0112 36.2797 34.9112 36.3797 34.8112 36.4797C34.4112 36.8797 34.0112 37.3797 33.5112 37.7797C33.4112 37.8797 33.3112 37.9797 33.1112 38.1797L33.0112 38.2797C32.4112 38.9797 31.8112 39.5797 31.2112 40.2797L31.1112 40.3797C31.0112 40.4797 31.0112 40.5797 30.9112 40.6797C30.3112 41.3797 29.7112 42.1797 29.1112 42.8797C29.0112 42.9797 29.0112 43.0797 28.9112 43.0797L28.8112 43.1797C28.5112 43.5797 28.2112 44.0797 27.8112 44.4797C27.7112 44.6797 27.6112 44.7797 27.4112 44.9797C27.0112 45.5797 26.6112 46.1797 26.2112 46.7797C26.2112 46.7797 26.2112 46.8797 26.1112 46.8797C25.6112 47.5797 25.2112 48.3797 24.7112 49.0797C24.6112 49.2797 24.5112 49.4797 24.3112 49.6797C23.8112 50.4797 23.4112 51.2797 23.0112 52.0797C23.0112 52.0797 23.0112 52.0797 23.0112 52.1797C22.6112 52.9797 22.2112 53.7797 21.9112 54.5797C21.8112 54.7797 21.7112 54.9797 21.6112 55.1797C21.2112 55.9797 20.9112 56.7797 20.6112 57.5797C20.3112 58.2797 20.1112 58.8797 19.9112 59.5797C19.8112 59.7797 19.8112 59.9797 19.7112 60.1797C19.6112 60.5797 19.4112 61.0797 19.3112 61.4797C19.2112 61.6797 19.2112 61.9797 19.1112 62.1797C19.0112 62.5797 18.9112 62.9797 18.8112 63.3797C18.7112 63.6797 18.7112 63.8797 18.7112 64.1797C18.6112 64.5797 18.6112 64.8797 18.5112 65.2797C18.5112 65.2797 18.5112 65.2797 18.5112 65.3797C18.4112 65.8797 18.4112 66.3797 18.3112 66.8797C18.3112 66.9797 18.3112 67.1797 18.3112 67.2797C18.3112 67.5797 18.2112 67.7797 18.2112 68.0797C18.2112 68.1797 18.2112 68.2797 18.2112 68.3797C18.2112 68.9797 18.2112 69.5797 18.2112 70.1797C18.2112 70.2797 18.2112 70.2797 18.2112 70.3797C18.2112 70.9797 18.2112 71.5797 18.3112 72.1797V72.2797C18.3112 72.4797 18.3112 72.5797 18.4112 72.7797C18.4112 73.1797 18.5112 73.4797 18.6112 73.8797C18.6112 73.9797 18.6112 73.9797 18.6112 74.0797C18.6112 74.2797 18.7112 74.3797 18.7112 74.5797C18.8112 74.8797 18.8112 75.1797 18.9112 75.4797C18.9112 75.5797 18.9112 75.6797 19.0112 75.7797C19.0112 75.8797 19.1112 76.0797 19.1112 76.1797C19.2112 76.4797 19.3112 76.6797 19.3112 76.9797C19.3112 77.0797 19.4112 77.1797 19.4112 77.2797C19.4112 77.3797 19.5112 77.4797 19.5112 77.6797C19.6112 77.8797 19.7112 78.1797 19.8112 78.3797C19.8112 78.4797 19.9112 78.5797 19.9112 78.6797C20.0112 78.7797 20.0112 78.8797 20.1112 78.9797C20.2112 79.1797 20.3112 79.4797 20.4112 79.6797C20.5112 79.7797 20.5112 79.8797 20.6112 79.9797C20.7112 80.0797 20.7112 80.1797 20.8112 80.2797C20.9112 80.4797 21.1112 80.6797 21.2112 80.8797C21.3112 80.9797 21.3112 81.0797 21.4112 81.1797C21.5112 81.2797 21.5112 81.3797 21.6112 81.3797C21.8112 81.5797 21.9112 81.7797 22.1112 81.9797C22.2112 82.0797 22.3112 82.1797 22.3112 82.2797C22.4112 82.3797 22.5112 82.5797 22.7112 82.6797L35.8112 97.4797C35.6112 97.2797 35.4112 96.9797 35.2112 96.7797C35.0112 96.5797 34.9112 96.3797 34.7112 96.1797C34.6112 95.9797 34.4112 95.7797 34.3112 95.6797C34.2112 95.4797 34.0112 95.2797 33.9112 95.0797C33.8112 94.8797 33.7112 94.6797 33.6112 94.4797C33.5112 94.2797 33.4112 94.0797 33.3112 93.7797C33.2112 93.5797 33.1112 93.3797 33.0112 93.1797C32.9112 92.9797 32.8112 92.6797 32.7112 92.4797C32.6112 92.2797 32.5112 92.0797 32.5112 91.7797C32.4112 91.4797 32.3112 91.2797 32.3112 90.9797C32.2112 90.7797 32.2112 90.5797 32.1112 90.2797C32.0112 89.9797 32.0112 89.6797 31.9112 89.3797C31.9112 89.1797 31.8112 88.9797 31.8112 88.6797C31.7112 88.2797 31.7112 87.9797 31.6112 87.5797C31.6112 87.3797 31.5112 87.1797 31.5112 86.9797C31.4112 86.3797 31.4112 85.7797 31.4112 85.1797C31.4112 85.0797 31.4112 84.9797 31.4112 84.9797C31.4112 84.3797 31.4112 83.7797 31.4112 83.1797C31.4112 82.8797 31.4112 82.4797 31.5112 82.1797C31.5112 82.0797 31.5112 81.8797 31.5112 81.7797C31.6112 81.2797 31.6112 80.6797 31.7112 80.1797C31.8112 79.7797 31.8112 79.4797 31.9112 79.0797C32.0112 78.7797 32.0112 78.5797 32.0112 78.2797C32.1112 77.8797 32.2112 77.4797 32.3112 77.0797C32.4112 76.8797 32.4112 76.5797 32.5112 76.3797C32.6112 75.9797 32.7112 75.4797 32.9112 75.0797C33.0112 74.8797 33.0112 74.6797 33.1112 74.3797C33.3112 73.6797 33.5112 73.0797 33.8112 72.3797C34.1112 71.5797 34.5112 70.7797 34.8112 69.9797C34.9112 69.7797 35.0112 69.5797 35.1112 69.3797C35.5112 68.5797 35.8112 67.7797 36.2112 66.9797C36.2112 66.9797 36.2112 66.9797 36.2112 66.8797C36.6112 66.0797 37.1112 65.2797 37.5112 64.4797C37.6112 64.2797 37.7112 64.0797 37.8112 63.8797C38.2112 63.1797 38.7112 62.3797 39.2112 61.6797L39.3112 61.5797C39.7112 60.9797 40.1112 60.3797 40.5112 59.7797C40.6112 59.5797 40.7112 59.4797 40.9112 59.2797C41.2112 58.8797 41.5112 58.3797 41.8112 57.9797C41.9112 57.8797 42.0112 57.7797 42.1112 57.5797C42.7112 56.8797 43.3112 56.0797 43.9112 55.3797C44.0112 55.2797 44.1112 55.0797 44.2112 54.9797C44.8112 54.2797 45.4112 53.5797 46.0112 52.9797C46.2112 52.7797 46.3112 52.6797 46.5112 52.4797C46.9112 52.0797 47.3112 51.5797 47.8112 51.1797C48.0112 50.9797 48.2112 50.7797 48.4112 50.5797C48.8112 50.1797 49.2112 49.7797 49.5112 49.4797C49.7112 49.2797 49.9112 49.0797 50.1112 48.8797C50.5112 48.4797 50.9112 48.0797 51.3112 47.7797C51.5112 47.5797 51.7112 47.4797 51.8112 47.2797C52.4112 46.7797 53.0112 46.2797 53.6112 45.7797C53.6112 45.7797 53.7112 45.7797 53.7112 45.6797C54.3112 45.1797 54.8112 44.7797 55.4112 44.2797C55.6112 44.0797 55.8112 43.9797 56.0112 43.7797C56.4112 43.4797 56.8112 43.1797 57.2112 42.8797C57.4112 42.6797 57.7112 42.5797 57.9112 42.3797C58.3112 42.0797 58.7112 41.8797 59.0112 41.5797C59.3112 41.3797 59.5112 41.2797 59.8112 41.0797C60.2112 40.7797 60.6112 40.5797 61.0112 40.3797C61.3112 40.1797 61.5112 40.0797 61.8112 39.8797C62.2112 39.5797 62.6112 39.3797 63.0112 39.1797C63.2112 39.0797 63.5112 38.8797 63.7112 38.7797C64.2112 38.4797 64.7112 38.1797 65.2112 37.9797C65.4112 37.8797 65.6112 37.7797 65.7112 37.6797C66.4112 37.2797 67.1112 36.9797 67.8112 36.5797C68.0112 36.4797 68.1112 36.4797 68.3112 36.3797C68.9112 36.0797 69.6112 35.7797 70.2112 35.5797C70.4112 35.4797 70.6112 35.3797 70.8112 35.2797C71.7112 34.8797 72.5112 34.5797 73.4112 34.2797C73.7112 34.1797 74.0112 34.0797 74.3112 33.9797C74.6112 33.8797 75.0112 33.7797 75.3112 33.6797C75.6112 33.5797 75.9112 33.4797 76.2112 33.3797C76.5112 33.2797 76.9112 33.1797 77.2112 33.0797C77.4112 33.0797 77.5112 32.9797 77.7112 32.9797C78.4112 32.7797 79.0112 32.6797 79.7112 32.4797C79.9112 32.4797 80.1112 32.3797 80.3112 32.3797C81.1112 32.1797 81.9112 32.0797 82.7112 31.9797C85.0112 31.6797 87.1112 31.5797 89.1112 31.6797C90.1112 31.7797 91.1112 31.8797 92.0112 31.9797C95.2112 32.4797 98.0112 33.6797 100.311 35.2797C101.211 36.1797 102.111 36.9797 102.911 37.8797Z" fill="url(#paint0_linear_83_470)"/>
<path d="M75.9111 0.479768C46.9111 4.37977 14.5111 31.0798 3.61113 60.0798C-7.28887 89.0798 7.31113 109.48 36.3111 105.58C65.3111 101.68 97.7111 74.9798 108.611 45.9798C119.611 16.8798 104.911 -3.42023 75.9111 0.479768ZM91.7111 48.1798C84.3111 67.8798 62.3111 85.9798 42.6111 88.6798C22.9111 91.2798 13.0111 77.4798 20.4111 57.7798C27.8111 38.0798 49.8111 19.9798 69.5111 17.2798C89.2111 14.6798 99.2111 28.4798 91.7111 48.1798Z" fill="url(#paint1_linear_83_470)"/>
<g opacity="0.7">
<path opacity="0.7" d="M74.2111 16.6797C72.7111 16.6797 71.1111 16.7797 69.5111 16.9797C49.8111 19.6797 27.6111 37.8797 20.2111 57.6797C16.6111 67.1797 16.9111 75.6797 21.0111 81.5797C24.5111 86.5797 30.5111 89.2797 38.0111 89.2797C39.5111 89.2797 41.1111 89.1797 42.7111 88.9797C62.4111 86.2797 84.6111 68.0797 92.0111 48.2797C95.6111 38.7797 95.3111 30.2797 91.2111 24.3797C87.8111 19.4797 81.7111 16.6797 74.2111 16.6797ZM91.7111 48.1797C84.3111 67.8797 62.3111 85.9797 42.6111 88.6797C22.9111 91.2797 13.0111 77.4797 20.4111 57.7797C27.8111 38.0797 49.8111 19.9797 69.5111 17.2797C89.2111 14.6797 99.2111 28.4797 91.7111 48.1797Z" fill="url(#paint2_linear_83_470)"/>
<path opacity="0.7" d="M75.9111 0.479768C46.9111 4.37977 14.5111 31.0798 3.61113 60.0798C-7.28887 89.0798 7.31113 109.48 36.3111 105.58C65.3111 101.68 97.7111 74.9798 108.611 45.9798C119.611 16.8798 104.911 -3.42023 75.9111 0.479768ZM108.311 45.8798C97.4111 74.7798 65.1111 101.48 36.2111 105.28C33.9111 105.58 31.6111 105.78 29.4111 105.78C18.6111 105.78 9.91113 101.88 5.01113 94.6798C-0.88887 86.1798 -1.28888 73.9798 3.91112 60.1798C14.8111 31.2798 47.1111 4.57977 76.0111 0.779771C78.3111 0.479771 80.7111 0.279771 82.8111 0.279771C93.6111 0.279771 102.311 4.17976 107.211 11.3798C113.111 19.8798 113.511 32.0798 108.311 45.8798Z" fill="url(#paint3_linear_83_470)"/>
</g>
<path d="M125.311 45.28C125.311 45.08 125.311 44.88 125.311 44.58C125.311 44.38 125.311 44.18 125.311 44.08C125.311 43.38 125.311 42.68 125.311 41.98V41.88C125.311 41.78 125.311 41.78 125.311 41.68C125.311 40.98 125.211 40.28 125.211 39.68C125.211 39.58 125.211 39.48 125.211 39.28C125.211 39.18 125.211 39.08 125.211 39.08C125.211 38.88 125.111 38.68 125.111 38.38C125.011 37.88 125.011 37.28 124.911 36.78C124.911 36.68 124.911 36.58 124.911 36.48C124.911 36.28 124.811 36.08 124.811 35.78C124.711 35.38 124.611 34.88 124.511 34.48C124.511 34.38 124.411 34.18 124.411 34.08C124.311 33.88 124.311 33.68 124.211 33.48C124.111 33.08 124.011 32.68 123.811 32.38C123.811 32.28 123.711 32.08 123.711 31.98C123.611 31.78 123.611 31.58 123.511 31.48C123.411 31.08 123.211 30.78 123.111 30.38C123.011 30.28 123.011 30.08 122.911 29.98C122.811 29.78 122.711 29.68 122.711 29.48C122.511 29.18 122.411 28.78 122.211 28.48C122.111 28.38 122.111 28.18 122.011 27.98C121.911 27.88 121.811 27.68 121.711 27.58C121.511 27.28 121.311 26.98 121.111 26.58C121.011 26.38 120.911 26.28 120.811 26.08C120.711 25.98 120.611 25.88 120.511 25.78C120.311 25.48 120.011 25.18 119.811 24.88C119.711 24.68 119.611 24.58 119.511 24.38C119.311 24.18 119.211 23.98 119.011 23.78L105.711 8.97998C106.011 9.27998 106.311 9.67997 106.611 10.08C106.811 10.38 107.111 10.68 107.311 10.98C107.511 11.28 107.711 11.48 107.911 11.78C108.111 12.08 108.311 12.38 108.511 12.68C108.711 12.98 108.811 13.28 109.011 13.58C109.211 13.88 109.311 14.28 109.511 14.58C109.611 14.88 109.811 15.18 109.911 15.48C110.111 15.88 110.211 16.18 110.311 16.58C110.411 16.88 110.511 17.18 110.711 17.58C110.811 17.98 110.911 18.38 111.111 18.78C111.211 19.08 111.311 19.48 111.411 19.78C111.511 20.18 111.611 20.68 111.711 21.08C111.811 21.38 111.811 21.68 111.911 22.08C112.011 22.58 112.111 23.18 112.111 23.68C112.111 23.98 112.211 24.28 112.211 24.58C112.211 24.68 112.211 24.78 112.211 24.98C112.311 25.68 112.311 26.28 112.311 26.98C112.311 27.08 112.311 27.08 112.311 27.18C112.311 27.88 112.311 28.58 112.311 29.38C112.311 29.58 112.311 29.78 112.311 29.88C112.311 30.48 112.211 31.08 112.211 31.68C112.211 31.88 112.211 32.08 112.111 32.28C112.011 33.08 111.911 33.88 111.811 34.68C111.711 35.18 111.611 35.78 111.511 36.28C111.411 36.68 111.411 37.08 111.311 37.38C111.211 37.98 111.011 38.48 110.911 39.08C110.811 39.48 110.711 39.78 110.611 40.18C110.411 40.78 110.211 41.48 110.011 42.08C109.911 42.38 109.811 42.68 109.711 43.08C109.411 44.08 109.011 44.98 108.711 45.98C108.411 46.78 108.111 47.58 107.711 48.38C107.611 48.58 107.511 48.88 107.411 49.08C107.111 49.68 106.911 50.28 106.611 50.88C106.511 51.08 106.411 51.38 106.311 51.58C105.911 52.38 105.511 53.18 105.111 53.98L105.011 54.08C104.611 54.88 104.211 55.58 103.811 56.28C103.711 56.48 103.511 56.78 103.411 56.98C103.111 57.58 102.711 58.18 102.411 58.78C102.311 58.98 102.111 59.18 102.011 59.48C101.511 60.28 101.011 60.98 100.511 61.78C99.9112 62.68 99.3112 63.58 98.7112 64.48C98.5112 64.68 98.3112 64.98 98.2112 65.18C97.7112 65.78 97.3112 66.48 96.8112 67.08C96.2112 67.88 95.6112 68.58 95.1112 69.28C95.0112 69.38 94.9112 69.48 94.9112 69.58C94.4112 70.18 93.9112 70.78 93.4112 71.48C92.5112 72.48 91.7112 73.48 90.8112 74.48C90.6112 74.68 90.3112 74.98 90.1112 75.18C89.5112 75.88 88.9112 76.48 88.2112 77.18C87.9112 77.48 87.6112 77.78 87.3112 78.08C86.7112 78.68 86.2112 79.18 85.6112 79.68C85.3112 79.98 85.0112 80.28 84.7112 80.58C84.1112 81.18 83.5112 81.68 82.9112 82.28C82.6112 82.48 82.4112 82.78 82.1112 82.98C81.2112 83.78 80.4112 84.48 79.5112 85.18L79.4112 85.28C78.6112 85.98 77.7112 86.68 76.9112 87.28C76.6112 87.48 76.3112 87.78 76.0112 87.98C75.4112 88.48 74.8112 88.88 74.2112 89.28C73.8112 89.58 73.5112 89.78 73.1112 90.08C72.5112 90.48 72.0112 90.88 71.4112 91.28C71.0112 91.58 70.6112 91.78 70.3112 92.08C69.7112 92.48 69.2112 92.78 68.6112 93.18C68.2112 93.38 67.8112 93.68 67.4112 93.88C66.8112 94.28 66.2112 94.58 65.6112 94.98C65.2112 95.18 64.9112 95.38 64.5112 95.58C63.8112 95.98 63.0112 96.38 62.3112 96.78C62.0112 96.88 61.8112 97.08 61.5112 97.18C60.5112 97.68 59.4112 98.28 58.4112 98.78C58.2112 98.88 58.0112 98.98 57.7112 99.08C56.8112 99.48 55.8112 99.98 54.9112 100.28C54.5112 100.48 54.0112 100.68 53.6112 100.78C53.3112 100.88 53.0112 100.98 52.7112 101.08C52.1112 101.28 51.4112 101.58 50.8112 101.78C50.6112 101.88 50.4112 101.98 50.1112 101.98C49.7112 102.18 49.2112 102.28 48.8112 102.48C48.3112 102.68 47.8112 102.78 47.3112 102.98C46.9112 103.08 46.4112 103.28 46.0112 103.38C45.5112 103.48 45.0112 103.68 44.5112 103.78C43.7112 103.98 42.9112 104.18 42.1112 104.38C41.9112 104.38 41.7112 104.48 41.6112 104.48C40.9112 104.58 40.3112 104.78 39.6112 104.88C39.4112 104.88 39.1112 104.98 38.9112 104.98C38.1112 105.08 37.3112 105.28 36.5112 105.38C29.0112 106.38 22.5112 105.78 17.1112 103.78C15.9112 103.38 14.8112 102.88 13.7112 102.28C12.6112 101.68 11.6112 101.08 10.6112 100.38C9.21118 99.38 7.91118 98.18 6.71118 96.88L19.8112 111.68C26.0112 118.58 36.3112 121.98 49.6112 120.18C50.4112 120.08 51.2112 119.98 52.0112 119.78C52.2112 119.78 52.5112 119.68 52.7112 119.68C53.4112 119.58 54.0112 119.38 54.7112 119.28C54.9112 119.28 55.1112 119.18 55.2112 119.18C55.9112 118.98 56.7112 118.88 57.4112 118.68C57.5112 118.68 57.5112 118.68 57.6112 118.58C58.1112 118.48 58.6112 118.28 59.1112 118.18C59.5112 118.08 60.0112 117.98 60.4112 117.78C60.9112 117.58 61.4112 117.48 61.9112 117.28C62.3112 117.18 62.7112 117.08 63.0112 116.88C63.1112 116.88 63.1112 116.88 63.2112 116.78C63.4112 116.68 63.6112 116.58 63.9112 116.58C64.5112 116.38 65.1112 116.08 65.8112 115.88C66.1112 115.78 66.4112 115.68 66.7112 115.58C67.0112 115.48 67.2112 115.38 67.5112 115.28C67.7112 115.18 67.8112 115.08 68.0112 115.08C68.9112 114.68 69.9112 114.28 70.8112 113.88C71.0112 113.78 71.1112 113.78 71.3112 113.68C71.4112 113.68 71.4112 113.58 71.5112 113.58C72.6112 113.08 73.6112 112.58 74.6112 111.98C74.6112 111.98 74.7112 111.98 74.7112 111.88C74.9112 111.78 75.1112 111.68 75.3112 111.48C76.0112 111.08 76.8112 110.68 77.5112 110.28C77.6112 110.18 77.8112 110.18 77.9112 110.08C78.1112 109.98 78.4112 109.78 78.6112 109.68C79.2112 109.28 79.8112 108.98 80.4112 108.58C80.6112 108.48 80.8112 108.38 81.0112 108.28C81.2112 108.18 81.4112 107.98 81.6112 107.88C82.2112 107.48 82.7112 107.18 83.3112 106.78C83.5112 106.58 83.8112 106.48 84.0112 106.28C84.1112 106.18 84.3112 106.08 84.4112 105.98C85.0112 105.58 85.5112 105.18 86.1112 104.78C86.4112 104.58 86.6112 104.38 86.9112 104.28C87.0112 104.18 87.1112 104.18 87.2112 104.08C87.8112 103.68 88.4112 103.18 89.0112 102.78C89.3112 102.58 89.5112 102.38 89.8112 102.18L89.9112 102.08C90.7112 101.38 91.6112 100.78 92.4112 100.08L92.5112 99.98C93.4112 99.28 94.2112 98.48 95.1112 97.78C95.2112 97.78 95.2112 97.68 95.3112 97.68C95.5112 97.48 95.7112 97.28 95.9112 97.08C96.5112 96.58 97.1112 95.98 97.7112 95.48C97.8112 95.38 97.9112 95.28 98.0112 95.18C98.2112 94.98 98.4112 94.78 98.6112 94.58C99.2112 94.08 99.7112 93.48 100.311 92.88C100.511 92.68 100.611 92.58 100.811 92.38C100.911 92.28 101.111 92.08 101.211 91.98C101.811 91.38 102.511 90.68 103.111 89.98C103.311 89.78 103.511 89.58 103.611 89.48C103.711 89.38 103.711 89.38 103.811 89.28C104.711 88.28 105.611 87.28 106.411 86.28C106.511 86.18 106.511 86.18 106.611 86.08C107.111 85.58 107.511 84.98 108.011 84.38C108.111 84.28 108.211 84.18 108.211 84.08C108.711 83.38 109.311 82.68 109.811 81.98C109.811 81.88 109.911 81.88 109.911 81.78C110.411 81.18 110.811 80.48 111.311 79.88C111.511 79.68 111.711 79.38 111.811 79.18C112.411 78.28 113.011 77.38 113.611 76.48C114.111 75.68 114.611 74.98 115.011 74.18C115.111 73.98 115.311 73.78 115.411 73.48C115.811 72.88 116.111 72.28 116.411 71.68C116.511 71.48 116.711 71.18 116.811 70.98C117.211 70.28 117.611 69.48 118.011 68.68C118.011 68.68 118.011 68.58 118.111 68.58C118.511 67.78 118.911 66.98 119.311 66.18C119.411 65.98 119.511 65.68 119.611 65.48C119.911 64.88 120.211 64.28 120.411 63.68C120.511 63.48 120.611 63.18 120.711 62.98C121.011 62.18 121.411 61.38 121.711 60.58C122.111 59.58 122.411 58.58 122.711 57.68C122.811 57.38 122.911 56.98 123.011 56.68C123.211 56.08 123.411 55.38 123.611 54.78C123.711 54.48 123.811 54.08 123.811 53.78C123.911 53.18 124.111 52.58 124.211 52.08C124.311 51.68 124.311 51.28 124.411 50.88C124.511 50.38 124.611 49.78 124.711 49.28V49.18C124.811 48.38 124.911 47.68 125.011 46.88C125.011 46.68 125.011 46.48 125.111 46.28C125.211 45.98 125.211 45.58 125.311 45.28Z" fill="url(#paint4_linear_83_470)"/>
<defs>
<linearGradient id="paint0_linear_83_470" x1="23.3068" y1="80.1347" x2="109.035" y2="-0.917124" gradientUnits="userSpaceOnUse">
<stop offset="0.1075" stop-color="#303030"/>
<stop offset="0.3721" stop-color="#202020"/>
<stop offset="0.6616" stop-color="#141414"/>
<stop offset="0.7483" stop-color="#191919"/>
<stop offset="0.8461" stop-color="#262626"/>
<stop offset="0.949" stop-color="#3D3C3D"/>
<stop offset="0.954" stop-color="#3E3D3E"/>
<stop offset="0.9672" stop-color="#49403C"/>
<stop offset="0.9907" stop-color="#674736"/>
<stop offset="1" stop-color="#754B33"/>
</linearGradient>
<linearGradient id="paint1_linear_83_470" x1="15.2035" y1="18.4959" x2="121.608" y2="108.274" gradientUnits="userSpaceOnUse">
<stop offset="0.00500165" stop-color="#424041"/>
<stop offset="0.2895" stop-color="#3A3939"/>
<stop offset="0.7247" stop-color="#252425"/>
<stop offset="0.998" stop-color="#141414"/>
</linearGradient>
<linearGradient id="paint2_linear_83_470" x1="27.6463" y1="35.0214" x2="89.0955" y2="73.862" gradientUnits="userSpaceOnUse">
<stop stop-color="#FFE6B9" stop-opacity="0"/>
<stop offset="0.3821" stop-color="#FFF3DE" stop-opacity="0.4239"/>
<stop offset="0.7037" stop-color="#FFFCF6" stop-opacity="0.7807"/>
<stop offset="0.9014" stop-color="white"/>
</linearGradient>
<linearGradient id="paint3_linear_83_470" x1="94.4492" y1="81.1949" x2="6.91233" y2="16.8466" gradientUnits="userSpaceOnUse">
<stop stop-color="#FFE6B9" stop-opacity="0"/>
<stop offset="0.3821" stop-color="#FFF3DE" stop-opacity="0.4239"/>
<stop offset="0.7037" stop-color="#FFFCF6" stop-opacity="0.7807"/>
<stop offset="0.9014" stop-color="white"/>
</linearGradient>
<linearGradient id="paint4_linear_83_470" x1="25.2365" y1="118.447" x2="125.928" y2="31.1602" gradientUnits="userSpaceOnUse">
<stop stop-color="#754B33"/>
<stop offset="0.00732196" stop-color="#644432"/>
<stop offset="0.0200968" stop-color="#4D3B31"/>
<stop offset="0.0338501" stop-color="#3D3531"/>
<stop offset="0.0491498" stop-color="#333130"/>
<stop offset="0.0690768" stop-color="#303030"/>
<stop offset="0.1112" stop-color="#282828"/>
<stop offset="0.2133" stop-color="#1D1D1D"/>
<stop offset="0.3569" stop-color="#161616"/>
<stop offset="0.7558" stop-color="#141414"/>
<stop offset="0.8153" stop-color="#191919"/>
<stop offset="0.8825" stop-color="#262626"/>
<stop offset="0.9531" stop-color="#3D3C3D"/>
<stop offset="0.9565" stop-color="#3E3D3E"/>
<stop offset="0.969" stop-color="#49403C"/>
<stop offset="0.9912" stop-color="#674736"/>
<stop offset="1" stop-color="#754B33"/>
</linearGradient>
</defs>
</svg>
