<svg width="180" height="174" viewBox="0 0 180 174" fill="none" xmlns="http://www.w3.org/2000/svg">
<path d="M32.1759 54.4115L50.9931 33.1524C57.026 26.4012 67.081 23.0975 80.0089 24.8212C81.158 24.9648 82.3071 25.1084 83.4563 25.3957C83.7435 25.3957 84.0308 25.5394 84.3181 25.5394C85.3236 25.683 86.1855 25.9703 87.191 26.2576C87.3346 26.2576 87.4782 26.2576 87.6219 26.4012H87.7655C88.1965 26.5449 88.771 26.6885 89.202 26.8322C89.6329 26.9758 90.0638 27.1194 90.4947 27.2631C90.9257 27.4067 91.5002 27.5504 91.9312 27.694C92.3621 27.8377 92.6494 27.9813 93.0803 28.1249H93.224C94.5167 28.5559 95.6659 28.9868 96.9586 29.5614C97.1023 29.5614 97.2459 29.705 97.3896 29.705C97.5332 29.705 97.6769 29.8486 97.9642 29.9923C98.826 30.4232 99.8315 30.7105 100.693 31.1414C100.837 31.2851 100.981 31.2851 101.124 31.4287C101.124 31.4287 101.268 31.4287 101.268 31.5724C102.273 32.0033 103.279 32.5778 104.284 33.1524H104.428C104.572 33.2961 104.859 33.4397 105.003 33.4397C105.721 33.8706 106.439 34.1579 107.157 34.5888C107.301 34.5888 107.445 34.7325 107.588 34.7325C107.875 34.8761 108.019 35.0198 108.306 35.1634C108.881 35.4507 109.456 35.8816 110.03 36.1689C110.174 36.3126 110.461 36.4562 110.605 36.4562C110.748 36.5998 111.036 36.7435 111.179 36.8871C111.754 37.1744 112.328 37.6053 112.759 37.8926C113.047 38.0363 113.19 38.1799 113.478 38.3236C113.621 38.4672 113.765 38.4672 113.908 38.6108C114.483 39.0418 115.058 39.329 115.489 39.76C115.776 39.9036 116.063 40.0473 116.207 40.3345C116.35 40.3345 116.35 40.4782 116.494 40.4782C117.069 40.9091 117.643 41.34 118.218 41.771C118.505 41.9146 118.649 42.2019 118.936 42.3455L119.08 42.4892C119.941 43.0637 120.66 43.782 121.522 44.5002C121.522 44.5002 121.665 44.5002 121.665 44.6438C122.527 45.362 123.389 46.0802 124.251 46.7984L124.394 46.9421C124.538 47.0857 124.825 47.373 124.969 47.5167C125.543 48.0912 126.118 48.5222 126.693 49.0967C126.836 49.2404 126.836 49.2404 126.98 49.384C127.124 49.5277 127.411 49.815 127.554 49.9586C128.129 50.5332 128.704 50.9641 129.135 51.5387C129.278 51.6823 129.422 51.8259 129.565 51.9696C129.709 52.1132 129.853 52.2569 129.996 52.4005C130.571 52.9751 131.146 53.6933 131.864 54.2679C132.007 54.4115 132.151 54.5551 132.438 54.8424L132.582 54.9861C133.444 55.9916 134.306 56.8534 135.168 57.8589L135.311 58.0026C135.455 58.1462 135.455 58.2899 135.598 58.4335C136.46 59.439 137.322 60.5881 138.184 61.5936C138.328 61.7373 138.328 61.8809 138.471 61.8809L138.615 62.0246C139.046 62.5991 139.477 63.3173 140.051 63.8919C140.195 64.1792 140.339 64.3228 140.626 64.6101C141.201 65.472 141.775 66.3338 142.35 67.1957C142.35 67.1957 142.35 67.3393 142.493 67.3393C143.212 68.3448 143.786 69.494 144.504 70.4995C144.648 70.7867 144.792 71.074 145.079 71.3613C145.797 72.5105 146.372 73.6596 146.946 74.8087C146.946 74.8087 146.946 74.8087 146.946 74.9524C147.521 76.1015 148.095 77.2506 148.526 78.3998C148.67 78.6871 148.814 78.9744 148.957 79.2617C149.532 80.4108 149.963 81.5599 150.394 82.7091C150.825 83.7146 151.112 84.5764 151.399 85.5819C151.543 85.8692 151.543 86.1565 151.686 86.4438C151.83 87.0183 152.117 87.7366 152.261 88.3111C152.405 88.5984 152.405 89.0293 152.548 89.3166C152.692 89.8912 152.836 90.4658 152.979 91.0403C153.123 91.4713 153.123 91.7585 153.123 92.1895C153.266 92.764 153.266 93.195 153.41 93.7695C153.41 93.7695 153.41 93.7695 153.41 93.9132C153.554 94.6314 153.554 95.3496 153.697 96.0678C153.697 96.2115 153.697 96.4987 153.697 96.6424C153.697 97.0733 153.841 97.3606 153.841 97.7915C153.841 97.9352 153.841 98.0788 153.841 98.2225C153.841 99.0843 153.841 99.9462 153.841 100.808C153.841 100.952 153.841 100.952 153.841 101.095C153.841 101.957 153.841 102.819 153.697 103.681V103.825C153.697 104.112 153.697 104.255 153.554 104.543C153.554 105.117 153.41 105.548 153.267 106.123C153.267 106.266 153.267 106.266 153.267 106.41C153.267 106.697 153.123 106.841 153.123 107.128C152.979 107.559 152.979 107.99 152.836 108.421C152.836 108.565 152.836 108.708 152.692 108.852C152.692 108.996 152.548 109.283 152.548 109.427C152.405 109.857 152.261 110.145 152.261 110.576C152.261 110.719 152.117 110.863 152.117 111.007C152.117 111.15 151.974 111.294 151.974 111.581C151.83 111.868 151.686 112.299 151.543 112.587C151.543 112.73 151.399 112.874 151.399 113.018C151.256 113.161 151.256 113.305 151.112 113.449C150.968 113.736 150.825 114.167 150.681 114.454C150.537 114.598 150.537 114.741 150.394 114.885C150.25 115.029 150.25 115.172 150.106 115.316C149.963 115.603 149.675 115.89 149.532 116.178C149.388 116.321 149.388 116.465 149.245 116.609C149.101 116.752 149.101 116.896 148.957 116.896C148.67 117.183 148.526 117.471 148.239 117.758C148.095 117.901 147.952 118.045 147.952 118.189C147.808 118.332 147.664 118.62 147.377 118.763L128.56 140.022C128.847 139.735 129.135 139.304 129.422 139.017C129.709 138.73 129.853 138.442 130.14 138.155C130.284 137.868 130.571 137.58 130.715 137.437C130.858 137.15 131.146 136.862 131.289 136.575C131.433 136.288 131.576 136 131.72 135.713C131.864 135.426 132.007 135.139 132.151 134.708C132.295 134.42 132.438 134.133 132.582 133.846C132.726 133.559 132.869 133.128 133.013 132.84C133.157 132.553 133.3 132.266 133.3 131.835C133.444 131.404 133.587 131.117 133.587 130.686C133.731 130.398 133.731 130.111 133.875 129.68C134.018 129.249 134.018 128.818 134.162 128.387C134.162 128.1 134.306 127.813 134.306 127.382C134.449 126.807 134.449 126.376 134.593 125.802C134.593 125.515 134.737 125.227 134.737 124.94C134.88 124.078 134.88 123.216 134.88 122.354C134.88 122.211 134.88 122.067 134.88 122.067C134.88 121.205 134.88 120.343 134.88 119.482C134.88 119.051 134.88 118.476 134.737 118.045C134.737 117.901 134.737 117.614 134.737 117.471C134.593 116.752 134.593 115.89 134.449 115.172C134.306 114.598 134.306 114.167 134.162 113.592C134.018 113.161 134.018 112.874 134.018 112.443C133.875 111.868 133.731 111.294 133.587 110.719C133.444 110.432 133.444 110.001 133.3 109.714C133.157 109.139 133.013 108.421 132.726 107.846C132.582 107.559 132.582 107.272 132.438 106.841C132.151 105.835 131.864 104.974 131.433 103.968C131.002 102.819 130.427 101.67 129.996 100.521C129.853 100.233 129.709 99.9462 129.565 99.6589C128.991 98.5097 128.56 97.3606 127.985 96.2115C127.985 96.2115 127.985 96.2115 127.985 96.0678C127.411 94.9187 126.693 93.7695 126.118 92.6204C125.974 92.3331 125.831 92.0458 125.687 91.7585C125.113 90.753 124.394 89.6039 123.676 88.5984L123.532 88.4548C122.958 87.5929 122.383 86.7311 121.809 85.8692C121.665 85.5819 121.522 85.4383 121.234 85.151C120.803 84.5764 120.372 83.8582 119.941 83.2836C119.798 83.14 119.654 82.9963 119.511 82.7091C118.649 81.7036 117.787 80.5544 116.925 79.5489C116.781 79.4053 116.638 79.118 116.494 78.9744C115.632 77.9689 114.77 76.9634 113.908 76.1015C113.621 75.8142 113.478 75.6706 113.19 75.3833C112.616 74.8087 112.041 74.0905 111.323 73.5159C111.036 73.2287 110.748 72.9414 110.461 72.6541C109.886 72.0795 109.312 71.505 108.881 71.074C108.594 70.7867 108.306 70.4995 108.019 70.2122C107.445 69.6376 106.87 69.063 106.295 68.6321C106.008 68.3448 105.721 68.2012 105.577 67.9139C104.715 67.1957 103.854 66.4775 102.992 65.7593C102.992 65.7593 102.848 65.7593 102.848 65.6156C101.986 64.8974 101.268 64.3228 100.406 63.6046C100.119 63.3173 99.8315 63.1737 99.5442 62.8864C98.9696 62.4555 98.3951 62.0246 97.8205 61.5936C97.5332 61.3063 97.1023 61.1627 96.815 60.8754C96.2404 60.4445 95.6659 60.1572 95.2349 59.7263C94.804 59.439 94.5167 59.2953 94.0858 59.0081C93.5112 58.5771 92.9367 58.2898 92.3621 58.0026C91.9312 57.7153 91.6439 57.5716 91.2129 57.2844C90.6384 56.8534 90.0638 56.5661 89.4892 56.2789C89.202 56.1352 88.771 55.8479 88.4837 55.7043C87.7655 55.2734 87.0473 54.8424 86.3291 54.5552C86.0418 54.4115 85.7545 54.2679 85.6109 54.1242C84.6054 53.5497 83.5999 53.1187 82.5944 52.5441C82.3071 52.4005 82.1635 52.4005 81.8762 52.2569C81.0143 51.8259 80.0088 51.395 79.147 51.1077C78.8597 50.9641 78.5724 50.8205 78.2851 50.6768C76.9923 50.1022 75.8432 49.6713 74.5504 49.2404C74.1195 49.0967 73.6886 48.9531 73.2576 48.8095C72.8267 48.6658 72.2521 48.5222 71.8212 48.3785C71.3903 48.2349 70.9594 48.0912 70.5284 47.9476C70.0975 47.8039 69.5229 47.6603 69.092 47.5167C68.8047 47.5167 68.6611 47.373 68.3738 47.373C67.3683 47.0857 66.5065 46.9421 65.501 46.6548C65.2137 46.6548 64.9264 46.5112 64.6391 46.5112C63.49 46.2239 62.3408 46.0802 61.1917 45.9366C57.8879 45.5057 54.8714 45.362 51.9986 45.5057C50.5621 45.6493 49.1257 45.793 47.8329 45.9366C43.2364 46.6548 39.2144 48.3785 35.9106 50.6768C34.6178 51.9696 33.3251 53.1187 32.1759 54.4115Z" fill="url(#paint0_linear_83_603)"/>
<path d="M70.9593 0.689151C112.616 6.29121 159.156 44.6437 174.813 86.3C190.47 127.956 169.498 157.259 127.842 151.657C86.1854 146.055 39.6452 107.703 23.9882 66.0465C8.18755 24.2465 29.303 -4.9129 70.9593 0.689151ZM48.2638 69.2066C58.8933 97.5042 90.4947 123.503 118.792 127.382C147.09 131.116 161.31 111.294 150.681 82.9963C140.051 54.6987 108.45 28.6994 80.1524 24.8211C51.8548 21.0864 37.4906 40.909 48.2638 69.2066Z" fill="url(#paint1_linear_83_603)"/>
<g opacity="0.7">
<path opacity="0.7" d="M73.4012 23.959C75.5558 23.959 77.8541 24.1026 80.1524 24.3899C108.45 28.2683 140.339 54.4112 150.968 82.8524C156.139 96.4984 155.708 108.708 149.819 117.183C144.791 124.365 136.173 128.243 125.4 128.243C123.245 128.243 120.947 128.1 118.649 127.812C90.351 123.934 58.4624 97.7912 47.8328 69.35C42.6617 55.704 43.0926 43.4944 48.982 35.0194C53.8658 27.981 62.628 23.959 73.4012 23.959ZM48.2638 69.2064C58.8933 97.5039 90.4947 123.503 118.792 127.382C147.09 131.116 161.31 111.294 150.681 82.996C140.051 54.6985 108.45 28.6992 80.1524 24.8208C51.8548 21.0861 37.4906 40.9088 48.2638 69.2064Z" fill="url(#paint2_linear_83_603)"/>
<path opacity="0.7" d="M70.9593 0.689151C112.616 6.29121 159.156 44.6437 174.813 86.3C190.47 127.956 169.498 157.259 127.842 151.657C86.1854 146.055 39.6452 107.703 23.9882 66.0465C8.18755 24.2465 29.303 -4.9129 70.9593 0.689151ZM24.4191 65.9028C40.0762 107.415 86.4727 145.768 127.985 151.226C131.289 151.657 134.593 151.945 137.753 151.945C153.266 151.945 165.763 146.343 172.802 136C181.277 123.791 181.851 106.266 174.382 86.4437C158.725 44.931 112.328 6.5785 70.8156 1.12008C67.5119 0.689155 64.0644 0.40187 61.0479 0.40187C45.5346 0.40187 33.0377 6.00391 25.9992 16.3462C17.5243 28.5558 16.9497 46.0802 24.4191 65.9028Z" fill="url(#paint3_linear_83_603)"/>
</g>
<path d="M3.05176e-05 65.0416C3.05176e-05 64.7543 3.05176e-05 64.467 3.05176e-05 64.0361C3.05176e-05 63.7488 3.05176e-05 63.4615 3.05176e-05 63.3179C3.05176e-05 62.3124 3.05176e-05 61.3069 3.05176e-05 60.3014V60.1578C3.05176e-05 60.0141 3.05176e-05 60.0141 3.05176e-05 59.8705C3.05176e-05 58.865 0.143677 57.8595 0.143677 56.9976C0.143677 56.854 0.143677 56.7104 0.143677 56.4231C0.143677 56.2794 0.143677 56.1358 0.143677 56.1358C0.143677 55.8485 0.287338 55.5612 0.287338 55.1303C0.430969 54.4121 0.430969 53.5502 0.574615 52.832C0.574615 52.6884 0.574615 52.5447 0.574615 52.4011C0.574615 52.1138 0.718246 51.8265 0.718246 51.3956C0.861893 50.821 1.00554 50.1028 1.14917 49.5282C1.14917 49.3846 1.29283 49.0973 1.29283 48.9537C1.43646 48.6664 1.43646 48.3791 1.58011 48.0918C1.72375 47.5172 1.86739 46.9427 2.15466 46.5117C2.15466 46.3681 2.29832 46.0808 2.29832 45.9372C2.44196 45.6499 2.44196 45.3626 2.5856 45.219C2.72925 44.6444 3.01654 44.2135 3.16019 43.6389C3.30383 43.4952 3.30382 43.208 3.44746 43.0643C3.59111 42.777 3.73474 42.6334 3.73474 42.3461C4.02203 41.9152 4.16566 41.3406 4.45296 40.9097C4.5966 40.766 4.59659 40.4788 4.74023 40.1915C4.88388 40.0478 5.02753 39.7605 5.17117 39.6169C5.45845 39.186 5.74574 38.755 6.03304 38.1805C6.17668 37.8932 6.3203 37.7495 6.46394 37.4623C6.60759 37.3186 6.75124 37.175 6.89487 37.0313C7.18216 36.6004 7.61308 36.1695 7.90036 35.7386C8.04401 35.4513 8.18765 35.3076 8.3313 35.0203C8.61858 34.7331 8.76222 34.4458 9.04951 34.1585L28.154 12.8994C27.723 13.3303 27.2921 13.9049 26.8612 14.4795C26.5739 14.9104 26.143 15.3413 25.8557 15.7723C25.5684 16.2032 25.2811 16.4905 24.9938 16.9214C24.7065 17.3523 24.4193 17.7833 24.132 18.2142C23.8447 18.6451 23.701 19.076 23.4138 19.507C23.1265 19.9379 22.9828 20.5125 22.6955 20.9434C22.5519 21.3743 22.2646 21.8052 22.121 22.2362C21.8337 22.8107 21.69 23.2417 21.5464 23.8162C21.4028 24.2472 21.2591 24.6781 20.9718 25.2527C20.8282 25.8272 20.6846 26.4018 20.3973 26.9764C20.2536 27.4073 20.11 27.9819 19.9663 28.4128C19.8227 28.9874 19.6791 29.7056 19.5354 30.2801C19.3918 30.7111 19.3918 31.142 19.2481 31.7166C19.1045 32.4348 18.9608 33.2966 18.9608 34.0148C18.9608 34.4458 18.8172 34.8767 18.8172 35.3076C18.8172 35.4513 18.8172 35.5949 18.8172 35.8822C18.6736 36.8877 18.6736 37.7496 18.6736 38.7551C18.6736 38.8987 18.6736 38.8987 18.6736 39.0423C18.6736 40.0478 18.6736 41.0533 18.6736 42.2025C18.6736 42.4897 18.6736 42.777 18.6736 42.9207C18.6736 43.7825 18.8172 44.6444 18.8172 45.5062C18.8172 45.7935 18.8172 46.0808 18.9608 46.3681C19.1045 47.5172 19.2481 48.6664 19.3918 49.8155C19.5354 50.5337 19.679 51.3956 19.8227 52.1138C19.9663 52.6884 19.9663 53.2629 20.11 53.6939C20.2536 54.5557 20.5409 55.2739 20.6846 56.1358C20.8282 56.7103 20.9718 57.1413 21.1155 57.7159C21.4028 58.5777 21.69 59.5832 21.9773 60.445C22.121 60.876 22.2646 61.3069 22.4083 61.8815C22.8392 63.3179 23.4138 64.6107 23.8447 66.0471C24.2756 67.1963 24.7065 68.3454 25.2811 69.4945C25.4248 69.7818 25.5684 70.2127 25.712 70.5C26.143 71.3619 26.4303 72.2237 26.8612 73.0856C27.0048 73.3729 27.1485 73.8038 27.2921 74.0911C27.8667 75.2402 28.4413 76.3894 29.0158 77.5385L29.1595 77.6821C29.734 78.8313 30.3086 79.8368 30.8832 80.8423C31.0268 81.1296 31.3141 81.5605 31.4577 81.8478C31.8887 82.7096 32.4632 83.5715 32.8942 84.4333C33.0378 84.7206 33.3251 85.0079 33.4687 85.4388C34.1869 86.588 34.9052 87.5935 35.6234 88.7426C36.4852 90.0354 37.3471 91.3282 38.2089 92.621C38.4962 92.9082 38.7835 93.3392 38.9271 93.6265C39.6454 94.4883 40.2199 95.4938 40.9381 96.3557C41.8 97.5048 42.6619 98.5103 43.3801 99.5158C43.5237 99.6595 43.6674 99.8031 43.6674 99.9467C44.3856 100.809 45.1038 101.67 45.822 102.676C47.1148 104.112 48.2639 105.549 49.5567 106.985C49.844 107.272 50.2749 107.703 50.5622 107.991C51.424 108.996 52.2859 109.858 53.2914 110.864C53.7223 111.294 54.1532 111.725 54.5842 112.156C55.446 113.018 56.1642 113.736 57.0261 114.455C57.457 114.886 57.8879 115.316 58.3189 115.747C59.1807 116.609 60.0426 117.327 60.9044 118.189C61.3354 118.477 61.6227 118.908 62.0536 119.195C63.3464 120.344 64.4955 121.349 65.7883 122.355L65.9319 122.499C67.0811 123.504 68.3738 124.51 69.523 125.371C69.9539 125.659 70.3848 126.09 70.8158 126.377C71.6776 127.095 72.5395 127.67 73.4013 128.244C73.9759 128.675 74.4068 128.962 74.9814 129.393C75.8433 129.968 76.5615 130.543 77.4233 131.117C77.9979 131.548 78.5724 131.835 79.0034 132.266C79.8652 132.841 80.5835 133.272 81.4453 133.846C82.0199 134.134 82.5945 134.565 83.169 134.852C84.0309 135.426 84.8927 135.857 85.7546 136.432C86.3292 136.719 86.7601 137.006 87.3346 137.294C88.3401 137.868 89.4893 138.443 90.4948 139.017C90.9257 139.161 91.213 139.448 91.6439 139.592C93.0803 140.31 94.6604 141.172 96.0968 141.89C96.3841 142.034 96.6714 142.178 97.1023 142.321C98.3951 142.896 99.8316 143.614 101.124 144.045C101.699 144.332 102.417 144.62 102.992 144.763C103.423 144.907 103.854 145.05 104.284 145.194C105.146 145.481 106.152 145.912 107.014 146.2C107.301 146.343 107.588 146.487 108.019 146.487C108.594 146.774 109.312 146.918 109.887 147.205C110.605 147.492 111.323 147.636 112.041 147.923C112.616 148.067 113.334 148.354 113.908 148.498C114.627 148.642 115.345 148.929 116.063 149.072C117.212 149.36 118.361 149.647 119.511 149.934C119.798 149.934 120.085 150.078 120.229 150.078C121.234 150.222 122.096 150.509 123.102 150.653C123.389 150.653 123.82 150.796 124.107 150.796C125.256 150.94 126.405 151.227 127.555 151.371C138.328 152.807 147.664 151.945 155.421 149.072C157.145 148.498 158.725 147.78 160.305 146.918C161.885 146.056 163.322 145.194 164.758 144.189C166.769 142.752 168.636 141.028 170.36 139.161L151.543 160.42C142.637 170.332 127.842 175.215 108.737 172.63C107.588 172.486 106.439 172.343 105.29 172.055C105.003 172.055 104.572 171.912 104.284 171.912C103.279 171.768 102.417 171.481 101.412 171.337C101.124 171.337 100.837 171.193 100.693 171.193C99.6879 170.906 98.5388 170.762 97.5333 170.475C97.3896 170.475 97.3896 170.475 97.246 170.332C96.5278 170.188 95.8096 169.901 95.0914 169.757C94.5168 169.613 93.7986 169.47 93.224 169.182C92.5058 168.895 91.7876 168.751 91.0694 168.464C90.4948 168.321 89.9202 168.177 89.4893 167.89C89.3456 167.89 89.3456 167.89 89.202 167.746C88.9147 167.602 88.6274 167.459 88.1965 167.459C87.3347 167.171 86.4728 166.74 85.4673 166.453C85.0364 166.31 84.6054 166.166 84.1745 166.022C83.7436 165.879 83.4563 165.735 83.0254 165.591C82.7381 165.448 82.5944 165.304 82.3072 165.304C81.0144 164.729 79.5779 164.155 78.2852 163.58C77.9979 163.437 77.8542 163.437 77.567 163.293C77.4233 163.293 77.4233 163.149 77.2797 163.149C75.6996 162.431 74.2632 161.713 72.8268 160.851C72.8268 160.851 72.6831 160.851 72.6831 160.707C72.3958 160.564 72.1085 160.42 71.8213 160.133C70.8158 159.558 69.6666 158.984 68.6611 158.409C68.5175 158.266 68.2302 158.266 68.0866 158.122C67.7993 157.978 67.3684 157.691 67.0811 157.547C66.2192 156.973 65.3574 156.542 64.4955 155.967C64.2082 155.824 63.9209 155.68 63.6336 155.536C63.3464 155.393 63.0591 155.105 62.7718 154.962C61.9099 154.387 61.1917 153.956 60.3299 153.382C60.0426 153.094 59.6117 152.951 59.3244 152.664C59.1807 152.52 58.8934 152.376 58.7498 152.233C57.888 151.658 57.1697 151.083 56.3079 150.509C55.877 150.222 55.5897 149.934 55.1587 149.791C55.0151 149.647 54.8715 149.647 54.7278 149.503C53.866 148.929 53.0041 148.211 52.1422 147.636C51.7113 147.349 51.424 147.061 50.9931 146.774L50.8495 146.631C49.7003 145.625 48.4075 144.763 47.2584 143.758L47.1148 143.614C45.822 142.609 44.6729 141.459 43.3801 140.454C43.2364 140.454 43.2364 140.31 43.0928 140.31C42.8055 140.023 42.5182 139.736 42.2309 139.448C41.3691 138.73 40.5072 137.868 39.6454 137.15C39.5017 137.006 39.3581 136.863 39.2144 136.719C38.9271 136.432 38.6399 136.145 38.3526 135.857C37.4907 135.139 36.7725 134.277 35.9106 133.415C35.6234 133.128 35.4797 132.985 35.1924 132.697C35.0488 132.554 34.7615 132.266 34.6179 132.123C33.756 131.261 32.7505 130.255 31.8887 129.25C31.6014 128.962 31.3141 128.675 31.1705 128.532C31.0268 128.388 31.0268 128.388 30.8832 128.244C29.5904 126.808 28.2976 125.371 27.1485 123.935C27.0048 123.791 27.0048 123.791 26.8612 123.648C26.143 122.93 25.5684 122.068 24.8502 121.206C24.7065 121.062 24.5629 120.919 24.5629 120.775C23.8447 119.769 22.9828 118.764 22.2646 117.758C22.2646 117.615 22.121 117.615 22.121 117.471C21.4028 116.609 20.8282 115.604 20.11 114.742C19.8227 114.455 19.5354 114.024 19.3918 113.736C18.5299 112.444 17.6681 111.151 16.8062 109.858C16.088 108.709 15.3698 107.703 14.7952 106.554C14.6516 106.267 14.3643 105.98 14.2206 105.549C13.6461 104.687 13.2151 103.825 12.7842 102.963C12.6406 102.676 12.3533 102.245 12.2096 101.958C11.6351 100.952 11.0605 99.8031 10.4859 98.6539C10.4859 98.6539 10.4859 98.5103 10.3423 98.5103C9.76773 97.3612 9.19315 96.212 8.61858 95.0629C8.47493 94.7756 8.33131 94.3447 8.18767 94.0574C7.75674 93.1955 7.32581 92.3337 7.03853 91.4718C6.89488 91.1845 6.75124 90.7536 6.60759 90.4663C6.17667 89.3172 5.6021 88.168 5.17117 87.0189C4.5966 85.5825 4.16566 84.1461 3.73474 82.8533C3.59109 82.4223 3.44745 81.8478 3.30382 81.4169C3.01653 80.555 2.72926 79.5495 2.44197 78.6877C2.29832 78.2567 2.15466 77.6822 2.15466 77.2512C2.01103 76.3894 1.72375 75.5275 1.58011 74.8093C1.43646 74.2347 1.43646 73.6602 1.29283 73.0856C1.14919 72.3674 1.00554 71.5055 0.861893 70.7873V70.6437C0.718246 69.4945 0.5746 68.489 0.430969 67.3399C0.430969 67.0526 0.430969 66.7653 0.287338 66.478C0.143692 66.0471 0.143677 65.4725 3.05176e-05 65.0416Z" fill="url(#paint4_linear_83_603)"/>
<defs>
<linearGradient id="paint0_linear_83_603" x1="146.522" y1="115.108" x2="23.38" y2="-1.31717" gradientUnits="userSpaceOnUse">
<stop offset="0.1075" stop-color="#303030"/>
<stop offset="0.3721" stop-color="#202020"/>
<stop offset="0.6616" stop-color="#141414"/>
<stop offset="0.7483" stop-color="#191919"/>
<stop offset="0.8461" stop-color="#262626"/>
<stop offset="0.949" stop-color="#3D3C3D"/>
<stop offset="0.954" stop-color="#3E3D3E"/>
<stop offset="0.9672" stop-color="#49403C"/>
<stop offset="0.9907" stop-color="#674736"/>
<stop offset="1" stop-color="#754B33"/>
</linearGradient>
<linearGradient id="paint1_linear_83_603" x1="158.161" y1="26.5679" x2="5.31958" y2="155.528" gradientUnits="userSpaceOnUse">
<stop offset="0.00500165" stop-color="#424041"/>
<stop offset="0.2895" stop-color="#3A3939"/>
<stop offset="0.7247" stop-color="#252425"/>
<stop offset="0.998" stop-color="#141414"/>
</linearGradient>
<linearGradient id="paint2_linear_83_603" x1="140.288" y1="50.3055" x2="52.0209" y2="106.097" gradientUnits="userSpaceOnUse">
<stop stop-color="#FFE6B9" stop-opacity="0"/>
<stop offset="0.3821" stop-color="#FFF3DE" stop-opacity="0.4239"/>
<stop offset="0.7037" stop-color="#FFFCF6" stop-opacity="0.7807"/>
<stop offset="0.9014" stop-color="white"/>
</linearGradient>
<linearGradient id="paint3_linear_83_603" x1="44.3307" y1="116.63" x2="170.071" y2="24.1988" gradientUnits="userSpaceOnUse">
<stop stop-color="#FFE6B9" stop-opacity="0"/>
<stop offset="0.3821" stop-color="#FFF3DE" stop-opacity="0.4239"/>
<stop offset="0.7037" stop-color="#FFFCF6" stop-opacity="0.7807"/>
<stop offset="0.9014" stop-color="white"/>
</linearGradient>
<linearGradient id="paint4_linear_83_603" x1="143.75" y1="170.14" x2="-0.885648" y2="44.7596" gradientUnits="userSpaceOnUse">
<stop stop-color="#754B33"/>
<stop offset="0.00732196" stop-color="#644432"/>
<stop offset="0.0200968" stop-color="#4D3B31"/>
<stop offset="0.0338501" stop-color="#3D3531"/>
<stop offset="0.0491498" stop-color="#333130"/>
<stop offset="0.0690768" stop-color="#303030"/>
<stop offset="0.1112" stop-color="#282828"/>
<stop offset="0.2133" stop-color="#1D1D1D"/>
<stop offset="0.3569" stop-color="#161616"/>
<stop offset="0.7558" stop-color="#141414"/>
<stop offset="0.8153" stop-color="#191919"/>
<stop offset="0.8825" stop-color="#262626"/>
<stop offset="0.9531" stop-color="#3D3C3D"/>
<stop offset="0.9565" stop-color="#3E3D3E"/>
<stop offset="0.969" stop-color="#49403C"/>
<stop offset="0.9912" stop-color="#674736"/>
<stop offset="1" stop-color="#754B33"/>
</linearGradient>
</defs>
</svg>
