<svg width="50" height="50" viewBox="0 0 50 50" fill="none" xmlns="http://www.w3.org/2000/svg">
<circle cx="25" cy="25" r="25" fill="#F1EFF9"/>
<path d="M13 25.9375C13 18.8022 17.3656 13.8414 23.2298 13.0992C29.7195 12.2659 35.5707 16.771 36.4178 23.2422C36.5481 24.1927 36.5481 25.1562 36.4308 26.1067C36.3917 26.4062 36.5481 26.6015 36.6914 26.8099C39.389 30.6639 37.747 35.9503 33.3162 37.5518C31.0618 38.3591 28.8855 38.0726 26.8917 36.7185C26.5398 36.4841 26.2401 36.419 25.8101 36.4451C22.5782 36.6924 19.6722 35.8461 17.1831 33.7498C14.4204 31.4061 13.0391 28.3723 13 25.9375ZM31.0097 36.432C33.9678 36.432 36.4438 34.0102 36.4308 31.0285C36.4178 27.9817 34.1242 25.638 31.0097 25.5859C28.0515 25.5469 25.5755 27.9947 25.5885 30.9764C25.6015 34.0232 27.8951 36.3279 31.0097 36.432ZM24.7545 22.435C23.6989 22.435 22.6434 22.448 21.5748 22.4219C21.2099 22.4089 21.0666 22.5391 21.0144 22.9037C20.858 24.1537 20.845 25.3906 21.0275 26.6406C21.0666 26.9401 21.1708 27.0572 21.4836 27.0572C22.5782 27.0442 23.6598 27.0442 24.7545 27.0572C24.963 27.0572 25.1324 27.0312 25.2627 26.8489C26.0446 25.7552 27.0741 25 28.2991 24.4662C28.4815 24.388 28.5988 24.2969 28.5727 24.0625C28.5206 23.6589 28.4815 23.2552 28.4555 22.8516C28.4294 22.5261 28.273 22.4089 27.9472 22.4219C26.9047 22.448 25.8231 22.435 24.7545 22.435ZM24.7024 20.8204C25.6667 20.8204 26.618 20.8074 27.5823 20.8204C27.9212 20.8204 28.0645 20.7553 27.9342 20.3777C27.3217 18.5548 26.4095 16.9012 25.1585 15.4429C24.8587 15.0914 24.6633 15.0914 24.3635 15.4429C23.1125 16.9012 22.1873 18.5548 21.5748 20.3777C21.4575 20.7423 21.5748 20.8334 21.9266 20.8204C22.8519 20.8074 23.7771 20.8204 24.7024 20.8204ZM17.1701 22.435C16.5707 22.435 15.9712 22.448 15.3717 22.435C15.0199 22.4219 14.8765 22.5782 14.8244 22.8907C14.6029 24.1276 14.6029 25.3776 14.8244 26.6145C14.8896 26.9401 15.0329 27.0703 15.3848 27.0703C16.5576 27.0572 17.7305 27.0572 18.8903 27.0703C19.2421 27.0703 19.3985 26.9661 19.3594 26.5885C19.203 25.3646 19.203 24.1276 19.3594 22.9037C19.3985 22.5782 19.2812 22.4219 18.9294 22.435C18.343 22.448 17.7565 22.435 17.1701 22.435ZM22.6825 34.6092C21.3272 32.8384 20.3759 31.0155 19.8286 28.9973C19.7504 28.7109 19.5549 28.6718 19.3073 28.6848C18.2387 28.6848 17.1571 28.6848 16.0885 28.6848C15.463 28.6848 15.4369 28.7369 15.7236 29.3098C16.7401 31.2629 18.2126 32.7472 20.1674 33.7498C20.9232 34.1404 21.7051 34.4399 22.6825 34.6092ZM26.9438 14.8961C26.9568 15.0002 26.9568 15.0393 26.9699 15.0653C28.2209 16.6929 29.1331 18.4897 29.6804 20.4819C29.7586 20.7944 29.9671 20.8204 30.2408 20.8204C31.3094 20.8074 32.391 20.8204 33.4596 20.8204C34.046 20.8204 34.0851 20.7553 33.7984 20.2215C33.0817 18.8283 32.1173 17.6434 30.8533 16.6929C29.6935 15.8205 28.4164 15.2086 26.9438 14.8961ZM22.6564 14.883C21.8094 15.0393 21.1447 15.2867 20.4932 15.5861C18.343 16.6017 16.7401 18.1772 15.6715 20.2996C15.4369 20.7553 15.489 20.8074 16.0103 20.8074C17.0528 20.8074 18.0954 20.7813 19.1379 20.8204C19.594 20.8334 19.8025 20.6772 19.9198 20.2345C20.3498 18.659 21.0535 17.1877 21.9788 15.8466C22.1742 15.5601 22.3827 15.2737 22.6564 14.883ZM32.404 22.435C32.0131 22.435 31.6221 22.435 31.2312 22.435C29.8889 22.435 30.1365 22.3568 30.2408 23.5547C30.2669 23.8542 30.3841 23.9584 30.6708 23.9323C32.0522 23.8542 33.3553 24.1667 34.5542 24.8568C34.8279 25.013 34.9191 24.9089 34.88 24.6354C34.8149 24.0235 34.8018 23.3985 34.6715 22.7995C34.6064 22.5131 34.45 22.4089 34.1633 22.4089C33.5769 22.448 32.9905 22.435 32.404 22.435ZM24.8457 34.5571C23.9335 32.8123 23.6729 30.9894 24.2072 29.0884C24.2984 28.776 24.2202 28.6848 23.9074 28.6848C23.2559 28.6978 22.6043 28.7109 21.9657 28.6848C21.5357 28.6718 21.4705 28.815 21.6139 29.1926C22.2915 31.2108 23.3601 33.0076 24.8457 34.5571Z" fill="#AD8DE2"/>
<path d="M34.9999 30.6576C34.9601 31.7553 34.3755 32.7755 33.3791 33.5633C32.7945 34.0282 32.1302 34.4156 31.4925 34.8289C31.2401 34.9967 30.9478 35.0742 30.6954 34.9063C29.5395 34.1961 28.2907 33.5891 27.5732 32.3494C26.9887 31.3292 26.7362 30.2702 27.3739 29.1854C28.0382 28.0748 29.4465 27.6874 30.6157 28.2685C30.9079 28.4106 31.1072 28.4106 31.3862 28.2685C33.0868 27.442 35.0132 28.6301 34.9999 30.6576ZM33.3924 30.5027C33.3924 30.0894 33.2064 29.7924 32.8344 29.6374C32.4491 29.4695 32.1302 29.6116 31.8379 29.8699C31.1072 30.4898 30.8947 30.5027 30.2038 29.8957C29.8849 29.6116 29.5262 29.4695 29.1144 29.6762C28.6759 29.9086 28.5564 30.2831 28.6494 30.748C28.7955 31.5229 29.2472 32.1169 29.8982 32.5431C31.2534 33.4212 30.7618 33.4341 32.1302 32.5302C32.8609 32.0394 33.3392 31.3679 33.3924 30.5027Z" fill="#AD8DE2"/>
</svg>
