<svg width="50" height="50" viewBox="0 0 50 50" fill="none" xmlns="http://www.w3.org/2000/svg">
<circle cx="25" cy="25" r="25" fill="#FFE8E8"/>
<path d="M24.6488 19.0158C21.3648 19.0158 18.0808 19.0158 14.7968 19.0158C14.4811 19.0158 14.4811 19.0158 14.4811 19.3341C14.4811 23.3966 14.4811 27.4591 14.4811 31.5217C14.4811 32.1956 14.7422 32.464 15.4099 32.464C15.8166 32.464 16.2294 32.4577 16.6361 32.464C17.0731 32.4702 17.3888 32.7947 17.3888 33.2253C17.3888 33.6559 17.0731 33.9804 16.63 33.9867C16.1383 33.9929 15.6466 33.9929 15.1489 33.9867C13.9712 33.9804 13.0061 32.9882 13 31.7651C13 26.2485 13 20.7382 13 15.2216C13.0061 13.9985 13.9712 13 15.161 13C21.4984 13 27.8297 13 34.161 13C35.3629 13 36.328 13.9922 36.328 15.2341C36.3341 20.7382 36.3341 26.2422 36.328 31.7526C36.328 32.9944 35.3629 33.9804 34.161 33.9867C33.6753 33.9929 33.1897 33.9929 32.7041 33.9867C32.2488 33.9804 31.9332 33.6622 31.9392 33.2128C31.9453 32.7698 32.2488 32.4702 32.7041 32.464C33.1411 32.4577 33.5843 32.464 34.0213 32.464C34.5616 32.4577 34.853 32.1644 34.853 31.6028C34.853 27.4903 34.853 23.3841 34.859 19.2717C34.859 19.0408 34.768 19.0033 34.5737 19.0033C31.2654 19.0158 27.9571 19.0158 24.6488 19.0158ZM24.6671 17.4931C25.4562 17.4931 26.2453 17.4931 27.0345 17.4931C29.5293 17.4931 32.0242 17.4931 34.5191 17.4931C34.8469 17.4931 34.8469 17.4931 34.8469 17.1437C34.8469 16.5571 34.8469 15.9767 34.8469 15.3901C34.8408 14.8222 34.5555 14.5227 34.0031 14.5227C27.775 14.5227 21.553 14.5227 15.3249 14.5227C14.7664 14.5227 14.4872 14.816 14.4811 15.3901C14.4811 15.9767 14.4811 16.5571 14.4811 17.1437C14.4811 17.4869 14.4811 17.4869 14.815 17.4869C18.099 17.4931 21.383 17.4931 24.6671 17.4931Z" fill="#EC5238"/>
<path d="M19.7137 35.4905C19.4345 35.4905 19.1552 35.4905 18.8699 35.4905C18.269 35.4843 17.9291 34.9226 18.1901 34.361C18.4329 33.843 18.6818 33.3251 18.9306 32.8071C18.9974 32.6698 19.0156 32.5388 18.9792 32.3828C18.2083 28.9443 20.339 25.6243 23.7322 25.0565C27.1194 24.4886 30.0696 26.966 30.4581 30.2173C30.8527 33.4686 28.7341 36.3954 25.5837 36.9196C23.8779 37.2004 22.3361 36.7636 20.9824 35.6528C20.8489 35.5404 20.7214 35.4843 20.5514 35.4905C20.2722 35.4968 19.9929 35.4905 19.7137 35.4905ZM24.6853 35.4655C25.3287 35.4406 25.96 35.3095 26.561 35.0162C28.0482 34.2923 29.1833 32.5637 28.9891 30.573C28.8737 29.3998 28.4003 28.4201 27.5444 27.6463C26.6095 26.7976 25.5108 26.4356 24.2725 26.5479C23.1495 26.6478 22.1965 27.1283 21.4498 27.9895C20.3511 29.2688 20.0658 30.7415 20.5332 32.3703C20.606 32.6199 20.5939 32.8633 20.4786 33.0942C20.3632 33.3251 20.254 33.556 20.1447 33.7869C20.0779 33.9179 20.1083 33.9741 20.254 33.9678C20.4968 33.9616 20.7396 33.9803 20.9824 33.9616C21.2677 33.9429 21.4923 34.0427 21.6987 34.2487C22.5303 35.0537 23.5319 35.4343 24.6853 35.4655Z" fill="#EC5238"/>
<path d="M17.3827 22.0111C17.1338 22.0111 16.8849 22.0173 16.63 22.0111C16.2233 21.9986 15.9198 21.6741 15.9137 21.2622C15.9137 20.8254 16.2051 20.5009 16.63 20.4947C17.1277 20.4884 17.6316 20.4884 18.1293 20.4947C18.5361 20.5009 18.8456 20.8317 18.8456 21.2435C18.8517 21.6679 18.5421 22.0049 18.1233 22.0111C17.8805 22.0173 17.6316 22.0111 17.3827 22.0111Z" fill="#EC5238"/>
<path d="M19.1359 22.0111C18.887 22.0111 18.6381 22.0173 18.3832 22.0111C17.9765 21.9986 17.6729 21.6741 17.6669 21.2622C17.6669 20.8254 17.9582 20.5009 18.3832 20.4947C18.8809 20.4884 19.3848 20.4884 19.8825 20.4947C20.2892 20.5009 20.5988 20.8317 20.5988 21.2435C20.6049 21.6679 20.2953 22.0049 19.8764 22.0111C19.6336 22.0173 19.3848 22.0111 19.1359 22.0111Z" fill="#EC5238"/>
<path d="M31.9514 22.0111C31.7025 22.0111 31.4536 22.0173 31.1987 22.0111C30.792 21.9986 30.4824 21.6741 30.4824 21.2622C30.4763 20.8254 30.7738 20.5009 31.1987 20.4947C31.6964 20.4884 32.2003 20.4884 32.698 20.4947C33.1108 20.5009 33.4204 20.8379 33.4204 21.2622C33.4143 21.6741 33.1047 21.9986 32.7041 22.0111C32.4492 22.0173 32.2003 22.0111 31.9514 22.0111Z" fill="#EC5238"/>
<path d="M17.3706 25.0066C17.1278 25.0066 16.8849 25.0128 16.6421 25.0066C16.2233 24.9941 15.9137 24.6696 15.9137 24.2453C15.9137 23.8084 16.2111 23.4902 16.6421 23.4839C17.1399 23.4777 17.6437 23.4777 18.1415 23.4839C18.5421 23.4902 18.8517 23.8272 18.8517 24.239C18.8517 24.6509 18.5482 24.9879 18.1476 25.0004C17.8865 25.0128 17.6316 25.0066 17.3706 25.0066Z" fill="#EC5238"/>
<path d="M24.667 28.7385C25.0555 28.7385 25.3712 29.0443 25.3894 29.4562C25.4015 29.6247 25.4015 29.7994 25.3894 29.9679C25.3773 30.1551 25.444 30.2425 25.6383 30.23C25.7961 30.2175 25.9539 30.2238 26.1178 30.23C26.5367 30.2425 26.8463 30.5607 26.8523 30.9664C26.8584 31.3845 26.5428 31.709 26.1178 31.7277C25.96 31.7339 25.7961 31.7339 25.6383 31.7277C25.4683 31.7215 25.3833 31.7839 25.3955 31.9711C25.4015 32.1396 25.4015 32.3143 25.3955 32.4828C25.3773 32.9072 25.0616 33.2254 24.667 33.2254C24.2725 33.2254 23.9568 32.9072 23.9386 32.4828C23.9325 32.3205 23.9265 32.1521 23.9386 31.9898C23.9507 31.8026 23.884 31.7152 23.6897 31.7277C23.5319 31.7402 23.3741 31.7339 23.2102 31.7277C22.7913 31.709 22.4817 31.397 22.4757 30.9913C22.4696 30.5732 22.7853 30.2487 23.2102 30.2362C23.3619 30.23 23.5137 30.2238 23.6654 30.2362C23.8597 30.2487 23.9447 30.1801 23.9325 29.9679C23.9204 29.7994 23.9265 29.6247 23.9325 29.4562C23.9629 29.0443 24.2785 28.7385 24.667 28.7385Z" fill="#EC5238"/>
</svg>
