<svg width="50" height="50" viewBox="0 0 50 50" fill="none" xmlns="http://www.w3.org/2000/svg">
<circle cx="25" cy="25" r="25" fill="#E7F4FE"/>
<path d="M16.3557 24.4897C16.3557 21.6021 16.3824 18.7211 16.3423 15.8335C16.3222 14.1426 17.5462 12.3346 19.6998 12.0289C19.8536 12.0029 20.0142 12.0029 20.1747 12.0029C22.9838 12.0029 25.7928 11.9964 28.6019 12.0029C30.8158 12.0094 32.5614 13.8239 32.4276 15.9701C32.4009 16.3863 32.0464 16.705 31.6117 16.7115C31.1702 16.7115 30.8091 16.3863 30.7957 15.9505C30.7823 15.5213 30.7355 15.1051 30.5148 14.7279C30.0734 13.9735 29.3912 13.5963 28.515 13.5963C25.7661 13.5833 23.0172 13.5833 20.2683 13.5963C18.9106 13.6028 17.9876 14.5523 17.9876 15.8985C17.9809 19.4885 17.9876 23.0849 17.9876 26.6749C17.9876 28.8146 17.9876 30.9477 17.9876 33.0874C17.9876 33.5231 18.0612 33.9459 18.2953 34.3296C18.7434 35.058 19.4256 35.4092 20.275 35.4092C23.0172 35.4222 25.7594 35.4222 28.5016 35.4092C29.8526 35.4027 30.7689 34.4792 30.7957 33.1459C30.8091 32.5996 31.1435 32.2744 31.6652 32.294C32.0598 32.3135 32.3942 32.6256 32.4276 33.0093C32.6015 35.0905 30.8291 36.996 28.6755 37.0025C25.8263 37.009 22.9771 37.009 20.1279 37.0025C18.0812 36.996 16.3623 35.3181 16.3557 33.3215C16.349 30.3754 16.3557 27.4293 16.3557 24.4897Z" fill="#5EA7DD"/>
<path d="M31.5447 18.2462C34.8822 18.2462 37.5843 20.5745 38.0056 23.7157C38.4604 27.13 35.939 30.3038 32.4477 30.7135C30.6151 30.9281 28.9698 30.4664 27.5318 29.3413C27.4047 29.2437 27.2776 29.1982 27.1238 29.1982C26.5152 29.2047 25.9065 29.2047 25.2912 29.1982C24.5421 29.1982 24.1809 28.6194 24.5087 27.9625C24.7695 27.4357 25.037 26.9089 25.3046 26.3886C25.3781 26.2521 25.3915 26.122 25.3514 25.9659C24.502 22.376 26.8362 18.9616 30.5749 18.3177C30.9227 18.2592 31.2772 18.2332 31.5447 18.2462ZM31.6317 29.1722C32.3607 29.1461 33.0764 29.0031 33.7452 28.6779C35.4106 27.8845 36.5743 26.083 36.3804 24.0929C36.26 22.8507 35.7316 21.8166 34.7685 20.9972C33.7519 20.1322 32.5547 19.755 31.2036 19.8656C29.9462 19.9696 28.8828 20.4704 28.0535 21.3939C26.8563 22.7206 26.5486 24.2555 27.0636 25.9399C27.1439 26.2065 27.1305 26.4537 26.9967 26.6943C26.8696 26.9349 26.7492 27.1756 26.6222 27.4162C26.5486 27.5528 26.5887 27.6048 26.7492 27.6048C27.0235 27.5983 27.3044 27.6113 27.5786 27.5983C27.8729 27.5853 28.107 27.6828 28.321 27.878C29.244 28.7364 30.3542 29.1396 31.6317 29.1722Z" fill="#5EA7DD"/>
<path d="M24.3816 16.7116C23.6058 16.7116 22.83 16.7116 22.0541 16.7116C21.5257 16.7116 21.1713 16.3929 21.1713 15.9182C21.1713 15.4369 21.5124 15.1248 22.0474 15.1248C23.6125 15.1248 25.1709 15.1248 26.7359 15.1248C27.2643 15.1248 27.6188 15.4499 27.6188 15.9117C27.6188 16.3799 27.2643 16.7051 26.7426 16.7051C25.9534 16.7116 25.1642 16.7116 24.3816 16.7116Z" fill="#5EA7DD"/>
<path d="M31.6902 24.1438C31.0884 24.1438 30.4867 24.1438 29.885 24.1438C29.4752 24.1438 29.2003 23.8569 29.2003 23.4294C29.2003 22.9961 29.4649 22.7151 29.8798 22.7151C31.0936 22.7151 32.3022 22.7151 33.516 22.7151C33.9258 22.7151 34.2007 23.0079 34.2007 23.4236C34.2007 23.8452 33.9258 24.1379 33.5212 24.1379C32.9091 24.1438 32.2971 24.1438 31.6902 24.1438Z" fill="#5EA7DD"/>
<path d="M31.6902 27.0012C31.0884 27.0012 30.4867 27.0012 29.885 27.0012C29.4752 27.0012 29.2003 26.7143 29.2003 26.2869C29.2003 25.8536 29.4649 25.5725 29.8798 25.5725C31.0936 25.5725 32.3022 25.5725 33.516 25.5725C33.9258 25.5725 34.2007 25.8653 34.2007 26.281C34.2007 26.7026 33.9258 26.9953 33.5212 26.9953C32.9091 27.0012 32.2971 27.0012 31.6902 27.0012Z" fill="#5EA7DD"/>
<path d="M22.7831 32.3069C22.7831 31.4355 23.4987 30.7461 24.395 30.7461C25.2845 30.7461 26.0002 31.455 25.9935 32.32C25.9868 33.1719 25.2711 33.8678 24.395 33.8678C23.5121 33.8678 22.7831 33.1719 22.7831 32.3069Z" fill="#5EA7DD"/>
</svg>
