<svg width="50" height="50" viewBox="0 0 50 50" fill="none" xmlns="http://www.w3.org/2000/svg">
<circle cx="25" cy="25" r="25" fill="#DFFAEC"/>
<path d="M35.0694 26.286C34.8312 26.5061 34.6509 26.6874 34.4642 26.8557C34.0072 27.27 33.4728 27.4772 32.8548 27.4578C32.6553 27.4513 32.4493 27.4707 32.2497 27.4513C32.0437 27.4383 31.9793 27.529 31.9922 27.7232C32.0051 27.885 31.9986 28.0469 31.9922 28.2087C31.9793 28.6749 31.6703 28.9856 31.2133 28.9921C30.7047 28.9985 30.2026 28.9985 29.694 28.9921C29.224 28.9856 28.9215 28.6684 28.9086 28.1893C28.9022 28.0016 28.9086 27.8203 28.9086 27.6326C28.9086 27.516 28.8571 27.4513 28.7348 27.4578C28.6897 27.4578 28.6382 27.4578 28.5932 27.4578C26.237 27.4578 23.8809 27.4578 21.5183 27.4578C21.1964 27.4578 21.1964 27.4578 21.19 27.775C21.19 27.9368 21.1964 28.0987 21.1835 28.2605C21.1578 28.6684 20.8616 28.9791 20.4496 28.9921C19.9089 29.005 19.3681 29.005 18.8338 28.9921C18.4154 28.9791 18.1192 28.6619 18.0999 28.2411C18.0935 28.0469 18.0935 27.8527 18.0999 27.6584C18.0999 27.516 18.0356 27.4578 17.8939 27.4578C17.7008 27.4642 17.5077 27.4513 17.3145 27.4578C16.6322 27.4901 16.0463 27.27 15.5635 26.7909C14.7781 26.0141 13.9799 25.2502 13.2331 24.428C12.8598 24.0201 12.6795 23.5216 12.6795 22.9649C12.6666 21.6053 12.6666 20.2329 12.6666 18.8669C12.6731 17.5851 13.6966 16.5622 14.9777 16.5557C16.4262 16.5492 17.8746 16.5492 19.3231 16.5622C19.5548 16.5622 19.6321 16.4974 19.6256 16.2579C19.6063 15.8306 19.6192 15.4033 19.6192 14.9696C19.6321 13.7007 20.6492 12.6714 21.9174 12.6714C24.0032 12.6649 26.0825 12.6649 28.1683 12.6714C29.43 12.6778 30.4472 13.7072 30.4601 14.9761C30.4665 15.7206 30.4601 16.4651 30.4601 17.2096C30.4601 17.8375 30.1704 18.1353 29.5459 18.1353C24.8014 18.1353 20.0505 18.1353 15.306 18.1353C15.2095 18.1353 15.1129 18.1289 15.0163 18.1353C14.5593 18.1677 14.2503 18.4526 14.2438 18.9057C14.231 20.2394 14.2374 21.573 14.2438 22.9131C14.2438 23.1202 14.334 23.3015 14.482 23.4569C15.2095 24.182 15.9305 24.907 16.6515 25.6386C16.8124 25.8069 17.0184 25.8717 17.2373 25.8781C17.4304 25.8846 17.6236 25.8652 17.8167 25.8846C18.0356 25.904 18.0999 25.8069 18.0871 25.5997C18.0742 25.4314 18.0806 25.2566 18.0871 25.0883C18.1128 24.661 18.4089 24.3568 18.8274 24.3438C19.3553 24.3309 19.8896 24.3309 20.4175 24.3438C20.8488 24.3568 21.1513 24.6675 21.1707 25.1077C21.1771 25.3019 21.1771 25.4962 21.1707 25.6904C21.1707 25.8199 21.2286 25.8846 21.3573 25.8781C21.4024 25.8781 21.4539 25.8781 21.499 25.8781C23.8487 25.8781 26.1984 25.8781 28.5481 25.8781C28.8829 25.8781 28.8829 25.8781 28.8893 25.548C28.8893 25.3926 28.8829 25.2372 28.8957 25.0883C28.9215 24.661 29.2176 24.3568 29.6425 24.3438C30.1704 24.3309 30.7047 24.3309 31.2326 24.3438C31.6639 24.3568 31.96 24.6675 31.9793 25.1077C31.9858 25.2955 31.9858 25.4767 31.9793 25.6645C31.9793 25.8004 32.018 25.8781 32.1725 25.8781C32.4106 25.8717 32.6553 25.8846 32.8935 25.8717C33.0995 25.8587 33.2797 25.7745 33.4278 25.6256C34.1423 24.9006 34.8569 24.182 35.5779 23.4634C35.7582 23.2886 35.8226 23.0684 35.8226 22.8289C35.8226 21.5536 35.829 20.2717 35.8226 18.9964C35.8226 18.4655 35.5071 18.1483 34.9792 18.1483C34.2325 18.1418 33.4857 18.1483 32.7325 18.1418C32.372 18.1418 32.0501 17.8764 31.9793 17.5397C31.8956 17.1707 32.0695 16.8017 32.3913 16.6399C32.5072 16.5816 32.636 16.5622 32.7647 16.5622C33.5694 16.5622 34.3741 16.5557 35.1788 16.5687C36.3376 16.5816 37.3804 17.6174 37.3869 18.7827C37.3998 20.207 37.3933 21.6312 37.3869 23.0555C37.3869 23.5734 37.1938 24.0395 36.8526 24.428C36.6788 24.6222 36.6144 24.8229 36.6144 25.0818C36.6208 27.9368 36.6208 30.7918 36.6208 33.6533C36.6208 34.8315 35.8483 35.7638 34.696 35.9904C34.5544 36.0163 34.4063 36.0227 34.2647 36.0227C28.1039 36.0227 21.9367 36.0227 15.776 36.0227C14.437 36.0227 13.4263 35.0063 13.4198 33.6598C13.4134 31.8535 13.4198 30.0538 13.4198 28.2476C13.4198 27.8332 13.6902 27.516 14.07 27.4642C14.4627 27.406 14.8103 27.6196 14.952 27.9886C14.997 28.1116 14.9906 28.2411 14.9906 28.3706C14.9906 30.0667 14.9906 31.7694 14.9906 33.4655C14.9906 34.1583 15.2674 34.4431 15.9498 34.4431C21.9947 34.4431 28.0331 34.4431 34.078 34.4431C34.7668 34.4431 35.0436 34.1583 35.0436 33.4655C35.0436 31.1867 35.0436 28.9014 35.0436 26.6226C35.0694 26.519 35.0694 26.4414 35.0694 26.286ZM25.0139 16.5557C26.2113 16.5557 27.4087 16.5492 28.606 16.5622C28.8314 16.5622 28.8957 16.491 28.8893 16.2709C28.8764 15.8824 28.8893 15.494 28.8829 15.1055C28.8764 14.5747 28.5674 14.2575 28.0395 14.2575C26.0375 14.251 24.0354 14.251 22.0333 14.2575C21.5054 14.2575 21.1964 14.5747 21.19 15.1055C21.1835 15.494 21.1964 15.8824 21.1835 16.2709C21.1771 16.491 21.2415 16.5622 21.4668 16.5622C22.6513 16.5492 23.8358 16.5557 25.0139 16.5557Z" fill="#34E28D"/>
</svg>
