<svg width="128" height="96" viewBox="0 0 128 96" fill="none" xmlns="http://www.w3.org/2000/svg">
<path fill-rule="evenodd" clip-rule="evenodd" d="M75.3866 -44.3366C82.3541 -37.8 82.7336 -26.8203 76.2342 -19.8129C64.1495 -6.78336 58.5063 -0.867447 52.8848 5.02547L52.8686 5.04245C47.3263 10.8523 41.7993 16.6461 29.8683 29.5098C23.3689 36.5173 12.4519 36.8989 5.48436 30.3623C-1.48313 23.8256 -1.86262 12.846 4.63675 5.83849C16.7215 -7.191 22.3646 -13.1069 27.9862 -18.9998L28.0023 -19.0167C33.5446 -24.8266 39.0716 -30.6204 51.0027 -43.4842C57.5021 -50.4916 68.4191 -50.8733 75.3866 -44.3366Z" fill="#434343"/>
<path fill-rule="evenodd" clip-rule="evenodd" d="M201.416 -40.6682C208.453 -34.1449 208.899 -23.1206 202.411 -16.0446L153.235 37.5906C146.747 44.6666 135.783 45.1146 128.745 38.5913C121.708 32.068 121.262 21.0437 127.75 13.9677L176.927 -39.6675C183.414 -46.7435 194.379 -47.1915 201.416 -40.6682Z" fill="#434343"/>
<path fill-rule="evenodd" clip-rule="evenodd" d="M128.014 -102.392C134.959 -95.8472 135.432 -84.7492 129.07 -77.6042L111.982 -58.4117C105.62 -51.2667 94.8336 -50.7805 87.889 -57.3256C80.9443 -63.8707 80.4717 -74.9688 86.8333 -82.1137L103.921 -101.306C110.283 -108.451 121.07 -108.937 128.014 -102.392Z" fill="#434343"/>
<path fill-rule="evenodd" clip-rule="evenodd" d="M121.257 45.5189C128.302 51.9744 128.781 62.9204 122.328 69.9675L104.992 88.897C98.5382 95.9441 87.5951 96.4238 80.5498 89.9683C73.5045 83.5128 73.025 72.5668 79.4788 65.5197L96.8145 46.5902C103.268 39.543 114.211 39.0634 121.257 45.5189Z" fill="#434343"/>
<path fill-rule="evenodd" clip-rule="evenodd" d="M183.664 -91.9707C190.657 -85.4647 191.073 -74.4991 184.593 -67.4782L38.8279 90.4487C32.3477 97.4695 21.4255 97.8869 14.4325 91.381C7.43952 84.875 7.02378 73.9094 13.5039 66.8885L159.269 -91.0384C165.749 -98.0593 176.671 -98.4767 183.664 -91.9707Z" fill="#434343"/>
</svg>
